<svg xmlns="http://www.w3.org/2000/svg" xmlns:xlink="http://www.w3.org/1999/xlink" width="1000" zoomAndPan="magnify" viewBox="0 0 750 749.999995" height="1000" preserveAspectRatio="xMidYMid meet" version="1.0"><defs><clipPath id="5c9e508923"><path d="M 39 442 L 48 442 L 48 468 L 39 468 Z M 39 442 " clip-rule="nonzero"/></clipPath><clipPath id="d09b13db24"><path d="M 0 386.332031 L 646.726562 69.871094 L 726.171875 232.226562 L 79.445312 548.6875 Z M 0 386.332031 " clip-rule="nonzero"/></clipPath><clipPath id="bec9b6e28c"><path d="M 0 386.332031 L 646.726562 69.871094 L 726.171875 232.226562 L 79.445312 548.6875 Z M 0 386.332031 " clip-rule="nonzero"/></clipPath><clipPath id="16c8c12075"><path d="M 48 233 L 627 233 L 627 420 L 48 420 Z M 48 233 " clip-rule="nonzero"/></clipPath><clipPath id="773dabf568"><path d="M 0 386.332031 L 646.726562 69.871094 L 726.171875 232.226562 L 79.445312 548.6875 Z M 0 386.332031 " clip-rule="nonzero"/></clipPath><clipPath id="ca04066f35"><path d="M 0 386.332031 L 646.726562 69.871094 L 726.171875 232.226562 L 79.445312 548.6875 Z M 0 386.332031 " clip-rule="nonzero"/></clipPath><clipPath id="c95c054011"><path d="M 641 199 L 662 199 L 662 219 L 641 219 Z M 641 199 " clip-rule="nonzero"/></clipPath><clipPath id="d9e4e0302d"><path d="M 0 386.332031 L 646.726562 69.871094 L 726.171875 232.226562 L 79.445312 548.6875 Z M 0 386.332031 " clip-rule="nonzero"/></clipPath><clipPath id="ccd335129c"><path d="M 0 386.332031 L 646.726562 69.871094 L 726.171875 232.226562 L 79.445312 548.6875 Z M 0 386.332031 " clip-rule="nonzero"/></clipPath><clipPath id="0a87ab5b84"><path d="M 615 168 L 695 168 L 695 247 L 615 247 Z M 615 168 " clip-rule="nonzero"/></clipPath><clipPath id="e3e85d305b"><path d="M 0 386.332031 L 646.726562 69.871094 L 726.171875 232.226562 L 79.445312 548.6875 Z M 0 386.332031 " clip-rule="nonzero"/></clipPath><clipPath id="aeb9598d4b"><path d="M 0 386.332031 L 646.726562 69.871094 L 726.171875 232.226562 L 79.445312 548.6875 Z M 0 386.332031 " clip-rule="nonzero"/></clipPath></defs><g clip-path="url(#5c9e508923)"><g clip-path="url(#d09b13db24)"><g clip-path="url(#bec9b6e28c)"><path fill="#ffffff" d="M 45.574219 467.050781 C 45.132812 467.265625 44.652344 467.40625 44.144531 467.445312 C 41.863281 467.65625 39.832031 465.980469 39.609375 463.707031 C 39.066406 457.921875 39.054688 452.0625 39.589844 446.320312 C 39.796875 444.042969 41.824219 442.351562 44.105469 442.574219 C 46.382812 442.785156 48.074219 444.8125 47.851562 447.097656 C 47.367188 452.328125 47.359375 457.644531 47.863281 462.921875 C 48.054688 464.699219 47.082031 466.308594 45.574219 467.050781 Z M 45.574219 467.050781 " fill-opacity="1" fill-rule="nonzero"/></g></g></g><g clip-path="url(#16c8c12075)"><g clip-path="url(#773dabf568)"><g clip-path="url(#ca04066f35)"><path fill="#ffffff" d="M 497.933594 343.890625 C 495.921875 344.875 493.472656 344.085938 492.433594 342.078125 C 491.382812 340.042969 492.160156 337.542969 494.191406 336.472656 C 503.289062 331.738281 512.242188 326.277344 521.585938 319.796875 C 523.472656 318.476562 526.050781 318.953125 527.371094 320.84375 C 528.675781 322.738281 528.199219 325.316406 526.328125 326.628906 C 516.6875 333.3125 507.4375 338.9375 498.039062 343.835938 C 497.992188 343.859375 497.964844 343.875 497.933594 343.890625 Z M 467.929688 356.585938 C 467.746094 356.675781 467.554688 356.75 467.359375 356.808594 C 456.667969 360.222656 445.675781 362.558594 434.699219 363.769531 C 432.417969 364.015625 430.367188 362.371094 430.121094 360.089844 C 429.871094 357.808594 431.515625 355.757812 433.796875 355.511719 C 444.230469 354.355469 454.691406 352.132812 464.847656 348.902344 C 467.042969 348.207031 469.371094 349.414062 470.066406 351.605469 C 470.695312 353.585938 469.742188 355.699219 467.929688 356.585938 Z M 551.6875 307.148438 C 550.007812 307.96875 547.925781 307.570312 546.660156 306.070312 C 545.195312 304.308594 545.4375 301.675781 547.203125 300.226562 C 554.683594 294.03125 562.417969 287.238281 571.5625 278.847656 C 573.261719 277.300781 575.886719 277.414062 577.429688 279.097656 C 578.980469 280.796875 578.867188 283.425781 577.183594 284.96875 C 567.929688 293.449219 560.089844 300.332031 552.503906 306.613281 C 552.25 306.832031 551.976562 307.003906 551.6875 307.148438 Z M 403.496094 363.433594 C 402.8125 363.769531 402.035156 363.921875 401.214844 363.832031 C 389.652344 362.53125 378.664062 359.8125 368.558594 355.773438 C 366.425781 354.925781 365.390625 352.5 366.25 350.359375 C 367.097656 348.222656 369.519531 347.191406 371.660156 348.050781 C 381.070312 351.828125 391.324219 354.355469 402.148438 355.582031 C 404.433594 355.84375 406.078125 357.894531 405.816406 360.179688 C 405.636719 361.628906 404.730469 362.828125 403.496094 363.433594 Z M 600.023438 263.351562 C 598.4375 264.128906 596.457031 263.828125 595.171875 262.472656 C 593.597656 260.804688 593.671875 258.175781 595.34375 256.601562 L 619.070312 234.210938 C 620.738281 232.636719 623.367188 232.714844 624.9375 234.382812 C 626.511719 236.054688 626.4375 238.683594 624.769531 240.253906 L 601.039062 262.648438 C 600.742188 262.925781 600.390625 263.171875 600.023438 263.351562 Z M 344.066406 338.972656 C 342.632812 339.675781 340.847656 339.507812 339.550781 338.402344 L 338.480469 337.488281 C 332.117188 331.941406 326.460938 325.632812 320.988281 319.515625 C 319.5 317.859375 318.023438 316.199219 316.527344 314.566406 C 314.976562 312.867188 315.105469 310.230469 316.796875 308.703125 C 318.496094 307.15625 321.128906 307.285156 322.65625 308.976562 C 324.167969 310.636719 325.667969 312.308594 327.164062 313.976562 C 332.46875 319.910156 337.953125 326.019531 343.925781 331.230469 L 344.90625 332.074219 C 346.652344 333.566406 346.859375 336.1875 345.386719 337.929688 C 345.019531 338.375 344.566406 338.726562 344.066406 338.972656 Z M 54.234375 419.160156 C 53.152344 419.691406 51.839844 419.746094 50.660156 419.191406 C 48.578125 418.222656 47.671875 415.753906 48.640625 413.671875 C 53.023438 404.207031 59.058594 394.671875 66.53125 385.304688 C 67.96875 383.523438 70.582031 383.226562 72.378906 384.65625 C 74.171875 386.085938 74.453125 388.707031 73.027344 390.503906 C 65.953125 399.335938 60.289062 408.3125 56.171875 417.171875 C 55.765625 418.070312 55.058594 418.757812 54.234375 419.160156 Z M 296.863281 294.234375 C 295.65625 294.820312 294.183594 294.824219 292.9375 294.09375 C 284.164062 288.949219 274.363281 285.800781 263.824219 284.734375 C 261.539062 284.511719 259.878906 282.46875 260.101562 280.183594 C 260.328125 277.898438 262.367188 276.238281 264.652344 276.460938 C 276.398438 277.636719 287.328125 281.160156 297.136719 286.910156 C 299.125 288.078125 299.777344 290.613281 298.613281 292.601562 C 298.199219 293.332031 297.578125 293.882812 296.863281 294.234375 Z M 93.992188 367.953125 C 92.375 368.742188 90.382812 368.414062 89.101562 367.035156 C 87.550781 365.335938 87.664062 362.707031 89.347656 361.164062 C 96.910156 354.210938 105.230469 347.34375 114.796875 340.125 C 116.632812 338.738281 119.234375 339.109375 120.625 340.945312 C 122.011719 342.78125 121.640625 345.382812 119.808594 346.769531 C 110.460938 353.824219 102.347656 360.535156 94.976562 367.300781 C 94.671875 367.5625 94.34375 367.78125 93.992188 367.953125 Z M 233.652344 286.542969 C 233.363281 286.683594 233.042969 286.804688 232.699219 286.878906 C 223.242188 288.914062 213.0625 292.210938 202.460938 296.699219 C 200.351562 297.601562 197.914062 296.597656 197.011719 294.488281 C 196.113281 292.375 197.132812 289.90625 199.222656 289.035156 C 210.3125 284.347656 220.980469 280.886719 230.945312 278.734375 C 233.191406 278.257812 235.394531 279.675781 235.886719 281.914062 C 236.292969 283.832031 235.328125 285.722656 233.652344 286.542969 Z M 145.78125 328.351562 C 143.9375 329.253906 141.671875 328.679688 140.507812 326.921875 C 139.234375 325.011719 139.746094 322.433594 141.65625 321.15625 L 142.382812 320.671875 C 152.050781 314.238281 160.964844 308.703125 169.625 303.800781 C 171.632812 302.6875 174.15625 303.363281 175.285156 305.363281 C 176.417969 307.363281 175.726562 309.894531 173.726562 311.023438 C 165.25 315.835938 156.503906 321.25 146.980469 327.59375 L 146.269531 328.074219 C 146.101562 328.191406 145.933594 328.277344 145.78125 328.351562 Z M 145.78125 328.351562 " fill-opacity="1" fill-rule="nonzero"/></g></g></g><g clip-path="url(#c95c054011)"><g clip-path="url(#d9e4e0302d)"><g clip-path="url(#ccd335129c)"><path fill="#ffffff" d="M 647.574219 218.488281 C 645.988281 219.261719 644.007812 218.964844 642.71875 217.609375 C 641.148438 215.9375 641.222656 213.308594 642.890625 211.738281 L 654.96875 200.34375 C 656.636719 198.769531 659.265625 198.847656 660.839844 200.515625 C 662.410156 202.183594 662.335938 204.8125 660.667969 206.386719 L 648.589844 217.78125 C 648.289062 218.058594 647.953125 218.300781 647.574219 218.488281 Z M 647.574219 218.488281 " fill-opacity="1" fill-rule="nonzero"/></g></g></g><g clip-path="url(#0a87ab5b84)"><g clip-path="url(#e3e85d305b)"><g clip-path="url(#aeb9598d4b)"><path fill="#ffffff" d="M 694.296875 168.917969 C 683.148438 191.488281 672.113281 222.441406 669.78125 246.410156 L 653.046875 207.847656 L 615.539062 188.90625 C 639.597656 187.96875 671.136719 178.757812 694.296875 168.917969 Z M 694.296875 168.917969 " fill-opacity="1" fill-rule="nonzero"/></g></g></g></svg>