<svg width="500" height="500" viewBox="0 0 500 500" fill="none" xmlns="http://www.w3.org/2000/svg">
<g clip-path="url(#clip0_108_2)">
<path d="M368.271 45.1094V45.0469C368.266 45.0573 368.266 45.0677 368.26 45.0781C368.26 45.0677 368.255 45.0573 368.25 45.0469V45.1094C367.401 48.1979 365.437 50.401 362.354 51.7292C365.437 53.0573 367.401 55.2656 368.25 58.349V58.4167C368.255 58.4063 368.26 58.3906 368.26 58.3802C368.266 58.3906 368.271 58.4063 368.271 58.4167V58.349C369.12 55.2656 371.089 53.0573 374.167 51.7292C371.089 50.401 369.12 48.1979 368.271 45.1094Z" fill="#9CA9BA"/>
<path d="M431.766 137.635V137.573C431.76 137.583 431.76 137.594 431.755 137.604C431.755 137.594 431.75 137.583 431.75 137.573V137.635C430.896 140.724 428.932 142.927 425.849 144.255C428.932 145.583 430.896 147.792 431.75 150.875V150.943C431.75 150.932 431.755 150.917 431.755 150.906C431.76 150.917 431.766 150.932 431.766 150.943V150.875C432.615 147.792 434.583 145.583 437.661 144.255C434.583 142.927 432.615 140.724 431.766 137.635Z" fill="#9CA9BA"/>
<path d="M79.9062 217.615V217.552C79.901 217.563 79.901 217.573 79.8958 217.583C79.8958 217.573 79.8906 217.563 79.8906 217.552V217.615C79.0365 220.703 77.0729 222.906 73.9896 224.234C77.0729 225.563 79.0365 227.771 79.8906 230.854V230.922C79.8906 230.911 79.8958 230.901 79.8958 230.885C79.901 230.901 79.9062 230.911 79.9062 230.922V230.854C80.7552 227.771 82.724 225.563 85.8021 224.234C82.724 222.906 80.7552 220.703 79.9062 217.615Z" fill="#9CA9BA"/>
<path d="M107.75 318.12V318.057C107.75 318.068 107.745 318.078 107.745 318.089C107.74 318.078 107.734 318.068 107.734 318.057V318.12C106.885 321.208 104.917 323.412 101.839 324.74C104.917 326.068 106.885 328.276 107.734 331.359V331.427C107.74 331.417 107.74 331.406 107.745 331.396C107.745 331.406 107.75 331.417 107.75 331.427V331.359C108.604 328.276 110.568 326.068 113.646 324.74C110.568 323.412 108.604 321.208 107.75 318.12Z" fill="#9CA9BA"/>
<path d="M51.8385 284.542V284.406C51.8333 284.432 51.8281 284.453 51.8229 284.474C51.8177 284.453 51.8073 284.432 51.8021 284.406V284.542C50.1042 290.708 46.1719 295.125 40.0104 297.781C46.1719 300.432 50.099 304.849 51.8021 311.021V311.151C51.8073 311.13 51.8177 311.109 51.8229 311.083C51.8281 311.109 51.8333 311.13 51.8385 311.151V311.021C53.5417 304.849 57.4687 300.432 63.6302 297.781C57.4687 295.125 53.5417 290.708 51.8385 284.542Z" fill="#9CA9BA"/>
<path d="M443.589 38.4896V38.3594C443.583 38.3802 443.573 38.401 443.568 38.4219C443.563 38.401 443.557 38.3802 443.552 38.3594V38.4896C441.849 44.6615 437.922 49.0729 431.76 51.7292C437.922 54.3854 441.849 58.7969 443.552 64.9688V65.1042C443.557 65.0781 443.563 65.0573 443.568 65.0365C443.573 65.0573 443.583 65.0781 443.589 65.1042V64.9688C445.286 58.7969 449.219 54.3854 455.38 51.7292C449.219 49.0729 445.292 44.6615 443.589 38.4896Z" fill="#9CA9BA"/>
<path d="M498.995 485.922C433.365 426.734 346.464 390.714 251.151 390.714C155.844 390.714 68.9427 426.734 3.31249 485.922" fill="white"/>
<mask id="mask0_108_2" style="mask-type:luminance" maskUnits="userSpaceOnUse" x="1" y="389" width="499" height="99">
<path d="M1.33333 389.333H500V487.125H1.33333V389.333Z" fill="white"/>
</mask>
<g mask="url(#mask0_108_2)">
<path d="M498.995 486.823C498.776 486.823 498.563 486.75 498.391 486.589C482.005 471.818 464.214 458.443 445.505 446.844C426.599 435.115 406.536 425.063 385.875 416.964C342.969 400.141 297.646 391.615 251.151 391.615C204.661 391.615 159.333 400.141 116.432 416.964C95.7708 425.063 75.7083 435.115 56.7969 446.844C38.0937 458.443 20.2969 471.818 3.91666 486.589C3.54687 486.927 2.97916 486.896 2.64583 486.526C2.31249 486.151 2.33853 485.583 2.70833 485.25C19.1719 470.406 37.0521 456.964 55.849 445.307C74.849 433.521 95.0156 423.422 115.776 415.281C158.891 398.38 204.437 389.807 251.156 389.807C297.87 389.807 343.422 398.38 386.536 415.281C407.297 423.422 427.458 433.521 446.458 445.307C465.26 456.964 483.141 470.406 499.599 485.25C499.969 485.583 500 486.151 499.667 486.526C499.49 486.724 499.24 486.823 498.995 486.823Z" fill="#535A63"/>
</g>
<path d="M39.599 457.083V441.969C39.599 441.969 59.6979 420.042 83.8073 406.521C125.198 383.302 146.438 386.099 146.438 386.099L175.885 398.375C175.885 398.375 156.406 425.823 117.042 445.74C88.3281 460.266 64.0469 465.818 64.0469 465.818" fill="white"/>
<path d="M64.0469 466.719C63.6354 466.719 63.2656 466.432 63.1719 466.016C63.0573 465.531 63.3646 465.047 63.849 464.932C64.0885 464.875 88.3594 459.234 116.635 444.927C136.849 434.703 151.677 422.448 160.562 413.969C168.156 406.719 172.818 400.917 174.469 398.755L146.208 386.979C145.401 386.901 140.141 386.51 130.682 388.516C113.505 392.151 95.9479 400.74 84.2448 407.302C61.9375 419.818 42.8333 439.839 40.5 442.323V457.083C40.5 457.578 40.099 457.984 39.599 457.984C39.099 457.984 38.6979 457.578 38.6979 457.083V441.969C38.6979 441.745 38.7812 441.526 38.9323 441.359C39.1354 441.141 59.4062 419.167 83.3594 405.729C95.2187 399.078 113.01 390.38 130.453 386.714C140.969 384.505 146.328 385.167 146.547 385.198C146.63 385.208 146.703 385.229 146.776 385.26L176.229 397.536C176.479 397.641 176.672 397.854 176.75 398.12C176.823 398.385 176.776 398.667 176.615 398.891C176.568 398.958 171.583 405.932 161.844 415.234C152.865 423.807 137.88 436.203 117.448 446.542C88.9583 460.953 64.4896 466.641 64.2448 466.693C64.1771 466.708 64.1094 466.714 64.0417 466.714L64.0469 466.719Z" fill="#535A63"/>
<path d="M51.8229 443.188C51.4583 443.188 51.1198 442.969 50.9792 442.615C50.7969 442.151 51.026 441.625 51.4896 441.443C51.5521 441.422 57.8281 438.938 87.8177 425.083C117.667 411.292 129.115 398.823 129.229 398.698C129.562 398.328 130.13 398.297 130.5 398.63C130.87 398.964 130.901 399.537 130.568 399.906C130.453 400.037 127.609 403.167 120.99 408.057C114.911 412.547 104.354 419.432 88.5729 426.719C58.4792 440.625 52.3906 443.026 52.1458 443.125C52.0417 443.167 51.9271 443.182 51.8177 443.182L51.8229 443.188Z" fill="#535A63"/>
<path d="M318.276 396.797C318.276 396.797 340.344 390.714 343.5 390.714C352.812 390.714 367.542 392.406 401.219 408.031C434.901 423.662 454.984 440.813 454.984 440.813L467 460.125C467 460.125 434.828 464.25 390.729 447.156C346.63 430.068 324.667 411.51 324.667 411.51" fill="white"/>
<path d="M457.5 461.469C454.198 461.469 450.109 461.344 445.328 460.953C432.901 459.938 413.281 456.87 390.401 448C377.797 443.115 358.932 434.932 340.688 423.693C329.755 416.958 324.141 412.245 324.083 412.198C323.703 411.88 323.656 411.307 323.979 410.927C324.297 410.547 324.87 410.495 325.25 410.818C325.302 410.865 330.844 415.516 341.682 422.182C351.682 428.339 368.365 437.521 391.057 446.318C413.734 455.104 433.167 458.146 445.474 459.151C455.557 459.969 462.604 459.599 465.464 459.365L454.297 441.412C452.682 440.057 432.771 423.667 400.839 408.849C385.703 401.828 373.328 397.094 362.995 394.385C353.641 391.927 347.661 391.609 343.5 391.609C341.016 391.609 324.62 395.984 318.516 397.667C318.036 397.797 317.536 397.516 317.406 397.037C317.276 396.552 317.557 396.057 318.036 395.922C320.307 395.297 340.318 389.807 343.5 389.807C353.682 389.807 368.547 391.875 401.599 407.214C419.052 415.307 432.786 423.823 441.24 429.537C450.406 435.729 455.521 440.083 455.573 440.125C455.641 440.182 455.703 440.255 455.75 440.333L467.766 459.646C467.927 459.906 467.943 460.234 467.813 460.51C467.682 460.787 467.417 460.979 467.109 461.021C466.896 461.047 463.505 461.469 457.5 461.469Z" fill="#535A63"/>
<path d="M441.38 441.568C441.349 441.568 441.318 441.568 441.281 441.563C441.031 441.536 416.026 438.708 388.453 426.464C380.5 422.932 368.896 417.255 358.755 410.255C352.656 406.047 350.01 403.385 349.901 403.276C349.552 402.917 349.552 402.349 349.911 401.995C350.266 401.646 350.833 401.651 351.188 402.005C351.292 402.109 361.943 412.714 389.188 424.813C416.49 436.943 441.234 439.745 441.479 439.771C441.974 439.823 442.333 440.271 442.276 440.766C442.224 441.229 441.833 441.568 441.38 441.568Z" fill="#535A63"/>
<path d="M251.365 411.229C246.24 414.703 240.693 415.208 234.719 412.156L216.734 89.8646L233.38 88.9375L251.365 411.229Z" fill="#7A8593"/>
<path d="M242.448 415.073C239.781 415.073 237.063 414.37 234.307 412.964C234.021 412.818 233.833 412.531 233.813 412.208L215.828 89.9167C215.818 89.6823 215.901 89.4479 216.057 89.2656C216.219 89.0885 216.443 88.9792 216.682 88.9687L233.333 88.0364C233.828 88.0052 234.255 88.3906 234.281 88.8854L252.266 411.177C252.286 411.495 252.135 411.797 251.87 411.974C248.828 414.042 245.677 415.073 242.448 415.073ZM235.589 411.583C240.802 414.094 245.672 413.823 250.438 410.76L232.531 89.8906L217.682 90.7187L235.589 411.583Z" fill="#535A63"/>
<path d="M491.302 266.526C491.302 268.161 491.224 269.792 491.062 271.417C490.901 273.047 490.661 274.661 490.344 276.266C490.026 277.87 489.625 279.458 489.151 281.021C488.677 282.589 488.13 284.125 487.5 285.635C486.875 287.151 486.177 288.625 485.406 290.068C484.635 291.51 483.797 292.911 482.891 294.271C481.979 295.63 481.01 296.943 479.969 298.208C478.932 299.474 477.839 300.682 476.682 301.844C475.526 303 474.312 304.094 473.052 305.135C471.786 306.172 470.474 307.146 469.115 308.052C467.755 308.964 466.354 309.802 464.917 310.573C463.474 311.344 461.995 312.042 460.484 312.667C458.974 313.297 457.437 313.844 455.875 314.318C454.307 314.797 452.724 315.193 451.12 315.51C449.516 315.828 447.901 316.068 446.276 316.229C444.646 316.391 443.016 316.469 441.38 316.469C439.745 316.469 438.115 316.391 436.49 316.229C434.859 316.068 433.245 315.828 431.641 315.51C430.042 315.193 428.453 314.797 426.891 314.318C425.328 313.844 423.786 313.297 422.276 312.667C420.766 312.042 419.292 311.344 417.849 310.573C416.406 309.802 415.005 308.964 413.646 308.052C412.286 307.146 410.974 306.172 409.714 305.135C408.448 304.094 407.24 303 406.083 301.844C404.927 300.682 403.828 299.474 402.792 298.208C401.755 296.943 400.781 295.63 399.875 294.271C398.964 292.911 398.125 291.51 397.354 290.068C396.583 288.625 395.885 287.151 395.26 285.635C394.635 284.125 394.083 282.589 393.609 281.021C393.135 279.458 392.74 277.87 392.422 276.266C392.099 274.661 391.859 273.047 391.703 271.417C391.542 269.792 391.464 268.161 391.464 266.526C391.464 264.885 391.542 263.255 391.703 261.63C391.859 260 392.099 258.385 392.422 256.781C392.74 255.177 393.135 253.589 393.609 252.026C394.083 250.458 394.635 248.922 395.26 247.411C395.885 245.896 396.583 244.422 397.354 242.979C398.125 241.536 398.964 240.135 399.875 238.776C400.781 237.417 401.755 236.104 402.792 234.839C403.828 233.573 404.927 232.365 406.083 231.203C407.24 230.047 408.448 228.953 409.714 227.911C410.974 226.875 412.286 225.901 413.646 224.995C415.005 224.083 416.406 223.245 417.849 222.474C419.292 221.703 420.766 221.005 422.276 220.38C423.786 219.75 425.328 219.203 426.891 218.729C428.453 218.25 430.042 217.854 431.641 217.536C433.245 217.219 434.859 216.979 436.49 216.818C438.115 216.656 439.745 216.578 441.38 216.578C443.016 216.578 444.646 216.656 446.276 216.818C447.901 216.979 449.516 217.219 451.12 217.536C452.724 217.854 454.307 218.25 455.875 218.729C457.437 219.203 458.974 219.75 460.484 220.38C461.995 221.005 463.474 221.703 464.917 222.474C466.354 223.245 467.755 224.083 469.115 224.995C470.474 225.901 471.786 226.875 473.052 227.911C474.312 228.953 475.526 230.047 476.682 231.203C477.839 232.365 478.932 233.573 479.969 234.839C481.01 236.104 481.979 237.417 482.891 238.776C483.797 240.135 484.635 241.536 485.406 242.979C486.177 244.422 486.875 245.896 487.5 247.411C488.13 248.922 488.677 250.458 489.151 252.026C489.625 253.589 490.026 255.177 490.344 256.781C490.661 258.385 490.901 260 491.062 261.63C491.224 263.255 491.302 264.885 491.302 266.526Z" fill="#D1DEF0"/>
<path d="M451.219 217.547C451.516 225.052 451.01 232.88 448.51 238.156C442.25 251.38 432.51 255.557 410.245 266.526C401.13 271.016 397.396 279.385 396.167 287.708C399.714 295.271 405.099 301.802 411.745 306.719C413.25 300.432 416.083 293.432 421.38 287.583C434.599 272.964 454.776 286.885 478.115 275.052C484.302 271.911 488.359 266.724 490.974 260.786C488.5 239.172 472.245 221.755 451.219 217.547Z" fill="#ADB9C8"/>
<path d="M111.615 54.7292C111.615 56.0834 111.547 57.4375 111.417 58.7865C111.281 60.1355 111.083 61.474 110.818 62.8073C110.557 64.1355 110.224 65.448 109.833 66.7448C109.437 68.0417 108.984 69.3177 108.464 70.573C107.948 71.823 107.37 73.0469 106.729 74.2448C106.089 75.4375 105.396 76.599 104.641 77.7292C103.891 78.8542 103.083 79.9427 102.224 80.9896C101.365 82.0417 100.453 83.0417 99.4948 84C98.5365 84.9584 97.5365 85.8698 96.4844 86.7292C95.4375 87.5886 94.3542 88.3959 93.224 89.1511C92.099 89.9011 90.9375 90.599 89.7448 91.2396C88.5469 91.8802 87.3229 92.4584 86.0729 92.974C84.8177 93.4948 83.5469 93.9532 82.25 94.3438C80.9531 94.7396 79.6406 95.0677 78.3125 95.3334C76.9792 95.5938 75.6406 95.7969 74.2917 95.9271C72.9427 96.0625 71.5937 96.125 70.2396 96.125C68.8802 96.125 67.5312 96.0625 66.1823 95.9271C64.8333 95.7969 63.4948 95.5938 62.1667 95.3334C60.8385 95.0677 59.526 94.7396 58.2292 94.3438C56.9323 93.9532 55.6562 93.4948 54.4062 92.974C53.151 92.4584 51.9271 91.8802 50.7344 91.2396C49.5365 90.599 48.375 89.9011 47.25 89.1511C46.125 88.3959 45.0365 87.5886 43.9896 86.7292C42.9427 85.8698 41.9375 84.9584 40.9792 84C40.0208 83.0417 39.1146 82.0417 38.2552 80.9896C37.3958 79.9427 36.5885 78.8542 35.8333 77.7292C35.0833 76.599 34.3854 75.4375 33.7448 74.2448C33.1094 73.0469 32.5312 71.823 32.0104 70.573C31.4948 69.3177 31.0365 68.0417 30.6406 66.7448C30.25 65.448 29.9219 64.1355 29.6562 62.8073C29.3906 61.474 29.1927 60.1355 29.0625 58.7865C28.9271 57.4375 28.8594 56.0834 28.8594 54.7292C28.8594 53.375 28.9271 52.0209 29.0625 50.6719C29.1927 49.323 29.3906 47.9844 29.6562 46.6511C29.9219 45.323 30.25 44.0105 30.6406 42.7136C31.0365 41.4167 31.4948 40.1407 32.0104 38.8855C32.5312 37.6355 33.1094 36.4115 33.7448 35.2136C34.3854 34.0209 35.0833 32.8542 35.8333 31.7292C36.5885 30.6042 37.3958 29.5157 38.2552 28.4688C39.1146 27.4167 40.0208 26.4167 40.9792 25.4584C41.9375 24.4948 42.9427 23.5886 43.9896 22.7292C45.0365 21.8698 46.125 21.0625 47.25 20.3073C48.375 19.5521 49.5365 18.8594 50.7344 18.2188C51.9271 17.5782 53.151 17 54.4062 16.4844C55.6562 15.9636 56.9323 15.5052 58.2292 15.1146C59.526 14.7188 60.8385 14.3907 62.1667 14.125C63.4948 13.8594 64.8333 13.6615 66.1823 13.5313C67.5312 13.3959 68.8802 13.3334 70.2396 13.3334C71.5937 13.3334 72.9427 13.3959 74.2917 13.5313C75.6406 13.6615 76.9792 13.8594 78.3125 14.125C79.6406 14.3907 80.9531 14.7188 82.25 15.1146C83.5469 15.5052 84.8177 15.9636 86.0729 16.4844C87.3229 17 88.5469 17.5782 89.7448 18.2188C90.9375 18.8594 92.099 19.5521 93.224 20.3073C94.3542 21.0625 95.4375 21.8698 96.4844 22.7292C97.5365 23.5886 98.5365 24.4948 99.4948 25.4584C100.453 26.4167 101.365 27.4167 102.224 28.4688C103.083 29.5157 103.891 30.6042 104.641 31.7292C105.396 32.8542 106.089 34.0209 106.729 35.2136C107.37 36.4115 107.948 37.6355 108.464 38.8855C108.984 40.1407 109.437 41.4167 109.833 42.7136C110.224 44.0105 110.557 45.323 110.818 46.6511C111.083 47.9844 111.281 49.323 111.417 50.6719C111.547 52.0209 111.615 53.375 111.615 54.7292Z" fill="#E9F3FF"/>
<path d="M7.59374 91.4948C3.91666 91.4948 1.77083 90.6823 1.04166 89.026C-6.91414e-06 86.6615 2.21874 83.276 7.82291 78.6615C12.8073 74.5573 20.3802 69.5937 29.7292 64.3073C30.1615 64.0625 30.7135 64.2187 30.9583 64.651C31.2031 65.0833 31.0521 65.6354 30.6198 65.8802C21.3594 71.1146 13.8698 76.0156 8.96874 80.0521C2.22395 85.6042 2.46353 87.7656 2.6927 88.2969C2.97916 88.9427 5.41145 91.8906 25.5052 86.5937C39.5573 82.8854 57.5417 76.3385 76.1406 68.151C94.7396 59.9687 111.719 51.1354 123.943 43.276C141.432 32.0365 140.901 28.2552 140.62 27.6094C140.391 27.0833 138.974 25.4583 130.464 26.6406C124.271 27.4948 115.719 29.6562 105.74 32.8802C105.26 33.0365 104.755 32.776 104.604 32.3021C104.448 31.8281 104.708 31.3177 105.182 31.1667C115.266 27.9062 123.922 25.724 130.214 24.8542C137.297 23.8698 141.24 24.5365 142.271 26.8802C143.104 28.776 141.865 31.3021 138.479 34.599C135.495 37.5 130.937 40.9323 124.922 44.7969C112.615 52.7031 95.5469 61.5885 76.8646 69.8073C58.1823 78.0312 40.1094 84.6094 25.9687 88.3385C19.0521 90.1615 13.4427 91.2083 9.29166 91.4427C8.6927 91.4792 8.12499 91.4948 7.59374 91.4948Z" fill="#ADB9C8"/>
<path d="M301.833 284.406L135.604 269.906L163.307 238.125L141.516 202.031L307.75 216.536L329.536 252.63L301.833 284.406Z" fill="#E2BEBE"/>
<path d="M301.833 285.312C301.807 285.312 301.781 285.312 301.755 285.307L135.526 270.802C135.187 270.776 134.896 270.557 134.766 270.24C134.641 269.927 134.698 269.568 134.922 269.312L162.193 238.026L140.745 202.495C140.573 202.203 140.573 201.839 140.755 201.552C140.932 201.26 141.26 201.099 141.599 201.13L307.828 215.63C308.115 215.656 308.375 215.818 308.526 216.068L330.312 252.161C330.51 252.5 330.479 252.927 330.219 253.224L302.516 285C302.344 285.198 302.094 285.307 301.833 285.307V285.312ZM137.448 269.156L301.453 283.469L328.422 252.531L307.214 217.391L143.208 203.083L164.078 237.661C164.281 237.995 164.245 238.422 163.984 238.719L137.448 269.156Z" fill="#535A63"/>
<path id="goal-button" d="M156.24 189.24L322.469 174.74L294.766 142.958L316.552 106.865L150.323 121.365L128.536 157.464L156.24 189.24Z" fill="#0070FC"/>
<path d="M156.24 190.146C155.979 190.146 155.734 190.031 155.557 189.839L127.854 158.057C127.599 157.76 127.562 157.333 127.766 157L149.552 120.901C149.698 120.656 149.958 120.495 150.245 120.469L316.474 105.964C316.818 105.932 317.141 106.099 317.323 106.385C317.5 106.677 317.505 107.042 317.328 107.328L295.88 142.865L323.151 174.146C323.375 174.401 323.432 174.76 323.307 175.078C323.182 175.396 322.885 175.609 322.552 175.641L156.318 190.141C156.292 190.146 156.266 190.146 156.24 190.146ZM129.646 157.37L156.615 188.302L320.62 173.995L294.083 143.557C293.828 143.26 293.792 142.833 293.995 142.495L314.865 107.917L150.859 122.229L129.646 157.37Z" fill="#535A63"/>
<path d="M203.787 146.287L206.12 146.058C204.917 142.105 201.276 141.027 198.365 141.313C194.183 141.725 191.23 145.251 191.672 149.73C192.11 154.188 195.625 157.079 199.875 156.662C202.631 156.391 205.537 154.068 206.292 151.079V151.1C206.453 150.568 206.48 149.709 206.459 148.428L198.287 149.23L198.5 151.417L204.105 150.865C203.433 153.162 201.537 154.376 199.667 154.558C196.693 154.85 194.172 152.719 193.855 149.516C193.542 146.329 195.61 143.792 198.584 143.501C200.516 143.308 202.927 143.907 203.787 146.287Z" fill="black"/>
<path d="M208.311 148.072C208.728 152.363 212.483 155.447 216.769 155.025C221.061 154.603 224.165 150.848 223.743 146.561C223.322 142.27 219.546 139.171 215.259 139.593C210.967 140.009 207.889 143.785 208.311 148.072ZM210.519 147.858C210.217 144.801 212.415 142.098 215.473 141.801C218.53 141.499 221.233 143.718 221.535 146.775C221.832 149.832 219.613 152.515 216.556 152.817C213.499 153.119 210.816 150.916 210.519 147.858Z" fill="black"/>
<path d="M228.664 149.783L234.695 149.194L236.486 152.809L238.778 152.585L231.335 138.121L229.762 138.272L225.278 153.913L227.591 153.684L228.664 149.783ZM233.71 147.251L229.252 147.689L230.908 141.611L233.71 147.251Z" fill="black"/>
<path d="M249.564 149.363L242.579 150.051L241.329 137.332L239.189 137.545L240.647 152.405L249.772 151.509L249.564 149.363Z" fill="black"/>
<path d="M258.05 139.569L260.164 139.278C259.518 136.596 257.024 135.642 254.732 135.866C253.013 136.038 251.294 136.892 250.425 138.283C249.945 139.059 249.753 139.934 249.836 140.825C249.847 140.934 249.883 141.059 249.893 141.184V141.163C250.43 144.241 253.195 144.486 255.534 144.491C257.034 144.491 258.581 144.533 258.945 145.632C259.008 145.819 259.044 145.991 259.06 146.137C259.211 147.668 257.56 148.726 255.966 148.882C254.586 149.017 252.836 148.465 252.555 147.096L252.56 147.184L252.508 146.866L250.347 147.122L250.409 147.523C250.945 150.148 253.862 151.236 256.154 151.007C258.826 150.747 261.508 148.814 261.227 145.944C261.201 145.648 261.123 145.293 261.024 144.981C260.222 142.658 257.643 142.377 255.581 142.319C253.909 142.335 252.169 142.293 251.998 140.575C251.956 140.148 252.024 139.71 252.248 139.372C252.784 138.523 253.878 138.075 254.893 137.976C256.169 137.851 257.628 138.283 258.05 139.569Z" fill="black"/>
<path d="M208.304 233.062L207.158 246.042L209.304 246.234L210.45 233.25L214.934 233.646L215.111 231.604L203.976 230.625L203.799 232.667L208.304 233.062Z" fill="black"/>
<path d="M215.333 239.27C214.958 243.561 218.078 247.28 222.369 247.66C226.661 248.035 230.406 244.921 230.781 240.629C231.161 236.337 228.021 232.593 223.729 232.212C219.437 231.837 215.713 234.978 215.333 239.27ZM217.547 239.462C217.812 236.405 220.474 234.155 223.536 234.421C226.593 234.692 228.843 237.374 228.573 240.431C228.302 243.494 225.625 245.718 222.562 245.452C219.505 245.181 217.276 242.525 217.547 239.462Z" fill="black"/>
<path d="M239.597 233.908L234.154 233.429L232.847 248.304L235.014 248.492L235.451 243.544L238.722 243.83C241.931 244.111 243.764 241.789 243.983 239.304C244.201 236.82 242.806 234.19 239.597 233.908ZM238.91 241.705L235.639 241.419L236.134 235.789L239.404 236.075C241.212 236.236 241.977 237.716 241.852 239.138C241.733 240.544 240.717 241.867 238.91 241.705Z" fill="black"/>
<path d="M251.519 236.821L254.285 237.066L254.457 235.087L246.785 234.415L246.613 236.389L249.374 236.634L248.405 247.66L245.644 247.415L245.467 249.415L253.139 250.087L253.311 248.092L250.551 247.847L251.519 236.821Z" fill="black"/>
<path d="M256.421 242.925C256.239 244.987 256.968 246.956 258.119 248.43C259.296 249.904 261.093 250.899 263.114 251.076C266.578 251.378 269.499 249.321 270.645 246.019L268.541 245.836C267.578 248.019 265.552 249.149 263.302 248.951C261.874 248.826 260.505 248.102 259.656 247.045C258.807 245.982 258.374 244.597 258.505 243.107C258.64 241.581 259.328 240.316 260.348 239.42C261.369 238.524 262.833 237.967 264.255 238.092C266.442 238.284 268.166 239.633 268.755 241.935L270.88 242.123C270.328 238.691 267.843 236.264 264.442 235.967C262.427 235.79 260.411 236.555 258.994 237.779C257.598 239.024 256.609 240.821 256.421 242.925Z" fill="black"/>
<path d="M281.196 241.444L283.326 241.548C283.186 238.793 280.91 237.392 278.618 237.194C276.894 237.043 275.05 237.564 273.936 238.772C273.321 239.444 272.972 240.272 272.894 241.163C272.884 241.272 272.894 241.397 272.884 241.527V241.507C272.842 244.626 275.519 245.376 277.816 245.814C279.29 246.095 280.8 246.423 280.957 247.569C280.983 247.767 280.988 247.939 280.977 248.085C280.842 249.616 279.019 250.356 277.425 250.215C276.045 250.09 274.43 249.22 274.404 247.83L274.394 247.913L274.404 247.59L272.233 247.444L272.217 247.85C272.259 250.527 274.925 252.137 277.217 252.335C279.894 252.574 282.889 251.168 283.139 248.298C283.17 248.001 283.154 247.637 283.123 247.309C282.759 244.882 280.274 244.126 278.259 243.694C276.613 243.397 274.91 243.033 275.061 241.314C275.102 240.887 275.243 240.47 275.524 240.173C276.212 239.444 277.368 239.205 278.389 239.293C279.665 239.402 281.014 240.1 281.196 241.444Z" fill="black"/>
</g>
<defs>
<clipPath id="clip0_108_2">
<rect width="500" height="500" fill="white"/>
</clipPath>
</defs>
</svg>
