<svg width="500" height="475" viewBox="0 0 500 475" fill="none" xmlns="http://www.w3.org/2000/svg">
<mask id="mask0_106_45" style="mask-type:luminance" maskUnits="userSpaceOnUse" x="1" y="377" width="499" height="98">
<path d="M1.33331 377.667H500V474.125H1.33331V377.667Z" fill="white"/>
</mask>
<g mask="url(#mask0_106_45)">
<path d="M500.005 473.974C434.026 414.479 346.667 378.266 250.854 378.266C155.036 378.266 67.6771 414.479 1.70312 473.974" fill="#EAEAEA"/>
</g>
<mask id="mask1_106_45" style="mask-type:luminance" maskUnits="userSpaceOnUse" x="312" y="389" width="188" height="86">
<path d="M312 389.667H500V474.125H312V389.667Z" fill="white"/>
</mask>
<g mask="url(#mask1_106_45)">
<path d="M312.635 473.974H500.005C456.219 434.49 403.016 405.255 344.167 390.062C351.427 407.724 356.76 426.479 354.057 439.464C352.12 448.776 335.052 468.219 312.635 473.974Z" fill="#CCCCCC"/>
</g>
<path d="M38.1823 444.99V429.797C38.1823 429.797 58.3854 407.75 82.6198 394.156C124.229 370.818 145.583 373.625 145.583 373.625L175.188 385.964C175.188 385.964 155.604 413.557 116.036 433.578C87.1667 448.188 62.7604 453.766 62.7604 453.766L38.1823 444.99Z" fill="#EAEAEA"/>
<path d="M318.333 384.38C318.333 384.38 340.521 378.26 343.693 378.26C353.057 378.26 367.859 379.964 401.714 395.677C435.573 411.385 455.766 428.625 455.766 428.625L467.844 448.042C467.844 448.042 432.583 456.781 389.708 436.229C356.13 420.135 340.412 409.729 330.083 398.724C323.729 391.948 318.339 384.38 318.339 384.38H318.333Z" fill="#EAEAEA"/>
<path d="M347.448 380.708C347.448 380.708 348.812 392.531 385.885 412.083C429.547 435.115 450.099 429.974 450.099 429.974C450.099 429.974 435.25 415.422 403.734 399.354C372.219 383.286 347.448 380.708 347.448 380.708Z" fill="#CCCCCC"/>
<path d="M42.8854 428.906C42.8854 428.906 67.0261 428.401 100.307 409.583C133.594 390.771 142.354 375.521 142.354 375.521C142.354 375.521 112.042 379.422 83.5417 396.62C55.0417 413.818 42.8854 428.906 42.8854 428.906Z" fill="#CCCCCC"/>
<path d="M369.766 32.1823V32.1198C369.76 32.1302 369.76 32.1406 369.755 32.151C369.755 32.1406 369.75 32.1302 369.745 32.1198V32.1823C368.896 35.2812 366.922 37.5 363.828 38.8333C366.922 40.1614 368.896 42.3802 369.745 45.4791V45.5416C369.75 45.5312 369.755 45.5208 369.755 45.5104C369.76 45.5208 369.766 45.5312 369.766 45.5416V45.4791C370.62 42.3802 372.594 40.1614 375.688 38.8333C372.594 37.5 370.62 35.2812 369.766 32.1823Z" fill="#FCD605"/>
<path d="M433.516 125.083V125.021C433.516 125.031 433.51 125.042 433.51 125.052C433.505 125.042 433.5 125.031 433.5 125.021V125.083C432.646 128.182 430.672 130.401 427.578 131.734C430.672 133.068 432.646 135.281 433.5 138.38V138.443C433.505 138.432 433.505 138.422 433.51 138.411C433.51 138.422 433.516 138.432 433.516 138.443V138.38C434.37 135.281 436.344 133.068 439.438 131.734C436.344 130.401 434.37 128.182 433.516 125.083Z" fill="#FCD605"/>
<path d="M80.2292 205.391V205.323C80.2292 205.333 80.224 205.344 80.224 205.359C80.2188 205.344 80.2136 205.333 80.2136 205.323V205.391C79.3594 208.49 77.3854 210.703 74.2917 212.036C77.3854 213.37 79.3594 215.583 80.2136 218.682V218.75C80.2188 218.74 80.2188 218.729 80.224 218.719C80.224 218.729 80.2292 218.74 80.2292 218.75V218.682C81.0834 215.583 83.0573 213.37 86.1511 212.036C83.0573 210.703 81.0834 208.49 80.2292 205.391Z" fill="#FCD605"/>
<path d="M108.188 306.302V306.24C108.188 306.25 108.182 306.26 108.182 306.271C108.177 306.26 108.172 306.25 108.172 306.24V306.302C107.318 309.401 105.344 311.62 102.25 312.953C105.344 314.281 107.318 316.5 108.172 319.599V319.661C108.177 319.651 108.177 319.641 108.182 319.63C108.182 319.641 108.188 319.651 108.188 319.661V319.599C109.042 316.5 111.016 314.281 114.109 312.953C111.016 311.62 109.042 309.401 108.188 306.302Z" fill="#FCD605"/>
<path d="M52.0521 272.589V272.453C52.0417 272.479 52.0365 272.5 52.0313 272.521C52.026 272.5 52.0208 272.479 52.0156 272.453V272.589C50.3073 278.781 46.3594 283.214 40.1719 285.88C46.3594 288.547 50.3021 292.979 52.0156 299.172V299.307C52.0208 299.281 52.026 299.266 52.0313 299.24C52.0365 299.266 52.0417 299.281 52.0521 299.307V299.172C53.7552 292.979 57.7031 288.547 63.8906 285.88C57.7031 283.214 53.7604 278.781 52.0521 272.589Z" fill="#FCD605"/>
<path d="M445.385 25.5365V25.4062C445.38 25.4271 445.375 25.4479 445.37 25.474C445.365 25.4479 445.359 25.4271 445.354 25.4062V25.5365C443.646 31.7344 439.698 36.1667 433.51 38.8333C439.698 41.4948 443.641 45.9271 445.354 52.125V52.2552C445.359 52.2344 445.365 52.2135 445.37 52.1875C445.375 52.2135 445.38 52.2344 445.385 52.2552V52.125C447.094 45.9271 451.042 41.4948 457.229 38.8333C451.042 36.1667 447.099 31.7344 445.385 25.5365Z" fill="#FCD605"/>
<path d="M252.385 399.786C247.24 403.281 241.667 403.786 235.667 400.719L217.615 77.125L234.328 76.1875L252.385 399.786Z" fill="#001A3F"/>
<path d="M493.297 254.495C493.297 256.141 493.219 257.776 493.057 259.411C492.896 261.047 492.656 262.672 492.333 264.281C492.016 265.891 491.615 267.484 491.141 269.052C490.662 270.625 490.109 272.172 489.479 273.688C488.854 275.203 488.151 276.688 487.38 278.135C486.604 279.583 485.76 280.995 484.849 282.359C483.938 283.724 482.958 285.042 481.917 286.313C480.88 287.583 479.776 288.797 478.615 289.958C477.453 291.12 476.24 292.219 474.969 293.26C473.703 294.307 472.385 295.281 471.021 296.193C469.656 297.109 468.25 297.948 466.802 298.724C465.354 299.5 463.87 300.198 462.354 300.828C460.839 301.458 459.297 302.01 457.724 302.484C456.151 302.964 454.563 303.365 452.953 303.682C451.344 304.005 449.719 304.245 448.089 304.406C446.453 304.568 444.818 304.646 443.172 304.646C441.531 304.646 439.896 304.568 438.26 304.406C436.625 304.245 435.005 304.005 433.396 303.682C431.786 303.365 430.193 302.964 428.625 302.484C427.052 302.01 425.51 301.458 423.99 300.828C422.474 300.198 420.995 299.5 419.547 298.724C418.099 297.948 416.693 297.109 415.328 296.193C413.964 295.281 412.646 294.307 411.375 293.26C410.104 292.219 408.891 291.12 407.729 289.958C406.568 288.797 405.469 287.583 404.427 286.313C403.385 285.042 402.411 283.724 401.5 282.359C400.583 280.995 399.745 279.583 398.969 278.135C398.193 276.688 397.495 275.203 396.865 273.688C396.24 272.172 395.688 270.625 395.208 269.052C394.734 267.484 394.333 265.891 394.016 264.281C393.693 262.672 393.453 261.047 393.292 259.411C393.13 257.776 393.052 256.141 393.052 254.495C393.052 252.854 393.13 251.214 393.292 249.583C393.453 247.948 393.693 246.323 394.016 244.714C394.333 243.104 394.734 241.51 395.208 239.938C395.688 238.37 396.24 236.823 396.865 235.307C397.495 233.786 398.193 232.307 398.969 230.854C399.745 229.406 400.583 228 401.5 226.635C402.411 225.271 403.385 223.953 404.427 222.682C405.469 221.411 406.568 220.198 407.729 219.036C408.891 217.875 410.104 216.771 411.375 215.729C412.646 214.688 413.964 213.714 415.328 212.797C416.693 211.885 418.099 211.042 419.547 210.271C420.995 209.495 422.474 208.792 423.99 208.167C425.51 207.536 427.052 206.984 428.625 206.505C430.193 206.031 431.786 205.63 433.396 205.313C435.005 204.99 436.625 204.75 438.26 204.589C439.896 204.427 441.531 204.349 443.172 204.349C444.818 204.349 446.453 204.427 448.089 204.589C449.719 204.75 451.344 204.99 452.953 205.313C454.563 205.63 456.151 206.031 457.724 206.505C459.297 206.984 460.839 207.536 462.354 208.167C463.87 208.792 465.354 209.495 466.802 210.271C468.25 211.042 469.656 211.885 471.021 212.797C472.385 213.714 473.703 214.688 474.969 215.729C476.24 216.771 477.453 217.875 478.615 219.036C479.776 220.198 480.88 221.411 481.917 222.682C482.958 223.953 483.938 225.271 484.849 226.635C485.76 228 486.604 229.406 487.38 230.854C488.151 232.307 488.854 233.786 489.479 235.307C490.109 236.823 490.662 238.37 491.141 239.938C491.615 241.51 492.016 243.104 492.333 244.714C492.656 246.323 492.896 247.948 493.057 249.583C493.219 251.214 493.297 252.854 493.297 254.495Z" fill="#3772BC"/>
<path d="M453.052 205.323C453.349 212.854 452.844 220.714 450.333 226.016C444.047 239.292 434.266 243.49 411.911 254.495C402.755 259.005 399.005 267.411 397.771 275.766C401.333 283.359 406.74 289.917 413.417 294.854C414.927 288.542 417.776 281.516 423.089 275.641C436.359 260.964 456.62 274.943 480.057 263.057C486.271 259.911 490.339 254.698 492.964 248.734C490.484 227.036 474.162 209.547 453.052 205.323Z" fill="#12B893"/>
<mask id="mask2_106_45" style="mask-type:luminance" maskUnits="userSpaceOnUse" x="28" y="0" width="86" height="85">
<path d="M28 0.125H113.333V84.3333H28V0.125Z" fill="white"/>
</mask>
<g mask="url(#mask2_106_45)">
<path d="M112.068 41.8437C112.068 43.2031 112 44.5625 111.87 45.9166C111.734 47.2708 111.536 48.6145 111.271 49.9531C111.005 51.2864 110.672 52.6041 110.276 53.9062C109.885 55.2135 109.427 56.4895 108.906 57.75C108.385 59.0052 107.802 60.2343 107.161 61.4375C106.521 62.6354 105.823 63.802 105.068 64.9375C104.313 66.0677 103.5 67.1614 102.635 68.2135C101.776 69.2656 100.859 70.2708 99.9011 71.2343C98.9375 72.1979 97.9323 73.1093 96.8802 73.9739C95.8281 74.8385 94.7344 75.6458 93.6042 76.401C92.474 77.1614 91.3073 77.8593 90.1094 78.5C88.9063 79.1406 87.6771 79.7239 86.4219 80.2448C85.1667 80.7656 83.8854 81.2239 82.5834 81.6198C81.2813 82.0156 79.9636 82.3437 78.6302 82.6093C77.2917 82.875 75.9479 83.0729 74.5938 83.2083C73.2396 83.3437 71.8854 83.4062 70.5209 83.4062C69.1615 83.4062 67.8073 83.3437 66.4531 83.2083C65.099 83.0729 63.75 82.875 62.4167 82.6093C61.0834 82.3437 59.7656 82.0156 58.4636 81.6198C57.1615 81.2239 55.8802 80.7656 54.625 80.2448C53.3698 79.7239 52.1406 79.1406 50.9375 78.5C49.7396 77.8593 48.5729 77.1614 47.4427 76.401C46.3125 75.6458 45.2188 74.8385 44.1667 73.9739C43.1146 73.1093 42.1094 72.1979 41.1459 71.2343C40.1823 70.2708 39.2709 69.2656 38.4063 68.2135C37.5469 67.1614 36.7344 66.0677 35.9792 64.9375C35.224 63.802 34.5261 62.6354 33.8854 61.4375C33.2448 60.2343 32.6615 59.0052 32.1406 57.75C31.6198 56.4895 31.1615 55.2135 30.7656 53.9062C30.375 52.6041 30.0417 51.2864 29.7761 49.9531C29.5104 48.6145 29.3125 47.2708 29.1771 45.9166C29.0469 44.5625 28.9792 43.2031 28.9792 41.8437C28.9792 40.4791 29.0469 39.125 29.1771 37.7656C29.3125 36.4114 29.5104 35.0677 29.7761 33.7343C30.0417 32.3958 30.375 31.0781 30.7656 29.776C31.1615 28.4739 31.6198 27.1927 32.1406 25.9375C32.6615 24.677 33.2448 23.4479 33.8854 22.25C34.5261 21.0468 35.224 19.8802 35.9792 18.75C36.7344 17.6198 37.5469 16.526 38.4063 15.4739C39.2709 14.4218 40.1823 13.4114 41.1459 12.4531C42.1094 11.4895 43.1146 10.5729 44.1667 9.7135C45.2188 8.84892 46.3125 8.03642 47.4427 7.28121C48.5729 6.526 49.7396 5.82808 50.9375 5.18225C52.1406 4.54163 53.3698 3.9635 54.625 3.44267C55.8802 2.91663 57.1615 2.4635 58.4636 2.06767C59.7656 1.67183 61.0834 1.3385 62.4167 1.07288C63.75 0.807252 65.099 0.609334 66.4531 0.473918C67.8073 0.343708 69.1615 0.276001 70.5209 0.276001C71.8854 0.276001 73.2396 0.343708 74.5938 0.473918C75.9479 0.609334 77.2917 0.807252 78.6302 1.07288C79.9636 1.3385 81.2813 1.67183 82.5834 2.06767C83.8854 2.4635 85.1667 2.91663 86.4219 3.44267C87.6771 3.9635 88.9063 4.54163 90.1094 5.18225C91.3073 5.82808 92.474 6.526 93.6042 7.28121C94.7344 8.03642 95.8281 8.84892 96.8802 9.7135C97.9323 10.5729 98.9375 11.4895 99.9011 12.4531C100.859 13.4114 101.776 14.4218 102.635 15.4739C103.5 16.526 104.313 17.6198 105.068 18.75C105.823 19.8802 106.521 21.0468 107.161 22.25C107.802 23.4479 108.385 24.677 108.906 25.9375C109.427 27.1927 109.885 28.4739 110.276 29.776C110.672 31.0781 111.005 32.3958 111.271 33.7343C111.536 35.0677 111.734 36.4114 111.87 37.7656C112 39.125 112.068 40.4791 112.068 41.8437Z" fill="#976AB7"/>
</g>
<path d="M7.62499 78.7604C3.93228 78.7604 1.77603 77.9427 1.04686 76.2813C-1.3097e-05 73.9063 2.22915 70.5052 7.85415 65.8698C12.8594 61.75 20.4635 56.7708 29.8489 51.4635C30.2864 51.2135 30.8385 51.3698 31.0833 51.8021C31.3333 52.2396 31.1771 52.7917 30.7396 53.0365C21.4479 58.2969 13.9271 63.2135 9.00519 67.2708C2.23436 72.8438 2.47395 75.0156 2.70311 75.5469C2.98957 76.1979 5.43228 79.1563 25.6094 73.8333C39.7187 70.1146 57.776 63.5417 76.4531 55.3229C95.125 47.1042 112.172 38.2344 124.448 30.3438C142.005 19.0625 141.474 15.2604 141.193 14.6094C140.958 14.0833 139.536 12.4531 130.99 13.6406C124.776 14.5 116.187 16.6667 106.167 19.9063C105.693 20.0625 105.177 19.8021 105.026 19.3229C104.875 18.849 105.135 18.3333 105.609 18.1823C115.729 14.9115 124.422 12.7188 130.745 11.8438C137.854 10.8594 141.812 11.526 142.849 13.8802C143.687 15.7865 142.437 18.3177 139.042 21.6302C136.047 24.5417 131.469 27.9896 125.427 31.8698C113.073 39.8073 95.9375 48.7292 77.1771 56.9844C58.4219 65.2396 40.2708 71.8438 26.0729 75.5885C19.1302 77.4219 13.4948 78.4688 9.32811 78.7031C8.72915 78.7396 8.16145 78.7552 7.62499 78.7552V78.7604Z" fill="#89D5EF"/>
<path d="M303.057 272.453L136.151 257.891L163.969 225.984L142.094 189.74L309 204.307L330.875 240.547L303.057 272.453Z" fill="#2F5584"/>
<path d="M206.133 230.448L205.777 237.158C204.873 237.735 203.922 238.153 202.922 238.413C201.924 238.664 200.845 238.759 199.687 238.698C198.297 238.624 197.05 238.342 195.946 237.85C194.851 237.36 193.928 236.706 193.178 235.889C192.429 235.072 191.867 234.113 191.492 233.012C191.126 231.911 190.977 230.713 191.046 229.419C191.115 228.117 191.382 226.937 191.847 225.88C192.32 224.816 192.96 223.921 193.768 223.194C194.576 222.46 195.534 221.91 196.643 221.544C197.761 221.171 198.998 221.02 200.356 221.092C201.043 221.129 201.676 221.215 202.253 221.349C202.839 221.485 203.378 221.661 203.872 221.88C204.365 222.098 204.816 222.355 205.225 222.649C205.642 222.935 206.026 223.256 206.375 223.611L205.583 224.722C205.462 224.9 205.308 225.008 205.122 225.046C204.935 225.085 204.738 225.03 204.529 224.883C204.328 224.752 204.104 224.6 203.857 224.427C203.617 224.254 203.326 224.09 202.981 223.936C202.645 223.782 202.248 223.644 201.79 223.524C201.331 223.403 200.787 223.326 200.155 223.293C199.213 223.243 198.354 223.354 197.578 223.625C196.803 223.888 196.133 224.293 195.567 224.84C195.001 225.387 194.553 226.06 194.222 226.86C193.892 227.651 193.7 228.55 193.646 229.557C193.591 230.611 193.692 231.566 193.951 232.421C194.211 233.268 194.601 233.998 195.121 234.61C195.65 235.215 196.301 235.69 197.076 236.036C197.859 236.382 198.742 236.581 199.724 236.633C200.108 236.653 200.464 236.652 200.794 236.629C201.132 236.599 201.455 236.552 201.763 236.489C202.07 236.425 202.367 236.34 202.653 236.235C202.947 236.131 203.238 236.014 203.525 235.885L203.716 232.278L201.176 232.143C201.016 232.135 200.887 232.08 200.788 231.979C200.697 231.878 200.656 231.755 200.663 231.612L200.74 230.162L206.133 230.448ZM217.468 227.047C218.363 227.095 219.162 227.285 219.865 227.619C220.577 227.945 221.17 228.397 221.644 228.975C222.126 229.546 222.483 230.225 222.713 231.015C222.944 231.796 223.034 232.666 222.983 233.625C222.933 234.583 222.751 235.443 222.438 236.204C222.125 236.964 221.699 237.602 221.159 238.118C220.627 238.635 219.989 239.022 219.247 239.279C218.512 239.528 217.698 239.629 216.803 239.582C215.9 239.534 215.093 239.347 214.381 239.021C213.678 238.687 213.085 238.235 212.603 237.665C212.12 237.094 211.76 236.414 211.521 235.624C211.291 234.835 211.201 233.961 211.252 233.002C211.303 232.044 211.484 231.188 211.797 230.436C212.117 229.676 212.548 229.038 213.088 228.521C213.628 227.997 214.266 227.611 215 227.361C215.743 227.104 216.565 226.999 217.468 227.047ZM216.9 237.76C218.05 237.821 218.929 237.479 219.538 236.735C220.146 235.99 220.488 234.914 220.562 233.508C220.637 232.102 220.411 230.997 219.885 230.192C219.359 229.379 218.521 228.942 217.371 228.881C216.204 228.819 215.313 229.164 214.696 229.917C214.088 230.661 213.746 231.737 213.672 233.143C213.597 234.549 213.823 235.654 214.349 236.459C214.883 237.265 215.733 237.698 216.9 237.76ZM235.213 234.971C234.261 234.952 233.45 234.985 232.781 235.07C232.112 235.146 231.564 235.27 231.139 235.439C230.713 235.609 230.402 235.821 230.204 236.075C230.006 236.321 229.899 236.603 229.882 236.923C229.866 237.226 229.9 237.493 229.984 237.721C230.077 237.943 230.203 238.13 230.363 238.282C230.532 238.427 230.73 238.538 230.958 238.614C231.187 238.69 231.437 238.736 231.708 238.75C232.068 238.769 232.397 238.751 232.696 238.694C233.004 238.639 233.293 238.554 233.563 238.44C233.834 238.318 234.094 238.168 234.344 237.989C234.594 237.81 234.841 237.603 235.086 237.367L235.213 234.971ZM228.628 229.538C229.341 228.927 230.102 228.483 230.91 228.205C231.725 227.928 232.609 227.815 233.559 227.865C234.254 227.902 234.863 228.05 235.386 228.31C235.91 228.562 236.344 228.902 236.69 229.329C237.036 229.756 237.286 230.258 237.44 230.835C237.601 231.412 237.664 232.044 237.627 232.731L237.215 240.496L236.173 240.441C235.941 240.429 235.767 240.384 235.651 240.305C235.536 240.219 235.447 240.07 235.387 239.859L235.192 238.779C234.865 239.05 234.544 239.289 234.228 239.497C233.913 239.696 233.584 239.867 233.24 240.009C232.904 240.143 232.546 240.241 232.167 240.301C231.787 240.361 231.369 240.379 230.914 240.354C230.435 240.329 229.987 240.241 229.57 240.091C229.162 239.933 228.809 239.71 228.512 239.422C228.215 239.134 227.985 238.781 227.823 238.364C227.669 237.947 227.606 237.467 227.635 236.924C227.661 236.445 227.813 235.992 228.092 235.566C228.379 235.133 228.824 234.756 229.426 234.435C230.035 234.115 230.818 233.868 231.772 233.694C232.735 233.521 233.908 233.455 235.291 233.497L235.339 232.61C235.387 231.691 235.228 230.994 234.861 230.518C234.493 230.042 233.93 229.783 233.171 229.743C232.66 229.716 232.225 229.757 231.867 229.866C231.517 229.976 231.21 230.104 230.945 230.25C230.69 230.388 230.463 230.517 230.264 230.634C230.074 230.752 229.878 230.806 229.679 230.795C229.519 230.787 229.381 230.736 229.266 230.641C229.159 230.548 229.073 230.439 229.007 230.315L228.628 229.538ZM246.794 223.268L245.856 240.955L243.507 240.83L244.445 223.143L246.794 223.268ZM260.021 231.6C259.952 231.701 259.88 231.773 259.806 231.817C259.732 231.853 259.639 231.868 259.527 231.862C259.399 231.855 259.258 231.804 259.102 231.708C258.955 231.612 258.773 231.506 258.555 231.39C258.344 231.275 258.094 231.165 257.803 231.062C257.512 230.958 257.163 230.896 256.755 230.874C256.42 230.856 256.11 230.884 255.826 230.957C255.55 231.022 255.312 231.126 255.112 231.268C254.913 231.401 254.756 231.569 254.641 231.771C254.526 231.965 254.463 232.178 254.451 232.41C254.435 232.714 254.509 232.97 254.674 233.179C254.847 233.388 255.074 233.573 255.354 233.732C255.642 233.891 255.966 234.041 256.328 234.18C256.697 234.312 257.07 234.452 257.447 234.6C257.832 234.748 258.203 234.916 258.562 235.104C258.929 235.283 259.25 235.505 259.524 235.768C259.807 236.023 260.027 236.327 260.185 236.68C260.35 237.033 260.42 237.457 260.393 237.953C260.363 238.52 260.232 239.042 259.998 239.518C259.773 239.987 259.451 240.386 259.033 240.716C258.623 241.047 258.121 241.297 257.527 241.466C256.934 241.635 256.261 241.699 255.51 241.659C254.671 241.615 253.904 241.434 253.208 241.116C252.512 240.799 251.935 240.412 251.479 239.955L252.078 239.086C252.148 238.977 252.232 238.898 252.331 238.847C252.43 238.788 252.56 238.763 252.719 238.771C252.871 238.779 253.024 238.844 253.178 238.964C253.332 239.084 253.517 239.218 253.733 239.366C253.95 239.506 254.215 239.64 254.529 239.769C254.843 239.889 255.24 239.962 255.719 239.988C256.118 240.009 256.469 239.98 256.769 239.899C257.07 239.811 257.321 239.688 257.522 239.531C257.731 239.366 257.889 239.174 257.997 238.955C258.105 238.737 258.165 238.503 258.178 238.256C258.195 237.936 258.117 237.668 257.945 237.45C257.78 237.225 257.554 237.029 257.267 236.862C256.987 236.694 256.663 236.545 256.293 236.413C255.924 236.282 255.547 236.141 255.162 235.993C254.777 235.844 254.402 235.676 254.035 235.488C253.668 235.301 253.344 235.071 253.062 234.8C252.788 234.529 252.569 234.205 252.405 233.828C252.248 233.451 252.184 232.999 252.212 232.472C252.237 232 252.357 231.554 252.572 231.133C252.794 230.712 253.098 230.348 253.483 230.039C253.876 229.732 254.349 229.497 254.902 229.334C255.464 229.163 256.097 229.097 256.8 229.134C257.606 229.177 258.327 229.343 258.96 229.633C259.602 229.923 260.142 230.305 260.582 230.777L260.021 231.6Z" fill="white"/>
<path d="M156.875 176.901L323.781 162.339L295.964 130.432L317.839 94.1875L150.932 108.75L129.057 144.995L156.875 176.901Z" fill="#87B9F4"/>
<path d="M195.315 127.787L189.851 128.071L190.634 143.146L188.093 143.278L187.31 128.203L181.822 128.488L181.711 126.355L195.204 125.654L195.315 127.787ZM202.854 130.111C203.749 130.064 204.564 130.17 205.298 130.428C206.04 130.678 206.677 131.066 207.209 131.591C207.749 132.108 208.174 132.746 208.486 133.507C208.798 134.26 208.978 135.116 209.028 136.075C209.078 137.033 208.987 137.907 208.756 138.696C208.524 139.485 208.167 140.165 207.684 140.735C207.209 141.304 206.616 141.755 205.904 142.089C205.2 142.414 204.4 142.599 203.506 142.646C202.603 142.693 201.78 142.591 201.039 142.342C200.304 142.083 199.667 141.696 199.128 141.179C198.588 140.662 198.158 140.024 197.838 139.263C197.527 138.503 197.346 137.643 197.296 136.684C197.246 135.725 197.337 134.855 197.569 134.074C197.808 133.285 198.169 132.605 198.653 132.035C199.135 131.458 199.729 131.006 200.433 130.681C201.144 130.348 201.952 130.158 202.854 130.111ZM203.411 140.824C204.561 140.765 205.4 140.333 205.927 139.528C206.454 138.724 206.681 137.618 206.608 136.212C206.535 134.806 206.195 133.73 205.587 132.985C204.979 132.231 204.1 131.885 202.95 131.944C201.783 132.005 200.933 132.442 200.398 133.255C199.871 134.059 199.644 135.164 199.717 136.57C199.79 137.976 200.131 139.052 200.738 139.798C201.354 140.543 202.245 140.885 203.411 140.824ZM217.251 138.76C217.66 139.243 218.09 139.573 218.54 139.75C218.997 139.926 219.502 140 220.053 139.972C221.124 139.916 221.931 139.49 222.474 138.692C223.025 137.887 223.262 136.745 223.185 135.267C223.145 134.492 223.043 133.836 222.879 133.3C222.722 132.756 222.507 132.318 222.234 131.988C221.968 131.649 221.647 131.409 221.271 131.269C220.895 131.12 220.475 131.058 220.012 131.082C219.333 131.117 218.75 131.3 218.262 131.629C217.782 131.959 217.345 132.414 216.951 132.995L217.251 138.76ZM216.748 131.408C216.988 131.091 217.246 130.801 217.52 130.538C217.803 130.267 218.107 130.035 218.433 129.842C218.759 129.641 219.108 129.483 219.478 129.367C219.856 129.243 220.261 129.17 220.692 129.148C221.388 129.112 222.022 129.215 222.595 129.458C223.176 129.7 223.681 130.074 224.107 130.581C224.534 131.087 224.876 131.722 225.132 132.486C225.396 133.249 225.554 134.134 225.606 135.141C225.653 136.044 225.573 136.889 225.365 137.677C225.165 138.456 224.853 139.142 224.427 139.732C224.009 140.323 223.481 140.799 222.843 141.161C222.212 141.514 221.489 141.712 220.675 141.754C219.948 141.792 219.318 141.704 218.786 141.492C218.255 141.279 217.774 140.967 217.344 140.557L217.619 145.842L215.282 145.963L214.437 129.701L215.839 129.628C216.166 129.611 216.378 129.757 216.474 130.064L216.748 131.408ZM233.479 128.712L234.112 140.888L231.775 141.009L231.142 128.833L233.479 128.712ZM233.727 124.926C233.738 125.142 233.705 125.352 233.628 125.556C233.55 125.752 233.439 125.93 233.295 126.09C233.158 126.241 232.993 126.366 232.798 126.464C232.602 126.555 232.396 126.605 232.181 126.616C231.965 126.628 231.759 126.598 231.563 126.528C231.367 126.45 231.189 126.344 231.03 126.208C230.878 126.063 230.753 125.898 230.656 125.71C230.565 125.515 230.515 125.309 230.503 125.093C230.492 124.87 230.521 124.66 230.591 124.464C230.668 124.26 230.775 124.082 230.912 123.931C231.055 123.771 231.221 123.646 231.409 123.556C231.596 123.459 231.797 123.404 232.013 123.393C232.229 123.382 232.439 123.415 232.643 123.492C232.847 123.562 233.025 123.669 233.176 123.813C233.336 123.949 233.465 124.115 233.563 124.31C233.661 124.497 233.715 124.702 233.727 124.926ZM248.629 130.208C248.562 130.3 248.494 130.375 248.425 130.435C248.363 130.486 248.268 130.515 248.141 130.522C248.013 130.528 247.875 130.487 247.726 130.399C247.585 130.302 247.403 130.203 247.182 130.103C246.968 129.994 246.706 129.899 246.398 129.819C246.097 129.731 245.727 129.698 245.287 129.721C244.712 129.751 244.21 129.881 243.782 130.111C243.353 130.342 243.001 130.657 242.725 131.055C242.457 131.454 242.262 131.933 242.139 132.492C242.016 133.051 241.972 133.674 242.008 134.361C242.045 135.072 242.157 135.703 242.346 136.254C242.535 136.797 242.787 137.253 243.102 137.621C243.417 137.981 243.792 138.25 244.226 138.427C244.659 138.597 245.135 138.669 245.655 138.642C246.158 138.615 246.57 138.534 246.892 138.397C247.213 138.252 247.477 138.102 247.685 137.947C247.894 137.792 248.066 137.651 248.204 137.524C248.341 137.388 248.486 137.317 248.638 137.309C248.829 137.299 248.981 137.363 249.092 137.502L249.808 138.33C249.546 138.688 249.246 138.996 248.907 139.254C248.576 139.511 248.218 139.726 247.835 139.898C247.451 140.07 247.046 140.204 246.618 140.298C246.198 140.392 245.769 140.45 245.329 140.473C244.57 140.512 243.852 140.41 243.174 140.164C242.505 139.919 241.912 139.541 241.397 139.031C240.89 138.521 240.476 137.885 240.157 137.125C239.836 136.356 239.65 135.477 239.599 134.486C239.552 133.583 239.632 132.742 239.84 131.962C240.056 131.182 240.393 130.504 240.852 129.927C241.318 129.342 241.903 128.875 242.606 128.526C243.308 128.169 244.123 127.967 245.049 127.919C245.92 127.873 246.694 127.973 247.372 128.218C248.05 128.464 248.662 128.828 249.207 129.313L248.629 130.208ZM261.85 129.341C261.792 129.448 261.728 129.527 261.658 129.579C261.589 129.623 261.498 129.647 261.386 129.653C261.258 129.66 261.112 129.623 260.948 129.544C260.791 129.464 260.598 129.378 260.369 129.285C260.148 129.193 259.888 129.11 259.587 129.038C259.287 128.965 258.933 128.94 258.526 128.961C258.19 128.978 257.885 129.038 257.61 129.14C257.343 129.234 257.117 129.362 256.933 129.524C256.749 129.678 256.61 129.861 256.517 130.074C256.424 130.28 256.383 130.498 256.395 130.73C256.411 131.033 256.512 131.28 256.698 131.471C256.892 131.661 257.137 131.821 257.432 131.95C257.735 132.078 258.073 132.193 258.447 132.293C258.828 132.386 259.214 132.486 259.604 132.594C260.002 132.701 260.389 132.829 260.765 132.978C261.149 133.118 261.491 133.305 261.792 133.537C262.1 133.762 262.351 134.041 262.544 134.375C262.746 134.709 262.86 135.124 262.885 135.619C262.915 136.187 262.838 136.719 262.656 137.218C262.481 137.707 262.203 138.138 261.822 138.511C261.449 138.882 260.976 139.183 260.403 139.413C259.83 139.643 259.168 139.778 258.417 139.817C257.578 139.861 256.796 139.761 256.071 139.518C255.345 139.276 254.731 138.951 254.23 138.545L254.734 137.617C254.792 137.502 254.868 137.414 254.961 137.353C255.053 137.284 255.179 137.246 255.339 137.237C255.491 137.229 255.65 137.277 255.815 137.381C255.981 137.484 256.179 137.598 256.41 137.722C256.64 137.839 256.918 137.944 257.243 138.039C257.568 138.127 257.97 138.158 258.45 138.133C258.849 138.112 259.194 138.046 259.485 137.935C259.775 137.816 260.012 137.667 260.195 137.49C260.385 137.303 260.523 137.096 260.607 136.867C260.691 136.639 260.727 136.401 260.714 136.153C260.698 135.833 260.592 135.574 260.397 135.376C260.21 135.17 259.965 134.998 259.662 134.862C259.366 134.725 259.028 134.61 258.647 134.518C258.265 134.426 257.876 134.326 257.477 134.218C257.079 134.111 256.688 133.983 256.304 133.835C255.92 133.686 255.573 133.492 255.264 133.252C254.963 133.011 254.712 132.712 254.509 132.354C254.314 131.995 254.203 131.553 254.175 131.025C254.151 130.554 254.223 130.097 254.393 129.656C254.57 129.214 254.834 128.82 255.184 128.473C255.543 128.126 255.989 127.843 256.522 127.623C257.063 127.395 257.685 127.262 258.388 127.226C259.195 127.184 259.928 127.274 260.589 127.496C261.257 127.717 261.835 128.04 262.321 128.463L261.85 129.341Z" fill="black"/>
</svg>
