<svg width="500" height="475" viewBox="0 0 500 475" fill="none" xmlns="http://www.w3.org/2000/svg">
<path d="M368.271 32.1094V32.0469C368.266 32.0573 368.266 32.0677 368.26 32.0781C368.26 32.0677 368.255 32.0573 368.25 32.0469V32.1094C367.401 35.1979 365.437 37.401 362.354 38.7292C365.437 40.0573 367.401 42.2656 368.25 45.349V45.4167C368.255 45.4063 368.26 45.3906 368.26 45.3802C368.266 45.3906 368.271 45.4063 368.271 45.4167V45.349C369.12 42.2656 371.089 40.0573 374.167 38.7292C371.089 37.401 369.12 35.1979 368.271 32.1094Z" fill="#9CA9BA"/>
<path d="M431.766 124.635V124.573C431.76 124.583 431.76 124.594 431.755 124.604C431.755 124.594 431.75 124.583 431.75 124.573V124.635C430.896 127.724 428.932 129.927 425.849 131.255C428.932 132.583 430.896 134.792 431.75 137.875V137.943C431.75 137.932 431.755 137.917 431.755 137.906C431.76 137.917 431.766 137.932 431.766 137.943V137.875C432.615 134.792 434.583 132.583 437.661 131.255C434.583 129.927 432.615 127.724 431.766 124.635Z" fill="#9CA9BA"/>
<path d="M79.9062 204.615V204.552C79.901 204.563 79.901 204.573 79.8958 204.583C79.8958 204.573 79.8906 204.563 79.8906 204.552V204.615C79.0365 207.703 77.0729 209.906 73.9896 211.234C77.0729 212.563 79.0365 214.771 79.8906 217.854V217.922C79.8906 217.912 79.8958 217.901 79.8958 217.885C79.901 217.901 79.9062 217.912 79.9062 217.922V217.854C80.7552 214.771 82.724 212.563 85.8021 211.234C82.724 209.906 80.7552 207.703 79.9062 204.615Z" fill="#9CA9BA"/>
<path d="M107.75 305.12V305.057C107.75 305.068 107.745 305.078 107.745 305.089C107.74 305.078 107.734 305.068 107.734 305.057V305.12C106.885 308.208 104.917 310.412 101.839 311.74C104.917 313.068 106.885 315.276 107.734 318.359V318.427C107.74 318.417 107.74 318.406 107.745 318.396C107.745 318.406 107.75 318.417 107.75 318.427V318.359C108.604 315.276 110.568 313.068 113.646 311.74C110.568 310.412 108.604 308.208 107.75 305.12Z" fill="#9CA9BA"/>
<path d="M51.8385 271.542V271.406C51.8333 271.432 51.8281 271.453 51.8229 271.474C51.8177 271.453 51.8073 271.432 51.8021 271.406V271.542C50.1042 277.708 46.1719 282.125 40.0104 284.781C46.1719 287.432 50.099 291.849 51.8021 298.021V298.151C51.8073 298.13 51.8177 298.109 51.8229 298.083C51.8281 298.109 51.8333 298.13 51.8385 298.151V298.021C53.5417 291.849 57.4687 287.432 63.6302 284.781C57.4687 282.125 53.5417 277.708 51.8385 271.542Z" fill="#9CA9BA"/>
<path d="M443.589 25.4896V25.3594C443.583 25.3802 443.573 25.401 443.568 25.4219C443.563 25.401 443.557 25.3802 443.552 25.3594V25.4896C441.849 31.6615 437.922 36.0729 431.76 38.7292C437.922 41.3854 441.849 45.7969 443.552 51.9688V52.1042C443.557 52.0781 443.563 52.0573 443.568 52.0365C443.573 52.0573 443.583 52.0781 443.589 52.1042V51.9688C445.286 45.7969 449.219 41.3854 455.38 38.7292C449.219 36.0729 445.292 31.6615 443.589 25.4896Z" fill="#9CA9BA"/>
<path d="M498.995 472.922C433.365 413.734 346.464 377.714 251.151 377.714C155.844 377.714 68.9427 413.734 3.31249 472.922" fill="white"/>
<mask id="mask0_114_76" style="mask-type:luminance" maskUnits="userSpaceOnUse" x="1" y="376" width="499" height="99">
<path d="M1.33333 376.333H500V474.125H1.33333V376.333Z" fill="white"/>
</mask>
<g mask="url(#mask0_114_76)">
<path d="M498.995 473.823C498.776 473.823 498.563 473.75 498.391 473.589C482.005 458.818 464.214 445.443 445.505 433.844C426.599 422.115 406.536 412.063 385.875 403.964C342.969 387.141 297.646 378.615 251.151 378.615C204.661 378.615 159.333 387.141 116.432 403.964C95.7708 412.063 75.7083 422.115 56.7969 433.844C38.0937 445.443 20.2969 458.818 3.91666 473.589C3.54687 473.927 2.97916 473.896 2.64583 473.526C2.31249 473.151 2.33853 472.583 2.70833 472.25C19.1719 457.406 37.0521 443.964 55.849 432.307C74.849 420.521 95.0156 410.422 115.776 402.281C158.891 385.38 204.437 376.807 251.156 376.807C297.87 376.807 343.422 385.38 386.536 402.281C407.297 410.422 427.458 420.521 446.458 432.307C465.26 443.964 483.141 457.406 499.599 472.25C499.969 472.583 500 473.151 499.667 473.526C499.49 473.724 499.24 473.823 498.995 473.823Z" fill="#535A63"/>
</g>
<path d="M39.599 444.083V428.969C39.599 428.969 59.6979 407.042 83.8073 393.521C125.198 370.302 146.438 373.099 146.438 373.099L175.885 385.375C175.885 385.375 156.406 412.823 117.042 432.74C88.3281 447.266 64.0469 452.818 64.0469 452.818" fill="white"/>
<path d="M64.0469 453.719C63.6354 453.719 63.2656 453.432 63.1719 453.016C63.0573 452.531 63.3646 452.047 63.849 451.932C64.0885 451.875 88.3594 446.234 116.635 431.927C136.849 421.703 151.677 409.448 160.562 400.969C168.156 393.719 172.818 387.917 174.469 385.755L146.208 373.979C145.401 373.901 140.141 373.51 130.682 375.516C113.505 379.151 95.9479 387.74 84.2448 394.302C61.9375 406.818 42.8333 426.839 40.5 429.323V444.083C40.5 444.578 40.099 444.984 39.599 444.984C39.099 444.984 38.6979 444.578 38.6979 444.083V428.969C38.6979 428.745 38.7812 428.526 38.9323 428.359C39.1354 428.141 59.4062 406.167 83.3594 392.729C95.2187 386.078 113.01 377.38 130.453 373.714C140.969 371.505 146.328 372.167 146.547 372.198C146.63 372.208 146.703 372.229 146.776 372.26L176.229 384.536C176.479 384.641 176.672 384.854 176.75 385.12C176.823 385.385 176.776 385.667 176.615 385.891C176.568 385.958 171.583 392.932 161.844 402.234C152.865 410.807 137.88 423.203 117.448 433.542C88.9583 447.953 64.4896 453.641 64.2448 453.693C64.1771 453.708 64.1094 453.714 64.0417 453.714L64.0469 453.719Z" fill="#535A63"/>
<path d="M51.8229 430.188C51.4583 430.188 51.1198 429.969 50.9792 429.615C50.7969 429.151 51.026 428.625 51.4896 428.443C51.5521 428.422 57.8281 425.938 87.8177 412.083C117.667 398.292 129.115 385.823 129.229 385.698C129.562 385.328 130.13 385.297 130.5 385.63C130.87 385.964 130.901 386.536 130.568 386.906C130.453 387.036 127.609 390.167 120.99 395.057C114.911 399.547 104.354 406.432 88.5729 413.719C58.4792 427.625 52.3906 430.026 52.1458 430.125C52.0417 430.167 51.9271 430.182 51.8177 430.182L51.8229 430.188Z" fill="#535A63"/>
<path d="M318.276 383.797C318.276 383.797 340.344 377.714 343.5 377.714C352.812 377.714 367.542 379.406 401.219 395.031C434.901 410.661 454.984 427.813 454.984 427.813L467 447.125C467 447.125 434.828 451.25 390.729 434.156C346.63 417.068 324.667 398.51 324.667 398.51" fill="white"/>
<path d="M457.5 448.469C454.198 448.469 450.109 448.344 445.328 447.953C432.901 446.938 413.281 443.87 390.401 435C377.797 430.115 358.932 421.932 340.688 410.693C329.755 403.958 324.141 399.245 324.083 399.198C323.703 398.88 323.656 398.307 323.979 397.927C324.297 397.547 324.87 397.495 325.25 397.818C325.302 397.865 330.844 402.516 341.682 409.182C351.682 415.339 368.365 424.521 391.057 433.318C413.734 442.104 433.167 445.146 445.474 446.151C455.557 446.969 462.604 446.599 465.464 446.365L454.297 428.411C452.682 427.057 432.771 410.667 400.839 395.849C385.703 388.828 373.328 384.094 362.995 381.385C353.641 378.927 347.661 378.609 343.5 378.609C341.016 378.609 324.62 382.984 318.516 384.667C318.036 384.797 317.536 384.516 317.406 384.036C317.276 383.552 317.557 383.057 318.036 382.922C320.307 382.297 340.318 376.807 343.5 376.807C353.682 376.807 368.547 378.875 401.599 394.214C419.052 402.307 432.786 410.823 441.24 416.536C450.406 422.729 455.521 427.083 455.573 427.125C455.641 427.182 455.703 427.255 455.75 427.333L467.766 446.646C467.927 446.906 467.943 447.234 467.813 447.51C467.682 447.786 467.417 447.979 467.109 448.021C466.896 448.047 463.505 448.469 457.5 448.469Z" fill="#535A63"/>
<path d="M441.38 428.568C441.349 428.568 441.318 428.568 441.281 428.563C441.031 428.536 416.026 425.708 388.453 413.464C380.5 409.932 368.896 404.255 358.755 397.255C352.656 393.047 350.01 390.385 349.901 390.276C349.552 389.917 349.552 389.349 349.911 388.995C350.266 388.646 350.833 388.651 351.188 389.005C351.292 389.109 361.943 399.714 389.188 411.813C416.49 423.943 441.234 426.745 441.479 426.771C441.974 426.823 442.333 427.271 442.276 427.766C442.224 428.229 441.833 428.568 441.38 428.568Z" fill="#535A63"/>
<path d="M251.365 398.229C246.24 401.703 240.693 402.208 234.719 399.156L216.734 76.8646L233.38 75.9375L251.365 398.229Z" fill="#7A8593"/>
<path d="M242.448 402.073C239.781 402.073 237.063 401.37 234.307 399.964C234.021 399.818 233.833 399.531 233.813 399.208L215.828 76.9167C215.818 76.6823 215.901 76.4479 216.057 76.2656C216.219 76.0885 216.443 75.9792 216.682 75.9687L233.333 75.0364C233.828 75.0052 234.255 75.3906 234.281 75.8854L252.266 398.177C252.286 398.495 252.135 398.797 251.87 398.974C248.828 401.042 245.677 402.073 242.448 402.073ZM235.589 398.583C240.802 401.094 245.672 400.823 250.438 397.76L232.531 76.8906L217.682 77.7187L235.589 398.583Z" fill="#535A63"/>
<path d="M491.302 253.526C491.302 255.161 491.224 256.792 491.062 258.417C490.901 260.047 490.661 261.661 490.344 263.266C490.026 264.87 489.625 266.458 489.151 268.021C488.677 269.589 488.13 271.125 487.5 272.635C486.875 274.151 486.177 275.625 485.406 277.068C484.635 278.51 483.797 279.911 482.891 281.271C481.979 282.63 481.01 283.943 479.969 285.208C478.932 286.474 477.839 287.682 476.682 288.844C475.526 290 474.312 291.094 473.052 292.135C471.786 293.172 470.474 294.146 469.115 295.052C467.755 295.964 466.354 296.802 464.917 297.573C463.474 298.344 461.995 299.042 460.484 299.667C458.974 300.297 457.437 300.844 455.875 301.318C454.307 301.797 452.724 302.193 451.12 302.51C449.516 302.828 447.901 303.068 446.276 303.229C444.646 303.391 443.016 303.469 441.38 303.469C439.745 303.469 438.115 303.391 436.49 303.229C434.859 303.068 433.245 302.828 431.641 302.51C430.042 302.193 428.453 301.797 426.891 301.318C425.328 300.844 423.786 300.297 422.276 299.667C420.766 299.042 419.292 298.344 417.849 297.573C416.406 296.802 415.005 295.964 413.646 295.052C412.286 294.146 410.974 293.172 409.714 292.135C408.448 291.094 407.24 290 406.083 288.844C404.927 287.682 403.828 286.474 402.792 285.208C401.755 283.943 400.781 282.63 399.875 281.271C398.964 279.911 398.125 278.51 397.354 277.068C396.583 275.625 395.885 274.151 395.26 272.635C394.635 271.125 394.083 269.589 393.609 268.021C393.135 266.458 392.74 264.87 392.422 263.266C392.099 261.661 391.859 260.047 391.703 258.417C391.542 256.792 391.464 255.161 391.464 253.526C391.464 251.885 391.542 250.255 391.703 248.63C391.859 247 392.099 245.385 392.422 243.781C392.74 242.177 393.135 240.589 393.609 239.026C394.083 237.458 394.635 235.922 395.26 234.411C395.885 232.896 396.583 231.422 397.354 229.979C398.125 228.536 398.964 227.135 399.875 225.776C400.781 224.417 401.755 223.104 402.792 221.839C403.828 220.573 404.927 219.365 406.083 218.203C407.24 217.047 408.448 215.953 409.714 214.911C410.974 213.875 412.286 212.901 413.646 211.995C415.005 211.083 416.406 210.245 417.849 209.474C419.292 208.703 420.766 208.005 422.276 207.38C423.786 206.75 425.328 206.203 426.891 205.729C428.453 205.25 430.042 204.854 431.641 204.536C433.245 204.219 434.859 203.979 436.49 203.818C438.115 203.656 439.745 203.578 441.38 203.578C443.016 203.578 444.646 203.656 446.276 203.818C447.901 203.979 449.516 204.219 451.12 204.536C452.724 204.854 454.307 205.25 455.875 205.729C457.437 206.203 458.974 206.75 460.484 207.38C461.995 208.005 463.474 208.703 464.917 209.474C466.354 210.245 467.755 211.083 469.115 211.995C470.474 212.901 471.786 213.875 473.052 214.911C474.312 215.953 475.526 217.047 476.682 218.203C477.839 219.365 478.932 220.573 479.969 221.839C481.01 223.104 481.979 224.417 482.891 225.776C483.797 227.135 484.635 228.536 485.406 229.979C486.177 231.422 486.875 232.896 487.5 234.411C488.13 235.922 488.677 237.458 489.151 239.026C489.625 240.589 490.026 242.177 490.344 243.781C490.661 245.385 490.901 247 491.062 248.63C491.224 250.255 491.302 251.885 491.302 253.526Z" fill="#D1DEF0"/>
<path d="M451.219 204.547C451.516 212.052 451.01 219.88 448.51 225.156C442.25 238.38 432.51 242.557 410.245 253.526C401.13 258.016 397.396 266.385 396.167 274.708C399.714 282.271 405.099 288.802 411.745 293.719C413.25 287.432 416.083 280.432 421.38 274.583C434.599 259.964 454.776 273.885 478.115 262.052C484.302 258.911 488.359 253.724 490.974 247.786C488.5 226.172 472.245 208.755 451.219 204.547Z" fill="#ADB9C8"/>
<path d="M111.615 41.7292C111.615 43.0834 111.547 44.4375 111.417 45.7865C111.281 47.1355 111.083 48.474 110.818 49.8073C110.557 51.1355 110.224 52.448 109.833 53.7448C109.437 55.0417 108.984 56.3177 108.464 57.573C107.948 58.823 107.37 60.0469 106.729 61.2448C106.089 62.4375 105.396 63.599 104.641 64.7292C103.891 65.8542 103.083 66.9427 102.224 67.9896C101.365 69.0417 100.453 70.0417 99.4948 71C98.5365 71.9584 97.5365 72.8698 96.4844 73.7292C95.4375 74.5886 94.3542 75.3959 93.224 76.1511C92.099 76.9011 90.9375 77.599 89.7448 78.2396C88.5469 78.8803 87.3229 79.4584 86.0729 79.974C84.8177 80.4948 83.5469 80.9532 82.25 81.3438C80.9531 81.7396 79.6406 82.0678 78.3125 82.3334C76.9792 82.5938 75.6406 82.7969 74.2917 82.9271C72.9427 83.0625 71.5937 83.125 70.2396 83.125C68.8802 83.125 67.5312 83.0625 66.1823 82.9271C64.8333 82.7969 63.4948 82.5938 62.1667 82.3334C60.8385 82.0678 59.526 81.7396 58.2292 81.3438C56.9323 80.9532 55.6562 80.4948 54.4062 79.974C53.151 79.4584 51.9271 78.8803 50.7344 78.2396C49.5365 77.599 48.375 76.9011 47.25 76.1511C46.125 75.3959 45.0365 74.5886 43.9896 73.7292C42.9427 72.8698 41.9375 71.9584 40.9792 71C40.0208 70.0417 39.1146 69.0417 38.2552 67.9896C37.3958 66.9427 36.5885 65.8542 35.8333 64.7292C35.0833 63.599 34.3854 62.4375 33.7448 61.2448C33.1094 60.0469 32.5312 58.823 32.0104 57.573C31.4948 56.3177 31.0365 55.0417 30.6406 53.7448C30.25 52.448 29.9219 51.1355 29.6562 49.8073C29.3906 48.474 29.1927 47.1355 29.0625 45.7865C28.9271 44.4375 28.8594 43.0834 28.8594 41.7292C28.8594 40.375 28.9271 39.0209 29.0625 37.6719C29.1927 36.323 29.3906 34.9844 29.6562 33.6511C29.9219 32.323 30.25 31.0105 30.6406 29.7136C31.0365 28.4167 31.4948 27.1407 32.0104 25.8855C32.5312 24.6355 33.1094 23.4115 33.7448 22.2136C34.3854 21.0209 35.0833 19.8542 35.8333 18.7292C36.5885 17.6042 37.3958 16.5157 38.2552 15.4688C39.1146 14.4167 40.0208 13.4167 40.9792 12.4584C41.9375 11.4948 42.9427 10.5886 43.9896 9.72921C45.0365 8.86983 46.125 8.06254 47.25 7.30733C48.375 6.55212 49.5365 5.85941 50.7344 5.21879C51.9271 4.57817 53.151 4.00004 54.4062 3.48442C55.6562 2.96358 56.9323 2.50525 58.2292 2.11463C59.526 1.71879 60.8385 1.39067 62.1667 1.12504C63.4948 0.859415 64.8333 0.6615 66.1823 0.531292C67.5312 0.395875 68.8802 0.333374 70.2396 0.333374C71.5937 0.333374 72.9427 0.395875 74.2917 0.531292C75.6406 0.6615 76.9792 0.859415 78.3125 1.12504C79.6406 1.39067 80.9531 1.71879 82.25 2.11463C83.5469 2.50525 84.8177 2.96358 86.0729 3.48442C87.3229 4.00004 88.5469 4.57817 89.7448 5.21879C90.9375 5.85941 92.099 6.55212 93.224 7.30733C94.3542 8.06254 95.4375 8.86983 96.4844 9.72921C97.5365 10.5886 98.5365 11.4948 99.4948 12.4584C100.453 13.4167 101.365 14.4167 102.224 15.4688C103.083 16.5157 103.891 17.6042 104.641 18.7292C105.396 19.8542 106.089 21.0209 106.729 22.2136C107.37 23.4115 107.948 24.6355 108.464 25.8855C108.984 27.1407 109.437 28.4167 109.833 29.7136C110.224 31.0105 110.557 32.323 110.818 33.6511C111.083 34.9844 111.281 36.323 111.417 37.6719C111.547 39.0209 111.615 40.375 111.615 41.7292Z" fill="#E9F3FF"/>
<path d="M7.59374 78.4948C3.91666 78.4948 1.77083 77.6823 1.04166 76.026C-7.89143e-06 73.6615 2.21874 70.276 7.82291 65.6615C12.8073 61.5573 20.3802 56.5937 29.7292 51.3073C30.1615 51.0625 30.7135 51.2187 30.9583 51.651C31.2031 52.0833 31.0521 52.6354 30.6198 52.8802C21.3594 58.1146 13.8698 63.0156 8.96874 67.0521C2.22395 72.6042 2.46353 74.7656 2.6927 75.2969C2.97916 75.9427 5.41145 78.8906 25.5052 73.5937C39.5573 69.8854 57.5417 63.3385 76.1406 55.151C94.7396 46.9687 111.719 38.1354 123.943 30.276C141.432 19.0365 140.901 15.2552 140.62 14.6094C140.391 14.0833 138.974 12.4583 130.464 13.6406C124.271 14.4948 115.719 16.6562 105.74 19.8802C105.26 20.0365 104.755 19.776 104.604 19.3021C104.448 18.8281 104.708 18.3177 105.182 18.1667C115.266 14.9062 123.922 12.724 130.214 11.8542C137.297 10.8698 141.24 11.5365 142.271 13.8802C143.104 15.776 141.865 18.3021 138.479 21.599C135.495 24.5 130.937 27.9323 124.922 31.7969C112.615 39.7031 95.5469 48.5885 76.8646 56.8073C58.1823 65.0312 40.1094 71.6094 25.9687 75.3385C19.0521 77.1615 13.4427 78.2083 9.29166 78.4427C8.6927 78.4792 8.12499 78.4948 7.59374 78.4948Z" fill="#ADB9C8"/>
<path d="M301.833 271.406L135.604 256.906L163.307 225.125L141.516 189.031L307.75 203.536L329.536 239.63L301.833 271.406Z" fill="#BECEE2"/>
<path d="M301.833 272.312C301.807 272.312 301.781 272.312 301.755 272.307L135.526 257.802C135.187 257.776 134.896 257.557 134.766 257.24C134.641 256.927 134.698 256.568 134.922 256.312L162.193 225.026L140.745 189.495C140.573 189.203 140.573 188.839 140.755 188.552C140.932 188.26 141.26 188.099 141.599 188.13L307.828 202.63C308.115 202.656 308.375 202.818 308.526 203.068L330.312 239.161C330.51 239.5 330.479 239.927 330.219 240.224L302.516 272C302.344 272.198 302.094 272.307 301.833 272.307V272.312ZM137.448 256.156L301.453 270.469L328.422 239.531L307.214 204.391L143.208 190.083L164.078 224.661C164.281 224.995 164.245 225.422 163.984 225.719L137.448 256.156Z" fill="#535A63"/>
<path d="M156.24 176.24L322.469 161.74L294.766 129.958L316.552 93.8646L150.323 108.365L128.536 144.464L156.24 176.24Z" fill="#BECEE2"/>
<path d="M156.24 177.146C155.979 177.146 155.734 177.031 155.557 176.839L127.854 145.057C127.599 144.76 127.562 144.333 127.766 144L149.552 107.901C149.698 107.656 149.958 107.495 150.245 107.469L316.474 92.9636C316.818 92.9323 317.141 93.099 317.323 93.3855C317.5 93.6771 317.505 94.0417 317.328 94.3282L295.88 129.865L323.151 161.146C323.375 161.401 323.432 161.76 323.307 162.078C323.182 162.396 322.885 162.609 322.552 162.641L156.318 177.141C156.292 177.146 156.266 177.146 156.24 177.146ZM129.646 144.37L156.615 175.302L320.62 160.995L294.083 130.557C293.828 130.26 293.792 129.833 293.995 129.495L314.865 94.9167L150.859 109.229L129.646 144.37Z" fill="#535A63"/>
<path d="M203.787 133.287L206.12 133.058C204.917 129.105 201.276 128.027 198.365 128.313C194.183 128.725 191.23 132.251 191.672 136.73C192.11 141.188 195.625 144.079 199.875 143.662C202.631 143.391 205.537 141.068 206.292 138.079V138.1C206.453 137.568 206.48 136.709 206.459 135.428L198.287 136.23L198.5 138.417L204.105 137.865C203.433 140.162 201.537 141.376 199.667 141.558C196.693 141.85 194.172 139.719 193.855 136.516C193.542 133.329 195.61 130.792 198.584 130.501C200.516 130.308 202.927 130.907 203.787 133.287Z" fill="black"/>
<path d="M208.311 135.072C208.728 139.363 212.483 142.447 216.769 142.025C221.061 141.603 224.165 137.848 223.743 133.561C223.322 129.27 219.546 126.171 215.259 126.593C210.967 127.009 207.889 130.785 208.311 135.072ZM210.519 134.858C210.217 131.801 212.415 129.098 215.473 128.801C218.53 128.499 221.233 130.718 221.535 133.775C221.832 136.832 219.613 139.515 216.556 139.817C213.499 140.119 210.816 137.916 210.519 134.858Z" fill="black"/>
<path d="M228.664 136.783L234.695 136.194L236.486 139.809L238.778 139.585L231.335 125.121L229.762 125.272L225.278 140.913L227.591 140.684L228.664 136.783ZM233.71 134.251L229.252 134.689L230.908 128.611L233.71 134.251Z" fill="black"/>
<path d="M249.564 136.363L242.579 137.051L241.329 124.332L239.189 124.545L240.647 139.405L249.772 138.509L249.564 136.363Z" fill="black"/>
<path d="M258.05 126.569L260.164 126.278C259.518 123.596 257.024 122.642 254.732 122.866C253.013 123.038 251.294 123.892 250.425 125.283C249.945 126.059 249.753 126.934 249.836 127.825C249.847 127.934 249.883 128.059 249.893 128.184V128.163C250.43 131.241 253.195 131.486 255.534 131.491C257.034 131.491 258.581 131.533 258.945 132.632C259.008 132.819 259.044 132.991 259.06 133.137C259.211 134.668 257.56 135.726 255.966 135.882C254.586 136.017 252.836 135.465 252.555 134.096L252.56 134.184L252.508 133.866L250.347 134.122L250.409 134.523C250.945 137.148 253.862 138.236 256.154 138.007C258.826 137.747 261.508 135.814 261.227 132.944C261.201 132.648 261.123 132.293 261.024 131.981C260.222 129.658 257.643 129.377 255.581 129.319C253.909 129.335 252.169 129.293 251.998 127.575C251.956 127.148 252.024 126.71 252.248 126.372C252.784 125.523 253.878 125.075 254.893 124.976C256.169 124.851 257.628 125.283 258.05 126.569Z" fill="black"/>
<path d="M208.304 220.062L207.158 233.042L209.304 233.234L210.45 220.25L214.934 220.646L215.111 218.604L203.976 217.625L203.799 219.667L208.304 220.062Z" fill="black"/>
<path d="M215.333 226.27C214.958 230.561 218.078 234.28 222.369 234.66C226.661 235.035 230.406 231.921 230.781 227.629C231.161 223.337 228.021 219.593 223.729 219.212C219.437 218.837 215.713 221.978 215.333 226.27ZM217.547 226.462C217.812 223.405 220.474 221.155 223.536 221.421C226.593 221.692 228.843 224.374 228.573 227.431C228.302 230.494 225.625 232.718 222.562 232.452C219.505 232.181 217.276 229.525 217.547 226.462Z" fill="black"/>
<path d="M239.597 220.908L234.154 220.429L232.847 235.304L235.014 235.492L235.451 230.544L238.722 230.83C241.931 231.111 243.764 228.789 243.983 226.304C244.201 223.82 242.806 221.19 239.597 220.908ZM238.91 228.705L235.639 228.419L236.134 222.789L239.404 223.075C241.212 223.236 241.977 224.716 241.852 226.138C241.733 227.544 240.717 228.867 238.91 228.705Z" fill="black"/>
<path d="M251.519 223.821L254.285 224.066L254.457 222.087L246.785 221.415L246.613 223.389L249.374 223.634L248.405 234.66L245.644 234.415L245.467 236.415L253.139 237.087L253.311 235.092L250.551 234.847L251.519 223.821Z" fill="black"/>
<path d="M256.421 229.925C256.239 231.987 256.968 233.956 258.119 235.43C259.296 236.904 261.093 237.899 263.114 238.076C266.578 238.378 269.499 236.321 270.645 233.019L268.541 232.836C267.578 235.019 265.552 236.149 263.302 235.951C261.874 235.826 260.505 235.102 259.656 234.045C258.807 232.982 258.374 231.597 258.505 230.107C258.64 228.581 259.328 227.316 260.348 226.42C261.369 225.524 262.833 224.967 264.255 225.092C266.442 225.284 268.166 226.633 268.755 228.935L270.88 229.123C270.328 225.691 267.843 223.264 264.442 222.967C262.427 222.79 260.411 223.555 258.994 224.779C257.598 226.024 256.609 227.821 256.421 229.925Z" fill="black"/>
<path d="M281.196 228.444L283.326 228.548C283.186 225.793 280.91 224.392 278.618 224.194C276.894 224.043 275.05 224.564 273.936 225.772C273.321 226.444 272.972 227.272 272.894 228.163C272.884 228.272 272.894 228.397 272.884 228.527V228.507C272.842 231.626 275.519 232.376 277.816 232.814C279.29 233.095 280.8 233.423 280.957 234.569C280.983 234.767 280.988 234.939 280.977 235.085C280.842 236.616 279.019 237.356 277.425 237.215C276.045 237.09 274.43 236.22 274.404 234.83L274.394 234.913L274.404 234.59L272.233 234.444L272.217 234.85C272.259 237.527 274.925 239.137 277.217 239.335C279.894 239.574 282.889 238.168 283.139 235.298C283.17 235.001 283.154 234.637 283.123 234.309C282.759 231.882 280.274 231.126 278.259 230.694C276.613 230.397 274.91 230.033 275.061 228.314C275.102 227.887 275.243 227.47 275.524 227.173C276.212 226.444 277.368 226.205 278.389 226.293C279.665 226.402 281.014 227.1 281.196 228.444Z" fill="black"/>
</svg>
