<svg xmlns="http://www.w3.org/2000/svg" xmlns:xlink="http://www.w3.org/1999/xlink" width="500" zoomAndPan="magnify" viewBox="0 0 375 374.999991" height="500" preserveAspectRatio="xMidYMid meet" version="1.0"><defs><g/><clipPath id="67689dfa83"><path d="M 1 292 L 375 292 L 375 365.34375 L 1 365.34375 Z M 1 292 " clip-rule="nonzero"/></clipPath></defs><path fill="#9ca9ba" d="M 276.203125 33.832031 L 276.203125 33.785156 C 276.199219 33.792969 276.199219 33.800781 276.195312 33.808594 C 276.195312 33.800781 276.191406 33.792969 276.1875 33.785156 L 276.1875 33.832031 C 275.550781 36.148438 274.078125 37.800781 271.765625 38.796875 C 274.078125 39.792969 275.550781 41.449219 276.1875 43.761719 L 276.1875 43.8125 C 276.191406 43.804688 276.195312 43.792969 276.195312 43.785156 C 276.199219 43.792969 276.203125 43.804688 276.203125 43.8125 L 276.203125 43.761719 C 276.839844 41.449219 278.316406 39.792969 280.625 38.796875 C 278.316406 37.800781 276.839844 36.148438 276.203125 33.832031 Z M 276.203125 33.832031 " fill-opacity="1" fill-rule="nonzero"/><path fill="#9ca9ba" d="M 323.824219 103.226562 L 323.824219 103.179688 C 323.820312 103.1875 323.820312 103.195312 323.816406 103.203125 C 323.816406 103.195312 323.8125 103.1875 323.8125 103.179688 L 323.8125 103.226562 C 323.171875 105.542969 321.699219 107.195312 319.386719 108.191406 C 321.699219 109.1875 323.171875 110.84375 323.8125 113.15625 L 323.8125 113.207031 C 323.8125 113.199219 323.816406 113.1875 323.816406 113.179688 C 323.820312 113.1875 323.824219 113.199219 323.824219 113.207031 L 323.824219 113.15625 C 324.460938 110.84375 325.9375 109.1875 328.246094 108.191406 C 325.9375 107.195312 324.460938 105.542969 323.824219 103.226562 Z M 323.824219 103.226562 " fill-opacity="1" fill-rule="nonzero"/><path fill="#9ca9ba" d="M 59.929688 163.210938 L 59.929688 163.164062 C 59.925781 163.171875 59.925781 163.179688 59.921875 163.1875 C 59.921875 163.179688 59.917969 163.171875 59.917969 163.164062 L 59.917969 163.210938 C 59.277344 165.527344 57.804688 167.179688 55.492188 168.175781 C 57.804688 169.171875 59.277344 170.828125 59.917969 173.140625 L 59.917969 173.191406 C 59.917969 173.183594 59.921875 173.175781 59.921875 173.164062 C 59.925781 173.175781 59.929688 173.183594 59.929688 173.191406 L 59.929688 173.140625 C 60.566406 170.828125 62.042969 169.171875 64.351562 168.175781 C 62.042969 167.179688 60.566406 165.527344 59.929688 163.210938 Z M 59.929688 163.210938 " fill-opacity="1" fill-rule="nonzero"/><path fill="#9ca9ba" d="M 80.8125 238.589844 L 80.8125 238.542969 C 80.8125 238.550781 80.808594 238.558594 80.808594 238.566406 C 80.804688 238.558594 80.800781 238.550781 80.800781 238.542969 L 80.800781 238.589844 C 80.164062 240.90625 78.6875 242.558594 76.378906 243.554688 C 78.6875 244.550781 80.164062 246.207031 80.800781 248.519531 L 80.800781 248.570312 C 80.804688 248.5625 80.804688 248.554688 80.808594 248.546875 C 80.808594 248.554688 80.8125 248.5625 80.8125 248.570312 L 80.8125 248.519531 C 81.453125 246.207031 82.925781 244.550781 85.234375 243.554688 C 82.925781 242.558594 81.453125 240.90625 80.8125 238.589844 Z M 80.8125 238.589844 " fill-opacity="1" fill-rule="nonzero"/><path fill="#9ca9ba" d="M 38.878906 213.40625 L 38.878906 213.304688 C 38.875 213.324219 38.871094 213.339844 38.867188 213.355469 C 38.863281 213.339844 38.855469 213.324219 38.851562 213.304688 L 38.851562 213.40625 C 37.578125 218.03125 34.628906 221.34375 30.007812 223.335938 C 34.628906 225.324219 37.574219 228.636719 38.851562 233.265625 L 38.851562 233.363281 C 38.855469 233.347656 38.863281 233.332031 38.867188 233.3125 C 38.871094 233.332031 38.875 233.347656 38.878906 233.363281 L 38.878906 233.265625 C 40.15625 228.636719 43.101562 225.324219 47.722656 223.335938 C 43.101562 221.34375 40.15625 218.03125 38.878906 213.40625 Z M 38.878906 213.40625 " fill-opacity="1" fill-rule="nonzero"/><path fill="#9ca9ba" d="M 332.691406 28.867188 L 332.691406 28.769531 C 332.6875 28.785156 332.679688 28.800781 332.675781 28.816406 C 332.671875 28.800781 332.667969 28.785156 332.664062 28.769531 L 332.664062 28.867188 C 331.386719 33.496094 328.441406 36.804688 323.820312 38.796875 C 328.441406 40.789062 331.386719 44.097656 332.664062 48.726562 L 332.664062 48.828125 C 332.667969 48.808594 332.671875 48.792969 332.675781 48.777344 C 332.679688 48.792969 332.6875 48.808594 332.691406 48.828125 L 332.691406 48.726562 C 333.964844 44.097656 336.914062 40.789062 341.535156 38.796875 C 336.914062 36.804688 333.96875 33.496094 332.691406 28.867188 Z M 332.691406 28.867188 " fill-opacity="1" fill-rule="nonzero"/><path fill="#ffffff" d="M 374.246094 364.441406 C 325.023438 320.050781 259.847656 293.035156 188.363281 293.035156 C 116.882812 293.035156 51.707031 320.050781 2.484375 364.441406 " fill-opacity="1" fill-rule="nonzero"/><g clip-path="url(#67689dfa83)"><path fill="#535a63" d="M 374.246094 365.117188 C 374.082031 365.117188 373.921875 365.0625 373.792969 364.941406 C 361.503906 353.863281 348.160156 343.832031 334.128906 335.132812 C 319.949219 326.335938 304.902344 318.796875 289.40625 312.722656 C 257.226562 300.105469 223.234375 293.710938 188.363281 293.710938 C 153.496094 293.710938 119.5 300.105469 87.324219 312.722656 C 71.828125 318.796875 56.78125 326.335938 42.597656 335.132812 C 28.570312 343.832031 15.222656 353.863281 2.9375 364.941406 C 2.660156 365.195312 2.234375 365.171875 1.984375 364.894531 C 1.734375 364.613281 1.753906 364.1875 2.03125 363.9375 C 14.378906 352.804688 27.789062 342.722656 41.886719 333.980469 C 56.136719 325.140625 71.261719 317.566406 86.832031 311.460938 C 119.167969 298.785156 153.328125 292.355469 188.367188 292.355469 C 223.402344 292.355469 257.566406 298.785156 289.902344 311.460938 C 305.472656 317.566406 320.59375 325.140625 334.84375 333.980469 C 348.945312 342.722656 362.355469 352.804688 374.699219 363.9375 C 374.976562 364.1875 375 364.613281 374.75 364.894531 C 374.617188 365.042969 374.429688 365.117188 374.246094 365.117188 Z M 374.246094 365.117188 " fill-opacity="1" fill-rule="nonzero"/></g><path fill="#ffffff" d="M 29.699219 342.8125 L 29.699219 331.476562 C 29.699219 331.476562 44.773438 315.03125 62.855469 304.890625 C 93.898438 287.476562 109.828125 289.574219 109.828125 289.574219 L 131.914062 298.78125 C 131.914062 298.78125 117.304688 319.367188 87.78125 334.304688 C 66.246094 345.199219 48.035156 349.363281 48.035156 349.363281 " fill-opacity="1" fill-rule="nonzero"/><path fill="#535a63" d="M 48.035156 350.039062 C 47.726562 350.039062 47.449219 349.824219 47.378906 349.511719 C 47.292969 349.148438 47.523438 348.785156 47.886719 348.699219 C 48.066406 348.65625 66.269531 344.425781 87.476562 333.695312 C 102.636719 326.027344 113.757812 316.835938 120.421875 310.476562 C 126.117188 305.039062 129.613281 300.6875 130.851562 299.066406 L 109.65625 290.234375 C 109.050781 290.175781 105.105469 289.882812 98.011719 291.386719 C 85.128906 294.113281 71.960938 300.554688 63.183594 305.476562 C 46.453125 314.863281 32.125 329.878906 30.375 331.742188 L 30.375 342.8125 C 30.375 343.183594 30.074219 343.488281 29.699219 343.488281 C 29.324219 343.488281 29.023438 343.183594 29.023438 342.8125 L 29.023438 331.476562 C 29.023438 331.308594 29.085938 331.144531 29.199219 331.019531 C 29.351562 330.855469 44.554688 314.375 62.519531 304.296875 C 71.414062 299.308594 84.757812 292.785156 97.839844 290.035156 C 105.726562 288.378906 109.746094 288.875 109.910156 288.898438 C 109.972656 288.90625 110.027344 288.921875 110.082031 288.945312 L 132.171875 298.152344 C 132.359375 298.230469 132.503906 298.390625 132.5625 298.589844 C 132.617188 298.789062 132.582031 299 132.460938 299.167969 C 132.425781 299.21875 128.6875 304.449219 121.382812 311.425781 C 114.648438 317.855469 103.410156 327.152344 88.085938 334.90625 C 66.71875 345.714844 48.367188 349.980469 48.183594 350.019531 C 48.132812 350.03125 48.082031 350.035156 48.03125 350.035156 Z M 48.035156 350.039062 " fill-opacity="1" fill-rule="nonzero"/><path fill="#535a63" d="M 38.867188 332.390625 C 38.59375 332.390625 38.339844 332.226562 38.234375 331.960938 C 38.097656 331.613281 38.269531 331.21875 38.617188 331.082031 C 38.664062 331.066406 43.371094 329.203125 65.863281 318.8125 C 88.25 308.46875 96.835938 299.117188 96.921875 299.023438 C 97.171875 298.746094 97.597656 298.722656 97.875 298.972656 C 98.152344 299.222656 98.175781 299.652344 97.925781 299.929688 C 97.839844 300.027344 95.707031 302.375 90.742188 306.042969 C 86.183594 309.410156 78.265625 314.574219 66.429688 320.039062 C 43.859375 330.46875 39.292969 332.269531 39.109375 332.34375 C 39.03125 332.375 38.945312 332.386719 38.863281 332.386719 Z M 38.867188 332.390625 " fill-opacity="1" fill-rule="nonzero"/><path fill="#ffffff" d="M 238.707031 297.597656 C 238.707031 297.597656 255.257812 293.035156 257.625 293.035156 C 264.609375 293.035156 275.65625 294.304688 300.914062 306.023438 C 326.175781 317.746094 341.238281 330.609375 341.238281 330.609375 L 350.25 345.09375 C 350.25 345.09375 326.121094 348.1875 293.046875 335.367188 C 259.972656 322.550781 243.5 308.632812 243.5 308.632812 " fill-opacity="1" fill-rule="nonzero"/><path fill="#535a63" d="M 343.125 346.101562 C 340.648438 346.101562 337.582031 346.007812 333.996094 345.714844 C 324.675781 344.953125 309.960938 342.652344 292.800781 336 C 283.347656 332.335938 269.199219 326.199219 255.515625 317.769531 C 247.316406 312.71875 243.105469 309.183594 243.0625 309.148438 C 242.777344 308.910156 242.742188 308.480469 242.984375 308.195312 C 243.222656 307.910156 243.652344 307.871094 243.9375 308.113281 C 243.976562 308.148438 248.132812 311.636719 256.261719 316.636719 C 263.761719 321.253906 276.273438 328.140625 293.292969 334.738281 C 310.300781 341.328125 324.875 343.609375 334.105469 344.363281 C 341.667969 344.976562 346.953125 344.699219 349.097656 344.523438 L 340.722656 331.058594 C 339.511719 330.042969 324.578125 317.75 300.628906 306.636719 C 289.277344 301.371094 279.996094 297.820312 272.246094 295.789062 C 265.230469 293.945312 260.746094 293.707031 257.625 293.707031 C 255.761719 293.707031 243.464844 296.988281 238.886719 298.25 C 238.527344 298.347656 238.152344 298.136719 238.054688 297.777344 C 237.957031 297.414062 238.167969 297.042969 238.527344 296.941406 C 240.230469 296.472656 255.238281 292.355469 257.625 292.355469 C 265.261719 292.355469 276.410156 293.90625 301.199219 305.410156 C 314.289062 311.480469 324.589844 317.867188 330.929688 322.152344 C 337.804688 326.796875 341.640625 330.0625 341.679688 330.09375 C 341.730469 330.136719 341.777344 330.191406 341.8125 330.25 L 350.824219 344.734375 C 350.945312 344.929688 350.957031 345.175781 350.859375 345.382812 C 350.761719 345.589844 350.5625 345.734375 350.332031 345.765625 C 350.171875 345.785156 347.628906 346.101562 343.125 346.101562 Z M 343.125 346.101562 " fill-opacity="1" fill-rule="nonzero"/><path fill="#535a63" d="M 331.035156 331.175781 C 331.011719 331.175781 330.988281 331.175781 330.960938 331.171875 C 330.773438 331.152344 312.019531 329.03125 291.339844 319.847656 C 285.375 317.199219 276.671875 312.941406 269.066406 307.691406 C 264.492188 304.535156 262.507812 302.539062 262.425781 302.457031 C 262.164062 302.1875 262.164062 301.761719 262.433594 301.496094 C 262.699219 301.234375 263.125 301.238281 263.390625 301.503906 C 263.46875 301.582031 271.457031 309.535156 291.890625 318.609375 C 312.367188 327.707031 330.925781 329.808594 331.109375 329.828125 C 331.480469 329.867188 331.75 330.203125 331.707031 330.574219 C 331.667969 330.921875 331.375 331.175781 331.035156 331.175781 Z M 331.035156 331.175781 " fill-opacity="1" fill-rule="nonzero"/><path fill="#7a8593" d="M 188.523438 308.421875 C 184.679688 311.027344 180.519531 311.40625 176.039062 309.117188 L 162.550781 67.398438 L 175.035156 66.703125 Z M 188.523438 308.421875 " fill-opacity="1" fill-rule="nonzero"/><path fill="#535a63" d="M 181.835938 311.304688 C 179.835938 311.304688 177.796875 310.777344 175.730469 309.722656 C 175.515625 309.613281 175.375 309.398438 175.359375 309.15625 L 161.871094 67.4375 C 161.863281 67.261719 161.925781 67.085938 162.042969 66.949219 C 162.164062 66.816406 162.332031 66.734375 162.511719 66.726562 L 175 66.027344 C 175.371094 66.003906 175.691406 66.292969 175.710938 66.664062 L 189.199219 308.382812 C 189.214844 308.621094 189.101562 308.847656 188.902344 308.980469 C 186.621094 310.53125 184.257812 311.304688 181.835938 311.304688 Z M 176.691406 308.6875 C 180.601562 310.570312 184.253906 310.367188 187.828125 308.070312 L 174.398438 67.417969 L 163.261719 68.039062 Z M 176.691406 308.6875 " fill-opacity="1" fill-rule="nonzero"/><path fill="#d1def0" d="M 368.476562 199.894531 C 368.476562 201.121094 368.417969 202.34375 368.296875 203.5625 C 368.175781 204.785156 367.996094 205.996094 367.757812 207.199219 C 367.519531 208.402344 367.21875 209.59375 366.863281 210.765625 C 366.507812 211.941406 366.097656 213.09375 365.625 214.226562 C 365.15625 215.363281 364.632812 216.46875 364.054688 217.550781 C 363.476562 218.632812 362.847656 219.683594 362.167969 220.703125 C 361.484375 221.722656 360.757812 222.707031 359.976562 223.65625 C 359.199219 224.605469 358.378906 225.511719 357.511719 226.382812 C 356.644531 227.25 355.734375 228.070312 354.789062 228.851562 C 353.839844 229.628906 352.855469 230.359375 351.835938 231.039062 C 350.816406 231.722656 349.765625 232.351562 348.6875 232.929688 C 347.605469 233.507812 346.496094 234.03125 345.363281 234.5 C 344.230469 234.972656 343.078125 235.382812 341.90625 235.738281 C 340.730469 236.097656 339.542969 236.394531 338.339844 236.632812 C 337.136719 236.871094 335.925781 237.050781 334.707031 237.171875 C 333.484375 237.292969 332.261719 237.351562 331.035156 237.351562 C 329.808594 237.351562 328.585938 237.292969 327.367188 237.171875 C 326.144531 237.050781 324.933594 236.871094 323.730469 236.632812 C 322.53125 236.394531 321.339844 236.097656 320.167969 235.738281 C 318.996094 235.382812 317.839844 234.972656 316.707031 234.5 C 315.574219 234.03125 314.46875 233.507812 313.386719 232.929688 C 312.304688 232.351562 311.253906 231.722656 310.234375 231.039062 C 309.214844 230.359375 308.230469 229.628906 307.285156 228.851562 C 306.335938 228.070312 305.429688 227.25 304.5625 226.382812 C 303.695312 225.511719 302.871094 224.605469 302.09375 223.65625 C 301.316406 222.707031 300.585938 221.722656 299.90625 220.703125 C 299.222656 219.683594 298.59375 218.632812 298.015625 217.550781 C 297.4375 216.46875 296.914062 215.363281 296.445312 214.226562 C 295.976562 213.09375 295.5625 211.941406 295.207031 210.765625 C 294.851562 209.59375 294.554688 208.402344 294.316406 207.199219 C 294.074219 205.996094 293.894531 204.785156 293.777344 203.5625 C 293.65625 202.34375 293.597656 201.121094 293.597656 199.894531 C 293.597656 198.664062 293.65625 197.441406 293.777344 196.222656 C 293.894531 195 294.074219 193.789062 294.316406 192.585938 C 294.554688 191.382812 294.851562 190.191406 295.207031 189.019531 C 295.5625 187.84375 295.976562 186.691406 296.445312 185.558594 C 296.914062 184.421875 297.4375 183.316406 298.015625 182.234375 C 298.59375 181.152344 299.222656 180.101562 299.90625 179.082031 C 300.585938 178.0625 301.316406 177.078125 302.09375 176.128906 C 302.871094 175.179688 303.695312 174.273438 304.5625 173.402344 C 305.429688 172.535156 306.335938 171.714844 307.285156 170.933594 C 308.230469 170.15625 309.214844 169.425781 310.234375 168.746094 C 311.253906 168.0625 312.304688 167.433594 313.386719 166.855469 C 314.46875 166.277344 315.574219 165.753906 316.707031 165.285156 C 317.839844 164.8125 318.996094 164.402344 320.167969 164.046875 C 321.339844 163.6875 322.53125 163.390625 323.730469 163.152344 C 324.933594 162.914062 326.144531 162.734375 327.367188 162.613281 C 328.585938 162.492188 329.808594 162.433594 331.035156 162.433594 C 332.261719 162.433594 333.484375 162.492188 334.707031 162.613281 C 335.925781 162.734375 337.136719 162.914062 338.339844 163.152344 C 339.542969 163.390625 340.730469 163.6875 341.90625 164.046875 C 343.078125 164.402344 344.230469 164.8125 345.363281 165.285156 C 346.496094 165.753906 347.605469 166.277344 348.6875 166.855469 C 349.765625 167.433594 350.816406 168.0625 351.835938 168.746094 C 352.855469 169.425781 353.839844 170.15625 354.789062 170.933594 C 355.734375 171.714844 356.644531 172.535156 357.511719 173.402344 C 358.378906 174.273438 359.199219 175.179688 359.976562 176.128906 C 360.757812 177.078125 361.484375 178.0625 362.167969 179.082031 C 362.847656 180.101562 363.476562 181.152344 364.054688 182.234375 C 364.632812 183.316406 365.15625 184.421875 365.625 185.558594 C 366.097656 186.691406 366.507812 187.84375 366.863281 189.019531 C 367.21875 190.191406 367.519531 191.382812 367.757812 192.585938 C 367.996094 193.789062 368.175781 195 368.296875 196.222656 C 368.417969 197.441406 368.476562 198.664062 368.476562 199.894531 Z M 368.476562 199.894531 " fill-opacity="1" fill-rule="nonzero"/><path fill="#adb9c8" d="M 338.414062 163.160156 C 338.636719 168.789062 338.257812 174.660156 336.382812 178.617188 C 331.6875 188.535156 324.382812 191.667969 307.683594 199.894531 C 300.847656 203.261719 298.046875 209.539062 297.125 215.78125 C 299.785156 221.453125 303.824219 226.351562 308.808594 230.039062 C 309.9375 225.324219 312.0625 220.074219 316.035156 215.6875 C 325.949219 204.722656 341.082031 215.164062 358.585938 206.289062 C 363.226562 203.933594 366.269531 200.042969 368.230469 195.589844 C 366.375 179.378906 354.183594 166.316406 338.414062 163.160156 Z M 338.414062 163.160156 " fill-opacity="1" fill-rule="nonzero"/><path fill="#e9f3ff" d="M 83.710938 41.046875 C 83.710938 42.0625 83.660156 43.078125 83.5625 44.089844 C 83.460938 45.101562 83.3125 46.105469 83.113281 47.105469 C 82.917969 48.101562 82.667969 49.085938 82.375 50.058594 C 82.078125 51.03125 81.738281 51.988281 81.347656 52.929688 C 80.960938 53.867188 80.527344 54.785156 80.046875 55.683594 C 79.566406 56.578125 79.046875 57.449219 78.480469 58.296875 C 77.917969 59.140625 77.3125 59.957031 76.667969 60.742188 C 76.023438 61.53125 75.339844 62.28125 74.621094 63 C 73.902344 63.71875 73.152344 64.402344 72.363281 65.046875 C 71.578125 65.691406 70.765625 66.296875 69.917969 66.863281 C 69.074219 67.425781 68.203125 67.949219 67.308594 68.429688 C 66.410156 68.910156 65.492188 69.34375 64.554688 69.730469 C 63.613281 70.121094 62.660156 70.464844 61.6875 70.757812 C 60.714844 71.054688 59.730469 71.300781 58.734375 71.5 C 57.734375 71.695312 56.730469 71.847656 55.71875 71.945312 C 54.707031 72.046875 53.695312 72.09375 52.679688 72.09375 C 51.660156 72.09375 50.648438 72.046875 49.636719 71.945312 C 48.625 71.847656 47.621094 71.695312 46.625 71.5 C 45.628906 71.300781 44.644531 71.054688 43.671875 70.757812 C 42.699219 70.464844 41.742188 70.121094 40.804688 69.730469 C 39.863281 69.34375 38.945312 68.910156 38.050781 68.429688 C 37.152344 67.949219 36.28125 67.425781 35.4375 66.863281 C 34.59375 66.296875 33.777344 65.691406 32.992188 65.046875 C 32.207031 64.402344 31.453125 63.71875 30.734375 63 C 30.015625 62.28125 29.335938 61.53125 28.691406 60.742188 C 28.046875 59.957031 27.441406 59.140625 26.875 58.296875 C 26.3125 57.449219 25.789062 56.578125 25.308594 55.683594 C 24.832031 54.785156 24.398438 53.867188 24.007812 52.929688 C 23.621094 51.988281 23.277344 51.03125 22.980469 50.058594 C 22.6875 49.085938 22.441406 48.101562 22.242188 47.105469 C 22.042969 46.105469 21.894531 45.101562 21.796875 44.089844 C 21.695312 43.078125 21.644531 42.0625 21.644531 41.046875 C 21.644531 40.03125 21.695312 39.015625 21.796875 38.003906 C 21.894531 36.992188 22.042969 35.988281 22.242188 34.988281 C 22.441406 33.992188 22.6875 33.007812 22.980469 32.035156 C 23.277344 31.0625 23.621094 30.105469 24.007812 29.164062 C 24.398438 28.226562 24.832031 27.308594 25.308594 26.410156 C 25.789062 25.515625 26.3125 24.640625 26.875 23.796875 C 27.441406 22.953125 28.046875 22.136719 28.691406 21.351562 C 29.335938 20.5625 30.015625 19.8125 30.734375 19.09375 C 31.453125 18.371094 32.207031 17.691406 32.992188 17.046875 C 33.777344 16.402344 34.59375 15.796875 35.4375 15.230469 C 36.28125 14.664062 37.152344 14.144531 38.050781 13.664062 C 38.945312 13.183594 39.863281 12.75 40.804688 12.363281 C 41.742188 11.972656 42.699219 11.628906 43.671875 11.335938 C 44.644531 11.039062 45.628906 10.792969 46.625 10.59375 C 47.621094 10.394531 48.625 10.246094 49.636719 10.148438 C 50.648438 10.046875 51.660156 10 52.679688 10 C 53.695312 10 54.707031 10.046875 55.71875 10.148438 C 56.730469 10.246094 57.734375 10.394531 58.734375 10.59375 C 59.730469 10.792969 60.714844 11.039062 61.6875 11.335938 C 62.660156 11.628906 63.613281 11.972656 64.554688 12.363281 C 65.492188 12.75 66.410156 13.183594 67.308594 13.664062 C 68.203125 14.144531 69.074219 14.664062 69.917969 15.230469 C 70.765625 15.796875 71.578125 16.402344 72.363281 17.046875 C 73.152344 17.691406 73.902344 18.371094 74.621094 19.09375 C 75.339844 19.8125 76.023438 20.5625 76.667969 21.351562 C 77.3125 22.136719 77.917969 22.953125 78.480469 23.796875 C 79.046875 24.640625 79.566406 25.515625 80.046875 26.410156 C 80.527344 27.308594 80.960938 28.226562 81.347656 29.164062 C 81.738281 30.105469 82.078125 31.0625 82.375 32.035156 C 82.667969 33.007812 82.917969 33.992188 83.113281 34.988281 C 83.3125 35.988281 83.460938 36.992188 83.5625 38.003906 C 83.660156 39.015625 83.710938 40.03125 83.710938 41.046875 Z M 83.710938 41.046875 " fill-opacity="1" fill-rule="nonzero"/><path fill="#adb9c8" d="M 5.695312 68.621094 C 2.9375 68.621094 1.328125 68.011719 0.78125 66.769531 C 0 64.996094 1.664062 62.457031 5.867188 58.996094 C 9.605469 55.917969 15.285156 52.195312 22.296875 48.230469 C 22.621094 48.046875 23.035156 48.164062 23.21875 48.488281 C 23.402344 48.8125 23.289062 49.226562 22.964844 49.410156 C 16.019531 53.335938 10.402344 57.011719 6.726562 60.039062 C 1.667969 64.203125 1.847656 65.824219 2.019531 66.222656 C 2.234375 66.707031 4.058594 68.917969 19.128906 64.945312 C 29.667969 62.164062 43.15625 57.253906 57.105469 51.113281 C 71.054688 44.976562 83.789062 38.351562 92.957031 32.457031 C 106.074219 24.027344 105.675781 21.191406 105.464844 20.707031 C 105.292969 20.3125 104.230469 19.09375 97.847656 19.980469 C 93.203125 20.621094 86.789062 22.242188 79.304688 24.660156 C 78.945312 24.777344 78.566406 24.582031 78.453125 24.226562 C 78.335938 23.871094 78.53125 23.488281 78.886719 23.375 C 86.449219 20.929688 92.941406 19.292969 97.660156 18.640625 C 102.972656 17.902344 105.929688 18.402344 106.703125 20.160156 C 107.328125 21.582031 106.398438 23.476562 103.859375 25.949219 C 101.621094 28.125 98.203125 30.699219 93.691406 33.597656 C 84.460938 39.527344 71.660156 46.191406 57.648438 52.355469 C 43.636719 58.523438 30.082031 63.457031 19.476562 66.253906 C 14.289062 67.621094 10.082031 68.40625 6.96875 68.582031 C 6.519531 68.609375 6.09375 68.621094 5.695312 68.621094 Z M 5.695312 68.621094 " fill-opacity="1" fill-rule="nonzero"/><path fill="#becee2" d="M 226.375 213.304688 L 101.703125 202.429688 L 122.480469 178.59375 L 106.136719 151.523438 L 230.8125 162.402344 L 247.152344 189.472656 Z M 226.375 213.304688 " fill-opacity="1" fill-rule="nonzero"/><path fill="#535a63" d="M 226.375 213.984375 C 226.355469 213.984375 226.335938 213.984375 226.316406 213.980469 L 101.644531 203.101562 C 101.390625 203.082031 101.171875 202.917969 101.074219 202.679688 C 100.980469 202.445312 101.023438 202.175781 101.191406 201.984375 L 121.644531 178.519531 L 105.558594 151.871094 C 105.429688 151.652344 105.429688 151.378906 105.566406 151.164062 C 105.699219 150.945312 105.945312 150.824219 106.199219 150.847656 L 230.871094 161.722656 C 231.085938 161.742188 231.28125 161.863281 231.394531 162.050781 L 247.734375 189.121094 C 247.882812 189.375 247.859375 189.695312 247.664062 189.917969 L 226.886719 213.75 C 226.757812 213.898438 226.570312 213.980469 226.375 213.980469 Z M 103.085938 201.867188 L 226.089844 212.601562 L 246.316406 189.398438 L 230.410156 163.042969 L 107.40625 152.3125 L 123.058594 178.246094 C 123.210938 178.496094 123.183594 178.816406 122.988281 179.039062 Z M 103.085938 201.867188 " fill-opacity="1" fill-rule="nonzero"/><path fill="#becee2" d="M 117.179688 141.929688 L 241.851562 131.054688 L 221.074219 107.21875 L 237.414062 80.148438 L 112.742188 91.023438 L 96.402344 118.097656 Z M 117.179688 141.929688 " fill-opacity="1" fill-rule="nonzero"/><path fill="#535a63" d="M 117.179688 142.609375 C 116.984375 142.609375 116.800781 142.523438 116.667969 142.378906 L 95.890625 118.542969 C 95.699219 118.320312 95.671875 118 95.824219 117.75 L 112.164062 90.675781 C 112.273438 90.492188 112.46875 90.371094 112.683594 90.351562 L 237.355469 79.472656 C 237.613281 79.449219 237.855469 79.574219 237.992188 79.789062 C 238.125 80.007812 238.128906 80.28125 237.996094 80.496094 L 221.910156 107.148438 L 242.363281 130.609375 C 242.53125 130.800781 242.574219 131.070312 242.480469 131.308594 C 242.386719 131.546875 242.164062 131.707031 241.914062 131.730469 L 117.238281 142.605469 C 117.21875 142.609375 117.199219 142.609375 117.179688 142.609375 Z M 97.234375 118.027344 L 117.460938 141.226562 L 240.464844 130.496094 L 220.5625 107.667969 C 220.371094 107.445312 220.34375 107.125 220.496094 106.871094 L 236.148438 80.9375 L 113.144531 91.671875 Z M 97.234375 118.027344 " fill-opacity="1" fill-rule="nonzero"/><g fill="#000000" fill-opacity="1"><g transform="translate(143.629173, 117.918439)"><g><path d="M 9.210938 -8.203125 L 10.960938 -8.375 C 10.058594 -11.339844 7.328125 -12.148438 5.144531 -11.933594 C 2.007812 -11.625 -0.207031 -8.980469 0.125 -5.621094 C 0.453125 -2.277344 3.089844 -0.109375 6.277344 -0.421875 C 8.34375 -0.625 10.523438 -2.367188 11.089844 -4.609375 L 11.089844 -4.59375 C 11.210938 -4.992188 11.230469 -5.636719 11.214844 -6.597656 L 5.085938 -5.996094 L 5.246094 -4.355469 L 9.449219 -4.769531 C 8.945312 -3.046875 7.523438 -2.136719 6.121094 -2 C 3.890625 -1.78125 2 -3.378906 1.761719 -5.78125 C 1.527344 -8.171875 3.078125 -10.074219 5.308594 -10.292969 C 6.757812 -10.4375 8.566406 -9.988281 9.210938 -8.203125 Z M 9.210938 -8.203125 "/></g></g></g><g fill="#000000" fill-opacity="1"><g transform="translate(156.221655, 116.682739)"><g><path d="M 0.0117188 -5.628906 C 0.324219 -2.410156 3.140625 -0.0976562 6.355469 -0.414062 C 9.574219 -0.730469 11.902344 -3.546875 11.585938 -6.761719 C 11.269531 -9.980469 8.4375 -12.304688 5.222656 -11.988281 C 2.003906 -11.675781 -0.304688 -8.84375 0.0117188 -5.628906 Z M 1.667969 -5.789062 C 1.441406 -8.082031 3.089844 -10.109375 5.382812 -10.332031 C 7.675781 -10.558594 9.703125 -8.894531 9.929688 -6.601562 C 10.152344 -4.308594 8.488281 -2.296875 6.195312 -2.070312 C 3.902344 -1.84375 1.890625 -3.496094 1.667969 -5.789062 Z M 1.667969 -5.789062 "/></g></g></g><g fill="#000000" fill-opacity="1"><g transform="translate(169.021092, 115.426731)"><g><path d="M 2.476562 -3.089844 L 7 -3.53125 L 8.34375 -0.820312 L 10.0625 -0.988281 L 4.480469 -11.835938 L 3.300781 -11.722656 L -0.0625 0.0078125 L 1.671875 -0.164062 Z M 6.261719 -4.988281 L 2.917969 -4.660156 L 4.160156 -9.21875 Z M 6.261719 -4.988281 "/></g></g></g><g fill="#000000" fill-opacity="1"><g transform="translate(179.114173, 114.436298)"><g><path d="M 8.058594 -2.414062 L 2.820312 -1.898438 L 1.882812 -11.4375 L 0.277344 -11.277344 L 1.371094 -0.132812 L 8.214844 -0.804688 Z M 8.058594 -2.414062 "/></g></g></g><g fill="#000000" fill-opacity="1"><g transform="translate(187.408334, 113.622392)"><g><path d="M 6.128906 -8.945312 L 7.714844 -9.164062 C 7.230469 -11.175781 5.359375 -11.890625 3.640625 -11.722656 C 2.351562 -11.59375 1.0625 -10.953125 0.410156 -9.910156 C 0.0507812 -9.328125 -0.09375 -8.671875 -0.03125 -8.003906 C -0.0234375 -7.921875 0.00390625 -7.828125 0.0117188 -7.734375 L 0.0117188 -7.75 C 0.414062 -5.441406 2.488281 -5.257812 4.242188 -5.253906 C 5.367188 -5.253906 6.527344 -5.222656 6.800781 -4.398438 C 6.847656 -4.257812 6.875 -4.128906 6.886719 -4.019531 C 7 -2.871094 5.761719 -2.078125 4.566406 -1.960938 C 3.53125 -1.859375 2.21875 -2.273438 2.007812 -3.300781 L 2.011719 -3.234375 L 1.972656 -3.472656 L 0.351562 -3.28125 L 0.398438 -2.980469 C 0.800781 -1.011719 2.988281 -0.195312 4.707031 -0.367188 C 6.710938 -0.5625 8.722656 -2.011719 8.511719 -4.164062 C 8.492188 -4.386719 8.433594 -4.652344 8.359375 -4.886719 C 7.757812 -6.628906 5.824219 -6.839844 4.277344 -6.882812 C 3.023438 -6.871094 1.71875 -6.902344 1.589844 -8.191406 C 1.558594 -8.511719 1.609375 -8.839844 1.777344 -9.09375 C 2.179688 -9.730469 3 -10.066406 3.761719 -10.140625 C 4.71875 -10.234375 5.8125 -9.910156 6.128906 -8.945312 Z M 6.128906 -8.945312 "/></g></g></g><g fill="#000000" fill-opacity="1"><g transform="translate(151.896024, 184.226569)"><g><path d="M 4.332031 -9.429688 L 3.472656 0.304688 L 5.082031 0.449219 L 5.941406 -9.289062 L 9.304688 -8.992188 L 9.4375 -10.523438 L 1.085938 -11.257812 L 0.953125 -9.726562 Z M 4.332031 -9.429688 "/></g></g></g><g fill="#000000" fill-opacity="1"><g transform="translate(160.452889, 184.979587)"><g><path d="M 1.046875 -5.527344 C 0.765625 -2.308594 3.105469 0.480469 6.324219 0.765625 C 9.542969 1.046875 12.351562 -1.289062 12.632812 -4.507812 C 12.917969 -7.726562 10.5625 -10.535156 7.34375 -10.820312 C 4.125 -11.101562 1.332031 -8.746094 1.046875 -5.527344 Z M 2.707031 -5.382812 C 2.90625 -7.675781 4.902344 -9.363281 7.199219 -9.164062 C 9.492188 -8.960938 11.179688 -6.949219 10.976562 -4.65625 C 10.773438 -2.359375 8.765625 -0.691406 6.46875 -0.890625 C 4.175781 -1.09375 2.503906 -3.085938 2.707031 -5.382812 Z M 2.707031 -5.382812 "/></g></g></g><g fill="#000000" fill-opacity="1"><g transform="translate(173.264293, 186.107012)"><g><path d="M 6.433594 -10.675781 L 2.351562 -11.035156 L 1.371094 0.121094 L 2.996094 0.261719 L 3.324219 -3.449219 L 5.777344 -3.234375 C 8.183594 -3.023438 9.558594 -4.765625 9.722656 -6.628906 C 9.886719 -8.492188 8.839844 -10.464844 6.433594 -10.675781 Z M 5.917969 -4.828125 L 3.464844 -5.042969 L 3.835938 -9.265625 L 6.289062 -9.050781 C 7.644531 -8.929688 8.21875 -7.820312 8.125 -6.753906 C 8.035156 -5.699219 7.273438 -4.707031 5.917969 -4.828125 Z M 5.917969 -4.828125 "/></g></g></g><g fill="#000000" fill-opacity="1"><g transform="translate(182.729433, 186.939959)"><g><path d="M 5.910156 -9.324219 L 7.984375 -9.140625 L 8.113281 -10.625 L 2.359375 -11.128906 L 2.230469 -9.648438 L 4.300781 -9.464844 L 3.574219 -1.195312 L 1.503906 -1.378906 L 1.371094 0.121094 L 7.125 0.625 L 7.253906 -0.871094 L 5.183594 -1.054688 Z M 5.910156 -9.324219 "/></g></g></g><g fill="#000000" fill-opacity="1"><g transform="translate(191.206623, 187.685966)"><g><path d="M 1.109375 -5.492188 C 0.972656 -3.945312 1.519531 -2.46875 2.382812 -1.363281 C 3.265625 -0.257812 4.613281 0.488281 6.128906 0.621094 C 8.726562 0.847656 10.917969 -0.695312 11.777344 -3.171875 L 10.199219 -3.308594 C 9.476562 -1.671875 7.957031 -0.824219 6.269531 -0.972656 C 5.199219 -1.066406 4.171875 -1.609375 3.535156 -2.402344 C 2.898438 -3.199219 2.574219 -4.238281 2.671875 -5.355469 C 2.773438 -6.5 3.289062 -7.449219 4.054688 -8.121094 C 4.820312 -8.792969 5.917969 -9.210938 6.984375 -9.117188 C 8.625 -8.972656 9.917969 -7.960938 10.359375 -6.234375 L 11.953125 -6.09375 C 11.539062 -8.667969 9.675781 -10.488281 7.125 -10.710938 C 5.613281 -10.84375 4.101562 -10.269531 3.039062 -9.351562 C 1.992188 -8.417969 1.25 -7.070312 1.109375 -5.492188 Z M 1.109375 -5.492188 "/></g></g></g><g fill="#000000" fill-opacity="1"><g transform="translate(203.22129, 188.743276)"><g><path d="M 7.675781 -7.660156 L 9.273438 -7.582031 C 9.167969 -9.648438 7.460938 -10.699219 5.742188 -10.847656 C 4.449219 -10.960938 3.066406 -10.570312 2.230469 -9.664062 C 1.769531 -9.160156 1.507812 -8.539062 1.449219 -7.871094 C 1.441406 -7.789062 1.449219 -7.695312 1.441406 -7.597656 L 1.441406 -7.613281 C 1.410156 -5.273438 3.417969 -4.710938 5.140625 -4.382812 C 6.246094 -4.171875 7.378906 -3.925781 7.496094 -3.066406 C 7.515625 -2.917969 7.519531 -2.789062 7.511719 -2.679688 C 7.410156 -1.53125 6.042969 -0.976562 4.847656 -1.082031 C 3.8125 -1.175781 2.601562 -1.828125 2.582031 -2.871094 L 2.574219 -2.808594 L 2.582031 -3.050781 L 0.953125 -3.160156 L 0.941406 -2.855469 C 0.972656 -0.847656 2.972656 0.359375 4.691406 0.507812 C 6.699219 0.6875 8.945312 -0.367188 9.132812 -2.519531 C 9.15625 -2.742188 9.144531 -3.015625 9.121094 -3.261719 C 8.847656 -5.082031 6.984375 -5.648438 5.472656 -5.972656 C 4.238281 -6.195312 2.960938 -6.46875 3.074219 -7.757812 C 3.105469 -8.078125 3.210938 -8.390625 3.421875 -8.613281 C 3.9375 -9.160156 4.804688 -9.339844 5.570312 -9.273438 C 6.527344 -9.191406 7.539062 -8.667969 7.675781 -7.660156 Z M 7.675781 -7.660156 "/></g></g></g></svg>
