<svg width="306" height="345" viewBox="0 0 306 345" fill="none" xmlns="http://www.w3.org/2000/svg">
<mask id="mask0_12_423" style="mask-type:luminance" maskUnits="userSpaceOnUse" x="0" y="0" width="306" height="345">
<path d="M0 0H305.9V345H0V0Z" fill="white"/>
</mask>
<g mask="url(#mask0_12_423)">
<path d="M28.2918 309.961L0.664852 0H304.561L276.934 309.961L152.276 345" fill="#E34F26"/>
</g>
<path d="M152.95 318.047L253.35 290.42L276.934 24.9316H152.95" fill="#EF652A"/>
<path d="M152.95 140.156H102.413L99.0438 101.074H152.95V63.3398H57.2664L57.9402 73.4473L67.3738 178.564H152.95V140.156ZM152.95 239.209H152.276L109.825 227.754L107.13 197.432H69.3953L74.1121 257.402L152.276 278.965H152.95V239.209Z" fill="#EBEBEB"/>
<path d="M152.276 140.156V178.564H199.444L194.727 227.754L152.276 239.209V278.965L230.44 257.402L231.114 250.664L239.874 150.264L241.222 140.156H152.276ZM152.276 63.3398V101.074H244.591L245.264 92.9883L247.286 73.4473L247.96 63.3398H152.276Z" fill="white"/>
</svg>
