<svg width="500" height="500" viewBox="0 0 500 500" fill="none" xmlns="http://www.w3.org/2000/svg">
<path d="M351.026 116.531H337.766L342.417 44.4375H347.37L351.026 116.531Z" fill="white"/>
<path d="M351.026 117.443H337.766C337.51 117.443 337.271 117.339 337.099 117.156C336.927 116.974 336.838 116.729 336.854 116.474L341.51 44.3802C341.542 43.901 341.937 43.526 342.417 43.526H347.37C347.854 43.526 348.255 43.9062 348.276 44.3906L351.932 116.49C351.948 116.74 351.859 116.979 351.687 117.161C351.51 117.344 351.276 117.448 351.026 117.448V117.443ZM338.734 115.625H350.068L346.505 45.3437H343.271L338.729 115.625H338.734Z" fill="#535A63"/>
<path d="M313.005 88.7553C312.818 88.7553 312.635 88.698 312.469 88.5834C298.344 78.3542 289.906 61.849 289.906 44.4375C289.906 27.0209 298.344 10.5209 312.469 0.291709C312.88 -0.00516552 313.448 0.0833762 313.74 0.494835C314.036 0.901084 313.948 1.46879 313.536 1.76567C299.88 11.6563 291.724 27.6042 291.724 44.4375C291.724 61.2657 299.88 77.2188 313.536 87.1094C313.948 87.4011 314.036 87.974 313.74 88.3803C313.563 88.625 313.286 88.7553 313.005 88.7553Z" fill="#535A63"/>
<path d="M321.234 77.3906C321.047 77.3906 320.859 77.3333 320.698 77.2187C310.203 69.6145 303.938 57.3645 303.938 44.4375C303.938 31.5104 310.203 19.2552 320.698 11.6562C321.104 11.3593 321.677 11.4479 321.969 11.8593C322.266 12.2656 322.172 12.8333 321.766 13.1302C311.74 20.3854 305.755 32.0937 305.755 44.4375C305.755 56.7812 311.74 68.4843 321.766 75.7448C322.172 76.0364 322.266 76.6093 321.969 77.0156C321.792 77.2604 321.516 77.3906 321.234 77.3906Z" fill="#535A63"/>
<path d="M329.464 66.026C329.276 66.026 329.089 65.974 328.927 65.8542C322.063 60.8854 317.969 52.875 317.969 44.4375C317.969 35.9948 322.063 27.9896 328.927 23.0156C329.339 22.724 329.906 22.8125 330.198 23.2188C330.495 23.6302 330.401 24.1979 329.995 24.4896C323.604 29.1198 319.786 36.5729 319.786 44.4375C319.786 52.2969 323.604 59.75 329.995 64.3802C330.401 64.6771 330.495 65.2448 330.198 65.651C330.021 65.8958 329.745 66.026 329.464 66.026Z" fill="#535A63"/>
<path d="M375.787 88.7553C375.505 88.7553 375.224 88.625 375.047 88.3803C374.755 87.9688 374.844 87.4011 375.25 87.1094C388.912 77.2188 397.063 61.2657 397.063 44.4375C397.063 27.6042 388.912 11.6563 375.25 1.76567C374.844 1.46879 374.755 0.901084 375.047 0.494835C375.344 0.0833762 375.912 -0.00516552 376.318 0.291709C390.448 10.5209 398.88 27.0209 398.88 44.4375C398.88 61.849 390.448 78.349 376.318 88.5834C376.156 88.698 375.969 88.7553 375.787 88.7553Z" fill="#535A63"/>
<path d="M367.557 77.3906C367.276 77.3906 366.995 77.2604 366.818 77.0156C366.526 76.6041 366.615 76.0364 367.021 75.7448C377.047 68.4843 383.031 56.7812 383.031 44.4375C383.031 32.0937 377.047 20.3854 367.021 13.1302C366.615 12.8333 366.526 12.2656 366.818 11.8593C367.115 11.4479 367.682 11.3593 368.089 11.6562C378.589 19.2552 384.854 31.5104 384.854 44.4375C384.854 57.3645 378.589 69.6145 368.089 77.2187C367.927 77.3333 367.745 77.3906 367.557 77.3906Z" fill="#535A63"/>
<path d="M359.328 66.026C359.047 66.026 358.771 65.8958 358.594 65.651C358.297 65.2448 358.391 64.6771 358.797 64.3802C365.187 59.75 369.005 52.2969 369.005 44.4375C369.005 36.5729 365.187 29.1198 358.797 24.4896C358.391 24.1979 358.297 23.625 358.594 23.2188C358.885 22.8125 359.458 22.724 359.865 23.0156C366.729 27.9896 370.823 35.9948 370.823 44.4375C370.823 52.875 366.729 60.8854 359.865 65.8542C359.703 65.974 359.516 66.026 359.328 66.026Z" fill="#535A63"/>
<path d="M355.885 44.4375C355.885 45.1927 355.813 45.9375 355.661 46.677C355.516 47.4166 355.297 48.1354 355.01 48.8333C354.719 49.5312 354.37 50.1927 353.948 50.8177C353.531 51.4479 353.052 52.026 352.521 52.5573C351.984 53.0937 351.406 53.5677 350.776 53.9895C350.151 54.4062 349.49 54.7604 348.792 55.052C348.094 55.3385 347.375 55.5573 346.635 55.7031C345.896 55.8489 345.151 55.9218 344.396 55.9218C343.641 55.9218 342.896 55.8489 342.156 55.7031C341.417 55.5573 340.698 55.3385 340 55.052C339.302 54.7604 338.641 54.4062 338.016 53.9895C337.385 53.5677 336.807 53.0937 336.271 52.5573C335.74 52.026 335.26 51.4479 334.844 50.8177C334.422 50.1927 334.073 49.5312 333.781 48.8333C333.495 48.1354 333.276 47.4166 333.13 46.677C332.979 45.9375 332.906 45.1927 332.906 44.4375C332.906 43.6823 332.979 42.9323 333.13 42.1927C333.276 41.4531 333.495 40.7343 333.781 40.0416C334.073 39.3437 334.422 38.6823 334.844 38.052C335.26 37.427 335.74 36.8437 336.271 36.3125C336.807 35.7812 337.385 35.302 338.016 34.8854C338.641 34.4635 339.302 34.1093 340 33.8229C340.698 33.5312 341.417 33.3177 342.156 33.1666C342.896 33.0208 343.641 32.9479 344.396 32.9479C345.151 32.9479 345.896 33.0208 346.635 33.1666C347.375 33.3177 348.094 33.5312 348.792 33.8229C349.49 34.1093 350.151 34.4635 350.776 34.8854C351.406 35.302 351.984 35.7812 352.521 36.3125C353.052 36.8437 353.531 37.427 353.948 38.052C354.37 38.6823 354.719 39.3437 355.01 40.0416C355.297 40.7343 355.516 41.4531 355.661 42.1927C355.813 42.9323 355.885 43.6823 355.885 44.4375Z" fill="#9CA9BA"/>
<path d="M344.396 56.8334C337.557 56.8334 331.995 51.2709 331.995 44.4375C331.995 37.599 337.557 32.0365 344.396 32.0365C351.234 32.0365 356.797 37.599 356.797 44.4375C356.797 51.2709 351.234 56.8334 344.396 56.8334ZM344.396 33.8594C338.563 33.8594 333.818 38.6042 333.818 44.4375C333.818 50.2709 338.563 55.0157 344.396 55.0157C350.229 55.0157 354.974 50.2709 354.974 44.4375C354.974 38.6042 350.229 33.8594 344.396 33.8594Z" fill="#535A63"/>
<path d="M329.464 264.036H359.328V338.698H329.464V264.036Z" fill="white"/>
<path d="M359.328 339.609H329.463C328.963 339.609 328.552 339.203 328.552 338.698V264.036C328.552 263.536 328.963 263.13 329.463 263.13H359.328C359.828 263.13 360.24 263.536 360.24 264.036V338.698C360.24 339.203 359.828 339.609 359.328 339.609ZM330.375 337.787H358.417V264.948H330.375V337.787Z" fill="#535A63"/>
<path d="M243.437 329.729H445.354C445.724 329.729 446.088 329.766 446.453 329.839C446.818 329.912 447.167 330.021 447.51 330.162C447.854 330.302 448.177 330.474 448.484 330.682C448.792 330.885 449.078 331.12 449.338 331.38C449.599 331.646 449.833 331.927 450.042 332.234C450.245 332.542 450.422 332.87 450.562 333.214C450.703 333.552 450.807 333.906 450.88 334.271C450.953 334.63 450.99 335 450.99 335.37V358.938C450.99 359.307 450.953 359.672 450.88 360.037C450.807 360.401 450.703 360.75 450.562 361.094C450.422 361.438 450.245 361.76 450.042 362.068C449.833 362.375 449.599 362.662 449.338 362.922C449.078 363.182 448.792 363.417 448.484 363.625C448.177 363.828 447.854 364.005 447.51 364.146C447.167 364.287 446.818 364.391 446.453 364.464C446.088 364.537 445.724 364.573 445.354 364.573H243.437C243.068 364.573 242.703 364.537 242.338 364.464C241.974 364.391 241.625 364.287 241.281 364.146C240.937 364.005 240.615 363.828 240.307 363.625C240 363.417 239.713 363.182 239.453 362.922C239.193 362.662 238.958 362.375 238.75 362.068C238.547 361.76 238.37 361.438 238.229 361.094C238.088 360.75 237.984 360.401 237.911 360.037C237.838 359.672 237.802 359.307 237.802 358.938V335.37C237.802 335 237.838 334.63 237.911 334.271C237.984 333.906 238.088 333.552 238.229 333.214C238.37 332.87 238.547 332.542 238.75 332.234C238.958 331.927 239.193 331.646 239.453 331.38C239.713 331.12 240 330.885 240.307 330.682C240.615 330.474 240.937 330.302 241.281 330.162C241.625 330.021 241.974 329.912 242.338 329.839C242.703 329.766 243.068 329.729 243.437 329.729Z" fill="white"/>
<path d="M445.354 365.484H243.438C239.828 365.484 236.891 362.547 236.891 358.938V335.37C236.891 331.76 239.828 328.823 243.438 328.823H445.354C448.964 328.823 451.901 331.755 451.901 335.37V358.938C451.901 362.547 448.964 365.484 445.354 365.484ZM243.438 330.641C240.828 330.641 238.708 332.76 238.708 335.37V358.938C238.708 361.542 240.828 363.662 243.438 363.662H445.354C447.958 363.662 450.078 361.542 450.078 358.938V335.37C450.078 332.76 447.958 330.641 445.354 330.641H243.438Z" fill="#535A63"/>
<path d="M243.437 364.573H445.354C445.724 364.573 446.088 364.609 446.453 364.682C446.818 364.755 447.167 364.859 447.51 365C447.854 365.146 448.177 365.318 448.484 365.526C448.792 365.729 449.078 365.964 449.338 366.224C449.599 366.484 449.833 366.771 450.042 367.078C450.245 367.385 450.422 367.714 450.562 368.052C450.703 368.396 450.807 368.75 450.88 369.109C450.953 369.474 450.99 369.839 450.99 370.208V411.891C450.99 412.26 450.953 412.63 450.88 412.99C450.807 413.354 450.703 413.708 450.562 414.052C450.422 414.391 450.245 414.719 450.042 415.026C449.833 415.333 449.599 415.615 449.338 415.88C449.078 416.141 448.792 416.375 448.484 416.578C448.177 416.786 447.854 416.958 447.51 417.099C447.167 417.24 446.818 417.349 446.453 417.422C446.088 417.495 445.724 417.531 445.354 417.531H243.437C243.068 417.531 242.703 417.495 242.338 417.422C241.974 417.349 241.625 417.24 241.281 417.099C240.937 416.958 240.615 416.786 240.307 416.578C240 416.375 239.713 416.141 239.453 415.88C239.193 415.615 238.958 415.333 238.75 415.026C238.547 414.719 238.37 414.391 238.229 414.052C238.088 413.708 237.984 413.354 237.911 412.99C237.838 412.63 237.802 412.26 237.802 411.891V370.208C237.802 369.839 237.838 369.474 237.911 369.109C237.984 368.75 238.088 368.396 238.229 368.052C238.37 367.714 238.547 367.385 238.75 367.078C238.958 366.771 239.193 366.484 239.453 366.224C239.713 365.964 240 365.729 240.307 365.526C240.615 365.318 240.937 365.146 241.281 365C241.625 364.859 241.974 364.755 242.338 364.682C242.703 364.609 243.068 364.573 243.437 364.573Z" fill="white"/>
<path d="M445.354 418.438H243.438C239.828 418.438 236.891 415.505 236.891 411.891V370.208C236.891 366.599 239.828 363.661 243.438 363.661H445.354C448.964 363.661 451.901 366.599 451.901 370.208V411.891C451.901 415.5 448.964 418.438 445.354 418.438ZM243.438 365.484C240.828 365.484 238.708 367.604 238.708 370.208V411.896C238.708 414.5 240.828 416.62 243.438 416.62H445.354C447.958 416.62 450.078 414.5 450.078 411.896V370.208C450.078 367.604 447.958 365.484 445.354 365.484H243.438Z" fill="#535A63"/>
<path d="M465.021 147.089V264.38C465.021 283.958 449.125 299.854 429.542 299.854H259.245C239.667 299.854 223.771 283.958 223.771 264.38V147.089C223.771 127.51 239.667 111.615 259.245 111.615H429.542C449.125 111.615 465.021 127.51 465.021 147.089Z" fill="white"/>
<path d="M429.542 300.766H259.245C239.182 300.766 222.859 284.443 222.859 264.38V147.089C222.859 127.026 239.182 110.703 259.245 110.703H429.542C449.609 110.703 465.927 127.026 465.927 147.089V264.38C465.927 284.443 449.609 300.766 429.542 300.766ZM259.245 112.526C240.188 112.526 224.682 128.031 224.682 147.089V264.38C224.682 283.438 240.188 298.943 259.245 298.943H429.542C448.604 298.943 464.109 283.438 464.109 264.38V147.089C464.109 128.031 448.604 112.526 429.542 112.526H259.245Z" fill="#535A63"/>
<path d="M262.354 125.646H426.437C427.24 125.646 428.042 125.682 428.844 125.766C429.641 125.844 430.437 125.958 431.224 126.115C432.016 126.276 432.792 126.469 433.562 126.703C434.333 126.938 435.088 127.208 435.833 127.516C436.573 127.823 437.302 128.167 438.01 128.547C438.719 128.922 439.406 129.339 440.078 129.781C440.745 130.229 441.391 130.708 442.01 131.219C442.635 131.729 443.229 132.271 443.797 132.839C444.365 133.406 444.906 134 445.417 134.625C445.927 135.245 446.406 135.891 446.854 136.557C447.297 137.229 447.713 137.917 448.088 138.625C448.469 139.333 448.812 140.063 449.12 140.802C449.427 141.547 449.698 142.302 449.932 143.073C450.167 143.844 450.359 144.62 450.521 145.411C450.677 146.198 450.792 146.995 450.87 147.792C450.953 148.594 450.99 149.396 450.99 150.198V261.271C450.99 262.073 450.953 262.875 450.87 263.677C450.792 264.479 450.677 265.271 450.521 266.063C450.359 266.849 450.167 267.63 449.932 268.396C449.698 269.167 449.427 269.922 449.12 270.667C448.812 271.412 448.469 272.135 448.088 272.844C447.713 273.552 447.297 274.245 446.854 274.912C446.406 275.578 445.927 276.224 445.417 276.849C444.906 277.469 444.365 278.063 443.797 278.635C443.229 279.203 442.635 279.74 442.01 280.25C441.391 280.76 440.745 281.24 440.078 281.688C439.406 282.135 438.719 282.547 438.01 282.927C437.302 283.302 436.573 283.646 435.833 283.958C435.088 284.266 434.333 284.537 433.562 284.766C432.792 285 432.016 285.198 431.224 285.354C430.437 285.51 429.641 285.63 428.844 285.708C428.042 285.787 427.24 285.823 426.437 285.823H262.354C261.552 285.823 260.75 285.787 259.948 285.708C259.151 285.63 258.354 285.51 257.568 285.354C256.776 285.198 256 285 255.229 284.766C254.458 284.537 253.703 284.266 252.958 283.958C252.219 283.646 251.49 283.302 250.781 282.927C250.073 282.547 249.385 282.135 248.713 281.688C248.047 281.24 247.401 280.76 246.781 280.25C246.156 279.74 245.562 279.203 244.995 278.635C244.427 278.063 243.885 277.469 243.375 276.849C242.865 276.224 242.385 275.583 241.937 274.912C241.495 274.245 241.078 273.552 240.703 272.844C240.323 272.135 239.979 271.412 239.672 270.667C239.365 269.922 239.094 269.167 238.859 268.396C238.625 267.63 238.432 266.849 238.276 266.063C238.115 265.271 238 264.479 237.922 263.677C237.838 262.875 237.802 262.073 237.802 261.271V150.198C237.802 149.396 237.838 148.594 237.922 147.792C238 146.995 238.115 146.198 238.276 145.411C238.432 144.62 238.625 143.844 238.859 143.073C239.094 142.302 239.365 141.547 239.672 140.802C239.979 140.063 240.323 139.333 240.703 138.625C241.078 137.917 241.495 137.229 241.937 136.557C242.385 135.891 242.865 135.245 243.375 134.625C243.885 134 244.427 133.406 244.995 132.839C245.562 132.271 246.156 131.729 246.781 131.219C247.401 130.708 248.047 130.229 248.713 129.781C249.385 129.339 250.073 128.922 250.781 128.547C251.49 128.167 252.219 127.823 252.958 127.516C253.703 127.208 254.458 126.938 255.229 126.703C256 126.469 256.776 126.276 257.568 126.115C258.354 125.958 259.151 125.844 259.948 125.766C260.75 125.682 261.552 125.646 262.354 125.646Z" fill="#7A8593"/>
<path d="M426.438 286.734H262.354C248.313 286.734 236.891 275.313 236.891 261.266V150.198C236.891 136.156 248.313 124.734 262.354 124.734H426.438C440.479 124.734 451.901 136.156 451.901 150.198V261.266C451.901 275.313 440.479 286.734 426.438 286.734ZM262.354 126.552C249.318 126.552 238.714 137.161 238.714 150.198V261.266C238.714 274.307 249.318 284.911 262.354 284.911H426.438C439.474 284.911 450.078 274.307 450.078 261.266V150.198C450.078 137.161 439.474 126.552 426.438 126.552H262.354Z" fill="#535A63"/>
<path d="M353.281 342.635H409.896V351.667H353.281V342.635Z" fill="#7A8593"/>
<path d="M409.896 352.578H353.281C352.781 352.578 352.37 352.172 352.37 351.667V342.635C352.37 342.135 352.781 341.729 353.281 341.729H409.896C410.396 341.729 410.802 342.135 410.802 342.635V351.667C410.802 352.172 410.396 352.578 409.896 352.578ZM354.193 350.755H408.984V343.547H354.193V350.755Z" fill="#535A63"/>
<path d="M278.859 347.151C278.859 347.745 278.745 348.313 278.516 348.859C278.292 349.406 277.969 349.891 277.552 350.307C277.13 350.729 276.651 351.052 276.099 351.276C275.552 351.505 274.984 351.615 274.391 351.615C273.802 351.615 273.229 351.505 272.682 351.276C272.135 351.052 271.656 350.729 271.234 350.307C270.818 349.891 270.495 349.406 270.266 348.859C270.042 348.313 269.927 347.745 269.927 347.151C269.927 346.557 270.042 345.99 270.266 345.443C270.495 344.896 270.818 344.411 271.234 343.995C271.656 343.578 272.135 343.255 272.682 343.026C273.229 342.802 273.802 342.688 274.391 342.688C274.984 342.688 275.552 342.802 276.099 343.026C276.651 343.255 277.13 343.578 277.552 343.995C277.969 344.411 278.292 344.896 278.516 345.443C278.745 345.99 278.859 346.557 278.859 347.151Z" fill="#7A8593"/>
<path d="M274.391 352.526C271.432 352.526 269.016 350.115 269.016 347.151C269.016 344.188 271.432 341.776 274.391 341.776C277.354 341.776 279.766 344.188 279.766 347.151C279.766 350.115 277.354 352.526 274.391 352.526ZM274.391 343.599C272.432 343.599 270.839 345.193 270.839 347.151C270.839 349.109 272.432 350.708 274.391 350.708C276.354 350.708 277.948 349.109 277.948 347.151C277.948 345.193 276.354 343.599 274.391 343.599Z" fill="#535A63"/>
<path d="M298.229 347.151C298.229 347.745 298.115 348.313 297.885 348.859C297.661 349.406 297.339 349.891 296.922 350.307C296.5 350.729 296.016 351.052 295.469 351.276C294.922 351.505 294.354 351.615 293.76 351.615C293.172 351.615 292.599 351.505 292.052 351.276C291.505 351.052 291.026 350.729 290.604 350.307C290.188 349.891 289.865 349.406 289.635 348.859C289.411 348.313 289.297 347.745 289.297 347.151C289.297 346.557 289.411 345.99 289.635 345.443C289.865 344.896 290.188 344.411 290.604 343.995C291.026 343.578 291.505 343.255 292.052 343.026C292.599 342.802 293.172 342.688 293.76 342.688C294.354 342.688 294.922 342.802 295.469 343.026C296.016 343.255 296.5 343.578 296.922 343.995C297.339 344.411 297.661 344.896 297.885 345.443C298.115 345.99 298.229 346.557 298.229 347.151Z" fill="#7A8593"/>
<path d="M293.76 352.526C290.797 352.526 288.385 350.115 288.385 347.151C288.385 344.188 290.797 341.776 293.76 341.776C296.724 341.776 299.135 344.188 299.135 347.151C299.135 350.115 296.724 352.526 293.76 352.526ZM293.76 343.599C291.802 343.599 290.208 345.193 290.208 347.151C290.208 349.109 291.802 350.708 293.76 350.708C295.724 350.708 297.318 349.109 297.318 347.151C297.318 345.193 295.724 343.599 293.76 343.599Z" fill="#535A63"/>
<path d="M317.599 347.151C317.599 347.745 317.484 348.313 317.255 348.859C317.031 349.406 316.708 349.891 316.287 350.307C315.87 350.729 315.385 351.052 314.839 351.276C314.292 351.505 313.724 351.615 313.13 351.615C312.542 351.615 311.969 351.505 311.422 351.276C310.875 351.052 310.396 350.729 309.974 350.307C309.557 349.891 309.234 349.406 309.005 348.859C308.781 348.313 308.667 347.745 308.667 347.151C308.667 346.557 308.781 345.99 309.005 345.443C309.234 344.896 309.557 344.411 309.974 343.995C310.396 343.578 310.875 343.255 311.422 343.026C311.969 342.802 312.542 342.688 313.13 342.688C313.724 342.688 314.292 342.802 314.839 343.026C315.385 343.255 315.87 343.578 316.287 343.995C316.708 344.411 317.031 344.896 317.255 345.443C317.484 345.99 317.599 346.557 317.599 347.151Z" fill="#7A8593"/>
<path d="M313.13 352.526C310.167 352.526 307.755 350.115 307.755 347.151C307.755 344.188 310.167 341.776 313.13 341.776C316.094 341.776 318.505 344.188 318.505 347.151C318.505 350.115 316.094 352.526 313.13 352.526ZM313.13 343.599C311.172 343.599 309.578 345.193 309.578 347.151C309.578 349.109 311.172 350.708 313.13 350.708C315.094 350.708 316.687 349.109 316.687 347.151C316.687 345.193 315.094 343.599 313.13 343.599Z" fill="#535A63"/>
<path d="M282.927 220.661H267.745C266.552 220.661 265.589 219.698 265.589 218.51C265.589 217.318 266.552 216.354 267.745 216.354H282.927C284.115 216.354 285.078 217.318 285.078 218.51C285.078 219.698 284.115 220.661 282.927 220.661Z" fill="white"/>
<path d="M317.458 220.661H302.271C301.083 220.661 300.12 219.698 300.12 218.51C300.12 217.318 301.083 216.354 302.271 216.354H317.458C318.646 216.354 319.609 217.318 319.609 218.51C319.609 219.698 318.646 220.661 317.458 220.661Z" fill="white"/>
<path d="M351.99 220.661H336.802C335.615 220.661 334.651 219.698 334.651 218.51C334.651 217.318 335.615 216.354 336.802 216.354H351.99C353.177 216.354 354.141 217.318 354.141 218.51C354.141 219.698 353.177 220.661 351.99 220.661Z" fill="white"/>
<path d="M386.521 220.661H371.333C370.146 220.661 369.182 219.698 369.182 218.51C369.182 217.318 370.146 216.354 371.333 216.354H386.521C387.708 216.354 388.672 217.318 388.672 218.51C388.672 219.698 387.708 220.661 386.521 220.661Z" fill="white"/>
<path d="M421.047 220.661H405.865C404.677 220.661 403.714 219.698 403.714 218.51C403.714 217.318 404.677 216.354 405.865 216.354H421.047C422.24 216.354 423.203 217.318 423.203 218.51C423.203 219.698 422.24 220.661 421.047 220.661Z" fill="white"/>
<path d="M282.927 245.474H267.745C266.552 245.474 265.589 244.51 265.589 243.323C265.589 242.135 266.552 241.167 267.745 241.167H282.927C284.115 241.167 285.078 242.135 285.078 243.323C285.078 244.51 284.115 245.474 282.927 245.474Z" fill="white"/>
<path d="M317.458 245.474H302.271C301.083 245.474 300.12 244.51 300.12 243.323C300.12 242.135 301.083 241.167 302.271 241.167H317.458C318.646 241.167 319.609 242.135 319.609 243.323C319.609 244.51 318.646 245.474 317.458 245.474Z" fill="white"/>
<path d="M351.99 245.474H336.802C335.615 245.474 334.651 244.51 334.651 243.323C334.651 242.135 335.615 241.167 336.802 241.167H351.99C353.177 241.167 354.141 242.135 354.141 243.323C354.141 244.51 353.177 245.474 351.99 245.474Z" fill="white"/>
<path d="M386.521 245.474H371.333C370.146 245.474 369.182 244.51 369.182 243.323C369.182 242.135 370.146 241.167 371.333 241.167H386.521C387.708 241.167 388.672 242.135 388.672 243.323C388.672 244.51 387.708 245.474 386.521 245.474Z" fill="white"/>
<path d="M421.047 245.474H405.865C404.677 245.474 403.714 244.51 403.714 243.323C403.714 242.135 404.677 241.167 405.865 241.167H421.047C422.24 241.167 423.203 242.135 423.203 243.323C423.203 244.51 422.24 245.474 421.047 245.474Z" fill="white"/>
<path d="M189.318 273.927C199.776 275.078 208.135 340.375 213.557 359.75C224.849 367.667 249.964 384.708 249.964 384.708L224.526 405.979C224.526 405.979 192.646 395.547 184.172 382.609C175.703 369.672 166.953 326.458 166.938 312.5C166.922 284.547 172.464 272.078 189.313 273.932L189.318 273.927Z" fill="white"/>
<path d="M224.526 406.885C224.432 406.885 224.339 406.875 224.245 406.844C224.167 406.818 216.12 404.167 207.141 399.969C195.005 394.286 187.021 388.615 183.412 383.104C174.771 369.911 166.042 326.365 166.031 312.5C166.016 293.214 168.698 282.203 174.719 276.802C178.323 273.568 183.13 272.333 189.417 273.026C193.234 273.443 196.656 279.99 200.505 294.255C203.662 305.943 206.51 320.766 209.021 333.844C211.052 344.422 212.807 353.583 214.349 359.193C225.63 367.094 250.224 383.786 250.474 383.958C250.714 384.115 250.859 384.38 250.875 384.661C250.891 384.948 250.766 385.224 250.547 385.406L225.109 406.677C224.948 406.813 224.74 406.885 224.526 406.885ZM186.203 274.661C181.922 274.661 178.547 275.813 175.932 278.156C170.328 283.182 167.839 293.771 167.849 312.5C167.859 319.453 170.037 333.615 173.276 347.734C176.99 363.932 181.24 376.458 184.938 382.109C192.578 393.781 220.349 403.589 224.339 404.953L248.458 384.786C243.672 381.531 222.927 367.427 213.042 360.495C212.865 360.375 212.745 360.198 212.688 359.995C211.104 354.344 209.307 345 207.234 334.188C204.729 321.141 201.891 306.354 198.75 294.729C197.052 288.422 195.453 283.729 193.865 280.38C191.787 275.99 190.193 274.938 189.219 274.833C188.172 274.719 187.167 274.656 186.208 274.656L186.203 274.661Z" fill="#535A63"/>
<path d="M291.463 385.682L287 471.266C287 471.266 94.0207 469.656 81.8488 469.261C69.6718 468.865 51.5468 440.344 53.6561 413.359C55.7655 386.38 58.302 334.776 58.302 334.776L193.213 332.135C193.213 332.135 196.141 350.13 196.448 359.547C196.75 368.958 195.911 383.443 195.911 383.443L291.463 385.677V385.682Z" fill="white"/>
<path d="M287 472.177H286.995C285.063 472.162 93.8646 470.557 81.8177 470.172C77.8855 470.042 73.4427 467.339 68.9792 462.354C60.0938 452.422 51.2188 432.839 52.75 413.292C54.8282 386.63 57.3646 335.25 57.3907 334.734C57.4115 334.255 57.8021 333.88 58.2813 333.87L193.193 331.229C193.651 331.219 194.037 331.547 194.109 331.995C194.141 332.172 197.052 350.156 197.354 359.521C197.615 367.484 197.052 379.188 196.875 382.557L291.49 384.771C291.734 384.776 291.964 384.885 292.135 385.063C292.302 385.245 292.391 385.484 292.375 385.729L287.912 471.318C287.885 471.797 287.484 472.177 287.005 472.177H287ZM59.1667 335.672C58.8282 342.495 56.5 388.635 54.5625 413.432C53.0782 432.443 61.698 451.49 70.3386 461.136C74.4011 465.677 78.5 468.24 81.875 468.349C93.4844 468.724 272.016 470.229 286.135 470.349L290.505 386.568L195.891 384.354C195.641 384.349 195.406 384.24 195.24 384.057C195.073 383.875 194.99 383.635 195 383.391C195.005 383.245 195.828 368.839 195.531 359.573C195.271 351.438 192.995 336.615 192.432 333.063L59.1615 335.672H59.1667Z" fill="#535A63"/>
<path d="M48.4635 101.635V101.573C48.4635 101.583 48.4583 101.594 48.4583 101.604C48.4531 101.594 48.4479 101.583 48.4479 101.573V101.635C47.5885 104.745 45.6094 106.969 42.5 108.307C45.6094 109.646 47.5885 111.87 48.4479 114.979V115.047C48.4531 115.036 48.4531 115.026 48.4583 115.016C48.4583 115.026 48.4635 115.036 48.4635 115.047V114.979C49.3229 111.87 51.3073 109.646 54.4115 108.307C51.3073 106.969 49.3229 104.745 48.4635 101.635Z" fill="#9CA9BA"/>
<path d="M172.49 58.4427V58.3802C172.484 58.3907 172.479 58.4011 172.479 58.4115C172.474 58.4011 172.469 58.3907 172.469 58.3802V58.4427C171.609 61.5573 169.63 63.7813 166.521 65.1198C169.63 66.4532 171.609 68.6823 172.469 71.7917V71.8542C172.474 71.8438 172.474 71.8334 172.479 71.823C172.484 71.8334 172.484 71.8438 172.49 71.8542V71.7917C173.344 68.6823 175.328 66.4532 178.432 65.1198C175.328 63.7813 173.344 61.5573 172.49 58.4427Z" fill="#9CA9BA"/>
<path d="M437.401 17.2448V17.1771C437.396 17.1875 437.396 17.198 437.391 17.2084C437.391 17.198 437.385 17.1875 437.385 17.1771V17.2448C436.526 20.3542 434.542 22.5782 431.438 23.9167C434.542 25.2553 436.526 27.4792 437.385 30.5886V30.6563C437.385 30.6407 437.391 30.6303 437.391 30.6198C437.396 30.6303 437.401 30.6407 437.401 30.6563V30.5886C438.26 27.4792 440.24 25.2553 443.349 23.9167C440.24 22.5782 438.26 20.3542 437.401 17.2448Z" fill="#9CA9BA"/>
<mask id="mask0_203_2" style="mask-type:luminance" maskUnits="userSpaceOnUse" x="473" y="66" width="25" height="29">
<path d="M473.333 66.6666H497.5V94.6666H473.333V66.6666Z" fill="white"/>
</mask>
<g mask="url(#mask0_203_2)">
<path d="M485.536 67.1405V67.0051C485.531 67.0312 485.526 67.052 485.521 67.0728C485.516 67.052 485.505 67.0312 485.5 67.0051V67.1405C483.786 73.3593 479.823 77.8072 473.609 80.4843C479.823 83.1614 483.786 87.6093 485.5 93.828V93.9635C485.505 93.9374 485.516 93.9166 485.521 93.8958C485.526 93.9166 485.531 93.9374 485.536 93.9635V93.828C487.25 87.6093 491.219 83.1614 497.432 80.4843C491.219 77.8072 487.255 73.3593 485.536 67.1405Z" fill="#9CA9BA"/>
</g>
<path d="M93.849 24.0468V23.9166C93.8438 23.9375 93.8334 23.9583 93.8282 23.9843C93.823 23.9583 93.8178 23.9375 93.8126 23.9166V24.0468C92.099 30.2708 88.1355 34.7187 81.9167 37.3958C88.1355 40.0677 92.0938 44.5208 93.8126 50.7395V50.8698C93.8178 50.8489 93.823 50.8281 93.8282 50.802C93.8334 50.8281 93.8438 50.8489 93.849 50.8698V50.7395C95.5626 44.5208 99.5261 40.0677 105.74 37.3958C99.5261 34.7187 95.5626 30.2708 93.849 24.0468Z" fill="#9CA9BA"/>
<path d="M112.344 262.38C75.3489 262.38 30.427 281.073 24.9322 287.125C19.4322 293.172 3.4895 369.042 3.4895 377.287C3.4895 385.531 54.4166 472.948 54.4166 472.948L91.453 457.557C91.453 457.557 60.8228 395.089 60.2447 387.396C59.6666 379.698 62.6301 356.828 62.6301 356.828C62.6301 356.828 106.24 363.922 144.766 360.776C180.943 357.823 200.63 351.182 200.63 351.182C200.687 325.589 193.75 277.016 189.318 273.932C185.036 270.953 136.536 262.385 112.349 262.385L112.344 262.38Z" fill="white"/>
<mask id="mask1_203_2" style="mask-type:luminance" maskUnits="userSpaceOnUse" x="2" y="261" width="201" height="214">
<path d="M2.5 261.333H202.667V474.667H2.5V261.333Z" fill="white"/>
</mask>
<g mask="url(#mask1_203_2)">
<path d="M54.4167 473.859C54.1042 473.859 53.8021 473.698 53.6354 473.406C53.5052 473.188 40.75 451.287 28.1563 428.656C20.7604 415.359 14.8646 404.412 10.6354 396.13C3.41667 381.979 2.57812 378.599 2.57812 377.287C2.57812 373.125 6.47396 352.443 11.2604 331.182C14.6563 316.104 20.8594 290.25 24.2604 286.51C27.4323 283.026 41.3073 276.625 56.5417 271.625C68.0885 267.833 90.6979 261.474 112.349 261.474C135.797 261.474 185.083 269.88 189.839 273.182C190.646 273.745 191.943 275.427 193.849 283.495C195.099 288.781 196.38 295.865 197.557 303.984C200.042 321.104 201.568 339.188 201.542 351.182C201.542 351.573 201.292 351.917 200.922 352.042C200.719 352.115 195.844 353.745 186.458 355.76C177.813 357.62 163.578 360.156 144.844 361.688C109.74 364.552 69.9688 358.87 63.4167 357.87C62.875 362.224 60.6563 380.682 61.151 387.328C61.599 393.276 81.7031 435.604 92.2708 457.156C92.3854 457.385 92.3958 457.646 92.3073 457.88C92.2188 458.115 92.0365 458.302 91.8021 458.401L54.7708 473.792C54.6563 473.844 54.5365 473.865 54.4167 473.865V473.859ZM112.344 263.292C75.3229 263.292 30.8125 282.01 25.6042 287.734C23.3958 290.167 18.5781 306.964 13.0365 331.578C8.35417 352.37 4.40104 373.302 4.40104 377.287C4.40104 379.12 7.69271 388.12 29.75 427.766C41.0781 448.13 52.5469 467.906 54.8073 471.802L90.2135 457.083C86.3542 449.198 59.8906 394.833 59.3385 387.458C58.7604 379.76 61.6042 357.646 61.724 356.708C61.7552 356.464 61.8854 356.24 62.0833 356.094C62.2813 355.948 62.5313 355.885 62.776 355.922C63.2083 355.995 106.724 362.969 144.693 359.865C163.307 358.349 177.448 355.828 186.031 353.99C193.458 352.391 198.12 351.01 199.719 350.516C199.688 338.599 198.182 320.964 195.755 304.24C194.583 296.177 193.313 289.146 192.078 283.906C190.255 276.188 189.104 274.891 188.797 274.677C184.88 271.953 136.667 263.292 112.349 263.292H112.344Z" fill="#535A63"/>
</g>
<path d="M289.885 416.87C289.875 416.87 289.865 416.87 289.854 416.87L137.203 411.672C136.698 411.656 136.307 411.234 136.323 410.729C136.339 410.229 136.76 409.833 137.266 409.849L289.917 415.052C290.422 415.068 290.813 415.49 290.797 415.995C290.781 416.484 290.375 416.87 289.891 416.87H289.885Z" fill="#535A63"/>
<path d="M18.4687 409.984C18.2134 409.984 17.9582 409.88 17.7812 409.672C17.453 409.292 17.4947 408.719 17.8749 408.391C17.9062 408.359 21.0728 405.578 23.6041 400.281C25.9322 395.406 28.1926 387.323 25.7134 376.516C23.3957 366.411 18.5572 360.578 14.9062 357.464C10.9478 354.094 7.48949 353.089 7.45303 353.078C6.97386 352.938 6.69261 352.438 6.82282 351.953C6.96345 351.469 7.46345 351.188 7.94261 351.323C8.09886 351.365 11.7551 352.411 16.0051 356.01C19.8957 359.302 25.0468 365.464 27.4843 376.109C30.0937 387.474 27.6822 396 25.203 401.156C22.5051 406.766 19.203 409.646 19.0624 409.771C18.8905 409.917 18.6822 409.99 18.4687 409.99V409.984Z" fill="#535A63"/>
<path d="M62.6302 357.734C62.6198 357.734 62.6093 357.734 62.5989 357.734C62.0989 357.719 61.7031 357.297 61.7187 356.797C62.4948 334.323 62.7083 314.354 57.4635 297.479C57.3125 297 57.5833 296.49 58.0625 296.339C58.5416 296.193 59.052 296.458 59.2031 296.937C64.526 314.083 64.3177 334.219 63.5416 356.854C63.5208 357.349 63.1198 357.734 62.6302 357.734Z" fill="#535A63"/>
<path d="M264.734 382.474C264.734 382.474 259.771 394.38 259.255 412.057C258.745 429.734 266.682 444.661 266.682 444.661H312.698C312.698 444.661 320.422 446.172 325.094 446.172C329.771 446.172 334.849 446.38 336.276 440.484C337.698 434.589 335.604 347.401 333.807 346.38C332.005 345.365 323.365 346.214 320.422 352.479C318.557 356.448 311.349 376.057 303.995 379.307C296.646 382.557 268.781 382.073 264.734 382.474Z" fill="#BECEE2"/>
<path d="M325.974 447.083C325.828 447.083 325.687 447.083 325.547 447.083H325.094C320.604 447.083 313.521 445.745 312.609 445.573H266.682C266.349 445.573 266.036 445.385 265.88 445.089C265.802 444.938 257.833 429.745 258.349 412.031C258.615 402.818 260.104 395.193 261.302 390.417C262.609 385.224 263.844 382.245 263.891 382.125C264.021 381.813 264.307 381.599 264.641 381.568C265.667 381.464 268.026 381.422 271.292 381.365C280.708 381.188 298.234 380.859 303.625 378.479C309.536 375.865 315.734 361.172 318.385 354.896C318.901 353.677 319.307 352.714 319.599 352.094C320.958 349.203 323.667 346.984 327.224 345.849C329.948 344.979 332.974 344.87 334.25 345.594C334.849 345.932 335.323 346.198 336.057 360.641C336.464 368.703 336.854 379.693 337.156 391.583C337.693 413.005 337.927 437.516 337.156 440.698C335.661 446.896 330.375 447.089 325.969 447.089L325.974 447.083ZM267.245 443.75H312.698C312.755 443.75 312.812 443.755 312.87 443.766C312.948 443.781 320.562 445.26 325.094 445.26H325.547C329.99 445.266 334.177 445.276 335.385 440.266C335.984 437.781 335.979 417.849 335.365 392.87C334.771 368.62 333.844 349.698 333.135 347.089C332.323 346.844 330.187 346.813 327.771 347.583C325.995 348.151 322.786 349.589 321.245 352.865C320.969 353.453 320.568 354.401 320.057 355.604C317.094 362.625 310.932 377.234 304.359 380.141C298.635 382.672 281.536 382.99 271.323 383.182C268.703 383.229 266.547 383.271 265.37 383.339C264.443 385.797 260.604 396.828 260.161 412.083C259.714 427.557 265.922 441.068 267.245 443.75Z" fill="#535A63"/>
<path d="M333.802 346.38C328.713 346.245 327.531 381.948 327.328 390.281C327.125 398.615 326.661 443.958 333.802 444.557C340.948 445.156 339.932 401.323 340.338 387.672C340.745 374.021 338.307 346.5 333.802 346.38Z" fill="#7A8593"/>
<path d="M333.943 445.479C333.87 445.479 333.802 445.474 333.729 445.469C331.578 445.287 330.031 442.656 328.859 437.188C327.99 433.13 327.328 427.474 326.901 420.38C326.219 409.026 326.276 396.104 326.422 390.26C326.516 386.443 326.818 376.547 327.646 367.078C329.224 348.995 331.474 346.854 332.213 346.156C332.823 345.573 333.427 345.464 333.828 345.474C334.443 345.49 335.021 345.781 335.547 346.333C339.719 350.745 341.609 375.625 341.25 387.703C341.182 389.953 341.156 393.037 341.12 396.604C340.922 418.688 340.344 440.594 335.854 444.688C335.281 445.208 334.625 445.479 333.948 445.479H333.943ZM333.776 347.292C333.672 347.292 333.536 347.406 333.469 347.474C332.536 348.354 330.781 352.099 329.458 367.234C328.635 376.651 328.333 386.505 328.24 390.307C328.099 396.125 328.042 408.979 328.719 420.271C330.01 441.677 332.995 443.578 333.88 443.656C334.042 443.667 334.286 443.651 334.625 443.344C335.87 442.208 337.547 438.078 338.474 424.849C339.125 415.599 339.229 404.615 339.302 396.589C339.333 393.01 339.359 389.917 339.427 387.651C339.62 381.188 339.167 371.995 338.276 364.24C336.812 351.531 334.953 348.359 334.224 347.583C334.052 347.401 333.891 347.297 333.781 347.292H333.776Z" fill="#535A63"/>
<path d="M61.8282 441.833C52.672 447.328 43.3334 454.276 42.4949 456.797C41.6512 459.318 54.5782 478.146 54.4168 478.984C54.2605 479.828 57.7918 493.276 63.6772 496.641C69.5626 500 93.0991 495.464 97.4689 495.464C101.839 495.464 115.458 499.224 118.99 498.995C122.521 498.76 147.734 481.724 147.734 480.5C147.74 477.307 134.287 462.344 126.386 457.974C118.484 453.604 100.828 456.464 96.797 455.281C94.6095 451.755 85.5314 433.766 85.5314 433.766C85.5314 433.766 71.0834 436.276 61.823 441.833H61.8282Z" fill="#BECEE2"/>
<path d="M118.656 499.911C116.583 499.911 112.484 499.063 108.156 498.161C103.917 497.281 99.526 496.375 97.4687 496.375C96.3489 496.375 93.8073 496.698 90.5937 497.109C79.0521 498.594 67.4323 499.839 63.2239 497.432C59.8958 495.526 57.4219 490.823 55.9427 487.214C54.6666 484.115 53.5469 480.339 53.5104 479.083C53.2656 478.469 51.7135 475.958 50.2083 473.531C43.8021 463.177 41.0469 458.26 41.6302 456.505C42.7291 453.214 54.3177 445.276 61.3594 441.052C70.6562 435.474 84.776 432.969 85.375 432.87C85.7708 432.797 86.1614 432.995 86.3437 433.354C86.4323 433.526 94.9427 450.38 97.375 454.484C98.7864 454.766 101.63 454.693 104.88 454.615C111.87 454.438 121.437 454.198 126.823 457.177C130.474 459.193 135.656 463.635 140.693 469.057C142.557 471.068 148.646 477.839 148.646 480.5C148.646 481.005 148.646 481.406 144.276 484.609C141.844 486.391 138.526 488.677 135.182 490.88C131.146 493.536 121.484 499.74 119.047 499.901C118.927 499.911 118.797 499.911 118.656 499.911ZM97.4687 494.552C99.7135 494.552 103.995 495.443 108.526 496.38C112.823 497.276 117.255 498.193 118.927 498.083C119.995 498.016 124.937 495.411 133.573 489.76C140.406 485.286 145.802 481.333 146.797 480.281C146.526 479.161 144.417 475.745 139.359 470.297C134.521 465.089 129.38 460.672 125.943 458.766C120.99 456.026 111.703 456.26 104.927 456.432C101.099 456.526 98.0729 456.599 96.5417 456.156C96.3229 456.094 96.1406 455.953 96.0208 455.76C94.0469 452.563 86.6614 438.01 85.0312 434.786C82.1146 435.354 70.1927 437.88 62.2969 442.615C57.7812 445.323 53.151 448.438 49.5937 451.151C45.4167 454.344 43.6406 456.292 43.3646 457.063C43.3489 457.26 43.4323 458.365 46.0573 463.068C47.7604 466.109 49.9739 469.693 51.7552 472.573C55.151 478.063 55.4062 478.557 55.3281 479.083C55.3958 480.344 58.75 492.776 64.1302 495.849C68.1614 498.151 82.0573 496.37 90.3646 495.302C93.6406 494.885 96.2344 494.552 97.4687 494.552ZM55.3177 479.125C55.3177 479.125 55.3125 479.146 55.3125 479.156C55.3125 479.146 55.3177 479.135 55.3177 479.125ZM53.526 478.823C53.5156 478.875 53.5104 478.922 53.5104 478.964C53.5104 478.906 53.5156 478.859 53.526 478.823Z" fill="#535A63"/>
<path d="M125.099 497.01C124.922 497.01 124.745 496.964 124.594 496.854C124.552 496.833 120.672 494.229 116.266 491.536C108.99 487.089 105.948 485.833 104.677 485.557C100.104 484.578 91.802 484.281 91.7239 484.276C91.2187 484.26 90.8281 483.839 90.8437 483.333C90.8645 482.833 91.276 482.443 91.7864 482.458C92.1302 482.469 100.328 482.766 105.057 483.781C109.88 484.813 124.969 494.917 125.609 495.344C126.026 495.625 126.135 496.193 125.854 496.609C125.682 496.87 125.391 497.01 125.099 497.01Z" fill="#535A63"/>
<path d="M144.422 484.276C144.193 484.276 143.964 484.193 143.786 484.021C139.38 479.724 127.141 468.401 123.49 467.615C118.854 466.625 110.849 465.286 110.766 465.271C110.271 465.188 109.937 464.719 110.021 464.224C110.104 463.729 110.573 463.391 111.068 463.474C111.146 463.49 119.198 464.833 123.87 465.839C128.693 466.87 143.396 481.099 145.057 482.719C145.417 483.068 145.422 483.641 145.073 484.005C144.896 484.188 144.656 484.276 144.422 484.276Z" fill="#535A63"/>
<path d="M136.057 490.12C135.865 490.12 135.677 490.063 135.51 489.938C135.365 489.828 120.49 478.745 116.094 476.792C111.74 474.859 102.672 473.865 102.583 473.854C102.078 473.802 101.719 473.354 101.771 472.849C101.828 472.349 102.276 471.99 102.776 472.042C103.162 472.083 112.219 473.073 116.833 475.13C121.412 477.161 135.979 488.021 136.599 488.479C137.005 488.781 137.089 489.349 136.787 489.755C136.609 489.995 136.333 490.12 136.057 490.12Z" fill="#535A63"/>
<path d="M237.297 410.76C237.297 410.76 232.333 422.672 231.823 440.344C231.313 458.021 239.25 472.948 239.25 472.948H285.266C285.266 472.948 292.99 474.464 297.661 474.464C302.339 474.464 307.417 474.667 308.844 468.771C310.266 462.875 308.172 375.688 306.37 374.672C304.573 373.656 295.932 374.505 292.99 380.766C291.125 384.734 283.917 404.344 276.563 407.594C269.214 410.849 241.349 410.359 237.302 410.76H237.297Z" fill="#BECEE2"/>
<path d="M298.542 475.37C298.396 475.37 298.255 475.37 298.114 475.37H297.661C293.167 475.37 286.088 474.036 285.177 473.859H239.25C238.917 473.859 238.604 473.672 238.448 473.375C238.37 473.224 230.401 458.031 230.917 440.323C231.182 431.109 232.672 423.479 233.87 418.703C235.177 413.51 236.411 410.536 236.458 410.411C236.588 410.099 236.875 409.891 237.208 409.854C238.234 409.755 240.594 409.708 243.859 409.651C253.276 409.474 270.802 409.146 276.193 406.766C282.104 404.151 288.302 389.458 290.953 383.188C291.469 381.964 291.875 381 292.167 380.385C293.526 377.49 296.234 375.271 299.786 374.141C302.516 373.266 305.542 373.156 306.818 373.88C307.417 374.219 307.891 374.484 308.625 388.927C309.031 396.99 309.422 407.979 309.724 419.87C310.26 441.297 310.495 465.802 309.724 468.984C308.229 475.182 302.943 475.375 298.536 475.375L298.542 475.37ZM239.812 472.036H285.266C285.323 472.036 285.38 472.042 285.437 472.052C285.516 472.068 293.13 473.552 297.661 473.552H298.114C302.552 473.557 306.745 473.563 307.953 468.557C308.552 466.073 308.547 446.135 307.932 421.156C307.338 396.906 306.411 377.984 305.703 375.375C304.891 375.13 302.755 375.099 300.344 375.87C298.562 376.438 295.349 377.88 293.812 381.156C293.536 381.74 293.135 382.688 292.63 383.891C289.667 390.911 283.5 405.526 276.932 408.427C271.203 410.958 254.109 411.281 243.891 411.469C241.271 411.521 239.12 411.557 237.937 411.625C237.01 414.083 233.177 425.115 232.734 440.375C232.286 455.844 238.495 469.354 239.812 472.042V472.036Z" fill="#535A63"/>
<path d="M306.37 374.672C301.281 374.536 300.099 410.24 299.896 418.573C299.693 426.901 299.224 472.25 306.37 472.849C313.516 473.443 312.5 429.615 312.906 415.964C313.313 402.313 310.875 374.792 306.37 374.672Z" fill="#7A8593"/>
<path d="M306.51 473.766C306.438 473.766 306.365 473.76 306.292 473.755C304.146 473.578 302.599 470.948 301.427 465.479C300.557 461.422 299.896 455.76 299.469 448.667C298.625 434.693 298.948 420.161 298.984 418.547C299.078 414.734 299.385 404.833 300.214 395.365C301.792 377.281 304.036 375.146 304.776 374.443C305.391 373.859 305.995 373.75 306.396 373.76C307.01 373.776 307.589 374.068 308.115 374.62C312.281 379.036 314.172 403.917 313.813 415.99C313.745 418.24 313.719 421.323 313.688 424.891C313.484 446.974 312.911 468.88 308.417 472.974C307.849 473.49 307.193 473.766 306.51 473.766ZM306.344 375.583C306.24 375.583 306.104 375.693 306.031 375.76C305.104 376.646 303.344 380.385 302.026 395.521C301.203 404.938 300.896 414.792 300.807 418.594C300.667 424.411 300.604 437.271 301.286 448.557C302.578 469.964 305.563 471.87 306.443 471.943C306.604 471.958 306.854 471.938 307.188 471.63C308.432 470.5 310.109 466.37 311.036 453.135C311.688 443.885 311.792 432.901 311.865 424.875C311.896 421.297 311.927 418.208 311.995 415.938C312.188 409.474 311.734 400.286 310.839 392.526C309.375 379.818 307.516 376.646 306.786 375.875C306.615 375.693 306.453 375.583 306.344 375.583Z" fill="#535A63"/>
<path d="M120.969 134.781C123.542 135.13 126.094 135.594 128.62 136.177C131.151 136.76 133.646 137.464 136.104 138.281C138.563 139.094 140.979 140.026 143.344 141.068C145.714 142.104 148.021 143.255 150.271 144.505C152.526 145.76 154.708 147.12 156.823 148.573C158.938 150.031 160.974 151.578 162.927 153.224C164.886 154.87 166.755 156.599 168.537 158.417C170.318 160.234 172 162.125 173.589 164.099C175.172 166.068 176.656 168.104 178.037 170.214C179.412 172.318 180.677 174.484 181.833 176.703C182.99 178.927 184.031 181.198 184.953 183.51C185.875 185.828 186.677 188.177 187.359 190.568C188.042 192.953 188.599 195.365 189.031 197.802C189.458 200.234 189.766 202.682 189.948 205.146C190.125 207.609 190.177 210.068 190.104 212.531C190.026 214.995 189.823 217.443 189.495 219.885C189.167 222.328 188.714 224.745 188.13 227.135C187.552 229.531 186.849 231.891 186.026 234.219C185.203 236.542 184.255 238.823 183.198 241.057C182.136 243.292 180.958 245.469 179.672 247.594C178.38 249.714 176.984 251.771 175.479 253.755C173.979 255.745 172.375 257.656 170.672 259.495C168.969 261.328 167.172 263.083 165.287 264.75C163.401 266.417 161.427 267.99 159.375 269.469C157.323 270.948 155.198 272.328 153 273.609C150.802 274.885 148.542 276.062 146.219 277.13C143.896 278.193 141.526 279.151 139.099 279.995C136.677 280.839 134.214 281.568 131.708 282.182C129.203 282.797 126.672 283.292 124.115 283.667C121.557 284.042 118.984 284.297 116.396 284.432C113.807 284.568 111.219 284.583 108.625 284.479C106.031 284.37 103.448 284.146 100.875 283.797C98.3022 283.453 95.7501 282.984 93.2188 282.401C90.6928 281.818 88.198 281.115 85.7397 280.297C83.2761 279.484 80.8647 278.552 78.5001 277.516C76.1303 276.474 73.823 275.328 71.5678 274.073C69.3178 272.818 67.1355 271.464 65.0209 270.005C62.9063 268.547 60.8699 267 58.9115 265.354C56.9584 263.708 55.0886 261.979 53.3074 260.161C51.5261 258.349 49.8438 256.453 48.2553 254.484C46.672 252.51 45.1876 250.474 43.8074 248.365C42.4324 246.26 41.1615 244.094 40.0053 241.875C38.849 239.651 37.8126 237.385 36.8907 235.068C35.9636 232.75 35.1615 230.401 34.4845 228.016C33.8022 225.625 33.2449 223.214 32.8126 220.781C32.3803 218.344 32.0782 215.896 31.8959 213.432C31.7188 210.974 31.6667 208.51 31.7397 206.047C31.8178 203.583 32.0157 201.135 32.349 198.693C32.6772 196.255 33.1303 193.839 33.7084 191.443C34.2917 189.047 34.9949 186.687 35.8178 184.359C36.6407 182.036 37.5834 179.755 38.6459 177.521C39.7084 175.286 40.8855 173.109 42.172 170.99C43.4636 168.865 44.8595 166.812 46.3595 164.823C47.8647 162.833 49.4688 160.922 51.172 159.083C52.8751 157.25 54.672 155.5 56.5574 153.833C58.4428 152.167 60.4115 150.594 62.4636 149.109C64.5157 147.63 66.6407 146.25 68.8386 144.974C71.0417 143.693 73.297 142.521 75.6199 141.453C77.9428 140.385 80.3178 139.427 82.7449 138.583C85.1667 137.74 87.6303 137.01 90.1355 136.396C92.6407 135.786 95.1667 135.292 97.7293 134.911C100.287 134.536 102.859 134.281 105.448 134.146C108.037 134.01 110.625 133.995 113.219 134.099C115.813 134.208 118.396 134.432 120.969 134.781Z" fill="white"/>
<path d="M112.162 285.463C108.37 285.463 104.563 285.208 100.75 284.693C90.0261 283.245 79.8907 279.849 70.6251 274.604C61.6772 269.531 53.9115 262.953 47.5417 255.047C41.1719 247.135 36.5261 238.297 33.7344 228.776C30.8386 218.917 30.0626 208.75 31.4376 198.562C32.8126 188.375 36.2449 178.781 41.6511 170.036C46.8699 161.594 53.6876 154.302 61.9272 148.365C70.1563 142.427 79.3907 138.141 89.3647 135.62C99.6876 133.01 110.359 132.422 121.083 133.87C131.807 135.312 141.943 138.708 151.203 143.958C160.156 149.026 167.922 155.609 174.292 163.516C180.656 171.422 185.302 180.26 188.099 189.781C190.995 199.646 191.766 209.807 190.396 219.995C189.021 230.182 185.583 239.781 180.182 248.521C174.964 256.963 168.141 264.255 159.906 270.198C151.677 276.135 142.443 280.422 132.469 282.943C125.818 284.62 119.021 285.463 112.162 285.463ZM33.2449 198.807C31.9063 208.74 32.6563 218.651 35.4792 228.266C38.2084 237.557 42.7449 246.182 48.9636 253.906C55.1824 261.63 62.7761 268.062 71.5261 273.021C80.5886 278.156 90.5001 281.474 100.995 282.891C111.484 284.302 121.927 283.729 132.021 281.177C141.771 278.713 150.797 274.521 158.844 268.719C166.885 262.917 173.542 255.802 178.63 247.568C183.901 239.042 187.25 229.682 188.589 219.755C189.927 209.823 189.177 199.911 186.354 190.297C183.625 181.005 179.089 172.38 172.87 164.656C166.651 156.932 159.057 150.5 150.307 145.542C141.245 140.406 131.333 137.088 120.839 135.672C110.349 134.26 99.9115 134.833 89.8126 137.385C80.0626 139.849 71.0365 144.042 62.9897 149.844C54.9532 155.646 48.2917 162.76 43.2032 170.995C37.9324 179.521 34.5834 188.88 33.2449 198.807Z" fill="#535A63"/>
<path d="M189.495 219.875C184 260.604 145.078 289.047 102.208 283.953C78.4844 267.776 66.4011 239.667 66.2136 204.865C66.0781 180.089 74.2917 154.005 83.125 138.432C94.8177 134.417 107.714 132.984 120.964 134.771C164.359 140.62 195.042 178.724 189.495 219.875Z" fill="#7A8593"/>
<path d="M112.182 285.453C108.839 285.453 105.474 285.255 102.099 284.854C101.953 284.839 101.813 284.786 101.693 284.703C89.8698 276.641 80.7396 265.563 74.5521 251.766C68.5105 238.292 65.3959 222.51 65.3021 204.87C65.2396 193.297 67.0157 180.536 70.4271 167.958C73.448 156.844 77.6771 146.198 82.3334 137.984C82.4428 137.792 82.6198 137.646 82.8334 137.573C94.948 133.411 108.177 132.13 121.083 133.87C131.813 135.318 141.943 138.714 151.208 143.958C160.162 149.031 167.927 155.609 174.292 163.516C180.662 171.427 185.307 180.266 188.104 189.786C191 199.646 191.771 209.813 190.396 220C187.708 239.927 177.057 257.63 160.406 269.833C146.458 280.057 129.635 285.464 112.182 285.464V285.453ZM102.537 283.073C122.984 285.448 143.146 280.229 159.328 268.359C175.578 256.448 185.974 239.188 188.594 219.75C189.932 209.818 189.177 199.906 186.354 190.292C183.625 181 179.089 172.375 172.875 164.656C166.651 156.927 159.063 150.495 150.307 145.536C141.245 140.406 131.333 137.083 120.839 135.672C108.328 133.984 95.5105 135.198 83.7448 139.177C79.2292 147.219 75.1303 157.594 72.1823 168.432C68.8125 180.849 67.0573 193.448 67.1198 204.854C67.2136 222.24 70.2709 237.771 76.2136 251.016C82.2292 264.427 91.0834 275.214 102.531 283.073H102.537Z" fill="#535A63"/>
<path d="M50.802 208.646C51.6406 202.422 55.3541 197.297 60.4218 194.422L60.8072 191.542C60.8072 191.542 71.3958 191.917 72.5416 192.073C83.1197 193.5 90.5416 203.229 89.1145 213.812C87.6874 224.391 78.0104 231.339 67.3749 230.385C64.4531 230.125 55.6406 229.859 55.6406 229.859L56.3072 224.911C52.1874 220.792 49.9635 214.865 50.802 208.646Z" fill="white"/>
<path d="M69.3282 231.385C68.6511 231.385 67.974 231.354 67.2969 231.292C64.4324 231.037 55.7032 230.771 55.6147 230.771C55.3542 230.76 55.1147 230.646 54.948 230.448C54.7813 230.25 54.7032 229.995 54.7397 229.74L55.349 225.234C51.0522 220.755 49.0678 214.688 49.9011 208.526C50.7292 202.365 54.2501 197.042 59.5782 193.859L59.9011 191.427C59.9636 190.964 60.3699 190.625 60.8386 190.635C61.9272 190.677 71.5053 191.016 72.6615 191.172C83.724 192.662 91.5053 202.875 90.0157 213.932C89.3022 219.24 86.5417 223.938 82.2449 227.156C78.5574 229.917 74.0313 231.385 69.3282 231.385ZM56.6772 228.979C59.0886 229.057 65.099 229.266 67.4584 229.479C72.4324 229.927 77.2969 228.583 81.1511 225.693C85.0574 222.771 87.5626 218.51 88.2136 213.688C89.573 203.625 82.4844 194.328 72.4219 192.974C71.6615 192.87 65.8178 192.635 61.599 192.479L61.323 194.542C61.2813 194.823 61.1147 195.068 60.8699 195.208C55.8178 198.078 52.4792 203.021 51.7032 208.766C50.9324 214.51 52.8438 220.162 56.9532 224.266C57.1511 224.469 57.2501 224.75 57.2136 225.031L56.6824 228.979H56.6772Z" fill="#535A63"/>
<path d="M77.552 210.698C77.552 211.969 77.427 213.224 77.1822 214.474C76.9322 215.719 76.5676 216.927 76.0833 218.099C75.5937 219.271 74.9999 220.385 74.2968 221.437C73.5885 222.495 72.7864 223.469 71.8905 224.37C70.9947 225.266 70.0155 226.068 68.9635 226.771C67.9062 227.479 66.7916 228.073 65.6197 228.557C64.4478 229.042 63.2395 229.411 61.9947 229.656C60.7499 229.906 59.4947 230.031 58.2239 230.031C56.953 230.031 55.6978 229.906 54.453 229.656C53.2083 229.411 51.9999 229.042 50.828 228.557C49.651 228.073 48.5416 227.479 47.4843 226.771C46.427 226.068 45.453 225.266 44.5572 224.37C43.6562 223.469 42.8541 222.495 42.151 221.437C41.4478 220.385 40.8489 219.271 40.3645 218.099C39.8801 216.927 39.5103 215.719 39.2655 214.474C39.0155 213.224 38.8958 211.969 38.8958 210.698C38.8958 209.432 39.0155 208.172 39.2655 206.927C39.5103 205.682 39.8801 204.474 40.3645 203.302C40.8489 202.13 41.4478 201.016 42.151 199.964C42.8541 198.906 43.6562 197.932 44.5572 197.031C45.453 196.135 46.427 195.333 47.4843 194.63C48.5416 193.922 49.651 193.328 50.828 192.844C51.9999 192.354 53.2083 191.99 54.453 191.745C55.6978 191.495 56.953 191.37 58.2239 191.37C59.4947 191.37 60.7499 191.495 61.9947 191.745C63.2395 191.99 64.4478 192.354 65.6197 192.844C66.7916 193.328 67.9062 193.922 68.9635 194.63C70.0155 195.333 70.9947 196.135 71.8905 197.031C72.7864 197.932 73.5885 198.906 74.2968 199.964C74.9999 201.016 75.5937 202.13 76.0833 203.302C76.5676 204.474 76.9322 205.682 77.1822 206.927C77.427 208.172 77.552 209.432 77.552 210.698Z" fill="white"/>
<path d="M58.2397 230.943C57.3386 230.943 56.4324 230.88 55.5209 230.76C50.1616 230.036 45.4063 227.271 42.1303 222.974C38.8491 218.672 37.4428 213.354 38.1668 207.995C39.6563 196.938 49.8647 189.151 60.9272 190.641C66.2866 191.365 71.0418 194.13 74.3178 198.427C77.5991 202.724 79.0053 208.047 78.2813 213.401C76.9116 223.552 68.2084 230.938 58.2397 230.938V230.943ZM58.2084 192.281C49.1355 192.281 41.2136 199.005 39.9688 208.24C39.3126 213.115 40.5886 217.953 43.573 221.87C46.5574 225.781 50.8855 228.297 55.7605 228.958C56.5886 229.068 57.4168 229.12 58.2345 229.125C67.3074 229.125 75.2293 222.396 76.4793 213.161C77.1355 208.286 75.8543 203.448 72.8699 199.536C69.8907 195.62 65.5626 193.104 60.6824 192.448C59.8543 192.333 59.0261 192.281 58.2084 192.281Z" fill="#535A63"/>
<path d="M274.784 164.364V176H272.398L267.767 169.284H267.693V176H264.881V164.364H267.301L271.881 171.068H271.977V164.364H274.784ZM287.536 170.182C287.536 171.462 287.289 172.547 286.797 173.438C286.304 174.328 285.638 175.004 284.797 175.466C283.96 175.928 283.02 176.159 281.979 176.159C280.933 176.159 279.992 175.926 279.155 175.46C278.318 174.994 277.653 174.318 277.161 173.432C276.672 172.542 276.428 171.458 276.428 170.182C276.428 168.902 276.672 167.816 277.161 166.926C277.653 166.036 278.318 165.36 279.155 164.898C279.992 164.436 280.933 164.205 281.979 164.205C283.02 164.205 283.96 164.436 284.797 164.898C285.638 165.36 286.304 166.036 286.797 166.926C287.289 167.816 287.536 168.902 287.536 170.182ZM284.661 170.182C284.661 169.424 284.553 168.784 284.337 168.261C284.125 167.739 283.818 167.343 283.416 167.074C283.018 166.805 282.539 166.67 281.979 166.67C281.422 166.67 280.943 166.805 280.541 167.074C280.14 167.343 279.831 167.739 279.615 168.261C279.403 168.784 279.297 169.424 279.297 170.182C279.297 170.939 279.403 171.58 279.615 172.102C279.831 172.625 280.14 173.021 280.541 173.29C280.943 173.559 281.422 173.693 281.979 173.693C282.539 173.693 283.018 173.559 283.416 173.29C283.818 173.021 284.125 172.625 284.337 172.102C284.553 171.58 284.661 170.939 284.661 170.182ZM295.132 176H292.109L296.036 164.364H299.78L303.706 176H300.683L297.95 167.295H297.859L295.132 176ZM294.729 171.42H301.047V173.557H294.729V171.42ZM310.889 167.852C310.851 167.436 310.683 167.112 310.384 166.881C310.088 166.646 309.666 166.528 309.116 166.528C308.753 166.528 308.45 166.576 308.207 166.67C307.965 166.765 307.783 166.896 307.662 167.062C307.541 167.225 307.478 167.413 307.474 167.625C307.467 167.799 307.501 167.953 307.577 168.085C307.656 168.218 307.77 168.335 307.918 168.438C308.069 168.536 308.251 168.623 308.463 168.699C308.675 168.775 308.914 168.841 309.179 168.898L310.179 169.125C310.755 169.25 311.262 169.417 311.702 169.625C312.145 169.833 312.516 170.081 312.815 170.369C313.118 170.657 313.348 170.989 313.503 171.364C313.658 171.739 313.738 172.159 313.741 172.625C313.738 173.36 313.552 173.991 313.185 174.517C312.817 175.044 312.289 175.447 311.599 175.727C310.914 176.008 310.086 176.148 309.116 176.148C308.143 176.148 307.295 176.002 306.571 175.71C305.848 175.419 305.285 174.975 304.884 174.381C304.482 173.786 304.276 173.034 304.264 172.125H306.957C306.98 172.5 307.08 172.812 307.259 173.062C307.437 173.312 307.681 173.502 307.991 173.631C308.306 173.759 308.67 173.824 309.082 173.824C309.461 173.824 309.783 173.773 310.048 173.67C310.317 173.568 310.524 173.426 310.668 173.244C310.812 173.062 310.885 172.854 310.889 172.619C310.885 172.4 310.817 172.212 310.685 172.057C310.552 171.898 310.348 171.761 310.071 171.648C309.798 171.53 309.45 171.422 309.026 171.324L307.81 171.04C306.802 170.809 306.009 170.436 305.429 169.92C304.849 169.402 304.562 168.701 304.565 167.818C304.562 167.098 304.755 166.468 305.145 165.926C305.535 165.384 306.075 164.962 306.764 164.659C307.454 164.356 308.24 164.205 309.122 164.205C310.024 164.205 310.806 164.358 311.469 164.665C312.135 164.968 312.652 165.394 313.02 165.943C313.387 166.492 313.575 167.129 313.582 167.852H310.889ZM321.452 167.852C321.414 167.436 321.245 167.112 320.946 166.881C320.651 166.646 320.228 166.528 319.679 166.528C319.315 166.528 319.012 166.576 318.77 166.67C318.527 166.765 318.346 166.896 318.224 167.062C318.103 167.225 318.041 167.413 318.037 167.625C318.029 167.799 318.063 167.953 318.139 168.085C318.219 168.218 318.332 168.335 318.48 168.438C318.632 168.536 318.813 168.623 319.026 168.699C319.238 168.775 319.476 168.841 319.741 168.898L320.741 169.125C321.317 169.25 321.825 169.417 322.264 169.625C322.707 169.833 323.079 170.081 323.378 170.369C323.681 170.657 323.91 170.989 324.065 171.364C324.221 171.739 324.3 172.159 324.304 172.625C324.3 173.36 324.115 173.991 323.747 174.517C323.38 175.044 322.851 175.447 322.162 175.727C321.476 176.008 320.649 176.148 319.679 176.148C318.705 176.148 317.857 176.002 317.134 175.71C316.41 175.419 315.848 174.975 315.446 174.381C315.045 173.786 314.838 173.034 314.827 172.125H317.52C317.543 172.5 317.643 172.812 317.821 173.062C317.999 173.312 318.243 173.502 318.554 173.631C318.868 173.759 319.232 173.824 319.645 173.824C320.024 173.824 320.346 173.773 320.611 173.67C320.88 173.568 321.086 173.426 321.23 173.244C321.374 173.062 321.448 172.854 321.452 172.619C321.448 172.4 321.38 172.212 321.247 172.057C321.115 171.898 320.91 171.761 320.634 171.648C320.361 171.53 320.012 171.422 319.588 171.324L318.372 171.04C317.365 170.809 316.571 170.436 315.991 169.92C315.412 169.402 315.124 168.701 315.128 167.818C315.124 167.098 315.317 166.468 315.707 165.926C316.098 165.384 316.637 164.962 317.327 164.659C318.016 164.356 318.802 164.205 319.685 164.205C320.586 164.205 321.368 164.358 322.031 164.665C322.698 164.968 323.215 165.394 323.582 165.943C323.95 166.492 324.137 167.129 324.145 167.852H321.452ZM328.537 164.364V176H325.724V164.364H328.537ZM337.939 168.165C337.875 167.926 337.78 167.716 337.655 167.534C337.53 167.348 337.376 167.191 337.195 167.062C337.013 166.934 336.804 166.837 336.57 166.773C336.335 166.705 336.077 166.67 335.797 166.67C335.232 166.67 334.744 166.807 334.331 167.08C333.922 167.352 333.606 167.75 333.382 168.273C333.159 168.792 333.047 169.422 333.047 170.165C333.047 170.911 333.155 171.547 333.371 172.074C333.587 172.6 333.899 173.002 334.308 173.278C334.717 173.555 335.214 173.693 335.797 173.693C336.312 173.693 336.748 173.61 337.104 173.443C337.464 173.273 337.736 173.032 337.922 172.722C338.107 172.411 338.2 172.045 338.2 171.625L338.723 171.688H335.893V169.636H340.911V171.176C340.911 172.218 340.689 173.11 340.246 173.852C339.806 174.595 339.2 175.165 338.428 175.562C337.659 175.96 336.774 176.159 335.774 176.159C334.664 176.159 333.689 175.919 332.848 175.438C332.007 174.956 331.352 174.271 330.882 173.381C330.412 172.487 330.178 171.426 330.178 170.199C330.178 169.244 330.32 168.398 330.604 167.659C330.888 166.917 331.284 166.288 331.791 165.773C332.303 165.258 332.893 164.867 333.564 164.602C334.238 164.337 334.964 164.205 335.74 164.205C336.414 164.205 337.041 164.301 337.621 164.494C338.204 164.688 338.719 164.96 339.166 165.312C339.617 165.665 339.982 166.083 340.263 166.568C340.543 167.053 340.717 167.585 340.786 168.165H337.939ZM352.472 164.364V176H350.085L345.455 169.284H345.381V176H342.568V164.364H344.989L349.568 171.068H349.665V164.364H352.472ZM354.24 176V164.364H362.354V166.648H357.053V169.034H361.939V171.324H357.053V173.716H362.354V176H354.24ZM368.416 176H364.115V164.364H368.411C369.596 164.364 370.617 164.597 371.473 165.062C372.333 165.525 372.996 166.191 373.462 167.062C373.928 167.93 374.161 168.968 374.161 170.176C374.161 171.388 373.928 172.43 373.462 173.301C373 174.172 372.339 174.841 371.479 175.307C370.619 175.769 369.598 176 368.416 176ZM366.928 173.602H368.308C368.96 173.602 369.511 173.492 369.962 173.273C370.416 173.049 370.759 172.688 370.99 172.188C371.225 171.684 371.342 171.013 371.342 170.176C371.342 169.339 371.225 168.672 370.99 168.176C370.755 167.676 370.409 167.316 369.95 167.097C369.496 166.873 368.935 166.761 368.268 166.761H366.928V173.602ZM272.517 187.165C272.453 186.926 272.358 186.716 272.233 186.534C272.108 186.348 271.955 186.191 271.773 186.062C271.591 185.934 271.383 185.837 271.148 185.773C270.913 185.705 270.655 185.67 270.375 185.67C269.811 185.67 269.322 185.807 268.909 186.08C268.5 186.352 268.184 186.75 267.96 187.273C267.737 187.792 267.625 188.422 267.625 189.165C267.625 189.911 267.733 190.547 267.949 191.074C268.165 191.6 268.477 192.002 268.886 192.278C269.295 192.555 269.792 192.693 270.375 192.693C270.89 192.693 271.326 192.61 271.682 192.443C272.042 192.273 272.314 192.032 272.5 191.722C272.686 191.411 272.778 191.045 272.778 190.625L273.301 190.688H270.472V188.636H275.489V190.176C275.489 191.218 275.267 192.11 274.824 192.852C274.384 193.595 273.778 194.165 273.006 194.562C272.237 194.96 271.352 195.159 270.352 195.159C269.242 195.159 268.267 194.919 267.426 194.438C266.585 193.956 265.93 193.271 265.46 192.381C264.991 191.487 264.756 190.426 264.756 189.199C264.756 188.244 264.898 187.398 265.182 186.659C265.466 185.917 265.862 185.288 266.369 184.773C266.881 184.258 267.472 183.867 268.142 183.602C268.816 183.337 269.542 183.205 270.318 183.205C270.992 183.205 271.619 183.301 272.199 183.494C272.782 183.688 273.297 183.96 273.744 184.312C274.195 184.665 274.561 185.083 274.841 185.568C275.121 186.053 275.295 186.585 275.364 187.165H272.517ZM288.129 189.182C288.129 190.462 287.883 191.547 287.391 192.438C286.898 193.328 286.232 194.004 285.391 194.466C284.554 194.928 283.614 195.159 282.572 195.159C281.527 195.159 280.586 194.926 279.749 194.46C278.911 193.994 278.247 193.318 277.754 192.432C277.266 191.542 277.021 190.458 277.021 189.182C277.021 187.902 277.266 186.816 277.754 185.926C278.247 185.036 278.911 184.36 279.749 183.898C280.586 183.436 281.527 183.205 282.572 183.205C283.614 183.205 284.554 183.436 285.391 183.898C286.232 184.36 286.898 185.036 287.391 185.926C287.883 186.816 288.129 187.902 288.129 189.182ZM285.254 189.182C285.254 188.424 285.146 187.784 284.93 187.261C284.718 186.739 284.411 186.343 284.01 186.074C283.612 185.805 283.133 185.67 282.572 185.67C282.016 185.67 281.536 185.805 281.135 186.074C280.733 186.343 280.425 186.739 280.209 187.261C279.997 187.784 279.891 188.424 279.891 189.182C279.891 189.939 279.997 190.58 280.209 191.102C280.425 191.625 280.733 192.021 281.135 192.29C281.536 192.559 282.016 192.693 282.572 192.693C283.133 192.693 283.612 192.559 284.01 192.29C284.411 192.021 284.718 191.625 284.93 191.102C285.146 190.58 285.254 189.939 285.254 189.182ZM291.601 195H288.578L292.504 183.364H296.249L300.175 195H297.152L294.419 186.295H294.328L291.601 195ZM291.197 190.42H297.516V192.557H291.197V190.42ZM301.428 195V183.364H304.24V192.716H309.081V195H301.428Z" fill="white"/>
</svg>
