<svg xmlns="http://www.w3.org/2000/svg" xmlns:xlink="http://www.w3.org/1999/xlink" width="500" zoomAndPan="magnify" viewBox="0 0 375 374.999991" height="500" preserveAspectRatio="xMidYMid meet" version="1.0"><defs><clipPath id="efa626028b"><path d="M 0 0 L 338 0 L 338 374.980469 L 0 374.980469 Z M 0 0 " clip-rule="nonzero"/></clipPath><clipPath id="a32b2c736d"><path d="M 320 150.609375 L 374.511719 150.609375 L 374.511719 286.972656 L 320 286.972656 Z M 320 150.609375 " clip-rule="nonzero"/></clipPath></defs><path fill="#8e24aa" d="M 286.230469 28.53125 C 289.640625 30.660156 292.984375 32.90625 296.265625 35.265625 L 301.71875 39.1875 L 301.765625 39.105469 L 308.609375 44.949219 C 312.382812 48.171875 316.027344 51.542969 319.527344 55.050781 C 342.136719 77.6875 358.359375 105.390625 367.046875 135.585938 L 338 142.976562 C 330.640625 117.96875 317.113281 95.039062 298.355469 76.25 C 296.03125 73.925781 293.632812 71.675781 291.167969 69.496094 L 286.578125 65.441406 L 286.628906 65.355469 L 279.945312 60.457031 C 276.515625 57.941406 272.996094 55.578125 269.402344 53.363281 L 286.230469 28.53125 " fill-opacity="1" fill-rule="evenodd"/><g clip-path="url(#efa626028b)"><path fill="#fb8c00" d="M 337.574219 299.15625 C 332.113281 306.519531 326.089844 313.519531 319.527344 320.085938 C 284.316406 355.34375 236.980469 374.980469 187.179688 374.980469 C 137.371094 374.980469 90.035156 355.34375 54.824219 320.085938 C 19.613281 284.832031 0 237.4375 0 187.566406 C 0 137.703125 19.613281 90.308594 54.824219 55.050781 C 88.101562 21.726562 132.375 2.242188 179.417969 0.316406 L 187.140625 0.00390625 L 187.140625 0 L 187.175781 0.00390625 L 187.210938 0 L 187.210938 0.00390625 L 194.9375 0.316406 C 222.207031 1.433594 248.660156 8.445312 272.675781 20.8125 L 255.710938 45.847656 C 236.609375 36.570312 215.769531 31.265625 194.296875 30.304688 L 187.175781 29.988281 L 180.054688 30.304688 C 140.746094 32.058594 103.8125 48.40625 76 76.25 C 46.410156 105.878906 29.945312 145.667969 29.945312 187.566406 C 29.945312 229.46875 46.410156 269.261719 76 298.882812 C 105.585938 328.511719 145.328125 344.996094 187.179688 344.996094 C 229.027344 344.996094 268.765625 328.511719 298.355469 298.882812 C 302.867188 294.367188 307.078125 289.605469 310.972656 284.632812 L 337.574219 299.15625 " fill-opacity="1" fill-rule="evenodd"/></g><g clip-path="url(#a32b2c736d)"><path fill="#d81b60" d="M 374.503906 188.703125 L 374.507812 188.703125 L 374.136719 196.554688 C 372.621094 228.640625 362.964844 259.394531 346.359375 286.214844 L 320.011719 271.832031 C 334.375 249.175781 342.785156 223.085938 344.191406 195.816406 L 344.554688 188.703125 L 344.558594 188.703125 L 344.289062 181.554688 C 343.992188 173.648438 343.109375 165.835938 341.660156 158.167969 L 370.730469 150.765625 C 372.703125 160.667969 373.882812 170.777344 374.238281 181.015625 L 374.503906 188.703125 " fill-opacity="1" fill-rule="evenodd"/></g><path fill="#00796b" d="M 251.105469 80.363281 C 255.414062 82.941406 259.578125 85.792969 263.585938 88.898438 L 268.199219 92.484375 L 268.28125 92.339844 L 274.511719 98.460938 C 274.792969 98.734375 275.070312 99.011719 275.347656 99.289062 C 289.914062 113.875 300.511719 131.636719 306.425781 151.011719 L 280.160156 157.699219 C 275.703125 143.757812 268.125 130.921875 257.863281 120.136719 L 254.367188 116.46875 L 254.460938 116.304688 L 248.355469 111.382812 C 244.398438 108.195312 240.226562 105.335938 235.875 102.828125 L 251.105469 80.363281 " fill-opacity="1" fill-rule="evenodd"/><path fill="#26a69a" d="M 281.886719 268.757812 C 279.804688 271.183594 277.625 273.546875 275.347656 275.828125 C 251.894531 299.308594 220.359375 312.386719 187.191406 312.386719 C 154.015625 312.386719 122.484375 299.308594 99.027344 275.828125 C 75.574219 252.34375 62.515625 220.773438 62.515625 187.558594 C 62.515625 154.34375 75.574219 122.773438 99.027344 99.289062 C 120.714844 77.578125 149.445312 64.65625 180.070312 62.925781 L 187.15625 62.527344 L 187.15625 62.523438 L 187.21875 62.523438 L 187.21875 62.527344 L 194.304688 62.925781 C 209.210938 63.769531 223.707031 67.257812 237.191406 73.175781 L 221.660156 96.089844 C 212.691406 92.699219 203.210938 90.640625 193.496094 90.019531 L 187.191406 89.621094 L 180.882812 90.019531 C 157.164062 91.535156 134.960938 101.625 118.164062 118.449219 C 99.792969 136.839844 89.574219 161.542969 89.574219 187.558594 C 89.574219 213.574219 99.792969 238.273438 118.164062 256.667969 C 136.535156 275.0625 161.203125 285.292969 187.191406 285.292969 C 213.171875 285.292969 237.839844 275.0625 256.210938 256.667969 C 256.628906 256.25 257.039062 255.832031 257.445312 255.410156 L 281.886719 268.757812 " fill-opacity="1" fill-rule="evenodd"/><path fill="#e53935" d="M 312.050781 188.585938 L 312.0625 188.585938 L 311.597656 195.800781 C 310.179688 217.535156 303.140625 238.277344 291.351562 256.183594 L 267.488281 243.152344 C 277.3125 228.953125 283.246094 212.335938 284.535156 194.859375 L 284.996094 188.585938 L 285 188.585938 L 284.65625 182.234375 C 284.492188 179.097656 284.171875 175.992188 283.710938 172.914062 L 310.042969 166.214844 C 310.914062 171.257812 311.476562 176.378906 311.71875 181.550781 L 312.050781 188.585938 " fill-opacity="1" fill-rule="evenodd"/></svg>