<svg width="350" height="352" viewBox="0 0 350 352" fill="none" xmlns="http://www.w3.org/2000/svg">
<path d="M46.1608 262.283C48.8878 262.418 52.9395 262.497 58.0851 262.502C66.1928 262.509 71.0831 262.425 74.192 262.133C77.3135 261.839 78.3382 261.355 78.978 260.807C79.4038 260.443 79.6616 260.139 79.8801 259.599C80.1276 258.988 80.345 258.017 80.5044 256.271C80.8233 252.776 80.8734 246.707 80.8734 235.426C80.8734 228.686 80.9992 222.305 81.2026 217.449C81.3042 215.024 81.4258 212.965 81.5623 211.427C81.6303 210.66 81.7038 210.004 81.7834 209.488C81.8231 209.231 81.8671 208.991 81.9171 208.78C81.9612 208.594 82.0315 208.335 82.153 208.096C82.7527 206.913 84.5576 203.098 86.1647 199.611L87.4065 200.183L86.1647 199.611C88.0055 195.617 91.5566 191 95.5852 186.911C99.618 182.819 104.262 179.122 108.384 177.049C115.056 173.693 118.587 171.93 127.169 171.068C135.575 170.224 148.961 170.223 175.417 170.223C198.26 170.223 210.757 170.174 218.308 169.85C225.816 169.527 228.292 168.936 231.136 167.897C237.477 165.58 242.151 163.065 245.967 159.756C249.78 156.449 252.818 152.277 255.787 146.529C255.787 146.529 255.787 146.529 255.787 146.528L258.998 140.308V35.6668L256.079 29.9913C248.733 15.7142 232.771 5.91745 211.49 3.08464C205.511 2.28924 191.135 1.73888 177.167 1.56158C170.201 1.47316 163.37 1.47785 157.783 1.58933C152.149 1.70173 147.898 1.92164 146.013 2.2403C128.794 5.15165 124.085 6.13586 117.983 8.06101C104.496 12.316 96.6836 19.8483 93.4566 31.3466L92.0394 30.9489L93.4566 31.3467C92.9601 33.1157 92.5111 36.7413 92.1623 41.3759C91.8173 45.9596 91.5788 51.3937 91.4686 56.689C91.3583 61.9861 91.3767 67.1228 91.5424 71.1139C91.6253 73.1124 91.7443 74.7997 91.8984 76.0666C91.9756 76.7016 92.0587 77.2055 92.1436 77.5781C92.1686 77.6876 92.1916 77.7759 92.2115 77.8459C92.5174 77.9377 93.0142 78.0402 93.7613 78.1423C95.2564 78.3465 97.54 78.5213 100.815 78.6691C107.351 78.9641 117.672 79.1446 133.161 79.2708L174.301 79.6054L175.652 79.6164L175.781 80.9612L176.576 89.1992L176.735 90.8433H175.083H113.392C86.7776 90.8433 71.1363 90.9141 61.3846 91.2063C51.613 91.4992 47.8889 92.0137 45.0286 92.8456L45.0282 92.8457C34.312 95.9594 25.8619 101.171 19.436 108.645C13.0009 116.129 8.52163 125.968 5.89615 138.446C4.72289 144.025 3.233 150.675 2.58461 153.228L1.13096 152.859L2.58459 153.228C2.24836 154.552 1.96619 157.571 1.77645 161.631C1.58955 165.632 1.4973 170.491 1.50006 175.388C1.50282 180.285 1.60059 185.205 1.79212 189.326C1.98566 193.491 2.27074 196.721 2.62106 198.314L46.1608 262.283ZM46.1608 262.283C46.1717 262.185 46.1738 262.08 46.1645 261.969C46.0905 261.084 45.3835 260.715 45.2141 260.634C44.7868 260.429 44.2534 260.381 43.8885 260.359L43.8875 260.359C39.7886 260.108 34.7466 258.106 29.8548 254.905C24.9847 251.718 20.4081 247.435 17.217 242.803L15.9848 243.652L17.2169 242.803C12.0308 235.276 9.14861 227.886 6.05021 213.856L6.05016 213.856C4.81796 208.28 3.2752 201.286 2.62111 198.314L46.1608 262.283ZM135.005 57.1094L135.005 57.1093C144.93 51.978 147.835 39.8293 140.845 31.4589L139.694 32.4203L140.845 31.4589C139.32 29.6316 138.021 28.3478 136.299 27.5288C134.605 26.723 132.646 26.4386 129.974 26.2512C125.781 25.9572 122.858 25.9596 120.38 27.1345C117.895 28.3125 116.082 30.5613 113.733 33.9587C108.801 41.0903 112.036 51.5994 120.006 56.4557C122.57 58.0191 124.975 58.9236 127.472 59.0346C129.975 59.1459 132.405 58.453 135.005 57.1094Z" fill="#3670A0" stroke="#3670A0" stroke-width="3"/>
<path d="M122.191 183.716L122.576 185.166C122.571 185.167 122.604 185.159 122.693 185.145C122.777 185.131 122.888 185.116 123.03 185.099C123.313 185.066 123.69 185.03 124.16 184.993C125.099 184.919 126.371 184.842 127.945 184.762C131.089 184.603 135.399 184.439 140.565 184.278C150.895 183.957 164.626 183.653 179.263 183.443C197.356 183.183 210.886 182.876 220.114 182.511C224.725 182.329 228.279 182.131 230.797 181.916C232.054 181.808 233.075 181.695 233.85 181.572C234.237 181.511 234.584 181.445 234.879 181.371C235.145 181.303 235.477 181.204 235.766 181.039L235.767 181.039C237.113 180.272 240.444 178.58 243.16 177.288L243.16 177.288C246.626 175.638 251.38 171.807 255.745 167.556C260.126 163.288 264.309 158.407 266.565 154.525L265.269 153.771L266.565 154.525C272.478 144.355 273.924 135.704 273.924 112.89C273.924 107.224 273.989 102.014 274.093 98.1855C274.145 96.2692 274.207 94.7113 274.274 93.6197C274.291 93.347 274.308 93.1087 274.325 92.9047C274.496 92.8876 274.695 92.8712 274.922 92.856C275.908 92.7903 277.292 92.756 278.975 92.7515C282.335 92.7426 286.794 92.852 291.442 93.0435C300.804 93.4291 310.69 94.1382 313.945 94.8403L313.945 94.8403C316.784 95.4521 318.634 96.0709 320.476 97.1905C322.356 98.3335 324.304 100.044 327.261 102.983L328.319 101.919L327.261 102.983C330.898 106.597 333.172 109.255 335.002 112.416C336.841 115.594 338.273 119.352 340.119 125.23C341.324 129.065 342.819 133.55 343.446 135.197C343.992 136.63 344.456 139.131 344.456 140.621C344.456 141.614 344.699 143.328 345.047 145.205C345.403 147.124 345.893 149.34 346.432 151.397L347.767 151.047L346.432 151.397C348.378 158.818 348.891 172.321 348.221 185.395C347.887 191.904 347.264 198.247 346.397 203.601C345.522 209.003 344.422 213.244 343.2 215.652C342.843 216.355 342.532 217.179 342.308 217.948C342.092 218.689 341.92 219.507 341.92 220.17C341.92 220.159 341.918 220.239 341.873 220.454C341.833 220.65 341.768 220.904 341.677 221.217C341.496 221.841 341.23 222.637 340.896 223.558C340.229 225.397 339.316 227.668 338.344 229.931C337.373 232.195 336.352 234.43 335.471 236.199C335.03 237.085 334.631 237.839 334.297 238.415C334.13 238.704 333.985 238.935 333.866 239.11C333.807 239.197 333.758 239.264 333.719 239.313C333.704 239.333 333.692 239.348 333.682 239.359C333.667 239.376 333.66 239.384 333.66 239.383C333.141 239.902 332.693 240.542 332.371 241.165C332.08 241.725 331.8 242.443 331.779 243.142C331.774 243.158 331.764 243.182 331.75 243.214C331.696 243.338 331.596 243.519 331.435 243.762C331.111 244.247 330.616 244.86 329.967 245.573C328.674 246.992 326.882 248.685 324.938 250.346C322.995 252.005 320.932 253.606 319.108 254.845C317.217 256.13 315.775 256.892 315.015 257.071L315.015 257.071C315.015 257.071 315.003 257.074 314.974 257.078C314.944 257.084 314.904 257.09 314.851 257.097C314.745 257.111 314.605 257.127 314.428 257.144C314.076 257.178 313.607 257.214 313.023 257.251C311.855 257.326 310.263 257.403 308.291 257.482C304.347 257.639 298.915 257.802 292.385 257.961C279.326 258.278 261.896 258.577 243.248 258.781L175.422 259.524L174.054 259.539L173.943 260.902L173.534 265.921L173.519 266.097C173.441 267.049 173.365 267.983 173.381 268.821C173.398 269.721 173.52 270.655 173.95 271.521C174.861 273.361 176.802 274.255 179.612 274.787C182.47 275.329 186.724 275.583 192.967 275.708C199.086 275.831 207.217 275.831 217.986 275.831H218.785H256.978V294.371C256.978 311.851 256.613 314.79 254.65 318.733L255.929 319.37L254.65 318.733C250.504 327.056 241.743 335.025 231.89 339.31L231.89 339.311C229.097 340.527 225.771 342.084 224.496 342.782L224.495 342.783C224.039 343.033 223.331 343.296 222.539 343.496C221.749 343.695 220.988 343.804 220.445 343.804C218.792 343.804 216.401 344.391 214.966 345.157L214.965 345.158C214.016 345.665 212.439 346.184 210.269 346.673C208.128 347.156 205.51 347.589 202.544 347.965C196.613 348.716 189.368 349.229 181.918 349.464C166.946 349.937 151.435 349.28 144.135 347.305C139.948 346.172 134.521 344.735 132.07 344.111L132.069 344.11C125.99 342.562 118.858 339.07 112.582 334.859C106.281 330.63 101.047 325.812 98.6032 321.722C96.7468 318.614 95.5966 315.342 94.8166 307.579C94.0315 299.766 93.6359 287.574 93.2115 266.696L91.7118 266.727L93.2115 266.696C92.4485 229.21 92.6173 223.432 94.4077 216.605C95.5807 212.134 96.4191 209.433 97.601 206.979C98.7812 204.528 100.334 202.263 103.026 198.708C104.926 196.199 108.369 193.182 112.138 190.574C115.917 187.96 119.82 185.898 122.576 185.166L122.191 183.716ZM122.191 183.716C116.183 185.312 105.903 192.423 101.83 197.802C96.4293 204.934 95.3072 207.266 92.9568 216.225L242.516 175.933C239.79 177.23 236.419 178.941 235.024 179.736C233.301 180.716 215.422 181.424 179.241 181.943C149.955 182.363 124.283 183.161 122.191 183.716ZM274.41 92.1514C274.41 92.1514 274.409 92.1526 274.409 92.1549C274.409 92.1548 274.409 92.1547 274.409 92.1546C274.409 92.1524 274.41 92.1514 274.41 92.1514ZM215.335 292.892C212.852 294.235 211.149 295.307 209.736 296.867C208.339 298.41 207.306 300.342 205.956 303.22C202.222 311.177 205.311 319.245 211.073 324.129C216.832 329.01 225.498 330.932 233.235 326.496C236.139 324.831 238.767 321.482 240.519 318.027C242.253 314.608 243.353 310.641 242.695 307.638L241.23 307.958L242.695 307.638C241.205 300.828 237.268 295.598 232.208 292.836C227.132 290.064 221.001 289.827 215.335 292.892Z" fill="#FCDF59" stroke="#FCDF59" stroke-width="3"/>
</svg>
