<svg xmlns="http://www.w3.org/2000/svg" xmlns:xlink="http://www.w3.org/1999/xlink" width="500" zoomAndPan="magnify" viewBox="0 0 375 374.999991" height="500" preserveAspectRatio="xMidYMid meet" version="1.0"><defs><clipPath id="45a5d3ad72"><path d="M 288 54 L 346.796875 54 L 346.796875 129 L 288 129 Z M 288 54 " clip-rule="nonzero"/></clipPath><clipPath id="b0cf44b16c"><path d="M 287 53 L 346.796875 53 L 346.796875 129 L 287 129 Z M 287 53 " clip-rule="nonzero"/></clipPath></defs><g clip-path="url(#45a5d3ad72)"><path fill="#7a8593" d="M 288.492188 59.609375 L 295.40625 54.507812 L 346.039062 123.171875 L 339.128906 128.273438 Z M 288.492188 59.609375 " fill-opacity="1" fill-rule="nonzero"/></g><g clip-path="url(#b0cf44b16c)"><path fill="#535a63" d="M 339.125 128.9375 C 339.089844 128.9375 339.058594 128.933594 339.023438 128.929688 C 338.847656 128.902344 338.6875 128.808594 338.582031 128.664062 L 287.945312 60.003906 C 287.839844 59.859375 287.792969 59.679688 287.820312 59.5 C 287.847656 59.324219 287.945312 59.164062 288.089844 59.058594 L 295 53.957031 C 295.300781 53.734375 295.722656 53.796875 295.941406 54.097656 L 346.578125 122.757812 C 346.800781 123.058594 346.734375 123.480469 346.4375 123.703125 L 339.523438 128.804688 C 339.410156 128.890625 339.265625 128.9375 339.125 128.9375 Z M 289.433594 59.746094 L 339.265625 127.320312 L 345.089844 123.019531 L 295.257812 55.445312 Z M 289.433594 59.746094 " fill-opacity="1" fill-rule="nonzero"/></g><path fill="#7a8593" d="M 310.113281 35.6875 C 310.113281 36.796875 310.058594 37.90625 309.949219 39.011719 C 309.839844 40.117188 309.679688 41.21875 309.460938 42.308594 C 309.246094 43.398438 308.976562 44.476562 308.652344 45.539062 C 308.332031 46.601562 307.957031 47.648438 307.53125 48.675781 C 307.105469 49.703125 306.632812 50.707031 306.109375 51.6875 C 305.582031 52.667969 305.011719 53.621094 304.394531 54.542969 C 303.777344 55.46875 303.117188 56.359375 302.414062 57.21875 C 301.707031 58.078125 300.960938 58.902344 300.175781 59.6875 C 299.390625 60.472656 298.570312 61.21875 297.710938 61.925781 C 296.851562 62.628906 295.960938 63.289062 295.035156 63.910156 C 294.113281 64.527344 293.160156 65.097656 292.179688 65.621094 C 291.199219 66.144531 290.195312 66.621094 289.171875 67.046875 C 288.144531 67.46875 287.097656 67.84375 286.035156 68.167969 C 284.972656 68.488281 283.894531 68.757812 282.804688 68.976562 C 281.714844 69.195312 280.617188 69.355469 279.511719 69.464844 C 278.40625 69.574219 277.296875 69.628906 276.1875 69.628906 C 275.074219 69.628906 273.96875 69.574219 272.863281 69.464844 C 271.753906 69.355469 270.65625 69.195312 269.566406 68.976562 C 268.476562 68.757812 267.402344 68.488281 266.339844 68.167969 C 265.273438 67.84375 264.230469 67.46875 263.203125 67.046875 C 262.175781 66.621094 261.175781 66.144531 260.195312 65.621094 C 259.214844 65.097656 258.261719 64.527344 257.339844 63.910156 C 256.414062 63.289062 255.523438 62.628906 254.664062 61.925781 C 253.804688 61.21875 252.984375 60.472656 252.195312 59.6875 C 251.410156 58.902344 250.667969 58.078125 249.960938 57.21875 C 249.257812 56.359375 248.59375 55.46875 247.976562 54.542969 C 247.359375 53.621094 246.789062 52.667969 246.265625 51.6875 C 245.742188 50.707031 245.269531 49.703125 244.84375 48.675781 C 244.417969 47.648438 244.042969 46.601562 243.722656 45.539062 C 243.398438 44.476562 243.128906 43.398438 242.914062 42.308594 C 242.695312 41.21875 242.53125 40.117188 242.421875 39.011719 C 242.316406 37.90625 242.261719 36.796875 242.261719 35.6875 C 242.261719 34.574219 242.316406 33.464844 242.421875 32.359375 C 242.53125 31.253906 242.695312 30.152344 242.914062 29.0625 C 243.128906 27.972656 243.398438 26.894531 243.722656 25.832031 C 244.042969 24.769531 244.417969 23.722656 244.84375 22.695312 C 245.269531 21.667969 245.742188 20.664062 246.265625 19.683594 C 246.789062 18.703125 247.359375 17.753906 247.976562 16.828125 C 248.59375 15.902344 249.257812 15.011719 249.960938 14.152344 C 250.667969 13.292969 251.410156 12.46875 252.195312 11.683594 C 252.984375 10.898438 253.804688 10.152344 254.664062 9.449219 C 255.523438 8.742188 256.414062 8.082031 257.339844 7.464844 C 258.261719 6.84375 259.214844 6.273438 260.195312 5.75 C 261.175781 5.226562 262.175781 4.753906 263.203125 4.328125 C 264.230469 3.902344 265.273438 3.527344 266.339844 3.203125 C 267.402344 2.882812 268.476562 2.613281 269.566406 2.394531 C 270.65625 2.179688 271.753906 2.015625 272.863281 1.90625 C 273.96875 1.796875 275.074219 1.742188 276.1875 1.742188 C 277.296875 1.742188 278.40625 1.796875 279.511719 1.90625 C 280.617188 2.015625 281.714844 2.179688 282.804688 2.394531 C 283.894531 2.613281 284.972656 2.882812 286.035156 3.203125 C 287.097656 3.527344 288.144531 3.902344 289.171875 4.328125 C 290.195312 4.753906 291.199219 5.226562 292.179688 5.75 C 293.160156 6.273438 294.113281 6.84375 295.035156 7.464844 C 295.960938 8.082031 296.851562 8.742188 297.710938 9.449219 C 298.570312 10.152344 299.390625 10.898438 300.175781 11.683594 C 300.960938 12.46875 301.707031 13.292969 302.414062 14.152344 C 303.117188 15.011719 303.777344 15.902344 304.394531 16.828125 C 305.011719 17.753906 305.582031 18.703125 306.109375 19.683594 C 306.632812 20.664062 307.105469 21.667969 307.53125 22.695312 C 307.957031 23.722656 308.332031 24.769531 308.652344 25.832031 C 308.976562 26.894531 309.246094 27.972656 309.460938 29.0625 C 309.679688 30.152344 309.839844 31.253906 309.949219 32.359375 C 310.058594 33.464844 310.113281 34.574219 310.113281 35.6875 Z M 310.113281 35.6875 " fill-opacity="1" fill-rule="nonzero"/><path fill="#535a63" d="M 276.261719 70.3125 C 274.523438 70.3125 272.773438 70.179688 271.023438 69.917969 C 261.886719 68.539062 253.832031 63.679688 248.34375 56.238281 C 242.855469 48.796875 240.59375 39.664062 241.972656 30.523438 C 243.351562 21.378906 248.207031 13.320312 255.644531 7.828125 C 263.082031 2.339844 272.210938 0.0742188 281.347656 1.457031 C 290.488281 2.835938 298.542969 7.691406 304.03125 15.132812 C 309.515625 22.574219 311.78125 31.707031 310.402344 40.851562 C 309.023438 49.992188 304.167969 58.050781 296.730469 63.542969 C 290.714844 67.980469 283.597656 70.3125 276.261719 70.3125 Z M 276.117188 2.410156 C 269.066406 2.410156 262.222656 4.648438 256.445312 8.914062 C 249.296875 14.191406 244.632812 21.9375 243.304688 30.722656 C 241.980469 39.507812 244.15625 48.289062 249.429688 55.4375 C 254.703125 62.585938 262.441406 67.253906 271.226562 68.582031 C 272.90625 68.835938 274.589844 68.960938 276.257812 68.960938 C 283.308594 68.960938 290.148438 66.722656 295.929688 62.453125 C 303.078125 57.179688 307.742188 49.433594 309.066406 40.648438 C 310.394531 31.859375 308.21875 23.082031 302.945312 15.933594 C 297.671875 8.78125 289.929688 4.117188 281.148438 2.789062 C 279.46875 2.535156 277.785156 2.410156 276.117188 2.410156 Z M 276.117188 2.410156 " fill-opacity="1" fill-rule="nonzero"/><path fill="#9ca9ba" d="M 301 35.808594 C 301.03125 30.640625 299.457031 25.421875 296.152344 20.945312 C 288.015625 9.914062 272.484375 7.570312 261.457031 15.707031 C 256.980469 19.011719 253.9375 23.53125 252.441406 28.476562 L 301 35.804688 Z M 301 35.808594 " fill-opacity="1" fill-rule="nonzero"/><path fill="#535a63" d="M 301 36.484375 C 300.96875 36.484375 300.933594 36.480469 300.898438 36.472656 L 252.339844 29.144531 C 252.144531 29.117188 251.976562 29.003906 251.871094 28.839844 C 251.765625 28.671875 251.738281 28.46875 251.796875 28.28125 C 253.394531 22.992188 256.597656 18.457031 261.054688 15.164062 C 266.53125 11.121094 273.257812 9.453125 279.988281 10.46875 C 286.722656 11.484375 292.65625 15.0625 296.695312 20.542969 C 299.984375 25.003906 301.707031 30.28125 301.675781 35.808594 C 301.675781 36.003906 301.589844 36.191406 301.441406 36.320312 C 301.316406 36.425781 301.160156 36.480469 301 36.480469 Z M 253.328125 27.929688 L 300.320312 35.019531 C 300.191406 30.070312 298.570312 25.359375 295.609375 21.347656 C 291.78125 16.15625 286.164062 12.765625 279.789062 11.804688 C 273.414062 10.84375 267.042969 12.421875 261.855469 16.253906 C 257.847656 19.210938 254.910156 23.238281 253.328125 27.929688 Z M 253.328125 27.929688 " fill-opacity="1" fill-rule="nonzero"/><path fill="#9ca9ba" d="M 251.371094 35.5625 C 251.34375 40.726562 252.917969 45.949219 256.21875 50.425781 C 264.355469 61.457031 279.890625 63.800781 290.917969 55.660156 C 295.390625 52.359375 298.4375 47.835938 299.933594 42.894531 Z M 251.371094 35.5625 " fill-opacity="1" fill-rule="nonzero"/><path fill="#535a63" d="M 276.242188 61.191406 C 274.960938 61.191406 273.671875 61.09375 272.382812 60.902344 C 265.652344 59.886719 259.71875 56.304688 255.675781 50.824219 C 252.386719 46.367188 250.667969 41.085938 250.699219 35.558594 C 250.699219 35.363281 250.785156 35.179688 250.933594 35.050781 C 251.082031 34.925781 251.28125 34.867188 251.472656 34.898438 L 300.035156 42.226562 C 300.226562 42.257812 300.398438 42.367188 300.503906 42.53125 C 300.609375 42.699219 300.636719 42.902344 300.578125 43.089844 C 298.980469 48.378906 295.777344 52.914062 291.320312 56.207031 C 286.890625 59.476562 281.644531 61.191406 276.242188 61.191406 Z M 252.054688 36.347656 C 252.183594 41.296875 253.804688 46.011719 256.765625 50.023438 C 260.59375 55.214844 266.210938 58.601562 272.585938 59.566406 C 278.960938 60.527344 285.332031 58.949219 290.519531 55.117188 C 294.527344 52.15625 297.464844 48.132812 299.050781 43.441406 Z M 252.054688 36.347656 " fill-opacity="1" fill-rule="nonzero"/><path fill="#9ca9ba" d="M 292.664062 209.949219 L 292.664062 209.898438 C 292.660156 209.90625 292.65625 209.914062 292.65625 209.921875 C 292.652344 209.914062 292.652344 209.90625 292.648438 209.898438 L 292.648438 209.949219 C 292.015625 212.253906 290.542969 213.90625 288.238281 214.898438 C 290.542969 215.890625 292.015625 217.542969 292.648438 219.847656 L 292.648438 219.898438 C 292.652344 219.890625 292.65625 219.882812 292.65625 219.875 C 292.660156 219.882812 292.660156 219.890625 292.664062 219.898438 L 292.664062 219.847656 C 293.300781 217.542969 294.769531 215.890625 297.074219 214.898438 C 294.769531 213.90625 293.300781 212.253906 292.664062 209.949219 Z M 292.664062 209.949219 " fill-opacity="1" fill-rule="nonzero"/><path fill="#9ca9ba" d="M 36.121094 89.746094 L 36.121094 89.699219 C 36.117188 89.707031 36.113281 89.714844 36.113281 89.722656 C 36.109375 89.714844 36.109375 89.707031 36.105469 89.699219 L 36.105469 89.746094 C 35.472656 92.054688 34 93.707031 31.695312 94.699219 C 34 95.691406 35.472656 97.339844 36.105469 99.648438 L 36.105469 99.695312 C 36.109375 99.6875 36.113281 99.679688 36.113281 99.671875 C 36.117188 99.679688 36.117188 99.6875 36.121094 99.695312 L 36.121094 99.648438 C 36.757812 97.339844 38.226562 95.691406 40.53125 94.699219 C 38.226562 93.707031 36.757812 92.054688 36.121094 89.746094 Z M 36.121094 89.746094 " fill-opacity="1" fill-rule="nonzero"/><path fill="#9ca9ba" d="M 316.296875 291.15625 L 316.296875 291.109375 C 316.292969 291.117188 316.292969 291.125 316.289062 291.132812 C 316.289062 291.125 316.285156 291.117188 316.285156 291.109375 L 316.285156 291.15625 C 315.648438 293.464844 314.179688 295.113281 311.875 296.105469 C 314.179688 297.097656 315.648438 298.75 316.285156 301.058594 L 316.285156 301.105469 C 316.285156 301.097656 316.289062 301.089844 316.289062 301.082031 C 316.292969 301.089844 316.296875 301.097656 316.296875 301.105469 L 316.296875 301.058594 C 316.933594 298.75 318.402344 297.097656 320.707031 296.105469 C 318.402344 295.113281 316.933594 293.464844 316.296875 291.15625 Z M 316.296875 291.15625 " fill-opacity="1" fill-rule="nonzero"/><path fill="#9ca9ba" d="M 263.957031 260.507812 L 263.957031 260.410156 C 263.953125 260.429688 263.949219 260.445312 263.945312 260.460938 C 263.941406 260.445312 263.933594 260.429688 263.929688 260.410156 L 263.929688 260.507812 C 262.660156 265.125 259.71875 268.425781 255.109375 270.410156 C 259.71875 272.398438 262.65625 275.699219 263.929688 280.3125 L 263.929688 280.410156 C 263.933594 280.394531 263.941406 280.378906 263.945312 280.363281 C 263.949219 280.378906 263.953125 280.394531 263.957031 280.410156 L 263.957031 280.3125 C 265.230469 275.699219 268.167969 272.398438 272.777344 270.410156 C 268.167969 268.425781 265.230469 265.125 263.957031 260.507812 Z M 263.957031 260.507812 " fill-opacity="1" fill-rule="nonzero"/><path fill="#9ca9ba" d="M 67.285156 149.683594 L 67.285156 149.585938 C 67.28125 149.601562 67.277344 149.617188 67.273438 149.636719 C 67.269531 149.617188 67.261719 149.601562 67.257812 149.585938 L 67.257812 149.683594 C 65.988281 154.296875 63.046875 157.601562 58.4375 159.585938 C 63.046875 161.570312 65.984375 164.871094 67.257812 169.488281 L 67.257812 169.585938 C 67.261719 169.566406 67.269531 169.554688 67.273438 169.535156 C 67.277344 169.554688 67.28125 169.566406 67.285156 169.585938 L 67.285156 169.488281 C 68.558594 164.871094 71.496094 161.570312 76.105469 159.585938 C 71.496094 157.601562 68.558594 154.296875 67.285156 149.683594 Z M 67.285156 149.683594 " fill-opacity="1" fill-rule="nonzero"/><path fill="#9ca9ba" d="M 109.09375 38.136719 L 109.09375 38.035156 C 109.089844 38.054688 109.085938 38.070312 109.082031 38.085938 C 109.074219 38.070312 109.070312 38.054688 109.066406 38.035156 L 109.066406 38.136719 C 107.796875 42.75 104.855469 46.050781 100.246094 48.039062 C 104.855469 50.023438 107.792969 53.324219 109.066406 57.9375 L 109.066406 58.039062 C 109.070312 58.019531 109.074219 58.003906 109.082031 57.988281 C 109.085938 58.003906 109.089844 58.019531 109.09375 58.039062 L 109.09375 57.9375 C 110.363281 53.324219 113.304688 50.023438 117.914062 48.039062 C 113.304688 46.050781 110.367188 42.75 109.09375 38.136719 Z M 109.09375 38.136719 " fill-opacity="1" fill-rule="nonzero"/><path fill="#ffffff" d="M 253.765625 102.679688 C 253.765625 103.8125 253.707031 104.941406 253.589844 106.070312 C 253.472656 107.199219 253.296875 108.316406 253.066406 109.429688 C 252.832031 110.542969 252.542969 111.640625 252.195312 112.722656 C 251.847656 113.808594 251.445312 114.875 250.988281 115.921875 C 250.53125 116.96875 250.023438 117.992188 249.460938 118.992188 C 248.898438 119.988281 248.28125 120.960938 247.621094 121.902344 C 246.957031 122.84375 246.246094 123.753906 245.488281 124.628906 C 244.730469 125.507812 243.929688 126.34375 243.082031 127.144531 C 242.238281 127.949219 241.355469 128.707031 240.429688 129.425781 C 239.507812 130.144531 238.550781 130.820312 237.558594 131.449219 C 236.5625 132.078125 235.539062 132.660156 234.488281 133.195312 C 233.433594 133.730469 232.355469 134.214844 231.25 134.648438 C 230.148438 135.082031 229.023438 135.460938 227.882812 135.792969 C 226.738281 136.121094 225.582031 136.394531 224.410156 136.617188 C 223.238281 136.835938 222.058594 137.003906 220.867188 137.113281 C 219.679688 137.226562 218.488281 137.28125 217.292969 137.28125 C 216.097656 137.28125 214.90625 137.226562 213.71875 137.113281 C 212.53125 137.003906 211.351562 136.835938 210.179688 136.617188 C 209.007812 136.394531 207.847656 136.121094 206.707031 135.792969 C 205.5625 135.460938 204.441406 135.082031 203.335938 134.648438 C 202.234375 134.214844 201.152344 133.730469 200.101562 133.195312 C 199.046875 132.660156 198.023438 132.078125 197.03125 131.449219 C 196.039062 130.820312 195.078125 130.144531 194.15625 129.425781 C 193.230469 128.707031 192.347656 127.949219 191.503906 127.144531 C 190.660156 126.34375 189.859375 125.507812 189.101562 124.628906 C 188.34375 123.753906 187.632812 122.84375 186.96875 121.902344 C 186.304688 120.960938 185.691406 119.988281 185.128906 118.992188 C 184.566406 117.992188 184.054688 116.96875 183.597656 115.921875 C 183.140625 114.875 182.738281 113.808594 182.390625 112.722656 C 182.046875 111.640625 181.753906 110.542969 181.523438 109.429688 C 181.289062 108.316406 181.113281 107.199219 180.996094 106.070312 C 180.878906 104.941406 180.820312 103.8125 180.820312 102.679688 C 180.820312 101.546875 180.878906 100.414062 180.996094 99.289062 C 181.113281 98.160156 181.289062 97.039062 181.523438 95.929688 C 181.753906 94.816406 182.042969 93.71875 182.390625 92.632812 C 182.738281 91.550781 183.140625 90.484375 183.597656 89.4375 C 184.054688 88.390625 184.566406 87.367188 185.128906 86.367188 C 185.691406 85.367188 186.304688 84.398438 186.96875 83.457031 C 187.632812 82.511719 188.34375 81.605469 189.101562 80.726562 C 189.859375 79.851562 190.660156 79.011719 191.503906 78.210938 C 192.347656 77.410156 193.230469 76.648438 194.15625 75.929688 C 195.078125 75.210938 196.039062 74.539062 197.03125 73.910156 C 198.023438 73.277344 199.046875 72.695312 200.101562 72.164062 C 201.152344 71.628906 202.234375 71.144531 203.335938 70.710938 C 204.441406 70.277344 205.5625 69.894531 206.707031 69.566406 C 207.847656 69.238281 209.007812 68.964844 210.179688 68.742188 C 211.351562 68.519531 212.53125 68.355469 213.71875 68.242188 C 214.90625 68.132812 216.097656 68.078125 217.292969 68.078125 C 218.488281 68.078125 219.679688 68.132812 220.867188 68.242188 C 222.058594 68.355469 223.238281 68.519531 224.410156 68.742188 C 225.582031 68.964844 226.738281 69.238281 227.882812 69.566406 C 229.023438 69.894531 230.148438 70.277344 231.25 70.710938 C 232.355469 71.144531 233.433594 71.628906 234.488281 72.164062 C 235.539062 72.695312 236.5625 73.277344 237.558594 73.910156 C 238.550781 74.539062 239.507812 75.210938 240.433594 75.929688 C 241.355469 76.648438 242.238281 77.410156 243.082031 78.210938 C 243.929688 79.011719 244.730469 79.851562 245.488281 80.726562 C 246.246094 81.605469 246.957031 82.511719 247.621094 83.457031 C 248.28125 84.398438 248.898438 85.367188 249.460938 86.367188 C 250.023438 87.367188 250.53125 88.390625 250.988281 89.4375 C 251.445312 90.484375 251.847656 91.550781 252.195312 92.632812 C 252.542969 93.71875 252.832031 94.816406 253.066406 95.929688 C 253.296875 97.039062 253.472656 98.160156 253.589844 99.289062 C 253.707031 100.414062 253.765625 101.546875 253.765625 102.679688 Z M 253.765625 102.679688 " fill-opacity="1" fill-rule="nonzero"/><path fill="#535a63" d="M 217.292969 137.957031 C 207.378906 137.957031 198.054688 134.292969 191.039062 127.636719 C 184.015625 120.972656 180.144531 112.109375 180.144531 102.675781 C 180.144531 93.246094 184.015625 84.382812 191.039062 77.71875 C 198.054688 71.0625 207.378906 67.398438 217.292969 67.398438 C 227.210938 67.398438 236.535156 71.0625 243.546875 77.71875 C 250.574219 84.382812 254.441406 93.246094 254.441406 102.675781 C 254.441406 112.109375 250.574219 120.972656 243.546875 127.636719 C 236.53125 134.292969 227.210938 137.957031 217.292969 137.957031 Z M 180.820312 102.679688 L 181.496094 102.679688 C 181.496094 111.734375 185.214844 120.25 191.96875 126.65625 C 198.730469 133.074219 207.726562 136.605469 217.292969 136.605469 C 226.863281 136.605469 235.855469 133.070312 242.621094 126.65625 C 249.371094 120.25 253.089844 111.734375 253.089844 102.679688 C 253.089844 93.625 249.371094 85.109375 242.621094 78.703125 C 235.855469 72.285156 226.863281 68.753906 217.292969 68.753906 C 207.726562 68.753906 198.730469 72.285156 191.96875 78.703125 C 185.214844 85.109375 181.496094 93.625 181.496094 102.679688 Z M 180.820312 102.679688 " fill-opacity="1" fill-rule="nonzero"/><path fill="#7a8593" d="M 253.765625 102.679688 C 253.765625 121.59375 237.769531 136.960938 217.910156 137.273438 C 206.101562 131.355469 198.863281 119.273438 196.640625 103.414062 C 195.058594 92.121094 197.199219 79.71875 200.269531 72.070312 C 205.351562 69.523438 211.144531 68.074219 217.292969 68.074219 C 237.4375 68.074219 253.765625 83.570312 253.765625 102.675781 Z M 253.765625 102.679688 " fill-opacity="1" fill-rule="nonzero"/><path fill="#535a63" d="M 217.910156 137.949219 C 217.804688 137.949219 217.703125 137.925781 217.609375 137.878906 C 211.679688 134.90625 206.800781 130.378906 203.109375 124.429688 C 199.503906 118.621094 197.105469 111.585938 195.972656 103.507812 C 195.230469 98.210938 195.253906 92.257812 196.039062 86.289062 C 196.738281 81.011719 198.015625 75.875 199.640625 71.820312 C 199.703125 71.667969 199.820312 71.542969 199.964844 71.46875 C 205.269531 68.808594 211.261719 67.402344 217.292969 67.402344 C 227.210938 67.402344 236.535156 71.066406 243.546875 77.722656 C 250.574219 84.386719 254.441406 93.25 254.441406 102.679688 C 254.441406 112.003906 250.644531 120.796875 243.753906 127.441406 C 236.878906 134.0625 227.703125 137.796875 217.921875 137.949219 C 217.917969 137.949219 217.914062 137.949219 217.910156 137.949219 Z M 200.800781 72.5625 C 197.921875 79.878906 195.742188 92.144531 197.308594 103.320312 C 198.414062 111.207031 200.753906 118.070312 204.253906 123.714844 C 207.785156 129.402344 212.429688 133.734375 218.066406 136.597656 C 227.445312 136.410156 236.230469 132.816406 242.816406 126.464844 C 249.441406 120.082031 253.089844 111.636719 253.089844 102.679688 C 253.089844 93.722656 249.371094 85.109375 242.621094 78.703125 C 235.855469 72.285156 226.863281 68.753906 217.292969 68.753906 C 211.558594 68.753906 205.859375 70.070312 200.800781 72.5625 Z M 200.800781 72.5625 " fill-opacity="1" fill-rule="nonzero"/><path fill="#ffffff" d="M 204.726562 104.925781 C 204.070312 102.113281 202.148438 99.925781 199.703125 98.828125 L 199.398438 97.527344 C 199.398438 97.527344 194.566406 98.15625 194.050781 98.277344 C 189.265625 99.390625 186.289062 104.175781 187.402344 108.960938 C 188.515625 113.746094 193.25 116.507812 198.078125 115.609375 C 199.40625 115.363281 203.429688 114.859375 203.429688 114.859375 L 202.910156 112.621094 C 204.617188 110.554688 205.378906 107.742188 204.726562 104.925781 Z M 204.726562 104.925781 " fill-opacity="1" fill-rule="nonzero"/><path fill="#535a63" d="M 196.253906 116.453125 C 194.390625 116.453125 192.574219 115.953125 190.996094 114.992188 C 188.828125 113.667969 187.320312 111.578125 186.746094 109.113281 C 185.550781 103.972656 188.757812 98.816406 193.894531 97.621094 C 194.429688 97.496094 198.816406 96.921875 199.3125 96.855469 C 199.65625 96.8125 199.976562 97.035156 200.058594 97.371094 L 200.285156 98.355469 C 202.875 99.628906 204.726562 101.949219 205.382812 104.773438 C 206.039062 107.597656 205.40625 110.496094 203.640625 112.785156 L 204.085938 114.703125 C 204.128906 114.890625 204.09375 115.085938 203.984375 115.242188 C 203.875 115.398438 203.703125 115.503906 203.511719 115.527344 C 203.472656 115.53125 199.496094 116.03125 198.203125 116.273438 C 197.550781 116.394531 196.902344 116.453125 196.253906 116.453125 Z M 198.882812 98.273438 C 197.03125 98.519531 194.519531 98.859375 194.203125 98.933594 C 189.789062 99.964844 187.035156 104.390625 188.058594 108.804688 C 188.550781 110.917969 189.84375 112.707031 191.699219 113.839844 C 193.535156 114.960938 195.757812 115.355469 197.957031 114.945312 C 198.949219 114.757812 201.371094 114.4375 202.601562 114.28125 L 202.253906 112.773438 C 202.207031 112.566406 202.253906 112.351562 202.390625 112.1875 C 204.042969 110.191406 204.652344 107.601562 204.066406 105.082031 C 203.480469 102.558594 201.789062 100.503906 199.425781 99.441406 C 199.234375 99.355469 199.09375 99.183594 199.046875 98.980469 Z M 198.882812 98.273438 " fill-opacity="1" fill-rule="nonzero"/><path fill="#ffffff" d="M 210.308594 106.191406 C 210.308594 106.777344 210.25 107.355469 210.136719 107.925781 C 210.023438 108.5 209.855469 109.054688 209.632812 109.597656 C 209.40625 110.136719 209.132812 110.648438 208.808594 111.132812 C 208.484375 111.621094 208.117188 112.070312 207.703125 112.484375 C 207.289062 112.894531 206.839844 113.265625 206.355469 113.589844 C 205.871094 113.914062 205.359375 114.1875 204.820312 114.410156 C 204.277344 114.636719 203.722656 114.804688 203.152344 114.917969 C 202.578125 115.03125 202 115.089844 201.414062 115.089844 C 200.832031 115.089844 200.253906 115.03125 199.679688 114.917969 C 199.109375 114.804688 198.550781 114.636719 198.011719 114.410156 C 197.472656 114.1875 196.960938 113.914062 196.476562 113.589844 C 195.988281 113.265625 195.539062 112.894531 195.128906 112.484375 C 194.714844 112.070312 194.347656 111.621094 194.023438 111.132812 C 193.695312 110.648438 193.421875 110.136719 193.199219 109.597656 C 192.976562 109.054688 192.808594 108.5 192.695312 107.925781 C 192.578125 107.355469 192.523438 106.777344 192.523438 106.191406 C 192.523438 105.609375 192.578125 105.027344 192.695312 104.457031 C 192.808594 103.882812 192.976562 103.328125 193.199219 102.785156 C 193.421875 102.246094 193.695312 101.734375 194.023438 101.25 C 194.347656 100.761719 194.714844 100.3125 195.128906 99.902344 C 195.539062 99.488281 195.988281 99.117188 196.476562 98.792969 C 196.960938 98.46875 197.472656 98.195312 198.011719 97.972656 C 198.550781 97.75 199.109375 97.578125 199.679688 97.464844 C 200.253906 97.351562 200.832031 97.292969 201.414062 97.292969 C 202 97.292969 202.578125 97.351562 203.152344 97.464844 C 203.722656 97.578125 204.277344 97.75 204.820312 97.972656 C 205.359375 98.195312 205.871094 98.46875 206.355469 98.792969 C 206.839844 99.117188 207.289062 99.488281 207.703125 99.902344 C 208.117188 100.3125 208.484375 100.761719 208.808594 101.25 C 209.132812 101.734375 209.40625 102.246094 209.632812 102.785156 C 209.855469 103.328125 210.023438 103.882812 210.136719 104.457031 C 210.25 105.027344 210.308594 105.609375 210.308594 106.191406 Z M 210.308594 106.191406 " fill-opacity="1" fill-rule="nonzero"/><path fill="#535a63" d="M 201.398438 115.765625 C 199.632812 115.765625 197.898438 115.273438 196.359375 114.316406 C 194.191406 112.96875 192.675781 110.851562 192.097656 108.359375 C 190.902344 103.21875 194.109375 98.066406 199.246094 96.871094 C 201.738281 96.289062 204.304688 96.714844 206.472656 98.066406 C 208.640625 99.417969 210.15625 101.53125 210.734375 104.023438 C 211.3125 106.511719 210.890625 109.082031 209.539062 111.25 C 208.1875 113.421875 206.074219 114.9375 203.585938 115.515625 C 202.859375 115.683594 202.125 115.769531 201.398438 115.769531 Z M 201.433594 97.96875 C 200.808594 97.96875 200.179688 98.039062 199.554688 98.183594 C 195.140625 99.210938 192.386719 103.640625 193.414062 108.054688 C 193.910156 110.195312 195.210938 112.011719 197.074219 113.171875 C 198.9375 114.332031 201.140625 114.699219 203.277344 114.199219 C 205.417969 113.703125 207.230469 112.402344 208.394531 110.539062 C 209.550781 108.675781 209.917969 106.46875 209.421875 104.328125 C 208.921875 102.191406 207.621094 100.375 205.757812 99.210938 C 204.4375 98.390625 202.949219 97.96875 201.433594 97.96875 Z M 201.433594 97.96875 " fill-opacity="1" fill-rule="nonzero"/><path fill="#ffffff" d="M 78.328125 241.011719 C 78.328125 241.011719 93.5625 242.871094 105.082031 236.179688 C 116.601562 229.488281 126.261719 212.386719 133.324219 206.4375 C 140.382812 200.492188 150.042969 193.429688 153.386719 188.222656 C 156.730469 183.019531 157.847656 175.585938 157.847656 175.585938 C 157.847656 175.585938 177.914062 165.546875 193.890625 166.289062 C 209.867188 167.035156 227.328125 178.929688 227.328125 178.929688 C 227.328125 178.929688 221.011719 204.207031 219.15625 216.105469 C 217.296875 228 214.714844 246.335938 201.710938 272.359375 C 188.707031 298.382812 139.886719 321.867188 139.886719 321.867188 L 130.078125 298.464844 C 130.078125 298.464844 153.226562 284.109375 158.585938 271.90625 C 165.132812 257 163.777344 240.507812 163.777344 240.507812 C 163.777344 240.507812 154.503906 257.742188 139.269531 264.433594 C 124.035156 271.125 78.332031 274.382812 78.332031 274.382812 L 78.332031 241.011719 Z M 78.328125 241.011719 " fill-opacity="1" fill-rule="nonzero"/><path fill="#535a63" d="M 139.886719 322.542969 C 139.804688 322.542969 139.722656 322.527344 139.648438 322.5 C 139.472656 322.433594 139.335938 322.300781 139.265625 322.128906 L 129.453125 298.726562 C 129.328125 298.421875 129.441406 298.066406 129.722656 297.890625 C 129.953125 297.75 152.753906 283.503906 157.96875 271.636719 C 162.960938 260.265625 163.296875 247.816406 163.199219 242.820312 C 162.109375 244.578125 160.273438 247.324219 157.757812 250.390625 C 153.859375 255.140625 147.53125 261.539062 139.539062 265.050781 C 133.160156 267.851562 120.925781 270.386719 103.167969 272.585938 C 89.972656 274.222656 78.492188 275.050781 78.378906 275.058594 C 78.191406 275.070312 78.007812 275.003906 77.871094 274.878906 C 77.734375 274.75 77.65625 274.570312 77.65625 274.382812 L 77.65625 241.011719 C 77.65625 240.820312 77.738281 240.636719 77.882812 240.507812 C 78.027344 240.378906 78.222656 240.320312 78.414062 240.34375 C 78.5625 240.359375 93.5625 242.09375 104.746094 235.597656 C 111.761719 231.519531 118.070312 223.535156 123.632812 216.488281 C 127.128906 212.058594 130.148438 208.234375 132.890625 205.921875 C 134.542969 204.53125 136.296875 203.109375 138.152344 201.605469 C 144.132812 196.765625 150.316406 191.757812 152.824219 187.859375 C 156.046875 182.839844 157.171875 175.558594 157.179688 175.484375 C 157.214844 175.265625 157.351562 175.078125 157.546875 174.980469 C 157.597656 174.957031 162.683594 172.425781 169.660156 170.019531 C 176.113281 167.796875 185.5625 165.226562 193.921875 165.617188 C 202.289062 166.003906 211.035156 169.457031 216.898438 172.28125 C 223.230469 175.335938 227.667969 178.34375 227.714844 178.371094 C 227.945312 178.53125 228.054688 178.820312 227.988281 179.09375 C 227.925781 179.347656 221.65625 204.480469 219.824219 216.210938 L 219.660156 217.265625 C 217.800781 229.226562 214.992188 247.304688 202.316406 272.660156 C 199.3125 278.671875 194.167969 285.03125 187.023438 291.570312 C 181.328125 296.78125 174.355469 302.121094 166.296875 307.4375 C 152.585938 316.480469 140.304688 322.417969 140.183594 322.476562 C 140.089844 322.523438 139.988281 322.542969 139.890625 322.542969 Z M 130.921875 298.730469 L 140.230469 320.949219 C 142.917969 319.613281 153.703125 314.128906 165.5625 306.300781 C 173.5625 301.023438 180.476562 295.730469 186.113281 290.570312 C 193.132812 284.144531 198.179688 277.917969 201.105469 272.058594 C 213.6875 246.886719 216.476562 228.933594 218.324219 217.054688 L 218.488281 216 C 220.191406 205.097656 225.691406 182.734375 226.558594 179.230469 C 223.898438 177.496094 208.152344 167.628906 193.855469 166.964844 C 185.710938 166.585938 176.4375 169.109375 170.09375 171.296875 C 164.175781 173.335938 159.644531 175.464844 158.457031 176.039062 C 158.1875 177.605469 156.960938 183.910156 153.957031 188.589844 C 151.332031 192.667969 145.0625 197.746094 139 202.65625 C 137.148438 204.152344 135.398438 205.570312 133.757812 206.953125 C 131.117188 209.179688 127.996094 213.132812 124.6875 217.324219 C 119.050781 224.460938 112.660156 232.554688 105.421875 236.761719 C 99.359375 240.285156 92.292969 241.433594 87.433594 241.777344 C 83.488281 242.058594 80.375 241.875 79.003906 241.757812 L 79.003906 273.65625 C 84.898438 273.203125 125.082031 269.925781 138.992188 263.8125 C 146.742188 260.410156 152.90625 254.167969 156.710938 249.53125 C 160.847656 244.496094 163.160156 240.230469 163.179688 240.1875 C 163.324219 239.925781 163.621094 239.785156 163.914062 239.847656 C 164.207031 239.910156 164.421875 240.15625 164.449219 240.453125 C 164.460938 240.625 164.785156 244.699219 164.308594 250.671875 C 163.867188 256.1875 162.621094 264.394531 159.199219 272.179688 C 156.933594 277.34375 151.394531 283.433594 142.738281 290.292969 C 137.394531 294.527344 132.453125 297.753906 130.917969 298.734375 Z M 130.921875 298.730469 " fill-opacity="1" fill-rule="nonzero"/><path fill="#535a63" d="M 163.777344 241.183594 C 163.65625 241.183594 163.535156 241.152344 163.421875 241.085938 C 163.105469 240.886719 163.007812 240.472656 163.203125 240.15625 C 165.375 236.621094 168.757812 227.710938 168.789062 227.621094 C 168.921875 227.273438 169.3125 227.097656 169.660156 227.226562 C 170.007812 227.359375 170.183594 227.75 170.054688 228.097656 C 169.914062 228.46875 166.59375 237.21875 164.351562 240.863281 C 164.226562 241.070312 164.003906 241.183594 163.777344 241.183594 Z M 163.777344 241.183594 " fill-opacity="1" fill-rule="nonzero"/><path fill="#ffffff" d="M 154.851562 179.402344 C 154.851562 179.402344 169.589844 171.757812 186.851562 170.863281 C 209.15625 169.710938 226.746094 184.523438 228.878906 183.882812 C 231.015625 183.246094 233.359375 169.582031 233.359375 169.582031 C 233.359375 169.582031 266.003906 163.820312 273.257812 158.269531 C 280.511719 152.722656 307.179688 113.660156 307.179688 113.660156 L 295.015625 100 C 295.015625 100 278.589844 116.007812 270.054688 121.128906 C 261.523438 126.253906 238.054688 130.734375 232.933594 129.667969 C 227.8125 128.601562 208.398438 126.253906 194.53125 126.894531 C 180.664062 127.535156 173.410156 130.523438 171.277344 132.230469 C 169.140625 133.9375 164.277344 144.21875 160.652344 154.890625 C 157.027344 165.5625 154.847656 179.398438 154.847656 179.398438 Z M 154.851562 179.402344 " fill-opacity="1" fill-rule="nonzero"/><path fill="#535a63" d="M 228.726562 184.582031 C 227.910156 184.582031 226.617188 183.886719 223.703125 182.257812 C 220.238281 180.324219 215 177.402344 208.679688 175.105469 C 201.171875 172.382812 193.839844 171.179688 186.886719 171.539062 C 169.964844 172.414062 155.308594 179.929688 155.160156 180.003906 C 154.933594 180.121094 154.664062 180.101562 154.457031 179.953125 C 154.25 179.804688 154.144531 179.550781 154.183594 179.300781 C 154.207031 179.160156 156.410156 165.285156 160.015625 154.679688 C 163.695312 143.851562 168.558594 133.542969 170.855469 131.703125 C 172.246094 130.59375 174.96875 129.429688 178.328125 128.511719 C 182.847656 127.28125 188.289062 126.507812 194.5 126.222656 C 208.109375 125.59375 227.703125 127.890625 233.070312 129.011719 C 235.445312 129.503906 242.4375 128.703125 250.074219 127.0625 C 258.648438 125.21875 265.988281 122.789062 269.710938 120.554688 C 278.078125 115.53125 294.382812 99.675781 294.546875 99.519531 C 294.679688 99.390625 294.859375 99.320312 295.042969 99.324219 C 295.226562 99.332031 295.402344 99.414062 295.523438 99.550781 L 307.683594 113.210938 C 307.890625 113.441406 307.914062 113.785156 307.738281 114.042969 C 306.644531 115.640625 280.921875 153.257812 273.667969 158.808594 C 266.753906 164.09375 238.117188 169.414062 233.941406 170.167969 C 233.75 171.226562 233.242188 173.929688 232.578125 176.65625 C 230.992188 183.144531 229.917969 184.28125 229.074219 184.53125 C 228.96875 184.566406 228.851562 184.582031 228.726562 184.582031 Z M 189.308594 170.128906 C 195.691406 170.128906 202.351562 171.371094 209.140625 173.835938 C 215.5625 176.167969 220.855469 179.125 224.359375 181.078125 C 226.242188 182.132812 228.191406 183.21875 228.703125 183.230469 C 228.867188 183.144531 229.792969 182.382812 231.285156 176.253906 C 232.113281 172.851562 232.691406 169.503906 232.695312 169.472656 C 232.746094 169.191406 232.964844 168.96875 233.246094 168.921875 C 233.570312 168.863281 265.808594 163.121094 272.847656 157.734375 C 279.523438 152.628906 303.371094 118.015625 306.324219 113.714844 L 294.980469 100.976562 C 292.101562 103.753906 278.167969 117.050781 270.40625 121.710938 C 264.867188 125.03125 254.542969 127.480469 250.359375 128.382812 C 242.433594 130.085938 235.375 130.867188 232.796875 130.332031 C 227.480469 129.222656 208.058594 126.945312 194.5625 127.570312 C 180.839844 128.203125 173.734375 131.128906 171.699219 132.757812 C 169.871094 134.21875 165.152344 143.757812 161.292969 155.109375 C 158.363281 163.730469 156.363281 174.558594 155.730469 178.226562 C 159.605469 176.414062 172.40625 170.933594 186.816406 170.191406 C 187.644531 170.144531 188.476562 170.125 189.308594 170.125 Z M 189.308594 170.128906 " fill-opacity="1" fill-rule="nonzero"/><path fill="#becee2" d="M 150.515625 191.492188 C 154.25 195.078125 174.996094 194.683594 180.679688 191.46875 C 186.359375 188.257812 198.957031 139.945312 198.957031 137.535156 C 198.957031 135.128906 172.773438 135.125 165.363281 135.867188 C 157.953125 136.609375 153.011719 145.753906 147.824219 161.816406 C 142.636719 177.878906 148.359375 189.421875 150.515625 191.492188 Z M 150.515625 191.492188 " fill-opacity="1" fill-rule="nonzero"/><path fill="#535a63" d="M 164.371094 194.707031 C 161.109375 194.707031 152.632812 194.460938 150.050781 191.976562 C 148.695312 190.675781 146.773438 187.007812 145.757812 182.035156 C 144.84375 177.558594 144.351562 170.382812 147.183594 161.605469 C 150.015625 152.835938 152.5625 146.839844 155.191406 142.730469 C 158.199219 138.039062 161.503906 135.574219 165.296875 135.191406 C 169.007812 134.820312 176.996094 134.660156 183.875 134.816406 C 187.761719 134.90625 191.144531 135.089844 193.652344 135.347656 C 197.738281 135.769531 198.78125 136.296875 199.234375 136.703125 C 199.5625 137.003906 199.632812 137.320312 199.632812 137.535156 C 199.632812 138.90625 196.410156 151.753906 192.59375 164.394531 C 190.390625 171.691406 188.359375 177.707031 186.558594 182.273438 C 185.109375 185.945312 182.960938 190.957031 181.011719 192.058594 C 177.679688 193.941406 170.234375 194.660156 164.871094 194.707031 C 164.722656 194.707031 164.558594 194.707031 164.375 194.707031 Z M 150.984375 191.003906 C 152.527344 192.488281 157.976562 193.410156 164.859375 193.355469 C 171.605469 193.300781 177.828125 192.304688 180.347656 190.882812 C 181.375 190.300781 184.503906 186.515625 191.300781 164.003906 C 195.210938 151.058594 198.101562 139.277344 198.273438 137.65625 C 197.644531 137.191406 194.050781 136.410156 184.039062 136.171875 C 177.148438 136.007812 169.144531 136.164062 165.429688 136.535156 C 162.074219 136.875 159.097656 139.136719 156.328125 143.457031 C 153.757812 147.46875 151.261719 153.367188 148.46875 162.019531 C 145.722656 170.519531 146.195312 177.445312 147.078125 181.765625 C 148.09375 186.738281 150.011719 190.070312 150.984375 191.003906 Z M 150.984375 191.003906 " fill-opacity="1" fill-rule="nonzero"/><path fill="#becee2" d="M 198.957031 137.535156 C 194.007812 135.1875 190.246094 137.296875 185.941406 141.953125 C 181.636719 146.609375 173.210938 173.308594 173.023438 180.984375 C 172.835938 188.664062 176.773438 191.792969 180.675781 191.46875 C 186.621094 190.976562 190.855469 173.011719 194.601562 162.527344 C 198.34375 152.039062 201.210938 138.609375 198.953125 137.539062 Z M 198.957031 137.535156 " fill-opacity="1" fill-rule="nonzero"/><path fill="#535a63" d="M 180.132812 192.167969 C 178.355469 192.167969 176.683594 191.503906 175.375 190.269531 C 173.925781 188.898438 172.222656 186.171875 172.351562 180.96875 C 172.539062 173.199219 181.03125 146.269531 185.445312 141.496094 C 187.878906 138.863281 189.953125 137.273438 191.960938 136.488281 C 194.316406 135.574219 196.699219 135.714844 199.246094 136.925781 C 200.140625 137.351562 201.160156 138.816406 199.691406 146.625 C 198.785156 151.449219 197.121094 157.480469 195.238281 162.753906 C 194.46875 164.90625 193.683594 167.363281 192.851562 169.960938 C 189.433594 180.65625 185.898438 191.714844 180.734375 192.140625 C 180.53125 192.15625 180.332031 192.164062 180.132812 192.164062 Z M 195.0625 137.25 C 192.34375 137.25 189.691406 138.890625 186.4375 142.414062 C 184.566406 144.4375 181.554688 151.386719 178.582031 160.546875 C 175.746094 169.273438 173.785156 177.496094 173.699219 181.003906 C 173.585938 185.710938 175.050781 188.109375 176.304688 189.289062 C 177.476562 190.394531 179.011719 190.933594 180.621094 190.796875 C 182.4375 190.648438 184.382812 188.332031 186.410156 183.910156 C 188.289062 179.808594 189.957031 174.59375 191.566406 169.550781 C 192.402344 166.941406 193.191406 164.476562 193.96875 162.300781 C 195.828125 157.089844 197.472656 151.136719 198.367188 146.375 C 199.773438 138.898438 198.679688 138.152344 198.667969 138.148438 C 197.421875 137.554688 196.234375 137.25 195.066406 137.25 Z M 195.0625 137.25 " fill-opacity="1" fill-rule="nonzero"/><path fill="#becee2" d="M 288.238281 103.867188 C 288.238281 103.867188 293.140625 108.128906 296.109375 111.613281 C 299.074219 115.101562 304.238281 121.039062 304.238281 121.039062 C 304.238281 121.039062 310.046875 115.875 311.335938 115.230469 C 312.625 114.582031 317.269531 112.777344 322.175781 109.160156 C 327.078125 105.546875 331.851562 96.769531 331.851562 94.445312 C 331.851562 92.121094 329.015625 88.375 326.691406 83.855469 C 324.367188 79.339844 317.878906 72.722656 316.71875 71.945312 C 315.558594 71.171875 306.273438 84.074219 306.273438 84.074219 L 301.449219 77.175781 C 301.449219 77.175781 296.496094 83.339844 295.078125 87.085938 C 293.65625 90.828125 293.105469 96.433594 292.976562 97.226562 C 292.847656 98.019531 288.238281 103.867188 288.238281 103.867188 Z M 288.238281 103.867188 " fill-opacity="1" fill-rule="nonzero"/><path fill="#535a63" d="M 304.238281 121.714844 C 304.222656 121.714844 304.210938 121.714844 304.195312 121.714844 C 304.015625 121.703125 303.847656 121.621094 303.730469 121.484375 C 303.679688 121.421875 298.53125 115.5 295.597656 112.054688 C 292.695312 108.648438 287.84375 104.421875 287.796875 104.378906 C 287.523438 104.144531 287.484375 103.738281 287.707031 103.453125 C 289.816406 100.777344 292.101562 97.683594 292.3125 97.097656 C 292.328125 96.984375 292.355469 96.769531 292.390625 96.503906 C 292.613281 94.757812 293.207031 90.117188 294.445312 86.847656 C 295.886719 83.046875 300.714844 77.011719 300.921875 76.753906 C 301.054688 76.589844 301.257812 76.496094 301.46875 76.503906 C 301.679688 76.507812 301.878906 76.617188 302 76.789062 L 306.28125 82.914062 C 307.121094 81.765625 308.796875 79.5 310.53125 77.304688 C 311.972656 75.472656 313.175781 74.042969 314.105469 73.054688 C 315.441406 71.628906 316.359375 70.898438 317.09375 71.386719 C 318.347656 72.222656 324.882812 78.863281 327.289062 83.550781 C 328.035156 85.003906 328.824219 86.351562 329.585938 87.660156 C 331.230469 90.472656 332.527344 92.695312 332.527344 94.445312 C 332.527344 97.21875 327.410156 106.140625 322.574219 109.707031 C 318.464844 112.734375 314.484375 114.535156 312.574219 115.402344 C 312.167969 115.585938 311.851562 115.730469 311.636719 115.835938 C 310.75 116.28125 306.992188 119.492188 304.6875 121.546875 C 304.5625 121.65625 304.402344 121.714844 304.238281 121.714844 Z M 289.164062 103.785156 C 290.480469 104.953125 294.167969 108.296875 296.625 111.175781 C 299.046875 114.023438 302.984375 118.5625 304.300781 120.082031 C 305.808594 118.753906 309.890625 115.199219 311.035156 114.625 C 311.269531 114.507812 311.601562 114.359375 312.019531 114.171875 C 313.890625 113.324219 317.78125 111.5625 321.773438 108.621094 C 326.605469 105.058594 331.179688 96.417969 331.179688 94.445312 C 331.179688 93.0625 329.902344 90.875 328.421875 88.339844 C 327.6875 87.082031 326.855469 85.652344 326.089844 84.167969 C 323.96875 80.042969 318.035156 73.847656 316.527344 72.648438 C 315.367188 73.320312 311.214844 78.367188 306.824219 84.472656 C 306.695312 84.648438 306.488281 84.746094 306.269531 84.753906 C 306.050781 84.75 305.847656 84.644531 305.722656 84.464844 L 301.417969 78.3125 C 300.097656 80.027344 296.796875 84.460938 295.710938 87.328125 C 294.527344 90.445312 293.949219 94.972656 293.730469 96.675781 C 293.691406 96.984375 293.664062 97.207031 293.644531 97.335938 C 293.601562 97.582031 293.535156 97.996094 291.101562 101.25 C 290.351562 102.253906 289.601562 103.21875 289.164062 103.785156 Z M 292.308594 97.117188 Z M 292.308594 97.117188 " fill-opacity="1" fill-rule="nonzero"/><path fill="#becee2" d="M 142.234375 285.257812 C 142.234375 285.257812 131.429688 294.078125 129.4375 295.074219 C 127.449219 296.070312 124.027344 297.097656 119.65625 298.960938 C 116.121094 300.464844 114.621094 302.367188 114.621094 302.367188 C 114.621094 302.367188 113.769531 330.578125 113.539062 338.949219 C 113.304688 347.320312 109.078125 373.246094 109.078125 373.710938 C 109.078125 374.179688 117.53125 374.828125 121.160156 373.261719 C 128.082031 370.269531 133.667969 360.011719 135.167969 355.480469 C 137.125 349.570312 141.496094 335.847656 142.234375 331.507812 C 142.972656 327.167969 149.171875 322.671875 152.039062 320.96875 C 154.902344 319.265625 158.621094 317.792969 159.398438 317.328125 C 160.171875 316.863281 160.945312 307.871094 158.390625 301.050781 C 155.832031 294.234375 148.238281 284.265625 142.234375 285.257812 Z M 142.234375 285.257812 " fill-opacity="1" fill-rule="nonzero"/><path fill="#535a63" d="M 114.011719 374.933594 C 111.476562 374.933594 109.265625 374.675781 108.757812 374.339844 C 108.535156 374.191406 108.402344 373.964844 108.402344 373.714844 C 108.402344 373.582031 108.453125 373.246094 108.878906 370.4375 C 110.015625 362.984375 112.679688 345.527344 112.863281 338.929688 C 113.09375 330.65625 113.941406 302.632812 113.949219 302.351562 C 113.953125 302.207031 114.003906 302.066406 114.09375 301.953125 C 114.160156 301.871094 115.738281 299.894531 119.394531 298.339844 C 121.546875 297.421875 123.4375 296.71875 125.101562 296.097656 C 126.804688 295.464844 128.152344 294.964844 129.136719 294.472656 C 130.714844 293.679688 138.820312 287.175781 141.808594 284.734375 C 141.898438 284.660156 142.007812 284.613281 142.125 284.59375 C 144.183594 284.253906 147.585938 284.875 152.097656 289.769531 C 154.988281 292.902344 157.640625 297.136719 159.019531 300.816406 C 160.53125 304.855469 160.796875 309.285156 160.816406 311.566406 C 160.828125 313.066406 160.75 314.511719 160.59375 315.640625 C 160.359375 317.324219 160.042969 317.726562 159.742188 317.90625 C 159.441406 318.089844 158.824219 318.371094 157.96875 318.757812 C 156.476562 319.433594 154.222656 320.457031 152.382812 321.550781 C 151.667969 321.976562 149.148438 323.539062 146.800781 325.746094 C 144.542969 327.867188 143.195312 329.898438 142.898438 331.625 C 142.164062 335.9375 137.941406 349.257812 135.808594 355.695312 C 134.359375 360.074219 128.726562 370.730469 121.425781 373.882812 C 119.644531 374.652344 116.652344 374.933594 114.007812 374.933594 Z M 109.816406 373.289062 C 111.539062 373.644531 117.941406 373.917969 120.894531 372.640625 C 127.394531 369.832031 132.984375 359.9375 134.53125 355.265625 C 136.996094 347.824219 140.902344 335.324219 141.570312 331.394531 C 142.488281 326.003906 150.753906 320.949219 151.691406 320.390625 C 153.597656 319.253906 155.894531 318.214844 157.414062 317.527344 C 158.085938 317.21875 158.675781 316.953125 158.960938 316.800781 C 159.46875 315.75 160.175781 307.734375 157.757812 301.289062 C 155.265625 294.644531 147.964844 285.222656 142.519531 285.898438 C 141.167969 286.996094 131.671875 294.714844 129.742188 295.679688 C 128.691406 296.203125 127.316406 296.714844 125.574219 297.363281 C 123.921875 297.980469 122.046875 298.675781 119.921875 299.582031 C 117.1875 300.746094 115.722656 302.167969 115.289062 302.632812 C 115.207031 305.410156 114.433594 331.105469 114.214844 338.96875 C 114.027344 345.648438 111.355469 363.164062 110.214844 370.640625 C 110.042969 371.773438 109.894531 372.742188 109.816406 373.289062 Z M 109.816406 373.289062 " fill-opacity="1" fill-rule="nonzero"/><path fill="#becee2" d="M 94.386719 236.660156 C 94.386719 236.660156 97.695312 242.347656 99.09375 250.640625 C 100.492188 258.933594 97.597656 275.023438 96.199219 275.921875 C 94.800781 276.820312 75.023438 278.320312 73.925781 278.820312 C 72.828125 279.320312 68.132812 285.714844 63.039062 294.207031 C 57.945312 302.699219 51.652344 306.496094 47.859375 307.097656 C 44.0625 307.695312 35.074219 305.398438 35.074219 305.398438 L 52.082031 235.488281 C 52.082031 235.488281 57.394531 233.652344 63.039062 234.15625 C 67.269531 234.53125 76.820312 236.554688 81.117188 237.152344 C 85.410156 237.753906 94.382812 236.660156 94.382812 236.660156 Z M 94.386719 236.660156 " fill-opacity="1" fill-rule="nonzero"/><path fill="#535a63" d="M 46.367188 307.871094 C 42.074219 307.871094 35.234375 306.136719 34.90625 306.054688 C 34.550781 305.960938 34.332031 305.597656 34.417969 305.238281 L 51.425781 235.328125 C 51.480469 235.105469 51.644531 234.925781 51.863281 234.851562 C 52.085938 234.773438 57.378906 232.976562 63.097656 233.484375 C 65.640625 233.707031 69.949219 234.496094 74.113281 235.257812 C 76.875 235.765625 79.480469 236.242188 81.210938 236.484375 C 85.367188 237.066406 94.214844 236 94.304688 235.988281 C 94.570312 235.957031 94.832031 236.085938 94.96875 236.320312 C 95.105469 236.554688 98.355469 242.210938 99.757812 250.53125 C 100.640625 255.765625 99.777344 263.195312 99.363281 266.148438 C 99.007812 268.671875 98.558594 271.078125 98.089844 272.921875 C 97.3125 276.007812 96.804688 276.332031 96.5625 276.488281 C 95.746094 277.015625 91.726562 277.5 82.425781 278.457031 C 78.828125 278.832031 74.75 279.25 74.199219 279.433594 C 73.402344 279.855469 69.203125 285.238281 63.617188 294.550781 C 58.371094 303.304688 51.90625 307.140625 47.964844 307.761719 C 47.496094 307.835938 46.953125 307.867188 46.367188 307.867188 Z M 35.890625 304.902344 C 38 305.40625 44.714844 306.910156 47.753906 306.429688 C 53.226562 305.566406 59.082031 299.492188 62.460938 293.859375 C 66.746094 286.71875 72.101562 278.910156 73.648438 278.203125 C 74.160156 277.972656 76.421875 277.722656 82.289062 277.117188 C 87.300781 276.601562 94.851562 275.824219 95.816406 275.363281 C 96.28125 274.835938 97.308594 271.222656 98.066406 265.671875 C 98.886719 259.679688 99.015625 254.242188 98.429688 250.753906 C 97.273438 243.890625 94.753906 238.78125 94.011719 237.382812 C 92.105469 237.597656 84.847656 238.355469 81.023438 237.820312 C 79.265625 237.574219 76.644531 237.097656 73.871094 236.585938 C 69.929688 235.867188 65.460938 235.046875 62.980469 234.828125 C 58.359375 234.417969 53.898438 235.636719 52.648438 236.015625 Z M 95.800781 275.378906 Z M 95.800781 275.378906 " fill-opacity="1" fill-rule="nonzero"/><path fill="#7a8593" d="M 35.074219 305.398438 C 39.050781 306.253906 45.945312 297.023438 50.683594 283.558594 C 55.113281 270.964844 58.480469 248.773438 57.480469 243.34375 C 56.480469 237.910156 55.683594 236.210938 52.082031 235.488281 C 48.480469 234.769531 45.484375 237.339844 42.910156 242.769531 C 40.339844 248.203125 32.863281 267.589844 31.21875 281.128906 C 30.019531 291.007812 30.066406 304.316406 35.074219 305.398438 Z M 35.074219 305.398438 " fill-opacity="1" fill-rule="nonzero"/><path fill="#535a63" d="M 35.589844 306.128906 C 35.367188 306.128906 35.148438 306.105469 34.933594 306.058594 C 28.050781 304.574219 30.074219 284.960938 30.550781 281.046875 C 32.242188 267.109375 39.867188 247.625 42.300781 242.480469 C 43.664062 239.605469 45.097656 237.585938 46.6875 236.296875 C 48.378906 234.925781 50.242188 234.429688 52.214844 234.828125 C 56.355469 235.65625 57.164062 237.902344 58.144531 243.21875 C 59.179688 248.832031 55.761719 271.160156 51.320312 283.78125 C 46.738281 296.816406 40.121094 306.125 35.589844 306.128906 Z M 50.925781 236.046875 C 48.179688 236.046875 45.75 238.355469 43.523438 243.058594 C 40.753906 248.910156 33.472656 268.195312 31.890625 281.207031 C 31.210938 286.8125 31.066406 292.382812 31.492188 296.492188 C 32.007812 301.472656 33.296875 304.324219 35.21875 304.738281 C 35.347656 304.765625 35.480469 304.78125 35.617188 304.78125 C 39.019531 304.78125 45.425781 296.480469 50.050781 283.332031 C 52.074219 277.574219 54.042969 269.308594 55.453125 260.65625 C 56.746094 252.722656 57.28125 245.976562 56.820312 243.464844 C 55.800781 237.929688 55.027344 236.769531 51.949219 236.152344 C 51.605469 236.082031 51.261719 236.046875 50.925781 236.046875 Z M 50.925781 236.046875 " fill-opacity="1" fill-rule="nonzero"/><path fill="#7a8593" d="M 109.078125 373.710938 C 114.683594 374.394531 119.648438 366.113281 122.382812 355.269531 C 125.117188 344.425781 125.328125 325.371094 123.644531 315.683594 C 121.964844 305.996094 117.175781 302.53125 114.625 302.367188 C 112.070312 302.207031 106.808594 307.195312 105.019531 317.578125 C 103.742188 324.984375 101.335938 345.792969 101.96875 356.53125 C 102.601562 367.273438 104.71875 373.179688 109.078125 373.710938 Z M 109.078125 373.710938 " fill-opacity="1" fill-rule="nonzero"/><path fill="#535a63" d="M 109.722656 374.425781 C 109.480469 374.425781 109.238281 374.410156 108.996094 374.382812 C 106.605469 374.089844 104.757812 372.347656 103.5 369.199219 C 102.347656 366.316406 101.625 362.183594 101.296875 356.570312 C 100.679688 346.121094 102.960938 325.554688 104.355469 317.464844 C 105.386719 311.480469 107.445312 307.722656 108.992188 305.621094 C 110.878906 303.054688 113 301.589844 114.667969 301.695312 C 116.367188 301.804688 118.355469 303.046875 119.984375 305.027344 C 122.054688 307.542969 123.550781 311.1875 124.3125 315.566406 C 126.003906 325.300781 125.816406 344.417969 123.039062 355.433594 C 121.609375 361.097656 119.648438 365.855469 117.367188 369.195312 C 115.015625 372.632812 112.386719 374.425781 109.722656 374.425781 Z M 114.5 303.039062 C 113.523438 303.039062 111.808594 304.070312 110.078125 306.417969 C 108.617188 308.402344 106.671875 311.96875 105.683594 317.691406 C 103.078125 332.816406 102.320312 350.992188 102.644531 356.492188 C 102.964844 361.957031 103.652344 365.949219 104.753906 368.699219 C 105.828125 371.390625 107.269531 372.8125 109.160156 373.042969 C 109.34375 373.0625 109.523438 373.074219 109.707031 373.078125 C 114.277344 373.078125 118.945312 366.140625 121.730469 355.105469 C 124.46875 344.246094 124.652344 325.398438 122.980469 315.796875 C 122.070312 310.554688 120.28125 307.511719 118.941406 305.882812 C 117.300781 303.890625 115.613281 303.109375 114.582031 303.042969 C 114.554688 303.042969 114.527344 303.039062 114.5 303.039062 Z M 114.5 303.039062 " fill-opacity="1" fill-rule="nonzero"/><path fill="#535a63" d="M 256.515625 164.707031 C 256.496094 164.707031 256.480469 164.707031 256.460938 164.703125 C 256.089844 164.675781 255.8125 164.347656 255.839844 163.976562 C 255.871094 163.601562 256.632812 154.714844 262.921875 149.390625 C 268.824219 144.394531 274.429688 143.367188 278.09375 143.386719 C 282.089844 143.40625 284.667969 144.617188 284.773438 144.667969 C 285.109375 144.832031 285.253906 145.234375 285.089844 145.570312 C 284.929688 145.90625 284.527344 146.050781 284.191406 145.886719 C 284.167969 145.875 281.730469 144.742188 278.015625 144.738281 C 274.589844 144.730469 269.351562 145.714844 263.789062 150.421875 C 257.929688 155.382812 257.191406 163.996094 257.183594 164.082031 C 257.15625 164.4375 256.859375 164.707031 256.511719 164.707031 Z M 256.515625 164.707031 " fill-opacity="1" fill-rule="nonzero"/><path fill="#535a63" d="M 315.035156 85.238281 C 314.90625 85.238281 314.777344 85.199219 314.664062 85.125 C 314.351562 84.921875 314.265625 84.5 314.472656 84.191406 L 320.1875 75.546875 C 320.394531 75.238281 320.8125 75.152344 321.125 75.359375 C 321.433594 75.5625 321.519531 75.984375 321.316406 76.292969 L 315.597656 84.933594 C 315.46875 85.132812 315.253906 85.238281 315.035156 85.238281 Z M 315.035156 85.238281 " fill-opacity="1" fill-rule="nonzero"/><path fill="#535a63" d="M 319.203125 90.304688 C 319.078125 90.304688 318.945312 90.269531 318.832031 90.191406 C 318.523438 89.988281 318.4375 89.566406 318.644531 89.257812 L 324.359375 80.613281 C 324.566406 80.304688 324.984375 80.21875 325.296875 80.425781 C 325.605469 80.628906 325.691406 81.050781 325.484375 81.359375 L 319.769531 90.003906 C 319.640625 90.199219 319.425781 90.304688 319.207031 90.304688 Z M 319.203125 90.304688 " fill-opacity="1" fill-rule="nonzero"/><path fill="#535a63" d="M 324.359375 95.371094 C 324.230469 95.371094 324.097656 95.335938 323.984375 95.257812 C 323.675781 95.054688 323.589844 94.632812 323.796875 94.324219 L 328.535156 87.222656 C 328.738281 86.914062 329.160156 86.828125 329.46875 87.035156 C 329.78125 87.242188 329.863281 87.664062 329.65625 87.972656 L 324.921875 95.074219 C 324.789062 95.269531 324.574219 95.375 324.359375 95.375 Z M 324.359375 95.371094 " fill-opacity="1" fill-rule="nonzero"/></svg>