<svg width="204" height="328" viewBox="0 0 204 328" fill="none" xmlns="http://www.w3.org/2000/svg">
<path d="M124.365 323.229C119.24 326.703 113.693 327.208 107.719 324.156L89.7344 1.86458L106.38 0.9375L124.365 323.229Z" fill="#7A8593"/>
<path d="M115.448 327.073C112.781 327.073 110.063 326.37 107.307 324.964C107.021 324.818 106.833 324.531 106.813 324.208L88.8281 1.91665C88.8177 1.68228 88.9011 1.4479 89.0573 1.26561C89.2188 1.08853 89.4427 0.979151 89.6823 0.968734L106.333 0.0364424C106.828 0.00519173 107.255 0.39061 107.281 0.885401L125.266 323.177C125.286 323.495 125.135 323.797 124.87 323.974C121.828 326.042 118.677 327.073 115.448 327.073ZM108.589 323.583C113.802 326.094 118.672 325.823 123.438 322.76L105.531 1.89061L90.6823 2.71873L108.589 323.583Z" fill="#535A63"/>
<path d="M174.833 196.406L8.60416 181.906L36.3073 150.125L14.5156 114.031L180.75 128.536L202.536 164.63L174.833 196.406Z" fill="#BECEE2"/>
<path d="M174.833 197.312C174.807 197.312 174.781 197.312 174.755 197.307L8.52603 182.802C8.18749 182.776 7.89582 182.557 7.76561 182.24C7.64061 181.927 7.69791 181.568 7.92186 181.312L35.1927 150.026L13.7448 114.495C13.5729 114.203 13.5729 113.839 13.7552 113.552C13.9323 113.26 14.2604 113.099 14.5989 113.13L180.828 127.63C181.115 127.656 181.375 127.818 181.526 128.068L203.312 164.161C203.51 164.5 203.479 164.927 203.219 165.224L175.516 197C175.344 197.198 175.094 197.307 174.833 197.307V197.312ZM10.4479 181.156L174.453 195.469L201.422 164.531L180.214 129.391L16.2083 115.083L37.0781 149.661C37.2812 149.995 37.2448 150.422 36.9844 150.719L10.4479 181.156Z" fill="#535A63"/>
<path d="M29.2396 101.24L195.469 86.7396L167.766 54.9584L189.552 18.8646L23.3229 33.3646L1.53645 69.4636L29.2396 101.24Z" fill="#BECEE2"/>
<path d="M29.2396 102.146C28.9792 102.146 28.7344 102.031 28.5573 101.839L0.854162 70.0573C0.598954 69.7605 0.562495 69.3334 0.76562 69L22.5521 32.9011C22.6979 32.6563 22.9583 32.4948 23.2448 32.4688L189.474 17.9636C189.818 17.9323 190.141 18.099 190.323 18.3855C190.5 18.6771 190.505 19.0417 190.328 19.3282L168.88 54.8646L196.151 86.1459C196.375 86.4011 196.432 86.7605 196.307 87.0782C196.182 87.3959 195.885 87.6094 195.552 87.6407L29.3177 102.141C29.2917 102.146 29.2656 102.146 29.2396 102.146ZM2.64583 69.3698L29.6146 100.302L193.62 85.9948L167.083 55.5573C166.828 55.2605 166.792 54.8334 166.995 54.4948L187.865 19.9167L23.8594 34.2292L2.64583 69.3698Z" fill="#535A63"/>
<path d="M68.3153 57.7869L62.8507 58.0708L63.6339 73.1465L61.0934 73.2785L60.3101 58.2028L54.8215 58.488L54.7107 56.3548L68.2045 55.6537L68.3153 57.7869ZM75.8544 60.1108C76.7491 60.0643 77.5637 60.1702 78.2981 60.4285C79.0401 60.6783 79.6771 61.0658 80.209 61.5909C80.7486 62.1076 81.1743 62.7463 81.4862 63.5072C81.7976 64.26 81.9783 65.1158 82.0281 66.0745C82.0779 67.0332 81.9871 67.9071 81.7558 68.6962C81.5244 69.4853 81.1672 70.1647 80.6841 70.7345C80.209 71.304 79.6156 71.7554 78.9039 72.0887C78.1999 72.4137 77.4004 72.5994 76.5056 72.6459C75.6028 72.6928 74.7805 72.5914 74.0385 72.3415C73.3041 72.0833 72.6672 71.6958 72.1276 71.1791C71.5881 70.6624 71.1584 70.0238 70.8385 69.2634C70.5266 68.5026 70.3457 67.6428 70.2959 66.6841C70.2461 65.7254 70.3371 64.8555 70.5689 64.0744C70.8082 63.2849 71.1695 62.6053 71.6526 62.0354C72.1352 61.4576 72.7286 61.0062 73.4327 60.6812C74.1444 60.3479 74.9516 60.1577 75.8544 60.1108ZM76.411 70.8244C77.5614 70.7646 78.4001 70.3325 78.9271 69.5281C79.4541 68.7237 79.681 67.6184 79.608 66.2123C79.5349 64.8062 79.1947 63.7304 78.5872 62.9849C77.9792 62.2314 77.1001 61.8846 75.9496 61.9444C74.7832 62.005 73.9327 62.4417 73.3982 63.2545C72.8712 64.0589 72.6442 65.1642 72.7173 66.5703C72.7903 67.9764 73.1306 69.0522 73.7381 69.7977C74.3536 70.5427 75.2446 70.885 76.411 70.8244ZM90.2506 68.7595C90.6602 69.2429 91.0899 69.5731 91.5397 69.75C91.9975 69.9264 92.502 70.0004 93.0532 69.9717C94.1238 69.9161 94.9307 69.4897 95.4741 68.6924C96.025 67.8867 96.2621 66.7449 96.1853 65.2669C96.1451 64.4919 96.0429 63.8363 95.8789 63.3001C95.7224 62.7555 95.5074 62.3181 95.2339 61.9878C94.968 61.6492 94.6471 61.4095 94.2713 61.2688C93.8951 61.1201 93.4753 61.0578 93.0119 61.0819C92.3328 61.1172 91.7495 61.2997 91.262 61.6294C90.7824 61.9588 90.3454 62.414 89.9511 62.9953L90.2506 68.7595ZM89.7484 61.4077C89.9883 61.0908 90.2456 60.8011 90.5204 60.5384C90.8027 60.2674 91.107 60.0353 91.4335 59.8421C91.7595 59.6409 92.1077 59.4827 92.4782 59.3673C92.8563 59.2435 93.2611 59.1704 93.6925 59.148C94.3875 59.1119 95.0218 59.2151 95.5951 59.4577C96.1765 59.6998 96.6806 60.0742 97.1074 60.5807C97.5343 61.0873 97.8757 61.7224 98.1317 62.4861C98.3956 63.2495 98.5538 64.1345 98.6061 65.1411C98.653 66.0439 98.5727 66.8892 98.3653 67.677C98.1655 68.4564 97.8526 69.1416 97.4267 69.7325C97.0088 70.323 96.4808 70.799 95.8427 71.1606C95.2121 71.5138 94.4894 71.7116 93.6745 71.7539C92.9475 71.7917 92.3181 71.7042 91.7864 71.4915C91.2546 71.2788 90.7738 70.9673 90.3439 70.5571L90.6185 75.842L88.2817 75.9634L87.4368 59.7013L88.8389 59.6285C89.1664 59.6114 89.3783 59.7566 89.4743 60.0641L89.7484 61.4077ZM106.479 58.7119L107.112 70.8875L104.775 71.0089L104.142 58.8334L106.479 58.7119ZM106.727 54.926C106.738 55.1417 106.705 55.3517 106.628 55.556C106.55 55.7523 106.439 55.9303 106.295 56.09C106.158 56.2413 105.993 56.366 105.798 56.4643C105.602 56.5546 105.396 56.6053 105.181 56.6165C104.965 56.6277 104.759 56.5983 104.563 56.5284C104.367 56.4505 104.189 56.3436 104.03 56.2077C103.878 56.0633 103.753 55.8976 103.656 55.7104C103.565 55.5148 103.515 55.3092 103.503 55.0935C103.492 54.8698 103.521 54.66 103.591 54.4641C103.668 54.2598 103.775 54.082 103.912 53.9307C104.055 53.771 104.221 53.6463 104.409 53.5564C104.596 53.4586 104.797 53.4041 105.013 53.3928C105.229 53.3816 105.439 53.4148 105.643 53.4923C105.847 53.5618 106.025 53.6687 106.176 53.8131C106.336 53.949 106.465 54.1145 106.563 54.3097C106.661 54.4969 106.715 54.7023 106.727 54.926ZM121.629 60.2079C121.562 60.2995 121.494 60.3751 121.425 60.4348C121.363 60.4861 121.268 60.515 121.141 60.5217C121.013 60.5283 120.875 60.4874 120.726 60.399C120.585 60.3022 120.403 60.2035 120.182 60.1029C119.968 59.9938 119.706 59.8992 119.398 59.8191C119.097 59.7306 118.727 59.6978 118.287 59.7206C117.712 59.7505 117.21 59.8807 116.782 60.1113C116.353 60.3418 116.001 60.6565 115.725 61.0554C115.457 61.4538 115.262 61.9326 115.139 62.4917C115.016 63.0509 114.972 63.674 115.008 64.361C115.045 65.0721 115.157 65.7031 115.346 66.254C115.535 66.797 115.787 67.2525 116.102 67.6206C116.417 67.9808 116.792 68.2497 117.226 68.4274C117.659 68.5972 118.135 68.6686 118.655 68.6416C119.158 68.6154 119.57 68.5339 119.892 68.3971C120.213 68.2522 120.477 68.1023 120.685 67.9473C120.894 67.7923 121.066 67.6511 121.204 67.5238C121.341 67.3885 121.486 67.3169 121.638 67.309C121.829 67.2991 121.981 67.3633 122.092 67.5017L122.808 68.3297C122.546 68.6877 122.246 68.9957 121.907 69.2537C121.576 69.5112 121.218 69.726 120.835 69.8982C120.451 70.0703 120.046 70.2035 119.618 70.2978C119.198 70.3917 118.769 70.4501 118.329 70.4729C117.57 70.5124 116.852 70.4095 116.174 70.1643C115.505 69.9187 114.912 69.541 114.397 69.031C113.89 68.5206 113.476 67.8852 113.157 67.1248C112.836 66.3564 112.65 65.4769 112.599 64.4862C112.552 63.5834 112.632 62.7421 112.84 61.9623C113.056 61.182 113.393 60.5036 113.852 59.927C114.318 59.3421 114.903 58.8751 115.606 58.5262C116.308 58.1692 117.123 57.9667 118.049 57.9185C118.92 57.8733 119.694 57.9733 120.372 58.2184C121.05 58.4636 121.662 58.8284 122.207 59.3127L121.629 60.2079ZM134.85 59.3407C134.792 59.4479 134.728 59.5273 134.658 59.579C134.589 59.6227 134.498 59.6474 134.386 59.6532C134.258 59.6599 134.112 59.6234 133.948 59.5438C133.791 59.4638 133.598 59.3777 133.369 59.2855C133.148 59.1928 132.888 59.1103 132.587 59.0377C132.287 58.9652 131.933 58.9395 131.526 58.9607C131.19 58.9781 130.885 59.0381 130.61 59.1405C130.343 59.2345 130.117 59.3623 129.933 59.5241C129.749 59.6779 129.61 59.8613 129.517 60.0744C129.424 60.2796 129.383 60.498 129.395 60.7297C129.411 61.0332 129.512 61.2803 129.698 61.4709C129.892 61.6611 130.137 61.8206 130.432 61.9495C130.735 62.078 131.073 62.1926 131.447 62.2933C131.828 62.3856 132.214 62.4858 132.604 62.5937C133.002 62.7012 133.389 62.8292 133.765 62.9779C134.149 63.1182 134.491 63.3047 134.792 63.5374C135.1 63.7617 135.351 64.0411 135.544 64.3755C135.746 64.7095 135.86 65.1241 135.885 65.6195C135.915 66.1867 135.838 66.7194 135.656 67.2175C135.481 67.7073 135.203 68.1383 134.822 68.5105C134.449 68.8824 133.976 69.1834 133.403 69.4134C132.83 69.6434 132.168 69.778 131.417 69.817C130.578 69.8606 129.796 69.761 129.071 69.5183C128.345 69.2756 127.731 68.9511 127.23 68.5445L127.734 67.6171C127.792 67.5019 127.868 67.4139 127.961 67.353C128.053 67.2841 128.179 67.2455 128.339 67.2372C128.491 67.2293 128.65 67.2771 128.815 67.3807C128.981 67.4842 129.179 67.5981 129.41 67.7223C129.64 67.8385 129.918 67.9442 130.243 68.0395C130.568 68.1267 130.97 68.1579 131.45 68.133C131.849 68.1123 132.194 68.0463 132.485 67.935C132.775 67.8158 133.012 67.6673 133.195 67.4896C133.385 67.3035 133.523 67.0961 133.607 66.8674C133.691 66.6387 133.727 66.4005 133.714 66.1529C133.698 65.8333 133.592 65.5744 133.397 65.3762C133.21 65.1697 132.965 64.9982 132.662 64.8617C132.366 64.7249 132.028 64.6103 131.647 64.5179C131.265 64.4256 130.876 64.3257 130.477 64.2182C130.079 64.1107 129.688 63.9828 129.304 63.8346C128.92 63.6863 128.573 63.492 128.264 63.2517C127.963 63.011 127.712 62.7117 127.509 62.3537C127.314 61.9953 127.203 61.5525 127.175 61.0252C127.151 60.5539 127.223 60.0975 127.393 59.6561C127.57 59.2143 127.834 58.8201 128.184 58.4734C128.543 58.1264 128.989 57.8428 129.522 57.6229C130.063 57.3945 130.685 57.2621 131.388 57.2255C132.195 57.1836 132.928 57.2737 133.589 57.4957C134.257 57.7173 134.835 58.0398 135.321 58.4631L134.85 59.3407Z" fill="black"/>
<path d="M87.357 156.015L87.001 162.726C86.0972 163.303 85.1457 163.721 84.1465 163.981C83.1478 164.232 82.0693 164.327 80.9109 164.265C79.5209 164.192 78.2741 163.909 77.1705 163.418C76.075 162.927 75.1523 162.274 74.4026 161.457C73.6528 160.64 73.0908 159.681 72.7166 158.579C72.3504 157.478 72.2017 156.281 72.2703 154.987C72.3394 153.685 72.6063 152.505 73.0709 151.448C73.544 150.384 74.1843 149.488 74.9919 148.762C75.7999 148.028 76.7584 147.478 77.8673 147.112C78.9847 146.739 80.2224 146.588 81.5805 146.66C82.2675 146.697 82.8999 146.782 83.4776 146.917C84.0632 147.052 84.6026 147.229 85.0957 147.448C85.5888 147.666 86.0399 147.922 86.4489 148.216C86.8663 148.503 87.2499 148.824 87.5995 149.179L86.8075 150.29C86.6859 150.468 86.532 150.576 86.3457 150.614C86.1594 150.652 85.962 150.598 85.7536 150.451C85.5522 150.32 85.3279 150.168 85.0808 149.994C84.8416 149.821 84.5499 149.658 84.2056 149.503C83.8693 149.349 83.472 149.212 83.0137 149.092C82.5554 148.971 82.0108 148.894 81.3796 148.861C80.437 148.811 79.5779 148.921 78.8024 149.193C78.0274 149.456 77.357 149.861 76.7912 150.408C76.2255 150.955 75.7772 151.628 75.4464 152.427C75.116 153.219 74.9241 154.118 74.8707 155.125C74.8147 156.179 74.9163 157.134 75.1754 157.989C75.4349 158.836 75.8248 159.565 76.345 160.178C76.8737 160.783 77.5255 161.258 78.3003 161.603C79.083 161.949 79.9657 162.148 80.9483 162.201C81.3318 162.221 81.6884 162.22 82.018 162.197C82.3561 162.167 82.679 162.12 82.9868 162.056C83.2947 161.993 83.5915 161.908 83.8775 161.803C84.1715 161.699 84.4621 161.582 84.7493 161.453L84.9406 157.846L82.4002 157.711C82.2404 157.703 82.1112 157.648 82.0124 157.546C81.9216 157.445 81.88 157.323 81.8877 157.179L81.9646 155.729L87.357 156.015ZM98.6922 152.615C99.587 152.663 100.386 152.853 101.089 153.187C101.801 153.513 102.394 153.965 102.868 154.543C103.35 155.113 103.707 155.793 103.937 156.583C104.168 157.364 104.258 158.234 104.208 159.193C104.157 160.151 103.975 161.011 103.662 161.771C103.349 162.532 102.923 163.17 102.383 163.686C101.851 164.203 101.213 164.589 100.471 164.847C99.7365 165.096 98.922 165.197 98.0273 165.149C97.1246 165.102 96.3173 164.915 95.6056 164.588C94.9023 164.255 94.3094 163.803 93.827 163.232C93.3445 162.662 92.984 161.982 92.7455 161.192C92.515 160.403 92.4252 159.529 92.476 158.57C92.5269 157.612 92.7085 156.756 93.0208 156.003C93.3415 155.243 93.7719 154.605 94.312 154.089C94.8525 153.565 95.4899 153.178 96.2242 152.929C96.9668 152.672 97.7895 152.567 98.6922 152.615ZM98.1239 163.328C99.2743 163.389 100.154 163.047 100.762 162.302C101.37 161.558 101.712 160.482 101.786 159.076C101.861 157.67 101.635 156.565 101.109 155.76C100.583 154.947 99.7454 154.51 98.595 154.449C97.4286 154.387 96.5371 154.732 95.9204 155.484C95.312 156.229 94.9706 157.305 94.896 158.711C94.8214 160.117 95.0472 161.222 95.5733 162.027C96.1073 162.833 96.9576 163.266 98.1239 163.328ZM116.437 160.538C115.485 160.52 114.674 160.553 114.005 160.638C113.336 160.714 112.789 160.837 112.363 161.007C111.937 161.177 111.626 161.389 111.428 161.642C111.231 161.888 111.124 162.171 111.107 162.491C111.09 162.794 111.124 163.06 111.208 163.289C111.301 163.51 111.427 163.697 111.587 163.85C111.756 163.995 111.954 164.106 112.182 164.182C112.411 164.258 112.661 164.304 112.932 164.318C113.292 164.337 113.621 164.318 113.921 164.262C114.228 164.206 114.517 164.122 114.787 164.008C115.058 163.886 115.319 163.736 115.568 163.557C115.818 163.377 116.066 163.17 116.31 162.935L116.437 160.538ZM109.852 155.106C110.565 154.495 111.326 154.05 112.134 153.773C112.95 153.496 113.833 153.382 114.784 153.433C115.479 153.47 116.088 153.618 116.611 153.878C117.134 154.13 117.569 154.47 117.914 154.897C118.26 155.324 118.51 155.825 118.664 156.402C118.825 156.98 118.888 157.612 118.852 158.299L118.44 166.064L117.397 166.009C117.165 165.997 116.992 165.951 116.875 165.873C116.76 165.787 116.672 165.638 116.611 165.426L116.416 164.347C116.089 164.618 115.768 164.857 115.452 165.064C115.137 165.264 114.808 165.435 114.464 165.577C114.128 165.711 113.771 165.808 113.391 165.868C113.011 165.928 112.594 165.946 112.138 165.922C111.659 165.897 111.211 165.809 110.794 165.659C110.386 165.501 110.033 165.278 109.736 164.99C109.439 164.701 109.209 164.349 109.047 163.932C108.893 163.515 108.831 163.035 108.859 162.492C108.885 162.012 109.037 161.56 109.316 161.134C109.603 160.7 110.048 160.324 110.65 160.003C111.26 159.683 112.042 159.436 112.996 159.262C113.959 159.089 115.132 159.023 116.516 159.064L116.563 158.178C116.611 157.259 116.452 156.562 116.085 156.085C115.718 155.609 115.154 155.351 114.396 155.311C113.884 155.284 113.449 155.325 113.091 155.434C112.741 155.543 112.434 155.671 112.17 155.818C111.914 155.956 111.687 156.084 111.488 156.202C111.298 156.32 111.103 156.374 110.903 156.363C110.743 156.355 110.606 156.303 110.49 156.209C110.383 156.115 110.297 156.007 110.231 155.883L109.852 155.106ZM128.018 148.835L127.08 166.523L124.731 166.398L125.67 148.711L128.018 148.835ZM141.246 157.168C141.176 157.268 141.104 157.341 141.03 157.385C140.956 157.421 140.863 157.436 140.751 157.43C140.623 157.423 140.482 157.372 140.327 157.275C140.18 157.179 139.997 157.074 139.779 156.958C139.569 156.843 139.318 156.733 139.027 156.63C138.736 156.526 138.387 156.463 137.98 156.442C137.644 156.424 137.334 156.452 137.05 156.525C136.774 156.59 136.536 156.694 136.336 156.835C136.137 156.969 135.98 157.137 135.865 157.339C135.751 157.533 135.687 157.746 135.675 157.978C135.659 158.281 135.733 158.538 135.898 158.747C136.072 158.956 136.298 159.14 136.578 159.3C136.866 159.459 137.191 159.608 137.552 159.748C137.921 159.88 138.294 160.019 138.671 160.168C139.056 160.316 139.427 160.484 139.786 160.671C140.153 160.851 140.474 161.072 140.748 161.335C141.031 161.591 141.251 161.895 141.409 162.248C141.574 162.601 141.644 163.025 141.618 163.52C141.588 164.088 141.456 164.609 141.222 165.086C140.997 165.554 140.675 165.954 140.257 166.284C139.847 166.615 139.345 166.865 138.751 167.034C138.158 167.202 137.485 167.267 136.734 167.227C135.896 167.182 135.128 167.002 134.432 166.684C133.736 166.367 133.159 165.98 132.703 165.523L133.302 164.653C133.372 164.545 133.456 164.465 133.555 164.415C133.654 164.356 133.784 164.331 133.943 164.339C134.095 164.347 134.248 164.411 134.402 164.532C134.556 164.652 134.741 164.786 134.957 164.934C135.174 165.073 135.44 165.208 135.753 165.336C136.067 165.457 136.464 165.53 136.943 165.556C137.343 165.577 137.693 165.547 137.993 165.467C138.294 165.379 138.545 165.256 138.746 165.099C138.955 164.933 139.113 164.741 139.221 164.523C139.329 164.304 139.389 164.071 139.402 163.824C139.419 163.504 139.342 163.235 139.169 163.018C139.004 162.793 138.779 162.597 138.491 162.429C138.211 162.262 137.887 162.113 137.517 161.981C137.148 161.849 136.771 161.709 136.386 161.561C136.001 161.412 135.626 161.244 135.259 161.056C134.893 160.868 134.568 160.639 134.286 160.368C134.012 160.097 133.793 159.773 133.629 159.395C133.473 159.019 133.409 158.567 133.436 158.039C133.461 157.568 133.581 157.122 133.796 156.7C134.019 156.28 134.322 155.915 134.707 155.607C135.1 155.3 135.573 155.064 136.127 154.901C136.688 154.731 137.321 154.664 138.024 154.702C138.831 154.744 139.551 154.911 140.184 155.201C140.826 155.491 141.366 155.872 141.806 156.344L141.246 157.168Z" fill="black"/>
</svg>
