<svg width="283" height="351" viewBox="0 0 283 351" fill="none" xmlns="http://www.w3.org/2000/svg">
<path fill-rule="evenodd" clip-rule="evenodd" d="M117.093 0.633832C88.8644 3.29881 73.7352 5.22551 71.8425 6.39979C71.2809 6.74773 68.1827 7.50558 64.9587 8.08402C56.0477 9.68127 49.4545 11.4764 48.3097 12.6148C47.7438 13.1791 46.2489 13.6401 44.9892 13.6401C43.7296 13.6401 40.1706 14.8634 37.081 16.3584C33.9915 17.8534 30.9366 19.0766 30.2916 19.0766C27.5966 19.0766 13.1504 28.6003 7.97187 33.7911C2.12228 39.6538 0.0322182 44.4423 0.0213776 52.0023C0.0116211 57.9934 2.36728 62.7253 8.33286 68.7C12.964 73.3384 21.7503 79.9655 23.269 79.9655C23.5639 79.9655 26.3792 81.1463 29.5262 82.5892C38.654 86.7742 48.9851 90.5243 53.6758 91.3539C56.0607 91.7758 58.4999 92.5076 59.0961 92.9816C59.6923 93.4557 61.8876 94.1276 63.9744 94.4745C66.0612 94.8224 72.4029 95.8782 78.0671 96.822C101.477 100.721 106.443 101.054 140.943 101.028C171.876 101.005 182.962 100.41 196.772 98.0311C209.398 95.8554 214.63 94.9844 218.188 94.4647C220.428 94.1385 222.53 93.4329 222.86 92.8979C223.189 92.3629 224.343 91.9259 225.422 91.9259C231.124 91.9259 255.088 82.1325 265.067 75.724C277.013 68.0531 284.382 55.4567 281.698 47.2976C279.454 40.4747 278.157 38.4219 272.544 32.7984C263.837 24.0771 252.567 18.3482 231.462 11.9146C227.884 10.824 224.493 9.54318 223.927 9.06803C223.36 8.59288 221.51 8.20363 219.814 8.20363C218.118 8.20363 213.704 7.50884 210.004 6.66075C206.303 5.81156 200.593 4.62205 197.314 4.01534C180.131 0.839332 135.047 -1.06127 117.093 0.633832ZM0.444161 96.7219C0.101598 97.6179 -0.0133122 108.327 0.188323 120.52L0.556903 142.69L4.61454 147.653C11.0636 155.544 22.7693 163.342 34.4338 167.517C37.5645 168.637 40.1251 169.882 40.1251 170.284C40.1251 170.686 41.71 171.316 43.6483 171.686C45.5866 172.056 49.8545 173.152 53.1338 174.12C59.8105 176.093 69.2136 178.259 81.3193 180.613C110.629 186.312 170.541 186.262 200.566 180.513C205.634 179.543 212.108 178.324 214.953 177.804C220.451 176.8 222.16 176.309 235.798 171.831C243.835 169.191 247.791 167.658 254.769 164.481C260.728 161.77 272.117 153.63 275.31 149.804C280.182 143.962 280.127 144.063 281.605 138.393C282.976 133.131 283.568 97.2525 282.304 95.9858C281.647 95.3259 276.365 97.2786 275.366 98.5519C274.881 99.1684 258.666 107.032 253.143 109.329C250.298 110.512 244.206 112.57 240.134 113.725C238.345 114.232 233.467 115.637 229.293 116.846C225.12 118.056 220.331 119.059 218.652 119.077C216.974 119.094 214.764 119.557 213.741 120.107C211.409 121.358 198.678 123.412 185.931 124.592C180.565 125.089 171.784 126.021 166.418 126.663C155.098 128.019 125.878 127.93 113.299 126.503C108.529 125.962 100.48 125.099 95.4121 124.585C81.0711 123.134 68.9535 121.157 67.8228 120.085C67.2569 119.548 65.375 119.108 63.6426 119.108C60.3374 119.108 48.7119 116.44 45.0033 114.831C43.8109 114.313 39.9083 113.028 36.3309 111.975C32.7535 110.921 29.0948 109.707 28.2004 109.275C25.7938 108.113 21.5172 106.25 18.4439 105.027C16.1294 104.105 11.2739 101.355 2.97978 96.2674C1.50654 95.3639 0.923315 95.4683 0.444161 96.7219ZM272.364 183.302C267.456 186.268 262.831 188.7 262.085 188.705C261.34 188.711 258.292 189.919 255.311 191.39C252.33 192.861 248.793 194.08 247.451 194.099C246.109 194.117 245.012 194.622 245.012 195.22C245.012 195.818 243.989 196.307 242.737 196.307C241.486 196.307 238.924 196.999 237.046 197.846C235.167 198.693 232.166 199.637 230.377 199.944C228.589 200.252 223.954 201.306 220.079 202.289C216.203 203.272 205.471 205.031 196.23 206.199C186.988 207.368 176.714 208.8 173.399 209.383C165.467 210.777 115.12 210.749 107.402 209.347C104.087 208.744 94.057 207.298 85.1135 206.135C76.17 204.972 65.6818 203.214 61.8063 202.23C57.9307 201.246 52.6871 200.196 50.1526 199.896C47.6192 199.596 45.5454 198.915 45.5454 198.385C45.5454 197.854 43.5832 197.105 41.1853 196.72C38.7873 196.336 36.5628 195.596 36.243 195.077C35.9233 194.557 34.4988 194.132 33.0787 194.132C31.6586 194.132 30.2287 193.697 29.9002 193.166C29.5728 192.634 27.9587 191.865 26.3131 191.456C22.7357 190.569 9.38765 183.883 5.08068 180.821C3.04157 179.372 1.65397 179.006 0.934155 179.728C0.260955 180.403 -0.0143964 189.218 0.204584 203.055L0.556903 225.295L3.71585 229.558C7.48404 234.639 13.9049 240.61 16.5468 241.489C17.5907 241.836 18.4439 242.576 18.4439 243.134C18.4439 243.691 19.3794 244.148 20.522 244.148C21.6646 244.148 22.7617 244.515 22.9612 244.964C23.3937 245.94 30.1365 249.585 31.5111 249.585C32.0423 249.585 35.0517 250.74 38.1987 252.153C41.3446 253.565 46.8462 255.548 50.4236 256.56C54.001 257.572 57.9036 258.819 59.0961 259.332C60.2886 259.845 64.9229 260.865 69.3947 261.599C73.8664 262.333 80.2082 263.373 83.4874 263.911C97.5379 266.215 107.219 266.935 132.27 267.538C169.873 268.445 200.48 265.305 226.583 257.862C229.863 256.927 233.765 255.857 235.256 255.483C240.679 254.125 258.344 246.274 258.924 244.964C259.123 244.516 259.902 244.148 260.655 244.148C261.409 244.148 263.086 243.226 264.382 242.099C265.679 240.971 268.314 238.963 270.239 237.636C274.648 234.598 280.241 227.213 281.365 222.946C282.562 218.405 283.246 181.413 282.169 179.484C281.457 178.208 279.586 178.936 272.364 183.302ZM0.665309 263.285C-0.474038 266.263 -0.045834 304.735 1.16181 307.922C2.84318 312.357 9.24781 319.797 14.447 323.356C20.638 327.592 31.058 333.307 32.5919 333.307C33.2825 333.307 36.2756 334.53 39.2437 336.025C42.2108 337.52 45.8251 338.743 47.2755 338.743C48.7249 338.743 50.7586 339.173 51.7939 339.697C55.3463 341.498 62.3537 343.51 67.7686 344.286C70.7497 344.714 77.0915 345.891 81.8613 346.904C107.657 352.378 173.774 352.362 200.024 346.876C204.794 345.879 211.135 344.655 214.117 344.155C220.721 343.048 229.45 340.58 230.505 339.521C230.932 339.093 232.297 338.735 233.54 338.725C236.088 338.704 250.373 332.996 258.563 328.725C271.035 322.22 278.734 314.18 281.559 304.71C283.195 299.226 283.496 263.096 281.915 262.116C280.954 261.521 276.62 263.385 275.366 264.932C275.068 265.3 273.726 265.944 272.385 266.365C271.043 266.785 269.946 267.584 269.946 268.142C269.946 268.699 269.471 269.156 268.891 269.156C268.311 269.156 265.262 270.314 262.115 271.729C254.409 275.194 248.594 277.46 243.386 279.027C241.001 279.743 238.074 280.73 236.882 281.22C235.689 281.708 231.299 282.885 227.125 283.836C222.952 284.786 217.342 286.085 214.659 286.723C209.773 287.884 206.298 288.382 181.053 291.54C157.274 294.516 128.185 294.701 105.711 292.02C73.0577 288.125 69.1442 287.613 68.3724 287.136C67.9637 286.882 62.9337 285.691 57.1947 284.489C51.4546 283.287 45.876 281.851 44.7974 281.299C43.7176 280.748 40.8839 279.717 38.499 279.009C28.9408 276.171 14.1987 269.802 8.14532 265.893C1.29732 261.472 1.35152 261.491 0.665309 263.285Z" fill="#4474CA"/>
</svg>
