<svg xmlns="http://www.w3.org/2000/svg" xmlns:xlink="http://www.w3.org/1999/xlink" width="1000" zoomAndPan="magnify" viewBox="0 0 750 749.999995" height="1000" preserveAspectRatio="xMidYMid meet" version="1.0"><defs><clipPath id="05179eec2e"><path d="M 100 36.40625 L 233 36.40625 L 233 170 L 100 170 Z M 100 36.40625 " clip-rule="nonzero"/></clipPath><clipPath id="ffa4e1a6af"><path d="M 175 576 L 305 576 L 305 713.65625 L 175 713.65625 Z M 175 576 " clip-rule="nonzero"/></clipPath></defs><path fill="#ffffff" d="M 617.410156 178.992188 C 618.363281 180.148438 619.289062 181.328125 620.1875 182.53125 C 621.089844 183.734375 621.957031 184.953125 622.800781 186.195312 C 623.640625 187.4375 624.453125 188.699219 625.238281 189.976562 C 626.019531 191.257812 626.769531 192.554688 627.492188 193.867188 C 628.214844 195.179688 628.902344 196.507812 629.5625 197.851562 C 630.222656 199.195312 630.847656 200.550781 631.441406 201.921875 C 632.035156 203.296875 632.597656 204.679688 633.125 206.074219 C 633.652344 207.46875 634.148438 208.875 634.609375 210.292969 C 635.070312 211.710938 635.496094 213.136719 635.886719 214.570312 C 636.28125 216.003906 636.640625 217.445312 636.960938 218.894531 C 637.285156 220.34375 637.574219 221.796875 637.828125 223.253906 C 638.082031 224.714844 638.300781 226.175781 638.484375 227.640625 C 638.664062 229.109375 638.8125 230.574219 638.925781 232.046875 C 639.035156 233.515625 639.113281 234.984375 639.152344 236.453125 C 639.195312 237.925781 639.199219 239.390625 639.167969 240.859375 C 639.136719 242.324219 639.070312 243.789062 638.96875 245.246094 C 638.867188 246.707031 638.726562 248.160156 638.554688 249.609375 C 638.382812 251.054688 638.171875 252.496094 637.929688 253.933594 C 637.683594 255.367188 637.40625 256.792969 637.089844 258.210938 C 636.777344 259.625 636.429688 261.03125 636.042969 262.429688 C 635.660156 263.824219 635.242188 265.207031 634.792969 266.582031 C 634.339844 267.953125 633.855469 269.308594 633.335938 270.652344 C 632.816406 272 632.265625 273.328125 631.679688 274.640625 C 631.09375 275.953125 630.476562 277.25 629.824219 278.527344 C 629.175781 279.808594 628.496094 281.070312 627.78125 282.3125 C 627.070312 283.554688 626.324219 284.777344 625.550781 285.976562 C 624.777344 287.179688 623.972656 288.359375 623.136719 289.519531 C 622.304688 290.679688 621.441406 291.816406 620.550781 292.929688 C 619.660156 294.042969 618.738281 295.132812 617.792969 296.195312 C 616.847656 297.261719 615.871094 298.300781 614.875 299.316406 C 613.875 300.328125 612.847656 301.316406 611.796875 302.277344 C 610.746094 303.238281 609.671875 304.171875 608.574219 305.074219 C 607.476562 305.980469 606.355469 306.855469 605.210938 307.703125 C 604.066406 308.550781 602.898438 309.367188 601.714844 310.152344 C 600.527344 310.941406 599.320312 311.695312 598.09375 312.421875 C 596.867188 313.144531 595.621094 313.839844 594.355469 314.5 C 593.09375 315.160156 591.8125 315.789062 590.515625 316.386719 C 589.21875 316.980469 587.90625 317.546875 586.578125 318.074219 C 585.25 318.605469 583.90625 319.097656 582.550781 319.5625 C 581.195312 320.023438 579.828125 320.449219 578.445312 320.84375 C 577.066406 321.234375 575.675781 321.59375 574.273438 321.914062 C 572.875 322.238281 571.464844 322.523438 570.046875 322.777344 C 568.628906 323.027344 567.203125 323.242188 565.769531 323.425781 C 564.335938 323.605469 562.898438 323.75 561.453125 323.859375 C 560.011719 323.964844 558.5625 324.039062 557.113281 324.074219 C 555.660156 324.113281 554.210938 324.113281 552.753906 324.078125 C 551.300781 324.039062 549.847656 323.96875 548.390625 323.859375 C 546.9375 323.753906 545.484375 323.609375 544.03125 323.429688 C 542.582031 323.25 541.132812 323.035156 539.6875 322.785156 C 538.242188 322.535156 536.804688 322.246094 535.367188 321.925781 C 533.933594 321.605469 532.507812 321.246094 531.085938 320.855469 C 529.664062 320.464844 528.253906 320.039062 526.847656 319.578125 C 525.445312 319.117188 524.050781 318.621094 522.667969 318.09375 C 521.285156 317.5625 519.914062 317.003906 518.554688 316.40625 C 517.195312 315.8125 515.851562 315.183594 514.519531 314.523438 C 513.1875 313.863281 511.871094 313.167969 510.566406 312.445312 C 509.265625 311.722656 507.980469 310.964844 506.710938 310.179688 C 505.445312 309.394531 504.195312 308.578125 502.960938 307.730469 C 501.730469 306.886719 500.519531 306.011719 499.324219 305.105469 C 498.132812 304.203125 496.960938 303.269531 495.8125 302.308594 C 494.664062 301.351562 493.535156 300.363281 492.429688 299.351562 C 491.324219 298.335938 490.242188 297.296875 489.1875 296.234375 C 488.128906 295.167969 487.097656 294.082031 486.089844 292.96875 C 485.085938 291.855469 484.105469 290.71875 483.148438 289.558594 C 482.195312 288.402344 481.269531 287.222656 480.371094 286.019531 C 479.472656 284.816406 478.601562 283.597656 477.757812 282.355469 C 476.917969 281.113281 476.105469 279.851562 475.324219 278.574219 C 474.539062 277.292969 473.789062 276 473.066406 274.6875 C 472.34375 273.371094 471.65625 272.042969 470.996094 270.699219 C 470.339844 269.355469 469.710938 268 469.117188 266.628906 C 468.523438 265.257812 467.964844 263.871094 467.433594 262.476562 C 466.90625 261.082031 466.414062 259.675781 465.953125 258.257812 C 465.492188 256.839844 465.0625 255.414062 464.671875 253.980469 C 464.277344 252.546875 463.921875 251.105469 463.597656 249.65625 C 463.273438 248.210938 462.984375 246.753906 462.730469 245.296875 C 462.476562 243.835938 462.257812 242.375 462.078125 240.910156 C 461.894531 239.441406 461.746094 237.976562 461.632812 236.503906 C 461.523438 235.035156 461.445312 233.566406 461.40625 232.097656 C 461.367188 230.625 461.359375 229.160156 461.390625 227.691406 C 461.421875 226.226562 461.488281 224.765625 461.589844 223.304688 C 461.695312 221.847656 461.832031 220.390625 462.003906 218.945312 C 462.179688 217.496094 462.386719 216.054688 462.632812 214.621094 C 462.875 213.183594 463.152344 211.757812 463.46875 210.34375 C 463.78125 208.925781 464.132812 207.519531 464.515625 206.121094 C 464.898438 204.726562 465.316406 203.34375 465.765625 201.972656 C 466.21875 200.597656 466.703125 199.242188 467.222656 197.898438 C 467.742188 196.554688 468.296875 195.222656 468.878906 193.910156 C 469.464844 192.597656 470.082031 191.300781 470.734375 190.023438 C 471.382812 188.742188 472.066406 187.480469 472.777344 186.238281 C 473.492188 184.996094 474.234375 183.773438 475.007812 182.574219 C 475.785156 181.371094 476.585938 180.191406 477.421875 179.03125 C 478.253906 177.871094 479.117188 176.734375 480.007812 175.621094 C 480.902344 174.507812 481.820312 173.417969 482.765625 172.355469 C 483.714844 171.289062 484.6875 170.25 485.6875 169.234375 C 486.6875 168.222656 487.710938 167.234375 488.761719 166.273438 C 489.8125 165.3125 490.886719 164.382812 491.984375 163.476562 C 493.085938 162.570312 494.207031 161.695312 495.351562 160.847656 C 496.492188 160.003906 497.660156 159.183594 498.847656 158.398438 C 500.03125 157.613281 501.238281 156.855469 502.464844 156.128906 C 503.691406 155.40625 504.9375 154.710938 506.203125 154.050781 C 507.464844 153.390625 508.746094 152.761719 510.042969 152.164062 C 511.339844 151.570312 512.652344 151.007812 513.984375 150.476562 C 515.3125 149.949219 516.652344 149.453125 518.007812 148.992188 C 519.363281 148.527344 520.734375 148.101562 522.113281 147.710938 C 523.492188 147.316406 524.882812 146.960938 526.285156 146.636719 C 527.683594 146.3125 529.09375 146.027344 530.515625 145.773438 C 531.933594 145.523438 533.359375 145.308594 534.789062 145.128906 C 536.222656 144.945312 537.660156 144.800781 539.105469 144.695312 C 540.550781 144.585938 541.996094 144.511719 543.445312 144.476562 C 544.898438 144.441406 546.351562 144.4375 547.804688 144.476562 C 549.257812 144.511719 550.714844 144.582031 552.167969 144.691406 C 553.625 144.796875 555.078125 144.941406 556.527344 145.121094 C 557.980469 145.300781 559.425781 145.515625 560.871094 145.765625 C 562.316406 146.019531 563.757812 146.304688 565.191406 146.625 C 566.625 146.949219 568.050781 147.304688 569.472656 147.695312 C 570.894531 148.085938 572.304688 148.511719 573.710938 148.972656 C 575.113281 149.433594 576.507812 149.929688 577.890625 150.457031 C 579.273438 150.988281 580.644531 151.550781 582.003906 152.144531 C 583.363281 152.738281 584.707031 153.367188 586.039062 154.027344 C 587.371094 154.6875 588.691406 155.382812 589.992188 156.105469 C 591.292969 156.828125 592.578125 157.585938 593.847656 158.371094 C 595.117188 159.15625 596.367188 159.972656 597.597656 160.820312 C 598.828125 161.664062 600.042969 162.542969 601.234375 163.445312 C 602.425781 164.347656 603.597656 165.28125 604.746094 166.242188 C 605.898438 167.199219 607.023438 168.1875 608.128906 169.199219 C 609.234375 170.214844 610.316406 171.253906 611.371094 172.316406 C 612.429688 173.382812 613.460938 174.472656 614.46875 175.582031 C 615.476562 176.695312 616.457031 177.832031 617.410156 178.992188 Z M 617.410156 178.992188 " fill-opacity="1" fill-rule="nonzero"/><path fill="#535a63" d="M 555.089844 325.46875 C 551.375 325.46875 547.628906 325.234375 543.863281 324.769531 C 519.828125 321.796875 497.890625 309.597656 482.097656 290.414062 C 466.300781 271.234375 458.535156 247.363281 460.230469 223.203125 C 461.921875 199.011719 472.890625 177.425781 491.117188 162.417969 C 509.335938 147.410156 532.625 140.785156 556.6875 143.761719 C 580.722656 146.738281 602.660156 158.9375 618.453125 178.117188 C 634.25 197.300781 642.015625 221.171875 640.320312 245.332031 C 638.628906 269.523438 627.660156 291.109375 609.433594 306.117188 C 594.066406 318.773438 575.089844 325.46875 555.089844 325.46875 Z M 545.46875 145.78125 C 526.09375 145.78125 507.722656 152.261719 492.84375 164.515625 C 475.203125 179.042969 464.585938 199.953125 462.941406 223.390625 C 461.296875 246.855469 468.847656 270.042969 484.195312 288.6875 C 499.542969 307.328125 520.851562 319.183594 544.195312 322.070312 C 547.84375 322.523438 551.480469 322.746094 555.082031 322.746094 C 574.457031 322.746094 592.828125 316.265625 607.707031 304.015625 C 625.347656 289.484375 635.96875 268.578125 637.609375 245.140625 C 639.253906 221.675781 631.703125 198.484375 616.355469 179.84375 C 601.007812 161.199219 579.699219 149.34375 556.355469 146.457031 C 552.707031 146.007812 549.070312 145.78125 545.46875 145.78125 Z M 545.46875 145.78125 " fill-opacity="1" fill-rule="nonzero"/><path fill="#7a8593" d="M 491.980469 163.464844 C 455.285156 193.6875 451.042969 249.289062 482.175781 288.339844 C 512.535156 301.800781 547.535156 296.550781 581.863281 275.527344 C 606.296875 260.558594 626.9375 236.589844 636.867188 218.410156 C 633.6875 204.46875 627.234375 190.914062 617.410156 178.976562 C 585.210938 139.875 529.058594 132.933594 491.984375 163.464844 Z M 491.980469 163.464844 " fill-opacity="1" fill-rule="nonzero"/><path fill="#535a63" d="M 517.539062 297.109375 C 504.953125 297.109375 492.921875 294.589844 481.621094 289.582031 C 481.421875 289.492188 481.246094 289.359375 481.113281 289.191406 C 465.828125 270.019531 458.429688 246.328125 460.285156 222.488281 C 462.144531 198.59375 473.09375 177.257812 491.117188 162.417969 C 509.335938 147.410156 532.625 140.785156 556.6875 143.761719 C 580.722656 146.738281 602.660156 158.9375 618.453125 178.117188 C 628.0625 189.789062 634.886719 203.617188 638.191406 218.113281 C 638.265625 218.4375 638.21875 218.777344 638.058594 219.066406 C 632.8125 228.671875 624.90625 239.339844 615.796875 249.101562 C 605.496094 260.144531 594.007812 269.683594 582.570312 276.6875 C 565.132812 287.371094 547.683594 293.941406 530.707031 296.21875 C 526.257812 296.816406 521.863281 297.113281 517.535156 297.113281 Z M 483.03125 287.230469 C 497.664062 293.652344 513.582031 295.769531 530.351562 293.519531 C 546.945312 291.292969 564.039062 284.851562 581.152344 274.367188 C 592.382812 267.488281 603.675781 258.109375 613.8125 247.246094 C 622.625 237.796875 630.285156 227.507812 635.425781 218.214844 C 632.175781 204.308594 625.589844 191.054688 616.359375 179.84375 C 601.011719 161.203125 579.703125 149.347656 556.359375 146.460938 C 533.042969 143.574219 510.488281 149.988281 492.847656 164.515625 L 491.984375 163.46875 L 492.847656 164.515625 C 475.402344 178.886719 464.800781 199.546875 463 222.699219 C 461.203125 245.746094 468.316406 268.648438 483.03125 287.230469 Z M 483.03125 287.230469 " fill-opacity="1" fill-rule="nonzero"/><path fill="#ffffff" d="M 587.535156 292.984375 C 593.140625 288.367188 595.914062 281.597656 595.660156 274.859375 L 598.25 272.726562 C 598.25 272.726562 591.429688 262.542969 590.578125 261.507812 C 582.726562 251.972656 568.636719 250.613281 559.105469 258.460938 C 549.574219 266.3125 548.644531 280.0625 556.058594 289.9375 C 558.101562 292.652344 563.730469 301.15625 563.730469 301.15625 L 568.1875 297.484375 C 574.75 299.027344 581.929688 297.601562 587.535156 292.984375 Z M 587.535156 292.984375 " fill-opacity="1" fill-rule="nonzero"/><path fill="#535a63" d="M 563.730469 302.515625 C 563.664062 302.515625 563.597656 302.507812 563.53125 302.5 C 563.148438 302.441406 562.808594 302.226562 562.597656 301.90625 C 562.539062 301.824219 556.96875 293.410156 554.976562 290.757812 C 551.144531 285.660156 549.335938 279.46875 549.875 273.328125 C 550.425781 267.058594 553.398438 261.40625 558.246094 257.417969 C 563.136719 253.390625 569.300781 251.507812 575.609375 252.117188 C 581.914062 252.730469 587.605469 255.757812 591.628906 260.648438 C 592.5 261.703125 598.679688 270.925781 599.378906 271.972656 C 599.769531 272.554688 599.65625 273.335938 599.113281 273.777344 L 597.035156 275.492188 C 597.109375 282.707031 593.984375 289.433594 588.398438 294.035156 C 582.8125 298.640625 575.609375 300.414062 568.539062 298.957031 L 564.597656 302.207031 C 564.351562 302.40625 564.042969 302.515625 563.730469 302.515625 Z M 573.285156 254.722656 C 568.429688 254.722656 563.769531 256.390625 559.972656 259.511719 C 555.695312 263.035156 553.074219 268.023438 552.585938 273.5625 C 552.105469 279.039062 553.726562 284.5625 557.152344 289.125 C 558.742188 291.238281 562.382812 296.671875 564.03125 299.152344 L 567.328125 296.4375 C 567.652344 296.167969 568.089844 296.066406 568.503906 296.164062 C 574.949219 297.679688 581.570312 296.136719 586.675781 291.9375 C 591.777344 287.738281 594.558594 281.53125 594.304688 274.914062 C 594.289062 274.488281 594.472656 274.082031 594.800781 273.8125 L 596.4375 272.460938 C 593.734375 268.433594 590.082031 263.039062 589.535156 262.375 C 585.96875 258.042969 580.929688 255.363281 575.347656 254.824219 C 574.65625 254.753906 573.96875 254.722656 573.285156 254.722656 Z M 587.535156 292.988281 Z M 587.535156 292.988281 " fill-opacity="1" fill-rule="nonzero"/><path fill="#ffffff" d="M 603.347656 286.9375 C 603.347656 287.671875 603.3125 288.402344 603.242188 289.128906 C 603.167969 289.859375 603.0625 290.582031 602.917969 291.300781 C 602.777344 292.019531 602.597656 292.730469 602.386719 293.429688 C 602.171875 294.128906 601.925781 294.820312 601.648438 295.496094 C 601.367188 296.171875 601.054688 296.832031 600.707031 297.480469 C 600.363281 298.125 599.988281 298.753906 599.582031 299.363281 C 599.175781 299.96875 598.738281 300.558594 598.273438 301.125 C 597.808594 301.691406 597.316406 302.230469 596.800781 302.75 C 596.28125 303.269531 595.742188 303.757812 595.175781 304.222656 C 594.609375 304.6875 594.019531 305.125 593.410156 305.53125 C 592.804688 305.9375 592.175781 306.3125 591.53125 306.660156 C 590.882812 307.003906 590.222656 307.316406 589.546875 307.597656 C 588.871094 307.878906 588.179688 308.125 587.480469 308.335938 C 586.78125 308.550781 586.070312 308.726562 585.351562 308.871094 C 584.632812 309.011719 583.910156 309.121094 583.183594 309.191406 C 582.453125 309.261719 581.722656 309.300781 580.992188 309.300781 C 580.257812 309.300781 579.527344 309.261719 578.800781 309.191406 C 578.070312 309.121094 577.347656 309.011719 576.628906 308.871094 C 575.910156 308.726562 575.199219 308.550781 574.5 308.335938 C 573.800781 308.125 573.109375 307.878906 572.433594 307.597656 C 571.757812 307.316406 571.097656 307.003906 570.449219 306.660156 C 569.804688 306.3125 569.175781 305.9375 568.570312 305.53125 C 567.960938 305.125 567.371094 304.6875 566.804688 304.222656 C 566.238281 303.757812 565.699219 303.269531 565.179688 302.75 C 564.664062 302.230469 564.171875 301.691406 563.707031 301.125 C 563.242188 300.558594 562.804688 299.96875 562.398438 299.363281 C 561.992188 298.753906 561.617188 298.125 561.273438 297.480469 C 560.925781 296.832031 560.613281 296.171875 560.332031 295.496094 C 560.054688 294.820312 559.808594 294.128906 559.59375 293.429688 C 559.382812 292.730469 559.203125 292.019531 559.0625 291.300781 C 558.917969 290.582031 558.8125 289.859375 558.738281 289.128906 C 558.667969 288.402344 558.632812 287.671875 558.632812 286.9375 C 558.632812 286.207031 558.667969 285.476562 558.738281 284.746094 C 558.8125 284.019531 558.917969 283.292969 559.0625 282.574219 C 559.203125 281.859375 559.382812 281.148438 559.59375 280.449219 C 559.808594 279.746094 560.054688 279.058594 560.332031 278.382812 C 560.613281 277.703125 560.925781 277.042969 561.273438 276.398438 C 561.617188 275.75 561.992188 275.125 562.398438 274.515625 C 562.804688 273.90625 563.242188 273.320312 563.707031 272.753906 C 564.171875 272.1875 564.664062 271.644531 565.179688 271.125 C 565.699219 270.609375 566.238281 270.117188 566.804688 269.652344 C 567.371094 269.1875 567.960938 268.753906 568.570312 268.347656 C 569.175781 267.9375 569.804688 267.5625 570.449219 267.21875 C 571.097656 266.871094 571.757812 266.558594 572.433594 266.28125 C 573.109375 266 573.800781 265.753906 574.5 265.539062 C 575.199219 265.328125 575.910156 265.148438 576.628906 265.007812 C 577.347656 264.863281 578.070312 264.757812 578.800781 264.683594 C 579.527344 264.613281 580.257812 264.578125 580.992188 264.578125 C 581.722656 264.578125 582.453125 264.613281 583.183594 264.683594 C 583.910156 264.757812 584.632812 264.863281 585.351562 265.007812 C 586.070312 265.148438 586.78125 265.328125 587.480469 265.539062 C 588.179688 265.753906 588.871094 266 589.546875 266.28125 C 590.222656 266.558594 590.882812 266.871094 591.53125 267.21875 C 592.175781 267.5625 592.804688 267.9375 593.410156 268.347656 C 594.019531 268.753906 594.609375 269.1875 595.175781 269.652344 C 595.742188 270.117188 596.28125 270.609375 596.800781 271.125 C 597.316406 271.644531 597.808594 272.1875 598.273438 272.753906 C 598.738281 273.320312 599.175781 273.90625 599.582031 274.515625 C 599.988281 275.125 600.363281 275.75 600.707031 276.398438 C 601.054688 277.042969 601.367188 277.703125 601.648438 278.382812 C 601.925781 279.058594 602.171875 279.746094 602.386719 280.449219 C 602.597656 281.148438 602.777344 281.859375 602.917969 282.574219 C 603.0625 283.292969 603.167969 284.019531 603.242188 284.746094 C 603.3125 285.476562 603.347656 286.207031 603.347656 286.9375 Z M 603.347656 286.9375 " fill-opacity="1" fill-rule="nonzero"/><path fill="#535a63" d="M 581.011719 310.648438 C 574.164062 310.648438 567.367188 307.703125 562.683594 302.015625 C 554.371094 291.917969 555.816406 276.941406 565.914062 268.628906 C 570.804688 264.597656 576.96875 262.71875 583.277344 263.328125 C 589.582031 263.941406 595.273438 266.96875 599.296875 271.859375 C 607.613281 281.957031 606.164062 296.933594 596.066406 305.25 C 591.65625 308.878906 586.320312 310.648438 581.007812 310.648438 Z M 580.953125 265.933594 C 576.101562 265.933594 571.4375 267.601562 567.640625 270.722656 C 558.703125 278.085938 557.417969 291.347656 564.777344 300.289062 C 572.136719 309.226562 585.398438 310.507812 594.335938 303.148438 C 603.277344 295.789062 604.558594 282.527344 597.199219 273.585938 C 593.632812 269.257812 588.597656 266.574219 583.011719 266.035156 C 582.324219 265.96875 581.632812 265.933594 580.953125 265.933594 Z M 595.203125 304.199219 Z M 595.203125 304.199219 " fill-opacity="1" fill-rule="nonzero"/><path fill="#becee2" d="M 374.597656 433.054688 C 374.597656 433.054688 393.042969 445.375 413.59375 446.332031 C 434.148438 447.285156 499.617188 385.410156 499.617188 385.410156 L 469.984375 335.550781 L 374.59375 433.054688 Z M 374.597656 433.054688 " fill-opacity="1" fill-rule="nonzero"/><path fill="#535a63" d="M 414.058594 447.699219 C 413.882812 447.699219 413.703125 447.699219 413.53125 447.691406 C 392.839844 446.730469 374.609375 434.699219 373.84375 434.1875 C 373.503906 433.960938 373.289062 433.597656 373.242188 433.195312 C 373.199219 432.792969 373.339844 432.394531 373.625 432.105469 L 469.011719 334.601562 C 469.308594 334.300781 469.726562 334.152344 470.144531 334.203125 C 470.566406 334.25 470.9375 334.496094 471.152344 334.859375 L 500.785156 384.71875 C 501.109375 385.265625 501.011719 385.964844 500.550781 386.402344 C 500.386719 386.554688 483.929688 402.082031 465.171875 417.289062 C 440.265625 437.476562 423.078125 447.703125 414.058594 447.703125 Z M 376.753906 432.796875 C 381.394531 435.59375 396.921875 444.195312 413.660156 444.972656 C 419.285156 445.222656 432.492188 440.277344 463.457031 415.171875 C 479.808594 401.921875 494.394531 388.429688 497.890625 385.167969 L 469.71875 337.765625 L 376.75 432.796875 Z M 376.753906 432.796875 " fill-opacity="1" fill-rule="nonzero"/><path fill="#9ca9ba" d="M 643.582031 83.628906 L 643.582031 83.53125 C 643.578125 83.546875 643.574219 83.5625 643.570312 83.582031 C 643.566406 83.5625 643.558594 83.546875 643.554688 83.53125 L 643.554688 83.628906 C 642.277344 88.273438 639.316406 91.597656 634.675781 93.597656 C 639.316406 95.59375 642.277344 98.917969 643.554688 103.5625 L 643.554688 103.660156 C 643.5625 103.644531 643.566406 103.628906 643.570312 103.609375 C 643.574219 103.628906 643.582031 103.644531 643.582031 103.660156 L 643.582031 103.5625 C 644.863281 98.917969 647.824219 95.59375 652.464844 93.597656 C 647.824219 91.597656 644.863281 88.273438 643.582031 83.628906 Z M 643.582031 83.628906 " fill-opacity="1" fill-rule="nonzero"/><path fill="#9ca9ba" d="M 85.300781 243.234375 L 85.300781 243.136719 C 85.292969 243.152344 85.289062 243.167969 85.285156 243.183594 C 85.28125 243.167969 85.277344 243.152344 85.273438 243.136719 L 85.273438 243.234375 C 83.992188 247.878906 81.03125 251.203125 76.390625 253.199219 C 81.03125 255.199219 83.992188 258.519531 85.273438 263.167969 L 85.273438 263.265625 C 85.277344 263.25 85.285156 263.230469 85.285156 263.214844 C 85.292969 263.230469 85.296875 263.25 85.300781 263.265625 L 85.300781 263.167969 C 86.582031 258.519531 89.539062 255.199219 94.179688 253.199219 C 89.539062 251.203125 86.582031 247.878906 85.300781 243.234375 Z M 85.300781 243.234375 " fill-opacity="1" fill-rule="nonzero"/><path fill="#9ca9ba" d="M 393.523438 665.71875 L 393.523438 665.621094 C 393.515625 665.636719 393.511719 665.652344 393.507812 665.667969 C 393.503906 665.652344 393.5 665.636719 393.496094 665.621094 L 393.496094 665.71875 C 392.214844 670.363281 389.253906 673.6875 384.613281 675.683594 C 389.253906 677.683594 392.214844 681.003906 393.496094 685.652344 L 393.496094 685.75 C 393.5 685.734375 393.507812 685.714844 393.507812 685.699219 C 393.515625 685.71875 393.519531 685.734375 393.523438 685.75 L 393.523438 685.652344 C 394.804688 681.003906 397.761719 677.683594 402.402344 675.683594 C 397.761719 673.6875 394.804688 670.363281 393.523438 665.71875 Z M 393.523438 665.71875 " fill-opacity="1" fill-rule="nonzero"/><path fill="#9ca9ba" d="M 658.359375 414.507812 L 658.359375 414.410156 C 658.351562 414.425781 658.347656 414.445312 658.34375 414.460938 C 658.339844 414.445312 658.332031 414.425781 658.332031 414.410156 L 658.332031 414.507812 C 657.050781 419.15625 654.089844 422.476562 649.449219 424.476562 C 654.089844 426.472656 657.050781 429.796875 658.332031 434.441406 L 658.332031 434.539062 C 658.335938 434.523438 658.339844 434.507812 658.34375 434.492188 C 658.351562 434.507812 658.355469 434.523438 658.359375 434.539062 L 658.359375 434.441406 C 659.636719 429.796875 662.597656 426.472656 667.238281 424.476562 C 662.597656 422.476562 659.636719 419.15625 658.359375 414.507812 Z M 658.359375 414.507812 " fill-opacity="1" fill-rule="nonzero"/><path fill="#9ca9ba" d="M 344.671875 134.464844 L 344.671875 134.367188 C 344.667969 134.382812 344.664062 134.398438 344.660156 134.417969 C 344.65625 134.398438 344.648438 134.382812 344.648438 134.367188 L 344.648438 134.464844 C 343.367188 139.113281 340.40625 142.433594 335.765625 144.433594 C 340.40625 146.429688 343.367188 149.753906 344.648438 154.398438 L 344.648438 154.496094 C 344.652344 154.480469 344.65625 154.464844 344.660156 154.449219 C 344.664062 154.464844 344.671875 154.480469 344.671875 154.496094 L 344.671875 154.398438 C 345.953125 149.753906 348.914062 146.429688 353.554688 144.433594 C 348.914062 142.433594 345.953125 139.113281 344.671875 134.464844 Z M 344.671875 134.464844 " fill-opacity="1" fill-rule="nonzero"/><path fill="#9ca9ba" d="M 193.265625 237.253906 L 193.265625 237.054688 C 193.257812 237.089844 193.246094 237.121094 193.238281 237.15625 C 193.230469 237.121094 193.21875 237.089844 193.210938 237.054688 L 193.210938 237.253906 C 190.652344 246.542969 184.730469 253.1875 175.449219 257.1875 C 184.730469 261.183594 190.648438 267.828125 193.210938 277.117188 L 193.210938 277.316406 C 193.21875 277.28125 193.230469 277.253906 193.238281 277.214844 C 193.246094 277.253906 193.257812 277.28125 193.265625 277.316406 L 193.265625 277.117188 C 195.828125 267.828125 201.746094 261.183594 211.027344 257.183594 C 201.746094 253.1875 195.828125 246.542969 193.265625 237.253906 Z M 193.265625 237.253906 " fill-opacity="1" fill-rule="nonzero"/><path fill="#9ca9ba" d="M 511.488281 659.023438 L 511.488281 658.824219 C 511.480469 658.859375 511.46875 658.890625 511.460938 658.925781 C 511.453125 658.890625 511.445312 658.859375 511.433594 658.824219 L 511.433594 659.023438 C 508.875 668.3125 502.953125 674.960938 493.671875 678.957031 C 502.953125 682.953125 508.871094 689.597656 511.433594 698.890625 L 511.433594 699.085938 C 511.445312 699.050781 511.453125 699.023438 511.460938 698.988281 C 511.46875 699.023438 511.480469 699.050781 511.488281 699.085938 L 511.488281 698.890625 C 514.050781 689.597656 519.972656 682.953125 529.25 678.957031 C 519.972656 674.960938 514.054688 668.3125 511.488281 659.023438 Z M 511.488281 659.023438 " fill-opacity="1" fill-rule="nonzero"/><path fill="#d1def0" d="M 750 614.550781 C 750 615.859375 749.96875 617.167969 749.902344 618.476562 C 749.839844 619.785156 749.742188 621.089844 749.613281 622.394531 C 749.484375 623.699219 749.324219 624.996094 749.132812 626.292969 C 748.941406 627.589844 748.71875 628.878906 748.460938 630.164062 C 748.207031 631.449219 747.921875 632.726562 747.601562 633.996094 C 747.285156 635.265625 746.933594 636.527344 746.554688 637.78125 C 746.175781 639.035156 745.761719 640.277344 745.320312 641.511719 C 744.882812 642.746094 744.410156 643.96875 743.910156 645.175781 C 743.40625 646.386719 742.875 647.585938 742.316406 648.769531 C 741.757812 649.953125 741.167969 651.121094 740.550781 652.277344 C 739.933594 653.433594 739.289062 654.570312 738.613281 655.695312 C 737.941406 656.820312 737.242188 657.925781 736.511719 659.015625 C 735.785156 660.101562 735.03125 661.171875 734.25 662.226562 C 733.472656 663.277344 732.667969 664.308594 731.835938 665.320312 C 731.003906 666.335938 730.148438 667.324219 729.269531 668.296875 C 728.390625 669.265625 727.488281 670.214844 726.5625 671.140625 C 725.636719 672.066406 724.6875 672.96875 723.71875 673.851562 C 722.746094 674.730469 721.753906 675.585938 720.742188 676.414062 C 719.730469 677.246094 718.699219 678.050781 717.644531 678.832031 C 716.59375 679.613281 715.523438 680.367188 714.433594 681.09375 C 713.347656 681.820312 712.238281 682.523438 711.117188 683.195312 C 709.992188 683.871094 708.855469 684.515625 707.699219 685.132812 C 706.542969 685.75 705.375 686.339844 704.191406 686.898438 C 703.007812 687.457031 701.808594 687.988281 700.601562 688.488281 C 699.390625 688.992188 698.167969 689.460938 696.933594 689.902344 C 695.703125 690.34375 694.460938 690.757812 693.207031 691.136719 C 691.953125 691.515625 690.691406 691.867188 689.421875 692.183594 C 688.148438 692.503906 686.871094 692.789062 685.589844 693.042969 C 684.304688 693.300781 683.015625 693.523438 681.71875 693.714844 C 680.421875 693.910156 679.125 694.070312 677.820312 694.195312 C 676.515625 694.324219 675.210938 694.421875 673.902344 694.484375 C 672.59375 694.550781 671.285156 694.582031 669.976562 694.582031 C 668.667969 694.582031 667.359375 694.550781 666.050781 694.484375 C 664.742188 694.421875 663.4375 694.324219 662.132812 694.195312 C 660.828125 694.070312 659.53125 693.910156 658.234375 693.714844 C 656.9375 693.523438 655.648438 693.300781 654.363281 693.042969 C 653.082031 692.789062 651.800781 692.503906 650.53125 692.183594 C 649.261719 691.867188 648 691.515625 646.746094 691.136719 C 645.492188 690.757812 644.25 690.34375 643.015625 689.902344 C 641.785156 689.460938 640.5625 688.992188 639.351562 688.488281 C 638.144531 687.988281 636.945312 687.457031 635.761719 686.898438 C 634.578125 686.339844 633.410156 685.75 632.253906 685.132812 C 631.097656 684.515625 629.960938 683.871094 628.835938 683.195312 C 627.710938 682.523438 626.605469 681.820312 625.519531 681.09375 C 624.429688 680.367188 623.359375 679.613281 622.304688 678.832031 C 621.253906 678.050781 620.222656 677.246094 619.210938 676.414062 C 618.199219 675.585938 617.207031 674.730469 616.234375 673.851562 C 615.265625 672.96875 614.316406 672.066406 613.390625 671.140625 C 612.464844 670.214844 611.5625 669.265625 610.683594 668.296875 C 609.804688 667.324219 608.949219 666.335938 608.117188 665.320312 C 607.285156 664.308594 606.480469 663.277344 605.699219 662.226562 C 604.921875 661.171875 604.167969 660.101562 603.4375 659.015625 C 602.710938 657.925781 602.011719 656.820312 601.339844 655.695312 C 600.664062 654.570312 600.019531 653.433594 599.402344 652.277344 C 598.785156 651.121094 598.195312 649.953125 597.636719 648.769531 C 597.074219 647.585938 596.546875 646.386719 596.042969 645.175781 C 595.542969 643.96875 595.070312 642.746094 594.628906 641.511719 C 594.191406 640.277344 593.777344 639.035156 593.398438 637.78125 C 593.019531 636.527344 592.667969 635.265625 592.351562 633.996094 C 592.03125 632.726562 591.746094 631.449219 591.492188 630.164062 C 591.234375 628.878906 591.011719 627.589844 590.820312 626.292969 C 590.625 624.996094 590.464844 623.699219 590.339844 622.394531 C 590.210938 621.089844 590.113281 619.785156 590.050781 618.476562 C 589.984375 617.167969 589.953125 615.859375 589.953125 614.550781 C 589.953125 613.242188 589.984375 611.933594 590.050781 610.625 C 590.113281 609.316406 590.210938 608.007812 590.339844 606.707031 C 590.464844 605.402344 590.625 604.101562 590.820312 602.808594 C 591.011719 601.511719 591.234375 600.222656 591.492188 598.9375 C 591.746094 597.652344 592.03125 596.375 592.351562 595.105469 C 592.667969 593.832031 593.019531 592.570312 593.398438 591.320312 C 593.777344 590.066406 594.191406 588.820312 594.628906 587.589844 C 595.070312 586.355469 595.542969 585.132812 596.042969 583.921875 C 596.546875 582.714844 597.074219 581.515625 597.636719 580.332031 C 598.195312 579.148438 598.785156 577.980469 599.402344 576.824219 C 600.019531 575.667969 600.664062 574.527344 601.335938 573.40625 C 602.011719 572.28125 602.710938 571.175781 603.4375 570.085938 C 604.167969 569 604.921875 567.925781 605.699219 566.875 C 606.480469 565.824219 607.285156 564.792969 608.117188 563.777344 C 608.949219 562.765625 609.804688 561.773438 610.683594 560.804688 C 611.5625 559.832031 612.464844 558.886719 613.390625 557.960938 C 614.316406 557.035156 615.265625 556.128906 616.234375 555.25 C 617.207031 554.371094 618.199219 553.515625 619.210938 552.683594 C 620.222656 551.855469 621.253906 551.046875 622.304688 550.269531 C 623.359375 549.488281 624.429688 548.734375 625.519531 548.007812 C 626.605469 547.277344 627.710938 546.578125 628.835938 545.90625 C 629.960938 545.230469 631.097656 544.585938 632.253906 543.96875 C 633.410156 543.351562 634.578125 542.761719 635.761719 542.203125 C 636.945312 541.640625 638.144531 541.113281 639.351562 540.609375 C 640.5625 540.109375 641.785156 539.636719 643.015625 539.195312 C 644.25 538.753906 645.492188 538.34375 646.746094 537.964844 C 648 537.585938 649.261719 537.234375 650.53125 536.917969 C 651.800781 536.597656 653.082031 536.3125 654.363281 536.054688 C 655.648438 535.800781 656.9375 535.578125 658.234375 535.386719 C 659.53125 535.191406 660.828125 535.03125 662.132812 534.902344 C 663.4375 534.777344 664.742188 534.679688 666.050781 534.613281 C 667.359375 534.550781 668.667969 534.519531 669.976562 534.519531 C 671.285156 534.519531 672.59375 534.550781 673.902344 534.613281 C 675.210938 534.679688 676.515625 534.777344 677.820312 534.902344 C 679.125 535.03125 680.421875 535.191406 681.71875 535.386719 C 683.015625 535.578125 684.304688 535.800781 685.589844 536.054688 C 686.871094 536.3125 688.148438 536.597656 689.421875 536.917969 C 690.691406 537.234375 691.953125 537.585938 693.207031 537.964844 C 694.460938 538.34375 695.703125 538.753906 696.933594 539.195312 C 698.167969 539.636719 699.390625 540.109375 700.601562 540.609375 C 701.808594 541.113281 703.007812 541.640625 704.191406 542.203125 C 705.375 542.761719 706.542969 543.351562 707.699219 543.96875 C 708.855469 544.585938 709.992188 545.230469 711.117188 545.90625 C 712.238281 546.578125 713.347656 547.277344 714.433594 548.007812 C 715.523438 548.734375 716.59375 549.488281 717.644531 550.269531 C 718.699219 551.046875 719.730469 551.855469 720.742188 552.683594 C 721.753906 553.515625 722.746094 554.371094 723.71875 555.25 C 724.6875 556.128906 725.636719 557.035156 726.5625 557.960938 C 727.488281 558.886719 728.390625 559.832031 729.269531 560.804688 C 730.148438 561.773438 731.003906 562.765625 731.835938 563.777344 C 732.667969 564.792969 733.472656 565.824219 734.253906 566.875 C 735.03125 567.925781 735.785156 569 736.511719 570.085938 C 737.242188 571.175781 737.941406 572.28125 738.613281 573.40625 C 739.289062 574.527344 739.933594 575.667969 740.550781 576.824219 C 741.167969 577.980469 741.757812 579.148438 742.316406 580.332031 C 742.875 581.515625 743.40625 582.714844 743.910156 583.921875 C 744.410156 585.132812 744.882812 586.355469 745.320312 587.589844 C 745.761719 588.820312 746.175781 590.066406 746.554688 591.320312 C 746.933594 592.570312 747.285156 593.832031 747.601562 595.105469 C 747.921875 596.375 748.207031 597.652344 748.460938 598.9375 C 748.71875 600.222656 748.941406 601.511719 749.132812 602.808594 C 749.324219 604.101562 749.484375 605.402344 749.613281 606.707031 C 749.742188 608.007812 749.839844 609.316406 749.902344 610.625 C 749.96875 611.933594 750 613.242188 750 614.550781 Z M 750 614.550781 " fill-opacity="1" fill-rule="nonzero"/><path fill="#adb9c8" d="M 685.75 536.078125 C 686.222656 548.097656 685.414062 560.640625 681.410156 569.097656 C 671.371094 590.289062 655.757812 596.984375 620.066406 614.550781 C 605.449219 621.742188 599.464844 635.160156 597.492188 648.496094 C 603.175781 660.617188 611.8125 671.078125 622.472656 678.957031 C 624.882812 668.882812 629.429688 657.671875 637.914062 648.292969 C 659.101562 624.867188 691.449219 647.175781 728.863281 628.214844 C 738.78125 623.1875 745.28125 614.871094 749.472656 605.359375 C 745.511719 570.726562 719.453125 542.8125 685.75 536.078125 Z M 685.75 536.078125 " fill-opacity="1" fill-rule="nonzero"/><g clip-path="url(#05179eec2e)"><path fill="#e9f3ff" d="M 232.878906 102.796875 C 232.878906 103.882812 232.855469 104.964844 232.800781 106.050781 C 232.746094 107.136719 232.667969 108.21875 232.5625 109.296875 C 232.453125 110.378906 232.320312 111.457031 232.164062 112.527344 C 232.003906 113.601562 231.816406 114.671875 231.605469 115.738281 C 231.394531 116.800781 231.15625 117.859375 230.894531 118.914062 C 230.628906 119.96875 230.339844 121.011719 230.023438 122.050781 C 229.710938 123.089844 229.367188 124.121094 229.003906 125.144531 C 228.636719 126.164062 228.246094 127.179688 227.832031 128.179688 C 227.417969 129.183594 226.976562 130.175781 226.511719 131.15625 C 226.046875 132.140625 225.558594 133.109375 225.046875 134.066406 C 224.535156 135.023438 224.003906 135.96875 223.445312 136.898438 C 222.886719 137.828125 222.304688 138.746094 221.703125 139.648438 C 221.097656 140.550781 220.472656 141.441406 219.828125 142.3125 C 219.179688 143.183594 218.511719 144.039062 217.824219 144.878906 C 217.136719 145.71875 216.425781 146.539062 215.699219 147.34375 C 214.96875 148.148438 214.222656 148.933594 213.453125 149.703125 C 212.6875 150.46875 211.898438 151.21875 211.09375 151.945312 C 210.292969 152.675781 209.46875 153.386719 208.628906 154.074219 C 207.792969 154.761719 206.9375 155.429688 206.0625 156.078125 C 205.191406 156.722656 204.304688 157.347656 203.402344 157.953125 C 202.5 158.554688 201.582031 159.136719 200.652344 159.691406 C 199.71875 160.25 198.777344 160.785156 197.820312 161.296875 C 196.863281 161.808594 195.890625 162.296875 194.910156 162.761719 C 193.929688 163.226562 192.9375 163.664062 191.933594 164.082031 C 190.933594 164.496094 189.917969 164.886719 188.898438 165.253906 C 187.875 165.617188 186.84375 165.960938 185.804688 166.273438 C 184.765625 166.589844 183.722656 166.878906 182.667969 167.144531 C 181.617188 167.40625 180.558594 167.644531 179.492188 167.855469 C 178.425781 168.066406 177.359375 168.253906 176.285156 168.414062 C 175.210938 168.570312 174.132812 168.707031 173.054688 168.8125 C 171.972656 168.917969 170.890625 168.996094 169.808594 169.050781 C 168.722656 169.105469 167.636719 169.132812 166.550781 169.132812 C 165.464844 169.132812 164.382812 169.105469 163.296875 169.050781 C 162.214844 168.996094 161.132812 168.917969 160.050781 168.8125 C 158.96875 168.707031 157.894531 168.570312 156.820312 168.414062 C 155.746094 168.253906 154.675781 168.066406 153.613281 167.855469 C 152.546875 167.644531 151.488281 167.40625 150.4375 167.144531 C 149.382812 166.878906 148.335938 166.589844 147.296875 166.273438 C 146.257812 165.960938 145.230469 165.617188 144.207031 165.253906 C 143.183594 164.886719 142.171875 164.496094 141.167969 164.082031 C 140.167969 163.664062 139.175781 163.226562 138.191406 162.761719 C 137.210938 162.296875 136.242188 161.808594 135.285156 161.296875 C 134.328125 160.785156 133.382812 160.25 132.453125 159.691406 C 131.523438 159.136719 130.605469 158.554688 129.703125 157.953125 C 128.800781 157.347656 127.914062 156.722656 127.039062 156.078125 C 126.167969 155.429688 125.3125 154.761719 124.472656 154.074219 C 123.636719 153.386719 122.8125 152.675781 122.007812 151.945312 C 121.203125 151.21875 120.417969 150.46875 119.652344 149.703125 C 118.882812 148.933594 118.136719 148.148438 117.40625 147.34375 C 116.675781 146.539062 115.96875 145.71875 115.28125 144.878906 C 114.589844 144.039062 113.921875 143.183594 113.277344 142.3125 C 112.628906 141.441406 112.003906 140.550781 111.402344 139.648438 C 110.800781 138.746094 110.21875 137.828125 109.660156 136.898438 C 109.101562 135.96875 108.566406 135.023438 108.054688 134.066406 C 107.542969 133.109375 107.054688 132.140625 106.59375 131.15625 C 106.128906 130.175781 105.6875 129.183594 105.273438 128.179688 C 104.855469 127.179688 104.464844 126.164062 104.101562 125.144531 C 103.734375 124.121094 103.394531 123.089844 103.078125 122.050781 C 102.765625 121.011719 102.476562 119.96875 102.210938 118.914062 C 101.949219 117.859375 101.710938 116.800781 101.5 115.738281 C 101.285156 114.671875 101.101562 113.601562 100.941406 112.527344 C 100.78125 111.457031 100.648438 110.378906 100.542969 109.296875 C 100.4375 108.21875 100.355469 107.136719 100.304688 106.050781 C 100.25 104.964844 100.222656 103.882812 100.222656 102.796875 C 100.222656 101.710938 100.25 100.625 100.304688 99.539062 C 100.355469 98.457031 100.4375 97.375 100.542969 96.292969 C 100.648438 95.214844 100.78125 94.136719 100.941406 93.0625 C 101.101562 91.988281 101.285156 90.917969 101.5 89.855469 C 101.710938 88.789062 101.949219 87.730469 102.210938 86.675781 C 102.476562 85.625 102.765625 84.578125 103.078125 83.539062 C 103.394531 82.5 103.734375 81.46875 104.101562 80.449219 C 104.464844 79.425781 104.855469 78.414062 105.273438 77.410156 C 105.6875 76.40625 106.128906 75.414062 106.59375 74.433594 C 107.054688 73.453125 107.542969 72.484375 108.054688 71.527344 C 108.566406 70.566406 109.101562 69.625 109.660156 68.691406 C 110.21875 67.761719 110.800781 66.84375 111.402344 65.941406 C 112.003906 65.039062 112.628906 64.152344 113.277344 63.28125 C 113.921875 62.40625 114.589844 61.550781 115.28125 60.714844 C 115.96875 59.875 116.675781 59.050781 117.40625 58.246094 C 118.136719 57.441406 118.882812 56.65625 119.652344 55.890625 C 120.417969 55.121094 121.203125 54.375 122.007812 53.644531 C 122.8125 52.914062 123.636719 52.207031 124.472656 51.519531 C 125.3125 50.828125 126.167969 50.160156 127.039062 49.515625 C 127.914062 48.867188 128.800781 48.242188 129.703125 47.640625 C 130.605469 47.035156 131.523438 46.457031 132.453125 45.898438 C 133.382812 45.339844 134.328125 44.804688 135.285156 44.292969 C 136.242188 43.78125 137.210938 43.292969 138.191406 42.828125 C 139.175781 42.363281 140.167969 41.925781 141.167969 41.511719 C 142.171875 41.09375 143.183594 40.703125 144.207031 40.339844 C 145.230469 39.972656 146.257812 39.632812 147.296875 39.316406 C 148.335938 39 149.382812 38.710938 150.4375 38.449219 C 151.488281 38.183594 152.546875 37.945312 153.613281 37.734375 C 154.675781 37.523438 155.746094 37.335938 156.820312 37.179688 C 157.894531 37.019531 158.96875 36.886719 160.050781 36.78125 C 161.132812 36.671875 162.214844 36.59375 163.296875 36.539062 C 164.382812 36.488281 165.464844 36.460938 166.550781 36.460938 C 167.636719 36.460938 168.722656 36.488281 169.808594 36.539062 C 170.890625 36.59375 171.972656 36.671875 173.054688 36.78125 C 174.132812 36.886719 175.210938 37.019531 176.285156 37.179688 C 177.359375 37.335938 178.425781 37.523438 179.492188 37.734375 C 180.558594 37.945312 181.617188 38.183594 182.667969 38.449219 C 183.722656 38.710938 184.765625 39 185.804688 39.316406 C 186.84375 39.632812 187.875 39.972656 188.898438 40.339844 C 189.917969 40.703125 190.933594 41.09375 191.933594 41.511719 C 192.9375 41.925781 193.929688 42.363281 194.910156 42.828125 C 195.890625 43.292969 196.863281 43.78125 197.820312 44.292969 C 198.777344 44.804688 199.71875 45.339844 200.652344 45.898438 C 201.582031 46.457031 202.5 47.035156 203.402344 47.640625 C 204.304688 48.242188 205.191406 48.867188 206.0625 49.515625 C 206.9375 50.160156 207.792969 50.828125 208.628906 51.519531 C 209.46875 52.207031 210.292969 52.914062 211.09375 53.644531 C 211.898438 54.375 212.6875 55.121094 213.453125 55.890625 C 214.222656 56.65625 214.96875 57.441406 215.699219 58.246094 C 216.425781 59.050781 217.136719 59.875 217.824219 60.714844 C 218.511719 61.550781 219.179688 62.40625 219.828125 63.28125 C 220.472656 64.152344 221.097656 65.039062 221.703125 65.941406 C 222.304688 66.84375 222.886719 67.761719 223.445312 68.691406 C 224 69.625 224.535156 70.566406 225.046875 71.527344 C 225.558594 72.484375 226.046875 73.453125 226.511719 74.433594 C 226.976562 75.414062 227.417969 76.40625 227.832031 77.410156 C 228.246094 78.414062 228.636719 79.425781 229.003906 80.449219 C 229.367188 81.46875 229.710938 82.5 230.023438 83.539062 C 230.339844 84.578125 230.628906 85.625 230.894531 86.675781 C 231.15625 87.730469 231.394531 88.789062 231.605469 89.855469 C 231.816406 90.917969 232.003906 91.988281 232.164062 93.0625 C 232.320312 94.136719 232.453125 95.214844 232.5625 96.292969 C 232.667969 97.375 232.746094 98.457031 232.800781 99.539062 C 232.855469 100.625 232.878906 101.710938 232.878906 102.796875 Z M 232.878906 102.796875 " fill-opacity="1" fill-rule="nonzero"/></g><path fill="#adb9c8" d="M 66.296875 161.625 C 60.394531 161.625 56.855469 160.324219 55.710938 157.722656 C 54.0625 153.972656 57.609375 148.574219 66.554688 141.214844 C 74.539062 134.644531 86.679688 126.695312 101.660156 118.226562 C 102.3125 117.855469 103.144531 118.089844 103.511719 118.742188 C 103.882812 119.394531 103.652344 120.222656 103 120.59375 C 88.152344 128.984375 76.148438 136.839844 68.28125 143.3125 C 57.421875 152.246094 57.820312 155.761719 58.199219 156.625 C 58.5625 157.445312 60.308594 159.304688 68.691406 158.824219 C 75.164062 158.453125 83.96875 156.808594 94.867188 153.9375 C 117.398438 148 146.230469 137.503906 176.050781 124.390625 C 205.871094 111.273438 233.089844 97.117188 252.695312 84.519531 C 262.179688 78.429688 269.34375 73.046875 273.988281 68.53125 C 280.007812 62.671875 279.820312 60.128906 279.460938 59.308594 C 279.085938 58.453125 276.789062 55.804688 263.085938 57.707031 C 253.152344 59.082031 239.441406 62.542969 223.441406 67.714844 C 222.726562 67.945312 221.957031 67.554688 221.730469 66.839844 C 221.5 66.125 221.890625 65.355469 222.605469 65.128906 C 238.757812 59.910156 252.628906 56.414062 262.714844 55.015625 C 274.019531 53.449219 280.3125 54.496094 281.949219 58.214844 C 284.398438 63.777344 275.046875 73.398438 254.167969 86.8125 C 234.449219 99.480469 207.09375 113.710938 177.152344 126.882812 C 147.207031 140.054688 118.234375 150.597656 95.566406 156.574219 C 82.789062 159.941406 73.019531 161.625 66.300781 161.625 Z M 66.296875 161.625 " fill-opacity="1" fill-rule="nonzero"/><path fill="#ffffff" d="M 329.796875 276.933594 C 329.796875 276.933594 217.300781 330.4375 184.019531 357.925781 C 158.675781 378.859375 140.117188 407.464844 128.933594 445.242188 C 119.542969 476.953125 103.488281 553.484375 103.488281 553.484375 L 157.722656 565.535156 C 157.722656 565.535156 191.5625 466.925781 195.886719 459.738281 C 207.773438 439.972656 255.878906 424.476562 255.878906 424.476562 C 255.878906 424.476562 226.078125 472.921875 224.066406 486.3125 C 222.058594 499.707031 229.652344 612.527344 229.652344 612.527344 L 288.605469 609.675781 C 288.605469 609.675781 289.621094 526.027344 299.664062 504.601562 C 309.707031 483.175781 339.835938 469.78125 363.9375 457.730469 C 388.042969 445.679688 410.804688 414.875 424.867188 402.820312 C 438.929688 390.769531 371.972656 274.925781 329.792969 276.933594 Z M 329.796875 276.933594 " fill-opacity="1" fill-rule="nonzero"/><path fill="#535a63" d="M 229.652344 613.886719 C 228.945312 613.886719 228.347656 613.335938 228.300781 612.621094 C 227.988281 608.007812 220.722656 499.5 222.726562 486.117188 C 224.472656 474.484375 246.019531 438.140625 252.761719 426.988281 C 241.503906 430.992188 206.6875 444.417969 197.054688 460.441406 C 193.691406 466.03125 170.699219 531.917969 159.011719 565.980469 C 158.785156 566.632812 158.105469 567.015625 157.433594 566.863281 L 103.199219 554.8125 C 102.472656 554.652344 102.011719 553.933594 102.160156 553.207031 C 102.324219 552.441406 118.332031 476.257812 127.628906 444.855469 C 133.175781 426.125 140.710938 409.195312 150.023438 394.539062 C 159.148438 380.167969 170.300781 367.5 183.15625 356.878906 C 216.183594 329.601562 328.085938 276.242188 329.210938 275.707031 C 329.375 275.632812 329.550781 275.585938 329.730469 275.578125 C 337.492188 275.203125 346.398438 278.59375 356.199219 285.648438 C 364.769531 291.8125 373.820312 300.601562 383.105469 311.761719 C 399.398438 331.351562 415.09375 357.015625 423.089844 377.152344 C 427.003906 387.019531 430.648438 399.65625 425.753906 403.855469 C 421.332031 407.644531 416.089844 413.253906 410.019531 419.757812 C 397.179688 433.507812 381.195312 450.621094 364.546875 458.945312 C 362.53125 459.953125 360.46875 460.972656 358.382812 462.003906 C 335.652344 473.238281 309.894531 485.972656 300.894531 505.179688 C 291.089844 526.097656 289.976562 608.859375 289.964844 609.691406 C 289.957031 610.410156 289.390625 611 288.671875 611.03125 L 229.714844 613.882812 C 229.695312 613.882812 229.671875 613.882812 229.648438 613.882812 Z M 255.878906 423.117188 C 256.292969 423.117188 256.6875 423.300781 256.949219 423.636719 C 257.300781 424.085938 257.335938 424.699219 257.039062 425.1875 C 256.742188 425.667969 227.359375 473.550781 225.414062 486.519531 C 223.570312 498.832031 230.078125 598.367188 230.921875 611.105469 L 287.269531 608.378906 C 287.445312 597.367188 288.945312 524.269531 298.4375 504.023438 C 307.84375 483.957031 334.054688 470.996094 357.183594 459.566406 C 359.265625 458.535156 361.324219 457.519531 363.335938 456.511719 C 379.546875 448.40625 395.34375 431.488281 408.035156 417.898438 C 414.160156 411.339844 419.449219 405.675781 423.984375 401.789062 C 426.769531 399.398438 425.492188 390.566406 420.5625 378.15625 C 412.664062 358.265625 397.136719 332.886719 381.015625 313.503906 C 361.722656 290.304688 343.664062 277.804688 330.128906 278.28125 C 324.175781 281.125 216.902344 332.527344 184.886719 358.976562 C 172.246094 369.410156 161.289062 381.867188 152.3125 395.996094 C 143.140625 410.4375 135.710938 427.136719 130.234375 445.628906 C 121.640625 474.652344 107.265625 542.175781 105.09375 552.449219 L 156.828125 563.949219 C 160.8125 552.359375 190.574219 465.929688 194.71875 459.039062 C 199.792969 450.605469 211.582031 442.003906 229.761719 433.46875 C 243.195312 427.160156 255.339844 423.226562 255.460938 423.1875 C 255.597656 423.144531 255.738281 423.121094 255.878906 423.121094 Z M 255.878906 423.117188 " fill-opacity="1" fill-rule="nonzero"/><path fill="#ffffff" d="M 315.152344 276.039062 C 315.152344 276.039062 339.972656 288.976562 362.722656 312.957031 C 412.46875 365.390625 418.691406 415.503906 418.691406 415.503906 L 459.863281 385.414062 C 459.863281 385.414062 467.382812 423.027344 467.78125 439.65625 C 468.175781 456.285156 446.007812 519.238281 446.007812 519.238281 L 482.824219 532.304688 C 482.824219 532.304688 515.683594 469.746094 525.183594 438.46875 C 534.683594 407.191406 534.292969 345.027344 529.9375 331.566406 C 525.582031 318.101562 493.234375 286.730469 479.851562 272.011719 C 450.929688 240.214844 417.898438 237.332031 414.335938 237.332031 C 410.769531 237.332031 395.875 234.269531 361.710938 248.539062 C 334.90625 259.734375 315.148438 276.042969 315.148438 276.042969 Z M 315.152344 276.039062 " fill-opacity="1" fill-rule="nonzero"/><path fill="#535a63" d="M 482.828125 533.664062 C 482.675781 533.664062 482.523438 533.636719 482.375 533.582031 L 445.554688 520.515625 C 444.847656 520.265625 444.480469 519.492188 444.730469 518.785156 C 444.949219 518.15625 466.8125 455.878906 466.425781 439.6875 C 466.09375 425.605469 460.515625 395.898438 458.945312 387.769531 L 419.496094 416.597656 C 419.109375 416.882812 418.597656 416.9375 418.15625 416.75 C 417.714844 416.558594 417.40625 416.148438 417.347656 415.667969 C 417.332031 415.542969 415.703125 403.019531 408.0625 384.296875 C 401.015625 367.023438 387.253906 340.785156 361.742188 313.894531 C 339.425781 290.371094 314.773438 277.375 314.53125 277.246094 C 314.125 277.035156 313.851562 276.636719 313.804688 276.183594 C 313.757812 275.730469 313.941406 275.285156 314.292969 274.992188 C 314.492188 274.828125 334.511719 258.425781 361.195312 247.28125 C 391.941406 234.441406 407.140625 235.496094 412.863281 235.894531 C 413.496094 235.9375 414 235.972656 414.339844 235.972656 C 416.925781 235.972656 426.226562 236.964844 438.070312 241.480469 C 454.167969 247.617188 468.5625 257.578125 480.859375 271.101562 C 483.78125 274.308594 487.53125 278.234375 491.871094 282.78125 C 507.851562 299.515625 527.738281 320.339844 531.234375 331.148438 C 535.765625 345.167969 536.035156 407.433594 526.488281 438.863281 C 517.058594 469.90625 484.359375 532.308594 484.03125 532.9375 C 483.792969 533.394531 483.320312 533.664062 482.828125 533.664062 Z M 447.738281 518.40625 L 482.167969 530.625 C 486.492188 522.316406 515.199219 466.667969 523.886719 438.070312 C 528.035156 424.414062 530.773438 402.625 531.402344 378.296875 C 531.933594 357.679688 530.800781 338.636719 528.644531 331.980469 C 525.339844 321.761719 504.859375 300.3125 489.902344 284.652344 C 485.550781 280.09375 481.792969 276.15625 478.847656 272.921875 C 466.839844 259.71875 452.792969 249.996094 437.101562 244.011719 C 425.695312 239.664062 416.617188 238.683594 414.335938 238.683594 C 413.902344 238.683594 413.359375 238.648438 412.667969 238.597656 C 392.390625 237.191406 370.484375 246.339844 362.238281 249.78125 C 340.210938 258.984375 322.789062 271.816406 317.601562 275.832031 C 323.773438 279.328125 344.59375 291.863281 363.710938 312.015625 C 389.550781 339.253906 403.484375 365.851562 410.621094 383.371094 C 416.5625 397.957031 418.894531 408.652344 419.683594 413.085938 L 459.0625 384.308594 C 459.4375 384.03125 459.925781 383.96875 460.355469 384.140625 C 460.789062 384.308594 461.105469 384.683594 461.195312 385.140625 C 461.503906 386.679688 468.746094 423.058594 469.140625 439.617188 C 469.511719 455.179688 450.96875 509.125 447.738281 518.402344 Z M 447.738281 518.40625 " fill-opacity="1" fill-rule="nonzero"/><path fill="#535a63" d="M 459.863281 386.769531 C 459.800781 386.769531 459.738281 386.765625 459.671875 386.757812 C 458.929688 386.652344 458.414062 385.964844 458.519531 385.21875 C 458.65625 384.246094 462.019531 361.328125 471.128906 349.046875 C 480.199219 336.824219 492.316406 329.566406 492.828125 329.265625 C 493.476562 328.882812 494.308594 329.097656 494.691406 329.742188 C 495.074219 330.386719 494.859375 331.21875 494.214844 331.601562 C 494.09375 331.675781 482.042969 338.898438 473.3125 350.667969 C 469.730469 355.496094 466.503906 363.058594 463.976562 372.539062 C 462.058594 379.75 461.21875 385.546875 461.210938 385.605469 C 461.113281 386.28125 460.53125 386.769531 459.867188 386.769531 Z M 459.863281 386.769531 " fill-opacity="1" fill-rule="nonzero"/><path fill="#535a63" d="M 255.878906 425.835938 C 255.578125 425.835938 255.273438 425.734375 255.023438 425.527344 C 254.441406 425.050781 254.351562 424.195312 254.828125 423.613281 L 282.605469 389.585938 C 283.082031 389.003906 283.9375 388.917969 284.519531 389.394531 C 285.101562 389.871094 285.1875 390.726562 284.710938 391.308594 L 256.933594 425.335938 C 256.667969 425.664062 256.273438 425.835938 255.878906 425.835938 Z M 255.878906 425.835938 " fill-opacity="1" fill-rule="nonzero"/><path fill="#becee2" d="M 449.863281 492.058594 C 449.863281 492.058594 441.046875 511.976562 438.957031 512.90625 C 436.863281 513.835938 419.199219 522.667969 416.410156 526.386719 C 413.621094 530.105469 404.789062 551.257812 404.789062 554.511719 C 404.789062 557.765625 408.972656 560.089844 411.761719 560.089844 C 414.550781 560.089844 429.425781 542.425781 429.425781 542.425781 C 429.425781 542.425781 429.890625 564.96875 429.195312 568.921875 C 428.5 572.875 420.191406 584.34375 420 586.441406 C 419.433594 592.632812 436.492188 602.054688 444.535156 605.882812 C 452.230469 609.546875 470.101562 607.742188 473.355469 605.882812 C 476.609375 604.023438 485.90625 585.195312 487.996094 577.058594 C 490.085938 568.925781 489.390625 546.378906 489.15625 542.660156 C 488.925781 538.9375 499.015625 517.09375 499.617188 513.835938 C 498.6875 511.046875 491.480469 504.074219 479.394531 499.191406 C 467.3125 494.3125 449.863281 492.0625 449.863281 492.0625 Z M 449.863281 492.058594 " fill-opacity="1" fill-rule="nonzero"/><path fill="#535a63" d="M 457.953125 609.386719 C 452.738281 609.386719 447.441406 608.769531 443.949219 607.105469 C 441.859375 606.113281 434.558594 602.535156 428.261719 598.164062 C 421.488281 593.464844 418.34375 589.585938 418.644531 586.316406 C 418.746094 585.183594 419.84375 583.285156 422.507812 578.886719 C 424.734375 575.210938 427.511719 570.632812 427.851562 568.6875 C 428.320312 566.039062 428.242188 553.582031 428.128906 546.023438 C 426.671875 547.699219 424.695312 549.945312 422.636719 552.179688 C 414.097656 561.449219 412.574219 561.449219 411.761719 561.449219 C 408.445312 561.449219 403.429688 558.683594 403.429688 554.511719 C 403.429688 552.023438 407.15625 542.855469 408.296875 540.101562 C 410.511719 534.769531 413.679688 527.761719 415.320312 525.570312 C 418.398438 521.464844 436.300781 512.621094 438.328125 511.699219 C 439.679688 510.554688 444.605469 500.582031 448.617188 491.507812 C 448.863281 490.960938 449.441406 490.636719 450.035156 490.714844 C 450.753906 490.804688 467.792969 493.042969 479.902344 497.933594 C 486.847656 500.738281 491.6875 503.992188 494.527344 506.234375 C 497.910156 508.902344 500.292969 511.582031 500.902344 513.410156 C 500.976562 513.625 500.992188 513.859375 500.949219 514.085938 C 500.699219 515.4375 499.273438 518.949219 496.96875 524.570312 C 494.503906 530.578125 490.386719 540.628906 490.507812 542.574219 C 490.695312 545.597656 491.484375 568.925781 489.308594 577.398438 C 487.273438 585.300781 477.972656 604.808594 474.023438 607.0625 C 471.933594 608.253906 465.011719 609.386719 457.945312 609.386719 Z M 429.425781 541.066406 C 429.578125 541.066406 429.730469 541.089844 429.878906 541.144531 C 430.410156 541.332031 430.773438 541.832031 430.785156 542.398438 C 430.804688 543.324219 431.242188 565.121094 430.53125 569.160156 C 430.097656 571.609375 427.421875 576.027344 424.832031 580.296875 C 423.335938 582.761719 421.480469 585.828125 421.347656 586.582031 C 421.160156 588.652344 424.242188 592.066406 429.808594 595.929688 C 435.941406 600.183594 443.078125 603.679688 445.113281 604.65625 C 452.53125 608.183594 470.039062 606.210938 472.675781 604.699219 C 473.652344 604.144531 476.328125 600.308594 479.894531 593.210938 C 483.058594 586.914062 485.71875 580.441406 486.675781 576.71875 C 488.769531 568.582031 487.984375 545.707031 487.800781 542.738281 C 487.648438 540.355469 490.464844 533.277344 494.457031 523.535156 C 496.082031 519.570312 497.757812 515.484375 498.1875 513.945312 C 497.015625 511.59375 490.519531 505.148438 478.882812 500.449219 C 468.730469 496.347656 454.535156 494.101562 450.683594 493.542969 C 449.921875 495.234375 448.230469 498.964844 446.410156 502.722656 C 441.261719 513.359375 440.164062 513.847656 439.5 514.140625 C 436.519531 515.46875 419.890625 523.996094 417.492188 527.199219 C 414.84375 530.734375 406.144531 551.664062 406.144531 554.507812 C 406.144531 556.8125 409.472656 558.6875 411.691406 558.726562 C 413.539062 558.164062 421.761719 549.40625 428.378906 541.542969 C 428.644531 541.230469 429.027344 541.058594 429.421875 541.058594 Z M 429.425781 541.066406 " fill-opacity="1" fill-rule="nonzero"/><path fill="#becee2" d="M 223.871094 580.546875 C 223.871094 580.546875 224.933594 627.335938 224.179688 629.972656 C 223.425781 632.609375 196.734375 656.285156 184.175781 675.226562 C 177.9375 684.636719 175.332031 697.046875 179.03125 704.046875 C 182.171875 710.003906 212.9375 713.394531 227.253906 711.886719 C 241.570312 710.378906 266.394531 691.195312 273.542969 686.394531 C 283.539062 679.679688 298.636719 666.945312 300.898438 662.046875 C 303.160156 657.148438 304.195312 649.652344 302.289062 640.398438 C 300.804688 633.203125 292.246094 625.34375 292.246094 622.613281 C 292.246094 619.878906 291.796875 578.992188 291.796875 578.992188 C 291.796875 578.992188 277.058594 577.121094 255.898438 577.757812 C 237.507812 578.308594 223.871094 580.542969 223.871094 580.542969 Z M 223.871094 580.546875 " fill-opacity="1" fill-rule="nonzero"/><g clip-path="url(#ffa4e1a6af)"><path fill="#535a63" d="M 219.246094 713.609375 C 212.972656 713.609375 205.621094 713.089844 198.757812 712.113281 C 190.371094 710.925781 179.925781 708.664062 177.828125 704.683594 C 174.023438 697.476562 176.21875 684.769531 183.042969 674.476562 C 191.222656 662.144531 205.175781 647.984375 214.410156 638.617188 C 218.511719 634.453125 222.386719 630.519531 222.882812 629.566406 C 223.367188 627.148438 222.917969 598.296875 222.515625 580.582031 C 222.5 579.902344 222.984375 579.320312 223.65625 579.207031 C 223.789062 579.1875 237.589844 576.953125 255.863281 576.40625 C 276.882812 575.769531 291.824219 577.628906 291.972656 577.648438 C 292.648438 577.734375 293.152344 578.304688 293.160156 578.984375 C 293.179688 580.652344 293.609375 619.910156 293.609375 622.621094 C 293.621094 623.339844 295.414062 625.773438 296.722656 627.550781 C 299.386719 631.167969 302.703125 635.671875 303.625 640.128906 C 306.011719 651.722656 303.71875 659.199219 302.140625 662.625 C 299.640625 668.039062 283.734375 681.199219 274.304688 687.53125 C 273.234375 688.246094 271.71875 689.328125 269.960938 690.578125 C 259.457031 698.039062 239.902344 711.929688 227.402344 713.246094 C 225.050781 713.492188 222.277344 713.613281 219.253906 713.613281 Z M 225.257812 581.710938 C 225.480469 591.707031 226.222656 627.765625 225.488281 630.347656 C 225.140625 631.554688 222.867188 633.90625 216.34375 640.523438 C 207.183594 649.816406 193.339844 663.863281 185.308594 675.976562 C 179.101562 685.339844 176.921875 697.136719 180.230469 703.414062 C 181.105469 705.070312 186.582031 707.636719 199.144531 709.421875 C 208.953125 710.816406 220.195312 711.261719 227.113281 710.535156 C 238.902344 709.292969 258.8125 695.152344 268.378906 688.355469 C 270.15625 687.09375 271.6875 686.003906 272.785156 685.265625 C 282.945312 678.445312 297.636719 665.875 299.664062 661.476562 C 302.117188 656.164062 302.585938 648.582031 300.957031 640.671875 C 300.15625 636.792969 297.039062 632.558594 294.535156 629.15625 C 292.136719 625.902344 290.886719 624.132812 290.886719 622.609375 C 290.886719 620.183594 290.527344 586.988281 290.453125 580.207031 C 286.566406 579.796875 273.378906 578.589844 255.941406 579.117188 C 240.894531 579.570312 228.929688 581.171875 225.257812 581.710938 Z M 225.257812 581.710938 " fill-opacity="1" fill-rule="nonzero"/></g><path fill="#becee2" d="M 103.492188 527.203125 L 168.828125 542.613281 C 168.828125 542.613281 161.921875 572.847656 161.921875 577.125 C 161.921875 581.402344 161.953125 597.496094 161.6875 605.664062 C 161.425781 613.835938 154.3125 631.226562 152.464844 633.335938 C 150.621094 635.445312 107.933594 630.964844 98.710938 630.4375 C 89.488281 629.910156 3.0625 619.632812 2.007812 619.105469 C 0.953125 618.578125 3.0625 599.871094 7.808594 595.390625 C 12.550781 590.910156 41.714844 583 53.65625 580.550781 C 68.675781 577.46875 87.960938 574.5625 89.269531 573.25 C 90.578125 571.929688 100.363281 531.222656 103.492188 527.207031 Z M 103.492188 527.203125 " fill-opacity="1" fill-rule="nonzero"/><path fill="#535a63" d="M 147.574219 635.253906 C 145.25 635.253906 141.949219 635.140625 137.230469 634.851562 C 129.0625 634.359375 119.089844 633.492188 111.078125 632.800781 C 105.664062 632.332031 100.988281 631.929688 98.636719 631.792969 C 93.742188 631.511719 67.835938 628.5625 47.140625 626.117188 C 35.488281 624.742188 24.464844 623.414062 16.097656 622.371094 C 1.988281 620.609375 1.714844 620.472656 1.398438 620.316406 C 0.628906 619.933594 0.503906 619.085938 0.460938 618.773438 C -0.00390625 615.621094 2.035156 598.96875 6.871094 594.398438 C 12.15625 589.40625 42.671875 581.410156 53.378906 579.214844 C 58.816406 578.097656 64.910156 576.988281 70.289062 576.007812 C 77.960938 574.609375 86.621094 573.03125 88.257812 572.273438 C 88.910156 570.808594 90.933594 563.433594 92.726562 556.894531 C 97.214844 540.539062 100.535156 528.78125 102.414062 526.367188 C 102.742188 525.945312 103.28125 525.757812 103.796875 525.875 L 169.132812 541.285156 C 169.859375 541.457031 170.3125 542.183594 170.148438 542.910156 C 168.238281 551.277344 163.277344 573.742188 163.277344 577.121094 L 163.277344 578.460938 C 163.277344 583.863281 163.289062 598.210938 163.046875 605.707031 C 162.777344 614.054688 155.613281 631.800781 153.488281 634.226562 C 153.058594 634.71875 152.589844 635.253906 147.570312 635.253906 Z M 3.097656 617.925781 C 11.507812 619.203125 88.734375 628.503906 98.792969 629.078125 C 101.179688 629.214844 105.652344 629.605469 111.3125 630.09375 C 118.984375 630.757812 128.53125 631.582031 136.488281 632.085938 C 147.976562 632.808594 150.851562 632.503906 151.5625 632.289062 C 153.382812 629.808594 160.082031 613.292969 160.328125 605.621094 C 160.570312 598.167969 160.5625 583.851562 160.5625 578.464844 L 160.5625 577.121094 C 160.5625 573.214844 165.855469 549.570312 167.203125 543.625 L 104.136719 528.75 C 102.207031 532.632812 98.121094 547.511719 95.351562 557.613281 C 91.621094 571.199219 90.90625 573.523438 90.230469 574.203125 C 89.226562 575.214844 85.410156 576.019531 70.777344 578.6875 C 65.414062 579.664062 59.332031 580.769531 53.925781 581.878906 C 40.535156 584.625 12.894531 592.453125 8.738281 596.375 C 4.902344 599.996094 2.921875 614.507812 3.097656 617.925781 Z M 151.683594 632.25 Z M 3.167969 618.480469 L 3.171875 618.480469 Z M 3.167969 618.480469 " fill-opacity="1" fill-rule="nonzero"/><path fill="#535a63" d="M 427.695312 597.449219 C 427.433594 597.449219 427.164062 597.375 426.933594 597.214844 C 426.3125 596.789062 426.152344 595.945312 426.574219 595.324219 C 430.144531 590.09375 439.652344 575.734375 440.753906 572.148438 C 442.109375 567.753906 443.328125 557.046875 443.335938 556.9375 C 443.421875 556.191406 444.09375 555.652344 444.839844 555.738281 C 445.585938 555.820312 446.125 556.496094 446.039062 557.242188 C 445.988281 557.691406 444.777344 568.3125 443.355469 572.949219 C 441.90625 577.660156 429.355469 596.078125 428.820312 596.859375 C 428.558594 597.242188 428.128906 597.449219 427.699219 597.449219 Z M 427.695312 597.449219 " fill-opacity="1" fill-rule="nonzero"/><path fill="#535a63" d="M 440.796875 605.378906 C 440.554688 605.378906 440.304688 605.3125 440.082031 605.171875 C 439.445312 604.777344 439.25 603.941406 439.644531 603.300781 C 443.570312 596.984375 454 579.796875 455.109375 576.1875 C 456.496094 571.691406 459.507812 560.703125 459.539062 560.589844 C 459.738281 559.867188 460.484375 559.441406 461.207031 559.640625 C 461.929688 559.835938 462.359375 560.585938 462.160156 561.308594 C 462.128906 561.417969 459.105469 572.449219 457.707031 576.984375 C 456.265625 581.664062 442.535156 603.792969 441.949219 604.730469 C 441.691406 605.144531 441.25 605.371094 440.796875 605.371094 Z M 440.796875 605.378906 " fill-opacity="1" fill-rule="nonzero"/><path fill="#535a63" d="M 458.039062 608.167969 C 457.808594 608.167969 457.574219 608.105469 457.359375 607.984375 C 456.707031 607.609375 456.488281 606.777344 456.863281 606.128906 C 460.707031 599.488281 468.265625 586.011719 469.339844 582.515625 C 470.707031 578.078125 472.320312 569.066406 472.335938 568.976562 C 472.46875 568.234375 473.175781 567.742188 473.914062 567.875 C 474.652344 568.007812 475.144531 568.714844 475.011719 569.453125 C 474.945312 569.828125 473.351562 578.722656 471.9375 583.320312 C 470.503906 587.980469 459.675781 606.699219 459.214844 607.492188 C 458.960938 607.929688 458.503906 608.171875 458.039062 608.171875 Z M 458.039062 608.167969 " fill-opacity="1" fill-rule="nonzero"/></svg>