<svg xmlns="http://www.w3.org/2000/svg" xmlns:xlink="http://www.w3.org/1999/xlink" width="1000" zoomAndPan="magnify" viewBox="0 0 750 749.999995" height="1000" preserveAspectRatio="xMidYMid meet" version="1.0"><path fill="#becee2" d="M 638.820312 467.664062 L 647.65625 495.984375 L 692.382812 496.664062 L 749.363281 454.519531 L 742.792969 427.78125 Z M 638.820312 467.664062 " fill-opacity="1" fill-rule="nonzero"/><path fill="#535a63" d="M 692.386719 498.03125 C 692.386719 498.03125 692.371094 498.03125 692.363281 498.03125 L 647.636719 497.351562 C 647.046875 497.34375 646.53125 496.953125 646.355469 496.390625 L 637.519531 468.070312 C 637.300781 467.382812 637.660156 466.648438 638.332031 466.386719 L 742.300781 426.507812 C 742.667969 426.367188 743.074219 426.390625 743.421875 426.574219 C 743.769531 426.757812 744.023438 427.074219 744.117188 427.457031 L 750.683594 454.195312 C 750.816406 454.730469 750.613281 455.289062 750.171875 455.617188 L 693.191406 497.761719 C 692.957031 497.9375 692.675781 498.03125 692.382812 498.03125 Z M 648.667969 494.636719 L 691.945312 495.296875 L 747.820312 453.960938 L 741.839844 429.613281 L 640.503906 468.480469 L 648.664062 494.636719 Z M 648.667969 494.636719 " fill-opacity="1" fill-rule="nonzero"/><path fill="#ffffff" d="M 633.613281 461.546875 L 636.933594 473.675781 L 687.070312 474.914062 L 746.644531 432.3125 L 742.792969 418.945312 Z M 633.613281 461.546875 " fill-opacity="1" fill-rule="nonzero"/><path fill="#535a63" d="M 687.070312 476.277344 C 687.070312 476.277344 687.046875 476.277344 687.035156 476.277344 L 636.898438 475.042969 C 636.296875 475.027344 635.773438 474.617188 635.617188 474.035156 L 632.292969 461.902344 C 632.109375 461.230469 632.464844 460.523438 633.117188 460.269531 L 742.296875 417.671875 C 742.652344 417.53125 743.050781 417.550781 743.394531 417.722656 C 743.738281 417.890625 743.996094 418.199219 744.101562 418.566406 L 747.953125 431.9375 C 748.113281 432.496094 747.90625 433.089844 747.433594 433.425781 L 687.859375 476.023438 C 687.628906 476.191406 687.351562 476.277344 687.066406 476.277344 Z M 637.980469 472.335938 L 686.648438 473.535156 L 745.066406 431.765625 L 741.894531 420.757812 L 635.253906 462.367188 Z M 637.980469 472.335938 " fill-opacity="1" fill-rule="nonzero"/><path fill="#ffffff" d="M 633.613281 461.546875 L 683.433594 462 L 742.792969 418.945312 L 696.449219 420.0625 Z M 633.613281 461.546875 " fill-opacity="1" fill-rule="nonzero"/><path fill="#535a63" d="M 683.433594 463.363281 L 683.421875 463.363281 L 633.597656 462.910156 C 633 462.90625 632.472656 462.507812 632.304688 461.933594 C 632.132812 461.359375 632.359375 460.738281 632.859375 460.40625 L 695.695312 418.925781 C 695.90625 418.785156 696.160156 418.707031 696.414062 418.699219 L 742.757812 417.582031 C 743.355469 417.578125 743.894531 417.941406 744.082031 418.511719 C 744.273438 419.078125 744.074219 419.699219 743.59375 420.050781 L 684.234375 463.105469 C 684.003906 463.273438 683.722656 463.363281 683.433594 463.363281 Z M 638.097656 460.222656 L 682.996094 460.632812 L 738.445312 420.417969 L 696.875 421.421875 L 638.097656 460.226562 Z M 638.097656 460.222656 " fill-opacity="1" fill-rule="nonzero"/><path fill="#ffffff" d="M 709.601562 454.035156 L 713.402344 465.257812 L 721.480469 458.738281 L 718.601562 447.511719 Z M 709.601562 454.035156 " fill-opacity="1" fill-rule="nonzero"/><path fill="#535a63" d="M 713.402344 466.621094 C 713.273438 466.621094 713.144531 466.605469 713.023438 466.566406 C 712.59375 466.441406 712.253906 466.117188 712.109375 465.695312 L 708.308594 454.472656 C 708.117188 453.90625 708.316406 453.28125 708.800781 452.929688 L 717.804688 446.40625 C 718.167969 446.140625 718.640625 446.070312 719.066406 446.226562 C 719.492188 446.378906 719.8125 446.734375 719.925781 447.171875 L 722.800781 458.398438 C 722.9375 458.917969 722.753906 459.464844 722.339844 459.800781 L 714.261719 466.320312 C 714.015625 466.519531 713.710938 466.621094 713.402344 466.621094 Z M 711.214844 454.550781 L 714.066406 462.96875 L 719.9375 458.226562 L 717.777344 449.792969 Z M 711.214844 454.550781 " fill-opacity="1" fill-rule="nonzero"/><path fill="#ffffff" d="M 380.863281 437.734375 C 380.863281 437.734375 419.730469 526.613281 451.273438 564.574219 C 482.8125 602.535156 578.921875 652.824219 578.921875 652.824219 L 602.847656 617.425781 C 602.847656 617.425781 559.699219 587.746094 537.027344 561.621094 C 514.359375 535.488281 492.867188 496.046875 495.234375 494.078125 C 497.601562 492.105469 526.363281 525.863281 552.308594 543.871094 C 585.519531 566.925781 669.253906 579.101562 669.253906 579.101562 L 684.390625 538.449219 C 684.390625 538.449219 621.304688 505.417969 602.085938 493.09375 C 582.863281 480.769531 556.25 442.316406 546.886719 429.992188 C 537.519531 417.667969 520.761719 397.945312 520.761719 397.945312 L 380.867188 437.738281 Z M 380.863281 437.734375 " fill-opacity="1" fill-rule="nonzero"/><path fill="#535a63" d="M 578.921875 654.191406 C 578.707031 654.191406 578.488281 654.140625 578.289062 654.035156 C 578.050781 653.910156 553.902344 641.238281 526.210938 624.09375 C 488.964844 601.035156 463.402344 581.304688 450.222656 565.445312 C 433.847656 545.738281 415.519531 512.199219 403.027344 487.535156 C 389.503906 460.84375 379.714844 438.503906 379.617188 438.277344 C 379.460938 437.917969 379.464844 437.507812 379.632812 437.148438 C 379.804688 436.789062 380.117188 436.527344 380.496094 436.417969 L 520.394531 396.625 C 520.90625 396.480469 521.460938 396.644531 521.808594 397.054688 C 521.976562 397.25 538.695312 416.945312 547.976562 429.15625 C 549.328125 430.9375 551.046875 433.269531 553.03125 435.964844 C 564.757812 451.886719 586.585938 481.523438 602.824219 491.9375 C 621.777344 504.089844 684.394531 536.90625 685.023438 537.234375 C 685.632812 537.550781 685.914062 538.273438 685.671875 538.917969 L 670.535156 579.566406 C 670.3125 580.171875 669.695312 580.53125 669.0625 580.441406 C 668.851562 580.410156 647.78125 577.320312 622.925781 571.449219 C 589.46875 563.546875 565.445312 554.640625 551.53125 544.980469 C 536.71875 534.699219 521.171875 519.492188 509.816406 508.382812 C 504.65625 503.335938 499.351562 498.148438 496.746094 496.164062 C 497.839844 499.5625 501.71875 507.753906 508.875 519.691406 C 517.980469 534.882812 528.621094 549.832031 538.0625 560.714844 C 560.355469 586.414062 603.191406 616 603.625 616.292969 C 604.242188 616.71875 604.402344 617.5625 603.980469 618.183594 L 580.054688 653.582031 C 579.792969 653.96875 579.367188 654.179688 578.925781 654.179688 Z M 382.75 438.617188 C 385.121094 443.953125 393.929688 463.546875 405.464844 486.316406 C 417.894531 510.855469 436.113281 544.195312 452.324219 563.703125 C 468.496094 583.171875 502.203125 606.023438 527.628906 621.765625 C 551.929688 636.816406 573.496094 648.402344 578.476562 651.046875 L 600.964844 617.777344 C 594.039062 612.921875 556.492188 586.136719 535.996094 562.515625 C 526.476562 551.542969 515.753906 536.480469 506.582031 521.191406 C 500.464844 510.992188 493.421875 497.863281 493.699219 494.410156 C 493.757812 493.671875 494.09375 493.253906 494.359375 493.03125 C 495.71875 491.898438 497.613281 493.175781 501.089844 496.273438 C 503.796875 498.695312 507.472656 502.28125 511.71875 506.441406 C 523.003906 517.480469 538.460938 532.597656 553.085938 542.75 C 570.066406 554.535156 600.773438 563.425781 623.550781 568.800781 C 645.085938 573.890625 663.753906 576.875 668.363281 577.582031 L 682.691406 539.097656 C 674.308594 534.695312 619.023438 505.574219 601.347656 494.238281 C 584.683594 483.550781 562.664062 453.652344 550.832031 437.585938 C 548.851562 434.898438 547.140625 432.578125 545.800781 430.808594 C 537.53125 419.925781 523.296875 403.046875 520.289062 399.492188 Z M 382.75 438.617188 " fill-opacity="1" fill-rule="nonzero"/><path fill="#ffffff" d="M 339.847656 330.183594 C 339.847656 330.183594 297.472656 334.601562 280.34375 334.601562 C 263.214844 334.601562 222.429688 313.515625 222.429688 313.515625 L 214.46875 350.417969 C 214.46875 350.417969 246.960938 368.207031 277.15625 376.117188 C 307.351562 384.023438 360.378906 376.117188 360.378906 376.117188 Z M 339.847656 330.183594 " fill-opacity="1" fill-rule="nonzero"/><path fill="#535a63" d="M 311.992188 381.003906 C 297.671875 381.003906 285.882812 379.8125 276.8125 377.4375 C 246.804688 369.578125 214.140625 351.792969 213.8125 351.617188 C 213.285156 351.324219 213.007812 350.71875 213.132812 350.128906 L 221.097656 313.230469 C 221.1875 312.8125 221.464844 312.464844 221.847656 312.28125 C 222.230469 312.097656 222.675781 312.109375 223.054688 312.304688 C 223.460938 312.511719 263.742188 333.238281 280.34375 333.238281 C 296.945312 333.238281 339.28125 328.871094 339.703125 328.824219 C 340.289062 328.761719 340.851562 329.085938 341.089844 329.625 L 361.625 375.558594 C 361.800781 375.949219 361.78125 376.398438 361.574219 376.773438 C 361.371094 377.144531 361.003906 377.402344 360.578125 377.464844 C 360.445312 377.484375 347.066406 379.464844 330.167969 380.441406 C 323.71875 380.816406 317.652344 381.003906 311.988281 381.003906 Z M 216.019531 349.703125 C 221.453125 352.59375 250.585938 367.746094 277.503906 374.796875 C 303.984375 381.734375 348.910156 376.289062 358.394531 375.015625 L 339.003906 331.644531 C 332.527344 332.304688 295.890625 335.96875 280.34375 335.96875 C 264.796875 335.96875 231.191406 319.476562 223.390625 315.539062 Z M 216.019531 349.703125 " fill-opacity="1" fill-rule="nonzero"/><path fill="#ffffff" d="M 662.082031 429.707031 L 696.074219 409.269531 C 700.820312 406.414062 706.996094 408.210938 709.472656 413.167969 L 713.636719 421.503906 C 714.664062 423.5625 714.035156 426.066406 712.152344 427.390625 C 709.878906 428.988281 706.722656 428.25 705.394531 425.808594 L 703.3125 421.988281 C 701.972656 419.53125 698.871094 418.660156 696.449219 420.0625 L 671.167969 434.695312 C 668.875 436.023438 668.023438 438.910156 669.226562 441.269531 L 671.730469 446.179688 C 672.851562 448.378906 672.0625 451.074219 669.929688 452.316406 L 669.277344 452.695312 C 666.953125 454.050781 663.96875 453.15625 662.769531 450.746094 L 658.464844 442.089844 C 656.257812 437.652344 657.832031 432.261719 662.078125 429.707031 Z M 662.082031 429.707031 " fill-opacity="1" fill-rule="nonzero"/><path fill="#535a63" d="M 666.929688 454.695312 C 666.351562 454.695312 665.773438 454.613281 665.210938 454.441406 C 663.625 453.96875 662.289062 452.84375 661.550781 451.359375 L 657.242188 442.703125 C 654.734375 437.660156 656.554688 431.441406 661.378906 428.542969 L 695.371094 408.101562 C 697.957031 406.546875 701.105469 406.136719 704.003906 406.980469 C 706.902344 407.824219 709.339844 409.859375 710.6875 412.558594 L 714.851562 420.890625 C 716.195312 423.578125 715.386719 426.777344 712.933594 428.507812 C 711.53125 429.492188 709.773438 429.832031 708.101562 429.441406 C 706.433594 429.050781 705.007812 427.964844 704.1875 426.460938 L 702.105469 422.640625 C 701.636719 421.777344 700.859375 421.15625 699.910156 420.890625 C 698.964844 420.625 697.976562 420.75 697.125 421.242188 L 671.84375 435.878906 C 670.179688 436.84375 669.5625 438.9375 670.433594 440.648438 L 672.941406 445.558594 C 674.390625 448.402344 673.367188 451.886719 670.609375 453.496094 L 669.957031 453.875 C 669.03125 454.414062 667.980469 454.691406 666.921875 454.691406 Z M 700.949219 409.269531 C 699.492188 409.269531 698.0625 409.667969 696.773438 410.441406 L 662.785156 430.882812 C 659.171875 433.054688 657.8125 437.714844 659.6875 441.488281 L 663.996094 450.144531 C 664.402344 450.96875 665.117188 451.566406 665.996094 451.832031 C 666.875 452.097656 667.796875 451.984375 668.59375 451.523438 L 669.246094 451.144531 C 670.75 450.265625 671.3125 448.359375 670.515625 446.804688 L 668.011719 441.894531 C 666.476562 438.890625 667.5625 435.214844 670.480469 433.519531 L 695.761719 418.882812 C 697.253906 418.019531 698.992188 417.800781 700.652344 418.265625 C 702.3125 418.734375 703.683594 419.824219 704.503906 421.339844 L 706.585938 425.160156 C 707.042969 425.996094 707.800781 426.570312 708.726562 426.789062 C 709.652344 427.003906 710.589844 426.820312 711.367188 426.277344 C 712.707031 425.332031 713.152344 423.582031 712.417969 422.117188 L 708.253906 413.78125 C 707.226562 411.730469 705.445312 410.246094 703.246094 409.605469 C 702.488281 409.386719 701.714844 409.277344 700.949219 409.277344 Z M 662.078125 429.710938 Z M 662.078125 429.710938 " fill-opacity="1" fill-rule="nonzero"/><path fill="#ffffff" d="M 147.304688 669.484375 L 146.355469 643.898438 C 146.355469 643.898438 146.21875 643.894531 145.957031 643.921875 C 146.242188 643.894531 152.960938 643.097656 159.996094 634.753906 C 167.375 626.007812 176.253906 607.5625 176.644531 569.371094 C 176.914062 542.820312 169.15625 520.652344 153.578125 503.492188 C 141.765625 490.476562 129.5625 485.210938 129.4375 485.160156 L 129.507812 485.191406 L 139.207031 461.496094 C 139.882812 461.773438 155.941406 468.472656 171.539062 485.210938 C 180.640625 494.976562 187.855469 506.242188 192.980469 518.683594 C 199.308594 534.046875 202.421875 551.191406 202.234375 569.632812 C 201.835938 608.496094 193.371094 636.890625 177.078125 654.035156 C 171.367188 660.042969 164.910156 664.433594 157.882812 667.085938 C 152.425781 669.148438 148.402344 669.441406 147.300781 669.484375 Z M 147.304688 669.484375 " fill-opacity="1" fill-rule="nonzero"/><path fill="#535a63" d="M 147.304688 670.847656 C 146.960938 670.847656 146.625 670.71875 146.375 670.484375 C 146.109375 670.238281 145.957031 669.894531 145.941406 669.53125 L 145.03125 644.917969 C 144.796875 644.703125 144.636719 644.402344 144.601562 644.0625 C 144.523438 643.316406 145.066406 642.640625 145.8125 642.5625 C 148.019531 642.328125 153.597656 640.214844 158.949219 633.871094 C 166.183594 625.292969 174.886719 607.140625 175.273438 569.351562 C 175.542969 543.15625 167.898438 521.304688 152.5625 504.402344 C 141.027344 491.695312 129.019531 486.460938 128.902344 486.410156 C 128.210938 486.113281 127.886719 485.316406 128.179688 484.625 C 128.238281 484.484375 128.316406 484.359375 128.414062 484.253906 L 137.945312 460.972656 C 138.082031 460.636719 138.34375 460.371094 138.679688 460.230469 C 139.011719 460.089844 139.390625 460.089844 139.726562 460.222656 C 140.414062 460.503906 156.738281 467.316406 172.539062 484.273438 C 181.75 494.160156 189.054688 505.558594 194.242188 518.152344 C 200.640625 533.691406 203.792969 551.011719 203.601562 569.640625 C 203.199219 608.859375 194.605469 637.566406 178.066406 654.96875 C 172.214844 661.125 165.585938 665.628906 158.367188 668.355469 C 152.71875 670.492188 148.507812 670.796875 147.351562 670.839844 C 147.335938 670.839844 147.320312 670.839844 147.300781 670.839844 Z M 147.761719 644.949219 L 148.617188 668.015625 C 150.398438 667.820312 153.511719 667.285156 157.40625 665.8125 C 164.238281 663.230469 170.523438 658.953125 176.089844 653.09375 C 192.140625 636.210938 200.476562 608.125 200.871094 569.621094 C 201.058594 551.363281 197.980469 534.398438 191.722656 519.199219 C 186.660156 506.910156 179.535156 495.785156 170.546875 486.140625 C 157.441406 472.074219 144.046875 465.207031 139.945312 463.308594 L 131.265625 484.511719 C 134.765625 486.25 144.84375 491.828125 154.589844 502.570312 C 170.40625 520 178.28125 542.476562 178.007812 569.386719 C 177.613281 607.984375 168.5625 626.71875 161.039062 635.636719 C 156.121094 641.464844 150.953125 644.078125 147.761719 644.953125 Z M 147.761719 644.949219 " fill-opacity="1" fill-rule="nonzero"/><path fill="#9ca9ba" d="M 204.398438 143.78125 L 204.398438 143.683594 C 204.394531 143.699219 204.390625 143.714844 204.386719 143.730469 C 204.378906 143.714844 204.375 143.699219 204.371094 143.683594 L 204.371094 143.78125 C 203.085938 148.445312 200.117188 151.78125 195.457031 153.789062 C 200.117188 155.792969 203.085938 159.128906 204.371094 163.792969 L 204.371094 163.894531 C 204.378906 163.875 204.382812 163.859375 204.386719 163.84375 C 204.390625 163.859375 204.398438 163.875 204.398438 163.894531 L 204.398438 163.792969 C 205.683594 159.128906 208.65625 155.792969 213.316406 153.789062 C 208.65625 151.78125 205.683594 148.445312 204.398438 143.78125 Z M 204.398438 143.78125 " fill-opacity="1" fill-rule="nonzero"/><path fill="#9ca9ba" d="M 472.320312 650.316406 L 472.320312 650.21875 C 472.316406 650.234375 472.3125 650.25 472.308594 650.265625 C 472.304688 650.25 472.296875 650.234375 472.292969 650.21875 L 472.292969 650.316406 C 471.007812 654.980469 468.039062 658.316406 463.378906 660.324219 C 468.039062 662.328125 471.007812 665.664062 472.292969 670.328125 L 472.292969 670.429688 C 472.300781 670.410156 472.304688 670.394531 472.308594 670.378906 C 472.3125 670.394531 472.320312 670.410156 472.320312 670.429688 L 472.320312 670.328125 C 473.605469 665.664062 476.578125 662.328125 481.238281 660.324219 C 476.578125 658.316406 473.605469 654.980469 472.320312 650.316406 Z M 472.320312 650.316406 " fill-opacity="1" fill-rule="nonzero"/><path fill="#9ca9ba" d="M 380.878906 85.519531 L 380.878906 85.421875 C 380.875 85.4375 380.867188 85.453125 380.863281 85.472656 C 380.859375 85.453125 380.855469 85.4375 380.851562 85.421875 L 380.851562 85.519531 C 379.566406 90.183594 376.59375 93.519531 371.9375 95.527344 C 376.59375 97.53125 379.566406 100.867188 380.851562 105.535156 L 380.851562 105.632812 C 380.855469 105.617188 380.863281 105.597656 380.863281 105.582031 C 380.871094 105.597656 380.875 105.617188 380.878906 105.632812 L 380.878906 105.535156 C 382.164062 100.867188 385.136719 97.53125 389.792969 95.527344 C 385.136719 93.519531 382.164062 90.183594 380.878906 85.519531 Z M 380.878906 85.519531 " fill-opacity="1" fill-rule="nonzero"/><path fill="#9ca9ba" d="M 665.511719 292.878906 L 665.511719 292.78125 C 665.507812 292.796875 665.5 292.8125 665.5 292.828125 C 665.492188 292.8125 665.488281 292.796875 665.484375 292.78125 L 665.484375 292.878906 C 664.199219 297.542969 661.226562 300.878906 656.570312 302.886719 C 661.226562 304.890625 664.199219 308.226562 665.484375 312.894531 L 665.484375 312.992188 C 665.488281 312.976562 665.496094 312.957031 665.5 312.941406 C 665.503906 312.957031 665.507812 312.976562 665.511719 312.992188 L 665.511719 312.894531 C 666.796875 308.226562 669.769531 304.890625 674.425781 302.886719 C 669.769531 300.878906 666.796875 297.542969 665.511719 292.878906 Z M 665.511719 292.878906 " fill-opacity="1" fill-rule="nonzero"/><path fill="#9ca9ba" d="M 696.070312 145.871094 L 696.070312 145.769531 C 696.066406 145.789062 696.058594 145.804688 696.058594 145.820312 C 696.050781 145.804688 696.046875 145.789062 696.042969 145.769531 L 696.042969 145.871094 C 694.757812 150.535156 691.785156 153.871094 687.128906 155.875 C 691.789062 157.882812 694.757812 161.21875 696.042969 165.882812 L 696.042969 165.980469 C 696.050781 165.964844 696.054688 165.949219 696.058594 165.933594 C 696.0625 165.949219 696.070312 165.964844 696.070312 165.980469 L 696.070312 165.882812 C 697.355469 161.21875 700.328125 157.882812 704.984375 155.875 C 700.328125 153.871094 697.355469 150.535156 696.070312 145.871094 Z M 696.070312 145.871094 " fill-opacity="1" fill-rule="nonzero"/><path fill="#9ca9ba" d="M 287.4375 478.304688 L 287.4375 478.207031 C 287.433594 478.222656 287.425781 478.238281 287.425781 478.257812 C 287.417969 478.238281 287.414062 478.222656 287.410156 478.207031 L 287.410156 478.304688 C 286.125 482.96875 283.152344 486.304688 278.496094 488.3125 C 283.152344 490.320312 286.125 493.65625 287.410156 498.320312 L 287.410156 498.417969 C 287.417969 498.402344 287.421875 498.386719 287.425781 498.367188 C 287.429688 498.386719 287.433594 498.402344 287.4375 498.417969 L 287.4375 498.320312 C 288.722656 493.65625 291.695312 490.320312 296.351562 488.3125 C 291.695312 486.304688 288.722656 482.96875 287.4375 478.304688 Z M 287.4375 478.304688 " fill-opacity="1" fill-rule="nonzero"/><path fill="#9ca9ba" d="M 264.265625 49.953125 L 264.265625 49.753906 C 264.257812 49.789062 264.246094 49.820312 264.238281 49.855469 C 264.230469 49.820312 264.21875 49.789062 264.210938 49.753906 L 264.210938 49.953125 C 261.640625 59.28125 255.699219 65.953125 246.382812 69.964844 C 255.699219 73.980469 261.636719 80.652344 264.210938 89.980469 L 264.210938 90.179688 C 264.21875 90.144531 264.230469 90.113281 264.238281 90.078125 C 264.246094 90.113281 264.257812 90.144531 264.265625 90.179688 L 264.265625 89.980469 C 266.835938 80.652344 272.78125 73.980469 282.09375 69.964844 C 272.78125 65.953125 266.839844 59.28125 264.265625 49.953125 Z M 264.265625 49.953125 " fill-opacity="1" fill-rule="nonzero"/><path fill="#9ca9ba" d="M 626.839844 216.203125 L 626.839844 216.003906 C 626.832031 216.039062 626.820312 216.070312 626.8125 216.105469 C 626.804688 216.070312 626.792969 216.039062 626.785156 216.003906 L 626.785156 216.203125 C 624.214844 225.53125 618.273438 232.203125 608.957031 236.21875 C 618.273438 240.230469 624.210938 246.902344 626.785156 256.230469 L 626.785156 256.429688 C 626.792969 256.394531 626.804688 256.363281 626.8125 256.328125 C 626.820312 256.363281 626.832031 256.394531 626.839844 256.429688 L 626.839844 256.230469 C 629.410156 246.902344 635.355469 240.230469 644.667969 236.21875 C 635.355469 232.203125 629.414062 225.53125 626.839844 216.203125 Z M 626.839844 216.203125 " fill-opacity="1" fill-rule="nonzero"/><path fill="#d1def0" d="M 398.03125 666.839844 C 398.03125 668.054688 398.003906 669.265625 397.941406 670.480469 C 397.882812 671.691406 397.792969 672.902344 397.675781 674.109375 C 397.554688 675.316406 397.40625 676.519531 397.230469 677.71875 C 397.050781 678.917969 396.84375 680.113281 396.609375 681.304688 C 396.371094 682.496094 396.105469 683.679688 395.8125 684.855469 C 395.515625 686.03125 395.191406 687.203125 394.839844 688.363281 C 394.488281 689.523438 394.109375 690.675781 393.699219 691.816406 C 393.289062 692.960938 392.855469 694.09375 392.390625 695.214844 C 391.925781 696.335938 391.433594 697.441406 390.914062 698.539062 C 390.398438 699.636719 389.851562 700.71875 389.28125 701.789062 C 388.707031 702.859375 388.109375 703.914062 387.488281 704.957031 C 386.863281 705.996094 386.214844 707.023438 385.542969 708.03125 C 384.867188 709.039062 384.167969 710.03125 383.445312 711.007812 C 382.722656 711.980469 381.976562 712.9375 381.207031 713.875 C 380.4375 714.8125 379.648438 715.730469 378.832031 716.628906 C 378.019531 717.53125 377.179688 718.40625 376.324219 719.265625 C 375.464844 720.125 374.585938 720.960938 373.6875 721.773438 C 372.789062 722.589844 371.871094 723.382812 370.933594 724.152344 C 369.996094 724.921875 369.042969 725.667969 368.066406 726.390625 C 367.09375 727.113281 366.101562 727.8125 365.09375 728.484375 C 364.085938 729.160156 363.058594 729.808594 362.019531 730.433594 C 360.980469 731.058594 359.921875 731.65625 358.855469 732.226562 C 357.785156 732.796875 356.703125 733.34375 355.605469 733.863281 C 354.507812 734.382812 353.398438 734.871094 352.277344 735.335938 C 351.160156 735.800781 350.027344 736.238281 348.886719 736.648438 C 347.742188 737.054688 346.589844 737.4375 345.429688 737.789062 C 344.269531 738.140625 343.101562 738.464844 341.925781 738.757812 C 340.75 739.054688 339.566406 739.320312 338.375 739.554688 C 337.1875 739.792969 335.992188 740 334.792969 740.179688 C 333.589844 740.355469 332.386719 740.503906 331.179688 740.625 C 329.972656 740.742188 328.765625 740.832031 327.554688 740.890625 C 326.339844 740.949219 325.128906 740.980469 323.917969 740.980469 C 322.703125 740.980469 321.492188 740.949219 320.28125 740.890625 C 319.066406 740.832031 317.859375 740.742188 316.652344 740.625 C 315.445312 740.503906 314.242188 740.355469 313.042969 740.179688 C 311.839844 740 310.648438 739.792969 309.457031 739.554688 C 308.265625 739.320312 307.085938 739.054688 305.90625 738.757812 C 304.730469 738.464844 303.5625 738.140625 302.402344 737.789062 C 301.242188 737.4375 300.089844 737.054688 298.949219 736.648438 C 297.804688 736.238281 296.675781 735.800781 295.554688 735.335938 C 294.433594 734.871094 293.324219 734.382812 292.226562 733.863281 C 291.132812 733.34375 290.046875 732.796875 288.976562 732.226562 C 287.910156 731.65625 286.855469 731.058594 285.8125 730.433594 C 284.773438 729.808594 283.75 729.160156 282.738281 728.484375 C 281.730469 727.8125 280.738281 727.113281 279.765625 726.390625 C 278.792969 725.667969 277.835938 724.921875 276.898438 724.152344 C 275.960938 723.382812 275.042969 722.589844 274.144531 721.773438 C 273.246094 720.960938 272.367188 720.125 271.507812 719.265625 C 270.652344 718.40625 269.816406 717.53125 269 716.628906 C 268.1875 715.730469 267.394531 714.8125 266.625 713.875 C 265.855469 712.9375 265.109375 711.980469 264.386719 711.007812 C 263.664062 710.03125 262.964844 709.039062 262.292969 708.03125 C 261.617188 707.023438 260.96875 705.996094 260.34375 704.957031 C 259.722656 703.914062 259.125 702.859375 258.550781 701.789062 C 257.980469 700.71875 257.433594 699.636719 256.917969 698.539062 C 256.398438 697.441406 255.90625 696.335938 255.441406 695.214844 C 254.976562 694.09375 254.542969 692.960938 254.132812 691.816406 C 253.722656 690.675781 253.34375 689.523438 252.992188 688.363281 C 252.640625 687.203125 252.316406 686.03125 252.023438 684.855469 C 251.726562 683.679688 251.460938 682.496094 251.226562 681.304688 C 250.988281 680.113281 250.78125 678.917969 250.601562 677.71875 C 250.425781 676.519531 250.277344 675.316406 250.15625 674.109375 C 250.039062 672.902344 249.949219 671.691406 249.890625 670.480469 C 249.832031 669.265625 249.800781 668.054688 249.800781 666.839844 C 249.800781 665.628906 249.832031 664.414062 249.890625 663.203125 C 249.949219 661.992188 250.039062 660.78125 250.15625 659.574219 C 250.277344 658.367188 250.425781 657.164062 250.601562 655.960938 C 250.78125 654.761719 250.988281 653.566406 251.226562 652.378906 C 251.460938 651.1875 251.726562 650.003906 252.023438 648.828125 C 252.316406 647.648438 252.640625 646.480469 252.992188 645.320312 C 253.34375 644.160156 253.722656 643.007812 254.132812 641.863281 C 254.542969 640.722656 254.976562 639.589844 255.441406 638.46875 C 255.90625 637.347656 256.398438 636.238281 256.917969 635.140625 C 257.433594 634.046875 257.980469 632.960938 258.550781 631.890625 C 259.125 630.820312 259.722656 629.765625 260.34375 628.726562 C 260.96875 627.683594 261.617188 626.660156 262.292969 625.652344 C 262.964844 624.644531 263.664062 623.652344 264.386719 622.675781 C 265.109375 621.703125 265.855469 620.746094 266.625 619.808594 C 267.394531 618.871094 268.1875 617.953125 269 617.050781 C 269.816406 616.152344 270.652344 615.273438 271.507812 614.417969 C 272.367188 613.558594 273.246094 612.722656 274.144531 611.90625 C 275.042969 611.09375 275.960938 610.300781 276.898438 609.53125 C 277.835938 608.761719 278.792969 608.015625 279.765625 607.292969 C 280.738281 606.570312 281.730469 605.871094 282.738281 605.195312 C 283.75 604.523438 284.773438 603.875 285.8125 603.25 C 286.855469 602.625 287.910156 602.027344 288.976562 601.457031 C 290.046875 600.882812 291.132812 600.339844 292.226562 599.820312 C 293.324219 599.300781 294.433594 598.808594 295.554688 598.34375 C 296.675781 597.882812 297.804688 597.445312 298.949219 597.035156 C 300.089844 596.628906 301.242188 596.246094 302.402344 595.894531 C 303.5625 595.542969 304.730469 595.21875 305.90625 594.921875 C 307.085938 594.628906 308.265625 594.363281 309.457031 594.125 C 310.648438 593.890625 311.839844 593.683594 313.042969 593.503906 C 314.242188 593.328125 315.445312 593.179688 316.652344 593.058594 C 317.859375 592.941406 319.066406 592.851562 320.28125 592.792969 C 321.492188 592.730469 322.703125 592.703125 323.917969 592.703125 C 325.128906 592.703125 326.339844 592.730469 327.554688 592.792969 C 328.765625 592.851562 329.972656 592.941406 331.179688 593.058594 C 332.386719 593.179688 333.589844 593.328125 334.792969 593.503906 C 335.992188 593.683594 337.1875 593.890625 338.375 594.125 C 339.566406 594.363281 340.75 594.628906 341.925781 594.921875 C 343.101562 595.21875 344.269531 595.542969 345.429688 595.894531 C 346.589844 596.246094 347.742188 596.628906 348.886719 597.035156 C 350.027344 597.445312 351.160156 597.882812 352.277344 598.34375 C 353.398438 598.808594 354.507812 599.300781 355.605469 599.820312 C 356.703125 600.339844 357.785156 600.882812 358.855469 601.457031 C 359.921875 602.027344 360.980469 602.625 362.019531 603.25 C 363.058594 603.875 364.085938 604.523438 365.09375 605.195312 C 366.101562 605.871094 367.09375 606.570312 368.066406 607.292969 C 369.042969 608.015625 369.996094 608.761719 370.933594 609.53125 C 371.871094 610.300781 372.789062 611.09375 373.6875 611.90625 C 374.589844 612.722656 375.464844 613.558594 376.324219 614.417969 C 377.179688 615.273438 378.019531 616.152344 378.832031 617.050781 C 379.648438 617.953125 380.4375 618.871094 381.207031 619.808594 C 381.976562 620.746094 382.722656 621.703125 383.445312 622.675781 C 384.167969 623.652344 384.867188 624.644531 385.542969 625.652344 C 386.214844 626.660156 386.863281 627.683594 387.488281 628.726562 C 388.109375 629.765625 388.707031 630.820312 389.28125 631.890625 C 389.851562 632.960938 390.398438 634.046875 390.914062 635.140625 C 391.433594 636.238281 391.925781 637.347656 392.390625 638.46875 C 392.855469 639.589844 393.289062 640.722656 393.699219 641.863281 C 394.109375 643.007812 394.488281 644.160156 394.839844 645.320312 C 395.191406 646.480469 395.515625 647.648438 395.8125 648.828125 C 396.105469 650.003906 396.371094 651.1875 396.609375 652.378906 C 396.84375 653.566406 397.050781 654.761719 397.230469 655.960938 C 397.40625 657.164062 397.554688 658.367188 397.675781 659.574219 C 397.792969 660.78125 397.882812 661.992188 397.941406 663.203125 C 398.003906 664.414062 398.03125 665.628906 398.03125 666.839844 Z M 398.03125 666.839844 " fill-opacity="1" fill-rule="nonzero"/><path fill="#adb9c8" d="M 338.523438 594.144531 C 338.960938 605.28125 338.214844 616.898438 334.503906 624.734375 C 325.207031 644.367188 310.746094 650.566406 277.691406 666.839844 C 264.152344 673.507812 258.613281 685.933594 256.785156 698.285156 C 262.050781 709.515625 270.046875 719.207031 279.917969 726.503906 C 282.148438 717.171875 286.359375 706.789062 294.21875 698.101562 C 313.84375 676.402344 343.800781 697.066406 378.457031 679.5 C 387.640625 674.84375 393.65625 667.140625 397.542969 658.332031 C 393.875 626.25 369.742188 600.390625 338.527344 594.148438 Z M 338.523438 594.144531 " fill-opacity="1" fill-rule="nonzero"/><path fill="#e9f3ff" d="M 656.175781 84.519531 C 656.175781 86.535156 656.078125 88.542969 655.882812 90.542969 C 655.683594 92.546875 655.390625 94.535156 654.996094 96.507812 C 654.605469 98.484375 654.117188 100.433594 653.53125 102.359375 C 652.949219 104.285156 652.269531 106.175781 651.5 108.035156 C 650.730469 109.894531 649.871094 111.714844 648.921875 113.488281 C 647.976562 115.261719 646.941406 116.988281 645.824219 118.660156 C 644.707031 120.332031 643.507812 121.949219 642.234375 123.503906 C 640.957031 125.058594 639.605469 126.550781 638.183594 127.972656 C 636.761719 129.394531 635.273438 130.746094 633.71875 132.023438 C 632.164062 133.296875 630.546875 134.496094 628.875 135.613281 C 627.203125 136.734375 625.480469 137.765625 623.703125 138.714844 C 621.929688 139.664062 620.113281 140.523438 618.253906 141.292969 C 616.398438 142.0625 614.503906 142.738281 612.578125 143.324219 C 610.652344 143.910156 608.703125 144.398438 606.730469 144.789062 C 604.757812 145.183594 602.769531 145.476562 600.769531 145.675781 C 598.765625 145.871094 596.757812 145.96875 594.746094 145.96875 C 592.734375 145.96875 590.726562 145.871094 588.726562 145.675781 C 586.722656 145.476562 584.734375 145.183594 582.761719 144.789062 C 580.789062 144.398438 578.839844 143.910156 576.914062 143.324219 C 574.988281 142.738281 573.097656 142.0625 571.238281 141.292969 C 569.378906 140.523438 567.5625 139.664062 565.789062 138.714844 C 564.015625 137.765625 562.292969 136.734375 560.617188 135.613281 C 558.945312 134.496094 557.332031 133.296875 555.777344 132.023438 C 554.222656 130.746094 552.734375 129.394531 551.308594 127.972656 C 549.886719 126.550781 548.539062 125.058594 547.261719 123.503906 C 545.984375 121.949219 544.789062 120.332031 543.671875 118.660156 C 542.550781 116.988281 541.519531 115.261719 540.570312 113.488281 C 539.621094 111.714844 538.761719 109.894531 537.992188 108.035156 C 537.222656 106.175781 536.546875 104.285156 535.960938 102.359375 C 535.378906 100.433594 534.890625 98.484375 534.496094 96.507812 C 534.105469 94.535156 533.8125 92.546875 533.613281 90.542969 C 533.417969 88.542969 533.316406 86.535156 533.316406 84.519531 C 533.316406 82.507812 533.417969 80.5 533.613281 78.496094 C 533.8125 76.496094 534.105469 74.507812 534.496094 72.53125 C 534.890625 70.558594 535.378906 68.609375 535.960938 66.683594 C 536.546875 64.757812 537.222656 62.863281 537.992188 61.003906 C 538.761719 59.144531 539.621094 57.328125 540.570312 55.554688 C 541.519531 53.777344 542.550781 52.054688 543.671875 50.382812 C 544.789062 48.707031 545.984375 47.09375 547.261719 45.539062 C 548.539062 43.980469 549.886719 42.492188 551.308594 41.070312 C 552.734375 39.648438 554.222656 38.296875 555.777344 37.019531 C 557.332031 35.742188 558.945312 34.546875 560.617188 33.425781 C 562.292969 32.308594 564.015625 31.277344 565.789062 30.328125 C 567.5625 29.378906 569.378906 28.519531 571.238281 27.75 C 573.097656 26.980469 574.988281 26.300781 576.914062 25.71875 C 578.839844 25.132812 580.789062 24.644531 582.761719 24.253906 C 584.734375 23.859375 586.722656 23.566406 588.726562 23.367188 C 590.726562 23.171875 592.734375 23.070312 594.746094 23.070312 C 596.757812 23.070312 598.765625 23.171875 600.769531 23.367188 C 602.769531 23.566406 604.757812 23.859375 606.730469 24.253906 C 608.703125 24.644531 610.652344 25.132812 612.578125 25.71875 C 614.503906 26.300781 616.398438 26.980469 618.253906 27.75 C 620.113281 28.519531 621.929688 29.378906 623.703125 30.328125 C 625.480469 31.277344 627.203125 32.308594 628.875 33.425781 C 630.546875 34.546875 632.164062 35.742188 633.71875 37.019531 C 635.273438 38.296875 636.761719 39.648438 638.183594 41.070312 C 639.605469 42.492188 640.957031 43.980469 642.234375 45.539062 C 643.507812 47.09375 644.707031 48.707031 645.824219 50.382812 C 646.941406 52.054688 647.976562 53.777344 648.921875 55.554688 C 649.871094 57.328125 650.730469 59.144531 651.5 61.003906 C 652.269531 62.863281 652.949219 64.757812 653.53125 66.683594 C 654.117188 68.609375 654.605469 70.558594 654.996094 72.53125 C 655.390625 74.507812 655.683594 76.496094 655.882812 78.496094 C 656.078125 80.5 656.175781 82.507812 656.175781 84.519531 Z M 656.175781 84.519531 " fill-opacity="1" fill-rule="nonzero"/><path fill="#adb9c8" d="M 501.742188 139.125 C 496.273438 139.125 493.078125 137.914062 491.992188 135.449219 C 490.445312 131.925781 493.738281 126.882812 502.0625 120.03125 C 509.464844 113.941406 520.714844 106.574219 534.59375 98.726562 C 535.246094 98.355469 536.078125 98.585938 536.449219 99.242188 C 536.820312 99.898438 536.589844 100.730469 535.933594 101.101562 C 522.191406 108.871094 511.074219 116.148438 503.796875 122.136719 C 493.796875 130.367188 494.144531 133.5625 494.488281 134.347656 C 494.8125 135.085938 496.402344 136.761719 504.105469 136.324219 C 510.089844 135.984375 518.238281 134.460938 528.328125 131.800781 C 549.1875 126.300781 575.886719 116.582031 603.5 104.433594 C 631.109375 92.285156 656.316406 79.171875 674.46875 67.511719 C 683.246094 61.871094 689.875 56.890625 694.171875 52.710938 C 699.699219 47.328125 699.542969 45.027344 699.214844 44.285156 C 698.875 43.507812 696.78125 41.113281 684.160156 42.863281 C 674.96875 44.136719 662.277344 47.339844 647.457031 52.128906 C 646.742188 52.359375 645.972656 51.96875 645.742188 51.25 C 645.511719 50.53125 645.902344 49.761719 646.621094 49.53125 C 661.589844 44.695312 674.441406 41.457031 683.789062 40.160156 C 694.316406 38.703125 700.179688 39.691406 701.714844 43.1875 C 702.957031 46.011719 701.109375 49.765625 696.074219 54.667969 C 691.648438 58.972656 684.871094 64.070312 675.941406 69.808594 C 657.671875 81.546875 632.335938 94.734375 604.59375 106.933594 C 576.859375 119.136719 550.019531 128.90625 529.019531 134.441406 C 518.753906 137.152344 510.421875 138.703125 504.257812 139.054688 C 503.371094 139.105469 502.527344 139.128906 501.738281 139.128906 Z M 501.742188 139.125 " fill-opacity="1" fill-rule="nonzero"/><path fill="#ffffff" d="M 423.59375 305.597656 C 388.890625 313.003906 339.847656 330.183594 339.847656 330.183594 C 339.847656 330.183594 339.847656 365.660156 354.070312 402.015625 C 368.292969 438.367188 387.183594 474.683594 387.183594 474.683594 C 387.183594 474.683594 403.214844 455.707031 445.75 436.015625 C 482.34375 419.074219 539.40625 412.246094 539.40625 412.246094 C 539.40625 412.246094 525.902344 393.21875 519.011719 383.058594 C 511.046875 371.308594 507.199219 360.550781 507.199219 360.550781 C 507.199219 360.550781 551.394531 363.269531 586.226562 371.71875 C 621.066406 380.167969 640.417969 391.785156 640.417969 391.785156 L 650.625 369.609375 C 650.625 369.609375 622.824219 340.394531 587.636719 324.554688 C 552.445312 308.714844 472.796875 295.097656 423.59375 305.601562 Z M 423.59375 305.597656 " fill-opacity="1" fill-rule="nonzero"/><path fill="#535a63" d="M 387.179688 476.046875 C 387.128906 476.046875 387.078125 476.046875 387.027344 476.039062 C 386.574219 475.988281 386.179688 475.71875 385.96875 475.3125 C 385.78125 474.949219 366.878906 438.519531 352.792969 402.511719 C 338.644531 366.335938 338.480469 330.539062 338.480469 330.183594 C 338.480469 329.605469 338.84375 329.085938 339.394531 328.894531 C 339.886719 328.722656 388.917969 311.601562 423.304688 304.261719 C 445.871094 299.445312 477.03125 299.292969 511.046875 303.839844 C 541.246094 307.878906 570.085938 315.152344 588.191406 323.304688 C 623.222656 339.070312 651.332031 368.371094 651.609375 368.664062 C 651.992188 369.070312 652.09375 369.667969 651.859375 370.175781 L 641.65625 392.351562 C 641.492188 392.703125 641.1875 392.972656 640.816406 393.085938 C 640.445312 393.203125 640.042969 393.152344 639.710938 392.953125 C 633.0625 388.96875 613.265625 379.679688 585.902344 373.046875 C 555.914062 365.773438 518.507812 362.730469 509.25 362.0625 C 510.730469 365.671875 514.347656 373.753906 520.136719 382.292969 C 526.933594 392.332031 540.375 411.269531 540.511719 411.457031 C 540.789062 411.851562 540.839844 412.359375 540.644531 412.800781 C 540.449219 413.238281 540.035156 413.546875 539.558594 413.601562 C 538.992188 413.671875 482.285156 420.601562 446.3125 437.253906 C 404.613281 456.5625 388.375 475.378906 388.214844 475.566406 C 387.953125 475.875 387.570312 476.050781 387.171875 476.050781 Z M 341.226562 331.148438 C 341.359375 337.0625 342.671875 369.136719 355.335938 401.519531 C 367.621094 432.925781 383.59375 464.671875 387.5 472.324219 C 389.386719 470.363281 393.292969 466.585938 399.679688 461.65625 C 408.242188 455.039062 423.085938 445.003906 445.175781 434.777344 C 477.421875 419.847656 525.984375 412.667969 536.980469 411.1875 C 533.414062 406.148438 523.441406 392.027344 517.882812 383.824219 C 509.910156 372.066406 506.074219 361.457031 505.914062 361.011719 C 505.757812 360.578125 505.832031 360.097656 506.105469 359.730469 C 506.382812 359.363281 506.820312 359.15625 507.28125 359.1875 C 507.722656 359.214844 551.992188 362.011719 586.542969 370.390625 C 612.648438 376.71875 631.996094 385.464844 639.800781 389.847656 L 648.988281 369.886719 C 644.625 365.476562 618.6875 340.027344 587.070312 325.792969 C 569.191406 317.742188 540.632812 310.546875 510.683594 306.546875 C 476.972656 302.042969 446.140625 302.179688 423.875 306.929688 C 392.269531 313.679688 348.160156 328.753906 341.226562 331.148438 Z M 341.226562 331.148438 " fill-opacity="1" fill-rule="nonzero"/><path fill="#becee2" d="M 577.539062 629.105469 C 584.816406 617.171875 587.894531 603.132812 591.09375 603.132812 C 594.292969 603.132812 619.304688 623.058594 623.667969 623.640625 C 628.035156 624.222656 646.371094 635.285156 647.535156 635.867188 C 648.699219 636.449219 653.066406 645.617188 653.066406 652.824219 C 653.066406 660.03125 652.773438 665.273438 653.066406 666.148438 C 653.359375 667.023438 657.722656 694.097656 657.140625 706.324219 C 656.554688 718.550781 652.816406 725.074219 651.359375 726.53125 C 649.902344 727.984375 635.996094 731.0625 632.503906 730.480469 C 629.007812 729.898438 618.152344 722.445312 613.1875 707.78125 C 608.394531 693.621094 608.820312 682.453125 605.910156 677.503906 C 592.230469 672.261719 560.308594 649.195312 560.308594 649.195312 C 560.308594 649.195312 570.253906 641.046875 577.53125 629.105469 Z M 577.539062 629.105469 " fill-opacity="1" fill-rule="nonzero"/><path fill="#535a63" d="M 633.609375 731.914062 C 633.109375 731.914062 632.65625 731.886719 632.28125 731.824219 C 628.414062 731.179688 617.058594 723.472656 611.898438 708.21875 C 609.375 700.75 608.28125 694.125 607.402344 688.796875 C 606.671875 684.355469 606.082031 680.796875 604.957031 678.59375 C 591.042969 673.035156 560.808594 651.242188 559.515625 650.304688 C 559.171875 650.058594 558.964844 649.664062 558.953125 649.242188 C 558.9375 648.816406 559.125 648.410156 559.449219 648.144531 C 559.550781 648.0625 569.3125 639.984375 576.375 628.398438 C 579.671875 622.992188 582.117188 617.082031 584.082031 612.332031 C 586.902344 605.523438 588.457031 601.769531 591.097656 601.769531 C 592.90625 601.769531 597.171875 604.636719 607.195312 611.675781 C 613.421875 616.046875 621.949219 622.035156 623.855469 622.289062 C 627.25 622.742188 637.019531 628.203125 646.125 633.488281 C 647.121094 634.066406 647.980469 634.5625 648.152344 634.652344 C 649.660156 635.402344 651.496094 639.992188 652.019531 641.382812 C 652.921875 643.765625 654.4375 648.421875 654.4375 652.832031 C 654.4375 655.671875 654.390625 658.230469 654.355469 660.289062 C 654.308594 662.835938 654.265625 665.246094 654.375 665.753906 C 654.84375 667.375 659.085938 694.253906 658.511719 706.394531 C 657.898438 719.25 653.839844 725.988281 652.328125 727.5 C 651.105469 728.726562 645.953125 729.976562 642.984375 730.609375 C 641.402344 730.949219 636.601562 731.925781 633.613281 731.925781 Z M 562.519531 649.09375 C 568.824219 653.582031 594.664062 671.726562 606.40625 676.226562 C 606.695312 676.335938 606.9375 676.542969 607.09375 676.808594 C 608.617188 679.402344 609.269531 683.351562 610.09375 688.351562 C 610.957031 693.578125 612.027344 700.085938 614.484375 707.339844 C 619.523438 722.238281 630.289062 728.722656 632.730469 729.132812 C 636.042969 729.6875 649.042969 726.613281 650.410156 725.546875 C 651.640625 724.296875 655.210938 718.140625 655.777344 706.257812 C 656.332031 694.546875 652.167969 668.179688 651.757812 666.542969 C 651.53125 665.8125 651.546875 664.320312 651.621094 660.230469 C 651.65625 658.1875 651.703125 655.640625 651.703125 652.820312 C 651.703125 646.378906 647.902344 638.128906 646.824219 637.03125 C 646.53125 636.875 645.925781 636.523438 644.75 635.84375 C 640.3125 633.269531 626.804688 625.433594 623.488281 624.992188 C 621.09375 624.671875 615.140625 620.589844 605.625 613.90625 C 600.171875 610.074219 592.730469 604.851562 591.109375 604.503906 C 590.082031 604.972656 588.15625 609.621094 586.601562 613.375 C 584.597656 618.210938 582.109375 624.230469 578.703125 629.816406 C 572.894531 639.347656 565.511719 646.421875 562.519531 649.09375 Z M 651.765625 666.554688 C 651.765625 666.554688 651.769531 666.570312 651.773438 666.578125 C 651.773438 666.570312 651.765625 666.5625 651.765625 666.554688 Z M 654.359375 665.714844 C 654.359375 665.714844 654.363281 665.734375 654.367188 665.742188 C 654.363281 665.734375 654.363281 665.722656 654.359375 665.714844 Z M 646.78125 636.996094 Z M 646.78125 636.996094 " fill-opacity="1" fill-rule="nonzero"/><path fill="#becee2" d="M 667.003906 524.128906 C 662.933594 545.875 657.574219 565.480469 648.886719 579.558594 C 648.886719 579.558594 698.683594 593.34375 699.402344 592.867188 C 700.117188 592.386719 714.3125 620.164062 721.484375 627.816406 C 728.65625 635.46875 739.605469 640.269531 744.386719 638.597656 C 746.90625 637.714844 754.378906 633.753906 753.660156 628.492188 C 752.945312 623.234375 740.234375 582.710938 739.671875 580.199219 C 737.871094 572.195312 731.671875 550.304688 729.28125 545.523438 C 726.890625 540.742188 720.914062 534.523438 714.21875 532.847656 C 707.527344 531.175781 698.921875 531.414062 692.945312 531.414062 C 686.972656 531.414062 667.007812 524.128906 667.007812 524.128906 Z M 667.003906 524.128906 " fill-opacity="1" fill-rule="nonzero"/><path fill="#535a63" d="M 742.117188 640.296875 C 736.085938 640.296875 726.820312 635.507812 720.484375 628.746094 C 715.878906 623.832031 708.765625 611.375 703.574219 602.28125 C 701.605469 598.832031 699.578125 595.28125 698.804688 594.1875 C 697.71875 594.035156 695.570312 593.515625 690.863281 592.304688 C 686.640625 591.21875 680.804688 589.671875 673.519531 587.707031 C 661.117188 584.355469 648.644531 580.90625 648.523438 580.871094 C 648.109375 580.757812 647.773438 580.453125 647.617188 580.054688 C 647.457031 579.65625 647.5 579.207031 647.726562 578.839844 C 655.214844 566.707031 660.914062 549.242188 665.664062 523.878906 C 665.738281 523.488281 665.980469 523.144531 666.332031 522.945312 C 666.679688 522.746094 667.097656 522.710938 667.472656 522.851562 C 667.671875 522.921875 687.277344 530.050781 692.945312 530.050781 C 693.585938 530.050781 694.253906 530.050781 694.945312 530.046875 C 700.945312 530.019531 708.40625 529.992188 714.550781 531.527344 C 721.496094 533.265625 727.832031 539.578125 730.496094 544.914062 C 732.972656 549.863281 739.214844 571.964844 741 579.898438 C 741.171875 580.660156 742.707031 585.71875 744.480469 591.578125 C 749.765625 608.996094 754.546875 624.914062 755.007812 628.308594 C 755.859375 634.554688 747.746094 638.867188 744.835938 639.886719 C 744.039062 640.164062 743.121094 640.296875 742.117188 640.296875 Z M 699.421875 591.492188 C 699.53125 591.492188 699.640625 591.507812 699.746094 591.53125 C 700.625 591.738281 700.851562 592.015625 705.945312 600.925781 C 710.777344 609.394531 718.089844 622.199219 722.476562 626.878906 C 725.714844 630.335938 730.0625 633.464844 734.398438 635.460938 C 738.40625 637.304688 741.96875 637.996094 743.933594 637.308594 C 746.367188 636.453125 752.871094 632.824219 752.308594 628.675781 C 751.835938 625.214844 745.597656 604.652344 741.875 592.367188 C 739.738281 585.335938 738.523438 581.3125 738.339844 580.496094 C 736.566406 572.613281 730.367188 550.753906 728.058594 546.132812 C 725.730469 541.46875 719.972656 535.695312 713.890625 534.171875 C 708.082031 532.722656 700.804688 532.75 694.957031 532.773438 C 694.261719 532.777344 693.589844 532.777344 692.949219 532.777344 C 687.722656 532.777344 672.878906 527.667969 668.050781 525.953125 C 663.496094 549.773438 658.039062 566.640625 650.984375 578.71875 C 669.710938 583.894531 696.613281 591.183594 699.265625 591.503906 C 699.320312 591.5 699.375 591.492188 699.425781 591.492188 Z M 698.648438 591.726562 Z M 698.648438 591.726562 Z M 699.351562 591.511719 Z M 699.351562 591.511719 " fill-opacity="1" fill-rule="nonzero"/><path fill="#ffffff" d="M 204.386719 287.207031 C 204.386719 287.207031 200.027344 320.949219 202.039062 338.824219 C 204.050781 356.699219 205.890625 370.328125 202.515625 374.128906 C 199.136719 377.929688 182.382812 382.230469 175.679688 379.632812 C 168.976562 377.035156 169.425781 346.820312 169.648438 330.535156 C 169.871094 314.246094 177.914062 284.082031 177.914062 284.082031 L 204.386719 287.210938 Z M 204.386719 287.207031 " fill-opacity="1" fill-rule="nonzero"/><path fill="#535a63" d="M 181.070312 381.792969 C 178.957031 381.792969 176.878906 381.558594 175.1875 380.90625 C 171.671875 379.542969 169.617188 373.042969 168.71875 360.453125 C 168.011719 350.546875 168.167969 339.101562 168.28125 330.746094 L 168.28125 330.515625 C 168.378906 323.671875 169.808594 313.710938 172.53125 300.914062 C 174.550781 291.414062 176.574219 283.804688 176.597656 283.730469 C 176.769531 283.074219 177.402344 282.644531 178.074219 282.726562 L 204.546875 285.851562 C 204.910156 285.898438 205.238281 286.082031 205.464844 286.367188 C 205.6875 286.65625 205.789062 287.019531 205.742188 287.382812 C 205.699219 287.71875 201.429688 321.167969 203.398438 338.675781 C 203.542969 339.953125 203.683594 341.210938 203.824219 342.441406 C 205.78125 359.671875 207.078125 371.054688 203.535156 375.039062 C 201.339844 377.503906 195.4375 379.535156 190.644531 380.613281 C 188.671875 381.058594 184.816406 381.796875 181.070312 381.796875 Z M 178.933594 285.574219 C 177.480469 291.222656 171.207031 316.398438 171.011719 330.554688 L 171.011719 330.785156 C 170.894531 339.09375 170.742188 350.46875 171.4375 360.261719 C 172.515625 375.359375 175.109375 377.945312 176.171875 378.359375 C 182.472656 380.800781 198.550781 376.535156 201.492188 373.222656 C 204.226562 370.152344 202.78125 357.453125 201.109375 342.75 C 200.96875 341.515625 200.824219 340.257812 200.679688 338.980469 C 199.835938 331.480469 199.976562 320.453125 201.09375 306.207031 C 201.730469 298.109375 202.519531 291.226562 202.859375 288.40625 L 178.933594 285.578125 Z M 178.933594 285.574219 " fill-opacity="1" fill-rule="nonzero"/><path fill="#ffffff" d="M 217.296875 294.832031 L 148.546875 290.78125 L 148.546875 261.507812 L 217.296875 257.457031 C 221.6875 257.199219 225.390625 260.6875 225.390625 265.085938 L 225.390625 287.199219 C 225.390625 291.597656 221.6875 295.085938 217.296875 294.828125 Z M 217.296875 294.832031 " fill-opacity="1" fill-rule="nonzero"/><path fill="#535a63" d="M 217.765625 296.210938 C 217.582031 296.210938 217.402344 296.203125 217.21875 296.191406 L 148.46875 292.140625 C 147.75 292.097656 147.183594 291.503906 147.183594 290.78125 L 147.183594 261.507812 C 147.183594 260.785156 147.746094 260.1875 148.46875 260.144531 L 217.21875 256.09375 C 219.71875 255.945312 222.105469 256.8125 223.925781 258.53125 C 225.75 260.25 226.753906 262.582031 226.753906 265.085938 L 226.753906 287.199219 C 226.753906 289.703125 225.75 292.03125 223.925781 293.753906 C 222.238281 295.347656 220.066406 296.207031 217.765625 296.207031 Z M 149.910156 289.496094 L 217.378906 293.46875 C 219.121094 293.570312 220.78125 292.96875 222.054688 291.769531 C 223.328125 290.570312 224.023438 288.949219 224.023438 287.203125 L 224.023438 265.089844 C 224.023438 263.34375 223.328125 261.71875 222.054688 260.519531 C 220.78125 259.320312 219.125 258.71875 217.378906 258.820312 L 149.910156 262.792969 Z M 149.910156 289.496094 " fill-opacity="1" fill-rule="nonzero"/><path fill="#ffffff" d="M 142.839844 257.484375 L 144.308594 257.484375 C 144.585938 257.484375 144.859375 257.511719 145.132812 257.566406 C 145.40625 257.621094 145.671875 257.699219 145.929688 257.808594 C 146.1875 257.914062 146.429688 258.042969 146.664062 258.199219 C 146.894531 258.355469 147.109375 258.53125 147.304688 258.726562 C 147.503906 258.921875 147.679688 259.136719 147.832031 259.371094 C 147.988281 259.601562 148.117188 259.84375 148.226562 260.101562 C 148.332031 260.359375 148.410156 260.625 148.464844 260.898438 C 148.519531 261.171875 148.546875 261.449219 148.546875 261.726562 L 148.546875 290.5625 C 148.546875 290.84375 148.519531 291.117188 148.464844 291.390625 C 148.410156 291.664062 148.332031 291.929688 148.226562 292.1875 C 148.117188 292.445312 147.988281 292.6875 147.832031 292.921875 C 147.679688 293.152344 147.503906 293.367188 147.304688 293.5625 C 147.109375 293.761719 146.894531 293.9375 146.664062 294.089844 C 146.429688 294.246094 146.1875 294.375 145.929688 294.484375 C 145.671875 294.589844 145.40625 294.671875 145.132812 294.726562 C 144.859375 294.777344 144.585938 294.804688 144.308594 294.804688 L 142.839844 294.804688 C 142.5625 294.804688 142.289062 294.777344 142.015625 294.726562 C 141.742188 294.671875 141.476562 294.589844 141.21875 294.484375 C 140.960938 294.375 140.71875 294.246094 140.484375 294.089844 C 140.253906 293.9375 140.039062 293.761719 139.84375 293.5625 C 139.644531 293.367188 139.46875 293.152344 139.316406 292.921875 C 139.160156 292.6875 139.03125 292.445312 138.925781 292.1875 C 138.816406 291.929688 138.738281 291.664062 138.683594 291.390625 C 138.628906 291.117188 138.601562 290.84375 138.601562 290.5625 L 138.601562 261.726562 C 138.601562 261.449219 138.628906 261.171875 138.683594 260.898438 C 138.738281 260.625 138.816406 260.359375 138.925781 260.101562 C 139.03125 259.84375 139.160156 259.601562 139.316406 259.371094 C 139.46875 259.136719 139.644531 258.921875 139.84375 258.726562 C 140.039062 258.53125 140.253906 258.355469 140.484375 258.199219 C 140.71875 258.042969 140.960938 257.914062 141.21875 257.808594 C 141.476562 257.699219 141.742188 257.621094 142.015625 257.566406 C 142.289062 257.511719 142.5625 257.484375 142.839844 257.484375 Z M 142.839844 257.484375 " fill-opacity="1" fill-rule="nonzero"/><path fill="#535a63" d="M 144.304688 296.171875 L 142.839844 296.171875 C 139.75 296.171875 137.238281 293.65625 137.238281 290.5625 L 137.238281 261.730469 C 137.238281 258.636719 139.753906 256.121094 142.839844 256.121094 L 144.304688 256.121094 C 147.394531 256.121094 149.910156 258.636719 149.910156 261.730469 L 149.910156 290.5625 C 149.910156 293.65625 147.394531 296.171875 144.304688 296.171875 Z M 142.839844 258.847656 C 141.257812 258.847656 139.964844 260.140625 139.964844 261.726562 L 139.964844 290.5625 C 139.964844 292.148438 141.257812 293.4375 142.839844 293.4375 L 144.304688 293.4375 C 145.890625 293.4375 147.179688 292.148438 147.179688 290.5625 L 147.179688 261.726562 C 147.179688 260.140625 145.890625 258.847656 144.304688 258.847656 Z M 142.839844 258.847656 " fill-opacity="1" fill-rule="nonzero"/><path fill="#ffffff" d="M 109.5625 276.144531 C 117.371094 283.324219 126.59375 288.5625 138.601562 289.996094 L 138.601562 262.289062 C 126.59375 263.722656 117.371094 268.960938 109.5625 276.140625 Z M 109.5625 276.144531 " fill-opacity="1" fill-rule="nonzero"/><path fill="#535a63" d="M 138.601562 291.363281 C 138.546875 291.363281 138.496094 291.363281 138.441406 291.351562 C 127.34375 290.027344 117.59375 285.378906 108.640625 277.148438 C 108.359375 276.890625 108.199219 276.527344 108.199219 276.144531 C 108.199219 275.761719 108.359375 275.398438 108.640625 275.140625 C 117.59375 266.90625 127.34375 262.261719 138.441406 260.933594 C 138.828125 260.886719 139.214844 261.011719 139.507812 261.269531 C 139.800781 261.527344 139.964844 261.902344 139.964844 262.289062 L 139.964844 290 C 139.964844 290.390625 139.800781 290.761719 139.507812 291.019531 C 139.257812 291.242188 138.933594 291.363281 138.601562 291.363281 Z M 111.601562 276.148438 C 119.394531 282.984375 127.804688 287.019531 137.238281 288.441406 L 137.238281 263.855469 C 127.804688 265.273438 119.394531 269.308594 111.601562 276.148438 Z M 111.601562 276.148438 " fill-opacity="1" fill-rule="nonzero"/><path fill="#becee2" d="M 663.625 417.695312 C 663.625 417.695312 673.332031 416.164062 673.992188 417.921875 C 674.648438 419.675781 676.84375 430.636719 676.84375 430.636719 L 670.703125 435.683594 C 670.703125 435.683594 678.597656 439.195312 680.136719 439.195312 C 681.671875 439.195312 701.855469 427.128906 703.167969 425.152344 C 704.484375 423.175781 702.949219 394.867188 701.632812 391.359375 C 700.316406 387.847656 673.386719 376.863281 667.683594 372.914062 C 661.980469 368.964844 646.792969 356.6875 646.792969 356.6875 C 646.792969 356.6875 641.109375 361.324219 634.070312 371.335938 C 627.972656 380.007812 626.8125 389.644531 626.8125 389.644531 C 626.8125 389.644531 643.285156 400.792969 644.160156 402.984375 C 645.039062 405.179688 658.183594 432.847656 658.183594 432.847656 L 666.566406 427.121094 L 663.628906 417.6875 Z M 663.625 417.695312 " fill-opacity="1" fill-rule="nonzero"/><path fill="#535a63" d="M 680.136719 440.558594 C 678.488281 440.558594 672.601562 438.023438 670.148438 436.933594 C 669.71875 436.742188 669.414062 436.335938 669.351562 435.867188 C 669.289062 435.398438 669.472656 434.933594 669.835938 434.628906 L 675.347656 430.101562 C 674.515625 425.992188 673.292969 420.25 672.796875 418.648438 C 671.878906 418.316406 668.742188 418.398438 665.40625 418.820312 L 667.867188 426.71875 C 668.042969 427.292969 667.828125 427.914062 667.332031 428.253906 L 658.945312 433.976562 C 658.617188 434.199219 658.203125 434.269531 657.824219 434.167969 C 657.4375 434.0625 657.117188 433.796875 656.945312 433.4375 C 656.410156 432.308594 643.878906 405.925781 642.902344 403.523438 C 642.097656 402.144531 633.714844 395.972656 626.046875 390.78125 C 625.625 390.492188 625.394531 389.992188 625.457031 389.484375 C 625.503906 389.078125 626.726562 379.40625 632.957031 370.554688 C 640.019531 360.503906 645.691406 355.828125 645.929688 355.632812 C 646.425781 355.222656 647.144531 355.222656 647.648438 355.628906 C 647.796875 355.753906 662.863281 367.917969 668.460938 371.796875 C 670.621094 373.292969 676.179688 375.945312 682.066406 378.757812 C 695.5625 385.207031 702.015625 388.503906 702.910156 390.882812 C 703.777344 393.203125 704.476562 403.214844 704.75 408.769531 C 704.949219 412.855469 705.050781 416.679688 705.03125 419.546875 C 705 424.460938 704.636719 425.40625 704.304688 425.914062 C 703.328125 427.375 696.453125 431.660156 692.4375 434.085938 C 689.664062 435.761719 686.972656 437.324219 684.851562 438.480469 C 681.035156 440.5625 680.535156 440.5625 680.136719 440.5625 Z M 679.964844 437.847656 Z M 673.292969 435.320312 C 676.238281 436.574219 679.195312 437.707031 680.050781 437.824219 C 681.046875 437.5 685.496094 435.097656 691.265625 431.605469 C 698.195312 427.40625 701.429688 425.054688 702 424.429688 C 702.921875 421.601562 701.597656 395.152344 700.355469 391.839844 C 700.234375 391.609375 699.378906 390.558594 693.835938 387.609375 C 690.105469 385.621094 685.421875 383.382812 680.886719 381.222656 C 674.640625 378.238281 669.246094 375.660156 666.90625 374.039062 C 661.960938 370.613281 650.199219 361.1875 646.828125 358.476562 C 645.027344 360.125 640.476562 364.59375 635.183594 372.125 C 630.363281 378.980469 628.71875 386.5625 628.292969 389.007812 C 629.660156 389.945312 632.792969 392.101562 635.953125 394.390625 C 644.730469 400.746094 645.179688 401.875 645.421875 402.480469 C 646.074219 404.101562 654.046875 420.964844 658.726562 430.824219 L 664.957031 426.566406 L 662.320312 418.101562 C 662.203125 417.722656 662.253906 417.3125 662.464844 416.972656 C 662.675781 416.636719 663.019531 416.410156 663.410156 416.347656 C 663.511719 416.328125 665.925781 415.953125 668.46875 415.785156 C 672.808594 415.503906 674.714844 415.96875 675.265625 417.441406 C 675.941406 419.246094 677.953125 429.234375 678.179688 430.367188 C 678.277344 430.863281 678.097656 431.371094 677.707031 431.691406 L 673.289062 435.320312 Z M 701.980469 424.496094 Z M 642.894531 403.496094 C 642.894531 403.496094 642.894531 403.503906 642.898438 403.503906 C 642.898438 403.503906 642.898438 403.5 642.894531 403.496094 Z M 642.894531 403.496094 " fill-opacity="1" fill-rule="nonzero"/><path fill="#535a63" d="M 688.710938 436.078125 C 688.078125 436.078125 687.515625 435.640625 687.375 434.996094 C 687.339844 434.832031 683.839844 418.40625 683.070312 415.398438 C 682.496094 413.164062 678.617188 408.742188 677.171875 407.222656 C 676.652344 406.675781 676.671875 405.816406 677.21875 405.292969 C 677.765625 404.773438 678.625 404.792969 679.148438 405.339844 C 679.730469 405.953125 684.859375 411.398438 685.714844 414.71875 C 686.5 417.785156 689.902344 433.753906 690.046875 434.429688 C 690.203125 435.167969 689.730469 435.894531 688.996094 436.046875 C 688.898438 436.066406 688.804688 436.078125 688.710938 436.078125 Z M 688.710938 436.078125 " fill-opacity="1" fill-rule="nonzero"/><path fill="#535a63" d="M 696.054688 430.375 C 695.34375 430.375 694.746094 429.824219 694.695312 429.105469 C 694.34375 424.234375 693.289062 411.0625 692.667969 408.640625 C 692.082031 406.355469 688.84375 401.96875 687.644531 400.46875 C 687.171875 399.878906 687.269531 399.023438 687.859375 398.550781 C 688.445312 398.078125 689.304688 398.175781 689.777344 398.765625 C 690.253906 399.363281 694.476562 404.699219 695.3125 407.960938 C 696.125 411.117188 697.367188 428.183594 697.417969 428.910156 C 697.472656 429.660156 696.910156 430.316406 696.15625 430.371094 C 696.125 430.371094 696.085938 430.375 696.054688 430.375 Z M 696.054688 430.375 " fill-opacity="1" fill-rule="nonzero"/><path fill="#535a63" d="M 149.242188 715.289062 C 148.558594 715.289062 147.96875 714.777344 147.890625 714.082031 L 68.523438 16.582031 C 68.441406 15.835938 68.976562 15.160156 69.726562 15.074219 C 70.476562 14.988281 71.148438 15.527344 71.234375 16.273438 L 150.601562 713.769531 C 150.683594 714.515625 150.148438 715.195312 149.398438 715.277344 C 149.347656 715.285156 149.296875 715.285156 149.242188 715.285156 Z M 149.242188 715.289062 " fill-opacity="1" fill-rule="nonzero"/><path fill="#ffffff" d="M 84.308594 395.242188 L 131.828125 388.257812 L 154.832031 544.839844 L 107.3125 551.828125 Z M 84.308594 395.242188 " fill-opacity="1" fill-rule="nonzero"/><path fill="#535a63" d="M 107.296875 553.195312 C 107.003906 553.195312 106.71875 553.101562 106.484375 552.925781 C 106.195312 552.710938 106 552.386719 105.949219 552.027344 L 82.949219 395.441406 C 82.898438 395.085938 82.988281 394.71875 83.203125 394.429688 C 83.421875 394.140625 83.742188 393.945312 84.101562 393.894531 L 131.625 386.910156 C 132.371094 386.800781 133.0625 387.316406 133.171875 388.0625 L 156.171875 544.648438 C 156.28125 545.390625 155.765625 546.085938 155.019531 546.195312 L 107.5 553.179688 C 107.433594 553.191406 107.367188 553.191406 107.300781 553.191406 Z M 85.847656 396.398438 L 108.449219 550.285156 L 153.269531 543.695312 L 130.667969 389.8125 Z M 85.847656 396.398438 " fill-opacity="1" fill-rule="nonzero"/><path fill="#ffffff" d="M 103.132812 316.707031 C 77.691406 315.964844 55.414062 320.46875 32.453125 330.617188 L 25.863281 250.320312 C 47.011719 240.082031 67.949219 237.53125 94.945312 237.839844 Z M 103.132812 316.707031 " fill-opacity="1" fill-rule="nonzero"/><path fill="#535a63" d="M 32.453125 331.976562 C 32.210938 331.976562 31.96875 331.914062 31.753906 331.789062 C 31.375 331.5625 31.128906 331.164062 31.089844 330.726562 L 24.5 250.429688 C 24.453125 249.867188 24.761719 249.335938 25.269531 249.089844 C 35.5625 244.109375 46.261719 240.734375 57.984375 238.777344 C 68.414062 237.035156 80.160156 236.308594 94.957031 236.472656 C 95.652344 236.480469 96.226562 237.007812 96.300781 237.695312 L 104.488281 316.5625 C 104.53125 316.953125 104.398438 317.34375 104.132812 317.632812 C 103.863281 317.921875 103.488281 318.078125 103.09375 318.066406 C 78.214844 317.339844 55.945312 321.726562 33.003906 331.859375 C 32.828125 331.941406 32.640625 331.976562 32.453125 331.976562 Z M 27.296875 251.144531 L 33.65625 328.597656 C 55.886719 319.042969 77.574219 314.800781 101.613281 315.300781 L 93.710938 239.191406 C 69.363281 238.984375 48.640625 241.019531 27.296875 251.144531 Z M 27.296875 251.144531 " fill-opacity="1" fill-rule="nonzero"/><path fill="#9ca9ba" d="M 161.121094 701.597656 C 122.78125 709.105469 84.566406 710.464844 46.488281 705.523438 L 35.035156 608.871094 C 74.648438 611.808594 113.230469 611.632812 149.667969 604.945312 Z M 161.121094 701.597656 " fill-opacity="1" fill-rule="nonzero"/><path fill="#535a63" d="M 91.457031 709.785156 C 76.324219 709.785156 61.253906 708.816406 46.3125 706.875 C 45.691406 706.796875 45.207031 706.304688 45.132812 705.683594 L 33.679688 609.03125 C 33.632812 608.625 33.769531 608.21875 34.050781 607.925781 C 34.332031 607.628906 34.730469 607.476562 35.136719 607.507812 C 80.320312 610.859375 116.636719 609.617188 149.421875 603.601562 C 149.792969 603.53125 150.175781 603.625 150.480469 603.84375 C 150.78125 604.066406 150.980469 604.40625 151.023438 604.78125 L 162.476562 701.433594 C 162.5625 702.144531 162.085938 702.796875 161.386719 702.933594 C 138.09375 707.496094 114.703125 709.78125 91.460938 709.78125 Z M 47.71875 704.304688 C 84.582031 708.96875 122.21875 707.691406 159.617188 700.5 L 148.484375 606.546875 C 116.238281 612.3125 80.589844 613.523438 36.585938 610.351562 Z M 47.71875 704.304688 " fill-opacity="1" fill-rule="nonzero"/><path fill="#9ca9ba" d="M 44.578125 504.222656 C 38.214844 504 32.871094 499.066406 32.292969 492.558594 L 2.148438 152.964844 C 1.550781 146.195312 6.339844 140.132812 13.066406 139.164062 L 118.683594 123.90625 C 125.679688 122.898438 132.167969 127.75 133.179688 134.746094 C 134.1875 141.742188 129.335938 148.234375 122.34375 149.246094 L 28.71875 162.769531 L 57.785156 490.300781 C 58.410156 497.34375 53.210938 503.558594 46.171875 504.183594 C 45.632812 504.230469 45.101562 504.246094 44.578125 504.226562 Z M 44.578125 504.222656 " fill-opacity="1" fill-rule="nonzero"/><path fill="#535a63" d="M 45.023438 505.59375 C 44.859375 505.59375 44.695312 505.59375 44.527344 505.585938 C 37.410156 505.335938 31.5625 499.789062 30.933594 492.679688 L 0.792969 153.082031 C 0.125 145.59375 5.433594 138.882812 12.875 137.8125 L 118.492188 122.554688 C 126.222656 121.4375 133.414062 126.820312 134.53125 134.550781 C 135.070312 138.296875 134.121094 142.027344 131.855469 145.058594 C 129.589844 148.089844 126.28125 150.058594 122.539062 150.597656 L 30.1875 163.9375 L 59.144531 490.175781 C 59.476562 493.945312 58.324219 497.621094 55.898438 500.523438 C 53.46875 503.421875 50.058594 505.207031 46.289062 505.542969 C 45.871094 505.582031 45.445312 505.597656 45.023438 505.597656 Z M 120.519531 125.136719 C 119.976562 125.136719 119.433594 125.171875 118.878906 125.253906 L 13.265625 140.507812 C 7.257812 141.375 2.972656 146.792969 3.511719 152.839844 L 33.652344 492.433594 C 34.164062 498.175781 38.878906 502.652344 44.625 502.851562 C 45.101562 502.871094 45.578125 502.855469 46.050781 502.816406 C 49.09375 502.542969 51.847656 501.105469 53.808594 498.765625 C 55.765625 496.421875 56.699219 493.457031 56.429688 490.414062 L 27.359375 162.886719 C 27.296875 162.164062 27.804688 161.519531 28.523438 161.414062 L 122.148438 147.890625 C 125.171875 147.453125 127.84375 145.863281 129.671875 143.417969 C 131.5 140.972656 132.269531 137.957031 131.832031 134.933594 C 131.011719 129.246094 126.109375 125.132812 120.523438 125.132812 Z M 120.519531 125.136719 " fill-opacity="1" fill-rule="nonzero"/><path fill="#535a63" d="M 507.199219 361.914062 C 506.785156 361.914062 506.375 361.730469 506.109375 361.371094 C 494.09375 345.460938 493.875 320.230469 493.867188 319.164062 C 493.867188 318.410156 494.472656 317.796875 495.226562 317.796875 L 495.234375 317.796875 C 495.984375 317.796875 496.59375 318.402344 496.597656 319.15625 C 496.597656 319.21875 496.636719 325.589844 498.113281 333.761719 C 499.460938 341.25 502.320312 351.828125 508.285156 359.726562 C 508.742188 360.324219 508.621094 361.183594 508.019531 361.636719 C 507.773438 361.820312 507.484375 361.910156 507.199219 361.910156 Z M 507.199219 361.914062 " fill-opacity="1" fill-rule="nonzero"/><path fill="#535a63" d="M 109.5625 277.507812 L 65.335938 277.507812 C 64.582031 277.507812 63.96875 276.898438 63.96875 276.144531 C 63.96875 275.390625 64.582031 274.777344 65.335938 274.777344 L 109.5625 274.777344 C 110.316406 274.777344 110.925781 275.390625 110.925781 276.144531 C 110.925781 276.898438 110.316406 277.507812 109.5625 277.507812 Z M 109.5625 277.507812 " fill-opacity="1" fill-rule="nonzero"/><path fill="#becee2" d="M 162.726562 326.308594 C 162.726562 326.308594 189.554688 327.183594 189.554688 329.414062 C 189.554688 331.648438 190.566406 357.109375 189 359.121094 C 187.4375 361.132812 164.753906 364.039062 163.191406 362.699219 C 161.625 361.359375 158.929688 354.675781 158.484375 345.742188 C 158.035156 336.8125 162.726562 326.308594 162.726562 326.308594 Z M 162.726562 326.308594 " fill-opacity="1" fill-rule="nonzero"/><path fill="#535a63" d="M 165.835938 364.410156 C 163.085938 364.410156 162.605469 363.996094 162.300781 363.738281 C 160.148438 361.890625 157.550781 354.515625 157.117188 345.8125 C 156.660156 336.660156 161.28125 326.195312 161.480469 325.753906 C 161.707031 325.246094 162.214844 324.921875 162.769531 324.945312 C 162.839844 324.945312 169.582031 325.167969 176.242188 325.660156 C 180.171875 325.953125 183.3125 326.28125 185.574219 326.640625 C 189.039062 327.183594 190.917969 327.789062 190.917969 329.414062 C 190.917969 329.757812 190.945312 330.746094 190.980469 332.105469 C 191.566406 353.574219 191.066406 358.679688 190.074219 359.960938 C 189.726562 360.40625 189.082031 361.238281 183.050781 362.421875 C 179.878906 363.046875 175.785156 363.640625 172.105469 364.011719 C 169.234375 364.300781 167.238281 364.410156 165.832031 364.410156 Z M 163.976562 361.566406 C 164.929688 361.796875 169.246094 361.714844 176.070312 360.796875 C 183.378906 359.808594 187.121094 358.75 187.914062 358.261719 C 188.375 357.050781 188.78125 351.445312 188.257812 332.183594 C 188.230469 331.234375 188.210938 330.5 188.199219 330.003906 C 186.140625 329.195312 176.871094 328.171875 163.621094 327.707031 C 162.5625 330.328125 159.488281 338.601562 159.84375 345.675781 C 160.285156 354.460938 162.882812 360.40625 163.976562 361.566406 Z M 164.078125 361.664062 Z M 163.878906 361.539062 L 187.867188 358.367188 Z M 164.007812 361.375 Z M 164.007812 361.375 " fill-opacity="1" fill-rule="nonzero"/><path fill="#becee2" d="M 162.726562 326.308594 C 162.726562 326.308594 169.652344 326.085938 171.214844 324.96875 C 172.777344 323.851562 175.230469 307.539062 174.226562 305.304688 C 173.226562 303.070312 165.199219 302.71875 163.636719 302.941406 C 162.074219 303.167969 159.378906 323.402344 162.726562 326.308594 Z M 162.726562 326.308594 " fill-opacity="1" fill-rule="nonzero"/><path fill="#535a63" d="M 162.726562 327.671875 C 162.398438 327.671875 162.082031 327.554688 161.832031 327.339844 C 159.445312 325.273438 159.714844 318.546875 159.804688 316.335938 C 159.980469 311.9375 160.664062 306.949219 161.472656 304.210938 C 161.816406 303.03125 162.285156 301.761719 163.441406 301.59375 C 164.285156 301.476562 173.910156 301.265625 175.46875 304.746094 C 176.300781 306.601562 175.4375 313.066406 175.03125 315.761719 C 173.640625 324.910156 172.410156 325.789062 172.007812 326.078125 C 170.242188 327.339844 164.492188 327.621094 162.769531 327.671875 C 162.757812 327.671875 162.738281 327.671875 162.726562 327.671875 Z M 164.328125 304.25 C 163.800781 305.523438 162.96875 309.722656 162.628906 314.667969 C 162.199219 320.90625 162.820312 323.886719 163.363281 324.917969 C 166.523438 324.773438 169.550781 324.339844 170.335938 323.914062 C 170.75 323.234375 171.625 320.148438 172.382812 315.023438 C 173.167969 309.71875 173.203125 306.46875 172.976562 305.851562 C 172.425781 304.882812 166.871094 304.09375 164.328125 304.25 Z M 164.328125 304.25 " fill-opacity="1" fill-rule="nonzero"/><path fill="#535a63" d="M 189.78125 352.246094 L 167.792969 352.246094 C 167.039062 352.246094 166.429688 351.632812 166.429688 350.882812 C 166.429688 350.128906 167.039062 349.515625 167.792969 349.515625 L 189.78125 349.515625 C 190.535156 349.515625 191.144531 350.128906 191.144531 350.882812 C 191.144531 351.632812 190.535156 352.246094 189.78125 352.246094 Z M 189.78125 352.246094 " fill-opacity="1" fill-rule="nonzero"/><path fill="#535a63" d="M 189.554688 340.421875 L 167.792969 340.421875 C 167.039062 340.421875 166.429688 339.808594 166.429688 339.054688 C 166.429688 338.304688 167.039062 337.691406 167.792969 337.691406 L 189.554688 337.691406 C 190.308594 337.691406 190.917969 338.304688 190.917969 339.054688 C 190.917969 339.808594 190.308594 340.421875 189.554688 340.421875 Z M 189.554688 340.421875 " fill-opacity="1" fill-rule="nonzero"/><path fill="#ffffff" d="M 481.230469 228.4375 C 481.617188 229.628906 481.96875 230.832031 482.289062 232.042969 C 482.609375 233.257812 482.898438 234.476562 483.15625 235.703125 C 483.414062 236.933594 483.640625 238.167969 483.835938 239.40625 C 484.03125 240.648438 484.191406 241.890625 484.320312 243.140625 C 484.453125 244.390625 484.550781 245.644531 484.617188 246.902344 C 484.683594 248.15625 484.714844 249.414062 484.71875 250.675781 C 484.71875 251.933594 484.6875 253.195312 484.625 254.453125 C 484.5625 255.714844 484.464844 256.972656 484.339844 258.230469 C 484.210938 259.488281 484.050781 260.746094 483.859375 261.996094 C 483.667969 263.25 483.445312 264.496094 483.1875 265.738281 C 482.933594 266.984375 482.644531 268.21875 482.328125 269.453125 C 482.007812 270.683594 481.660156 271.910156 481.28125 273.125 C 480.898438 274.34375 480.488281 275.550781 480.046875 276.75 C 479.605469 277.949219 479.132812 279.140625 478.628906 280.320312 C 478.128906 281.5 477.59375 282.667969 477.035156 283.824219 C 476.472656 284.980469 475.882812 286.121094 475.265625 287.25 C 474.644531 288.382812 473.996094 289.496094 473.324219 290.597656 C 472.648438 291.699219 471.945312 292.785156 471.214844 293.855469 C 470.484375 294.925781 469.730469 295.976562 468.945312 297.011719 C 468.164062 298.050781 467.355469 299.066406 466.523438 300.066406 C 465.6875 301.066406 464.832031 302.046875 463.949219 303.007812 C 463.066406 303.964844 462.160156 304.90625 461.230469 305.824219 C 460.300781 306.746094 459.347656 307.640625 458.375 308.519531 C 457.402344 309.394531 456.40625 310.246094 455.390625 311.078125 C 454.375 311.90625 453.339844 312.714844 452.28125 313.496094 C 451.226562 314.28125 450.152344 315.039062 449.058594 315.769531 C 447.964844 316.503906 446.855469 317.210938 445.726562 317.894531 C 444.601562 318.578125 443.457031 319.234375 442.296875 319.863281 C 441.136719 320.492188 439.960938 321.09375 438.773438 321.667969 C 437.585938 322.242188 436.382812 322.789062 435.167969 323.308594 C 433.953125 323.828125 432.726562 324.320312 431.488281 324.78125 C 430.25 325.246094 429.003906 325.675781 427.742188 326.082031 C 426.484375 326.484375 425.21875 326.859375 423.941406 327.207031 C 422.667969 327.550781 421.382812 327.867188 420.09375 328.152344 C 418.804688 328.4375 417.507812 328.691406 416.207031 328.917969 C 414.90625 329.140625 413.601562 329.335938 412.289062 329.5 C 410.980469 329.664062 409.671875 329.796875 408.355469 329.898438 C 407.042969 330 405.726562 330.070312 404.410156 330.109375 C 403.097656 330.152344 401.78125 330.160156 400.46875 330.136719 C 399.152344 330.117188 397.839844 330.0625 396.53125 329.980469 C 395.222656 329.898438 393.917969 329.78125 392.617188 329.636719 C 391.3125 329.492188 390.019531 329.316406 388.726562 329.109375 C 387.4375 328.90625 386.152344 328.667969 384.878906 328.402344 C 383.601562 328.132812 382.332031 327.835938 381.074219 327.507812 C 379.8125 327.183594 378.566406 326.824219 377.324219 326.4375 C 376.085938 326.050781 374.859375 325.636719 373.644531 325.191406 C 372.425781 324.746094 371.222656 324.273438 370.035156 323.769531 C 368.84375 323.269531 367.667969 322.738281 366.507812 322.179688 C 365.347656 321.621094 364.203125 321.035156 363.074219 320.421875 C 361.945312 319.808594 360.832031 319.171875 359.738281 318.503906 C 358.644531 317.835938 357.566406 317.144531 356.507812 316.425781 C 355.453125 315.707031 354.414062 314.964844 353.398438 314.199219 C 352.378906 313.429688 351.382812 312.636719 350.40625 311.820312 C 349.429688 311.003906 348.476562 310.164062 347.546875 309.304688 C 346.613281 308.441406 345.707031 307.558594 344.824219 306.652344 C 343.9375 305.742188 343.078125 304.816406 342.242188 303.867188 C 341.40625 302.921875 340.597656 301.953125 339.8125 300.964844 C 339.027344 299.976562 338.269531 298.96875 337.535156 297.945312 C 336.804688 296.917969 336.097656 295.878906 335.421875 294.816406 C 334.746094 293.757812 334.09375 292.679688 333.472656 291.589844 C 332.851562 290.496094 332.261719 289.390625 331.695312 288.269531 C 331.132812 287.148438 330.597656 286.011719 330.09375 284.863281 C 329.589844 283.714844 329.113281 282.554688 328.667969 281.382812 C 328.226562 280.210938 327.8125 279.027344 327.429688 277.832031 C 327.046875 276.640625 326.691406 275.4375 326.371094 274.222656 C 326.050781 273.011719 325.761719 271.792969 325.503906 270.5625 C 325.246094 269.335938 325.019531 268.101562 324.824219 266.863281 C 324.632812 265.621094 324.46875 264.375 324.339844 263.125 C 324.207031 261.878906 324.109375 260.625 324.042969 259.367188 C 323.976562 258.113281 323.945312 256.851562 323.941406 255.59375 C 323.941406 254.332031 323.972656 253.074219 324.035156 251.8125 C 324.097656 250.554688 324.195312 249.292969 324.324219 248.035156 C 324.449219 246.777344 324.609375 245.523438 324.800781 244.273438 C 324.992188 243.019531 325.214844 241.773438 325.472656 240.527344 C 325.726562 239.285156 326.015625 238.046875 326.332031 236.816406 C 326.652344 235.585938 327 234.359375 327.382812 233.144531 C 327.761719 231.925781 328.171875 230.71875 328.613281 229.515625 C 329.058594 228.316406 329.527344 227.128906 330.03125 225.949219 C 330.535156 224.769531 331.066406 223.601562 331.625 222.445312 C 332.1875 221.289062 332.777344 220.148438 333.398438 219.015625 C 334.015625 217.886719 334.664062 216.769531 335.339844 215.671875 C 336.011719 214.570312 336.714844 213.484375 337.445312 212.414062 C 338.175781 211.34375 338.929688 210.289062 339.714844 209.253906 C 340.496094 208.21875 341.304688 207.203125 342.136719 206.203125 C 342.972656 205.203125 343.828125 204.222656 344.710938 203.261719 C 345.59375 202.300781 346.5 201.363281 347.429688 200.441406 C 348.359375 199.523438 349.3125 198.625 350.285156 197.75 C 351.257812 196.875 352.253906 196.019531 353.269531 195.191406 C 354.285156 194.359375 355.320312 193.554688 356.378906 192.773438 C 357.433594 191.988281 358.507812 191.230469 359.601562 190.496094 C 360.695312 189.765625 361.804688 189.054688 362.933594 188.375 C 364.0625 187.691406 365.203125 187.035156 366.363281 186.40625 C 367.523438 185.777344 368.699219 185.175781 369.886719 184.601562 C 371.074219 184.023438 372.277344 183.476562 373.492188 182.957031 C 374.707031 182.441406 375.933594 181.949219 377.171875 181.488281 C 378.410156 181.023438 379.660156 180.589844 380.917969 180.1875 C 382.175781 179.78125 383.441406 179.40625 384.71875 179.0625 C 385.996094 178.71875 387.277344 178.402344 388.566406 178.117188 C 389.859375 177.832031 391.152344 177.578125 392.453125 177.351562 C 393.753906 177.128906 395.058594 176.933594 396.371094 176.769531 C 397.679688 176.605469 398.992188 176.472656 400.304688 176.371094 C 401.617188 176.269531 402.933594 176.199219 404.25 176.15625 C 405.5625 176.117188 406.878906 176.109375 408.191406 176.128906 C 409.507812 176.152344 410.820312 176.203125 412.128906 176.289062 C 413.4375 176.371094 414.742188 176.484375 416.042969 176.628906 C 417.347656 176.777344 418.640625 176.949219 419.933594 177.15625 C 421.222656 177.363281 422.507812 177.601562 423.785156 177.867188 C 425.058594 178.132812 426.328125 178.429688 427.585938 178.757812 C 428.847656 179.085938 430.09375 179.441406 431.335938 179.828125 C 432.574219 180.214844 433.800781 180.632812 435.015625 181.078125 C 436.234375 181.519531 437.4375 181.996094 438.625 182.496094 C 439.816406 183 440.992188 183.53125 442.152344 184.089844 C 443.3125 184.644531 444.457031 185.230469 445.585938 185.84375 C 446.714844 186.457031 447.828125 187.097656 448.921875 187.765625 C 450.015625 188.429688 451.09375 189.125 452.152344 189.839844 C 453.207031 190.558594 454.246094 191.300781 455.265625 192.070312 C 456.28125 192.839844 457.277344 193.632812 458.253906 194.445312 C 459.230469 195.261719 460.183594 196.101562 461.113281 196.964844 C 462.046875 197.828125 462.953125 198.710938 463.839844 199.617188 C 464.722656 200.523438 465.582031 201.453125 466.417969 202.398438 C 467.253906 203.347656 468.0625 204.316406 468.847656 205.304688 C 469.632812 206.292969 470.390625 207.296875 471.125 208.324219 C 471.855469 209.347656 472.5625 210.390625 473.238281 211.449219 C 473.914062 212.511719 474.566406 213.585938 475.1875 214.679688 C 475.808594 215.769531 476.402344 216.878906 476.964844 218 C 477.527344 219.121094 478.0625 220.257812 478.566406 221.40625 C 479.070312 222.554688 479.546875 223.714844 479.992188 224.886719 C 480.433594 226.058594 480.847656 227.242188 481.230469 228.4375 Z M 481.230469 228.4375 " fill-opacity="1" fill-rule="nonzero"/><path fill="#535a63" d="M 401.765625 331.570312 C 389.382812 331.570312 377.164062 328.835938 365.910156 323.421875 C 346.621094 314.144531 332.492188 298.105469 326.125 278.261719 C 319.753906 258.417969 321.914062 237.148438 332.199219 218.375 C 342.46875 199.625 359.625 185.605469 380.5 178.902344 C 401.375 172.199219 423.480469 173.609375 442.742188 182.875 C 462.027344 192.152344 476.160156 208.191406 482.527344 228.035156 C 488.894531 247.882812 486.738281 269.152344 476.453125 287.925781 C 466.183594 306.675781 449.027344 320.695312 428.152344 327.398438 C 419.472656 330.183594 410.574219 331.570312 401.765625 331.570312 Z M 406.882812 177.460938 C 398.351562 177.460938 389.738281 178.800781 381.332031 181.503906 C 361.125 187.992188 344.523438 201.550781 334.589844 219.6875 C 324.667969 237.796875 322.585938 258.304688 328.722656 277.429688 C 334.863281 296.554688 348.488281 312.015625 367.09375 320.964844 C 385.722656 329.925781 407.113281 331.289062 427.320312 324.800781 C 447.527344 318.3125 464.128906 304.75 474.058594 286.613281 C 483.980469 268.503906 486.066406 248 479.925781 228.871094 C 473.789062 209.746094 460.164062 194.285156 441.558594 185.335938 C 430.679688 180.105469 418.859375 177.460938 406.882812 177.460938 Z M 406.882812 177.460938 " fill-opacity="1" fill-rule="nonzero"/><path fill="#7a8593" d="M 327.421875 277.847656 C 340.21875 317.722656 384.34375 339.289062 426.425781 326.5 C 447.320312 306.023438 454.40625 275.660156 448.367188 240.714844 C 444.0625 215.839844 431.160156 191.144531 419.515625 177.097656 C 407.074219 175.164062 393.882812 176.039062 380.914062 180.203125 C 338.441406 193.84375 314.492188 237.558594 327.421875 277.84375 Z M 327.421875 277.847656 " fill-opacity="1" fill-rule="nonzero"/><path fill="#535a63" d="M 401.765625 331.5625 C 389.160156 331.5625 376.730469 328.734375 365.339844 323.148438 C 346.347656 313.832031 332.421875 297.890625 326.125 278.265625 C 319.753906 258.421875 321.914062 237.152344 332.199219 218.375 C 342.46875 199.625 359.625 185.605469 380.5 178.90625 C 393.199219 174.828125 406.765625 173.738281 419.726562 175.753906 C 420.054688 175.804688 420.351562 175.972656 420.566406 176.230469 C 426.730469 183.664062 432.898438 193.617188 437.929688 204.265625 C 443.621094 216.300781 447.695312 228.828125 449.710938 240.484375 C 452.785156 258.257812 452.488281 274.707031 448.820312 289.367188 C 445.066406 304.394531 437.851562 317.214844 427.382812 327.476562 C 427.226562 327.628906 427.03125 327.746094 426.824219 327.808594 C 418.566406 330.316406 410.125 331.5625 401.765625 331.5625 Z M 328.722656 277.429688 C 334.789062 296.34375 348.222656 311.707031 366.542969 320.695312 C 384.769531 329.640625 405.769531 331.265625 425.710938 325.292969 C 435.6875 315.429688 442.574219 303.121094 446.175781 288.707031 C 449.746094 274.414062 450.03125 258.347656 447.023438 240.949219 C 442.757812 216.28125 429.835938 191.855469 418.792969 178.375 C 406.402344 176.53125 393.460938 177.609375 381.332031 181.503906 C 361.125 187.992188 344.523438 201.554688 334.589844 219.691406 C 324.667969 237.800781 322.585938 258.304688 328.722656 277.433594 Z M 328.722656 277.429688 " fill-opacity="1" fill-rule="nonzero"/><path fill="#ffffff" d="M 464.496094 241.75 C 462.542969 235.660156 457.902344 231.183594 452.304688 229.199219 L 451.402344 226.386719 C 451.402344 226.386719 440.851562 228.65625 439.726562 229.015625 C 429.371094 232.339844 423.671875 243.433594 426.996094 253.792969 C 430.320312 264.152344 441.273438 269.386719 451.765625 266.527344 C 454.652344 265.742188 463.441406 263.894531 463.441406 263.894531 L 461.886719 259.054688 C 465.285156 254.183594 466.453125 247.839844 464.5 241.75 Z M 464.496094 241.75 " fill-opacity="1" fill-rule="nonzero"/><path fill="#535a63" d="M 446.007812 268.671875 C 442.550781 268.671875 439.15625 267.882812 436.082031 266.335938 C 431.089844 263.824219 427.402344 259.519531 425.699219 254.210938 C 422.152344 243.152344 428.253906 231.269531 439.308594 227.71875 C 440.464844 227.347656 450.027344 225.285156 451.113281 225.050781 C 451.800781 224.902344 452.488281 225.300781 452.699219 225.96875 L 453.402344 228.152344 C 459.339844 230.46875 463.839844 235.238281 465.792969 241.332031 C 467.75 247.429688 466.871094 253.925781 463.386719 259.265625 L 464.738281 263.476562 C 464.855469 263.847656 464.8125 264.246094 464.617188 264.582031 C 464.425781 264.914062 464.097656 265.152344 463.71875 265.230469 C 463.632812 265.25 454.9375 267.074219 452.125 267.84375 C 450.097656 268.394531 448.042969 268.667969 446.003906 268.667969 Z M 450.480469 227.980469 C 446.421875 228.859375 440.84375 230.09375 440.144531 230.316406 C 430.523438 233.40625 425.207031 243.75 428.296875 253.375 C 429.773438 257.980469 432.972656 261.71875 437.308594 263.898438 C 441.59375 266.054688 446.601562 266.523438 451.40625 265.210938 C 453.601562 264.613281 459.03125 263.4375 461.675781 262.875 L 460.585938 259.472656 C 460.453125 259.066406 460.523438 258.621094 460.765625 258.273438 C 464.074219 253.53125 464.960938 247.660156 463.195312 242.167969 C 461.433594 236.675781 457.296875 232.417969 451.851562 230.488281 C 451.449219 230.347656 451.140625 230.023438 451.007812 229.621094 L 450.484375 227.980469 Z M 450.480469 227.980469 " fill-opacity="1" fill-rule="nonzero"/><path fill="#ffffff" d="M 477.113281 245.140625 C 477.113281 245.785156 477.082031 246.429688 477.019531 247.070312 C 476.957031 247.714844 476.859375 248.351562 476.734375 248.984375 C 476.609375 249.617188 476.453125 250.242188 476.265625 250.859375 C 476.078125 251.476562 475.863281 252.082031 475.613281 252.679688 C 475.367188 253.273438 475.09375 253.855469 474.789062 254.425781 C 474.484375 254.996094 474.152344 255.546875 473.796875 256.082031 C 473.4375 256.621094 473.054688 257.136719 472.644531 257.636719 C 472.234375 258.136719 471.800781 258.613281 471.347656 259.070312 C 470.890625 259.523438 470.414062 259.957031 469.914062 260.367188 C 469.417969 260.777344 468.898438 261.160156 468.363281 261.519531 C 467.828125 261.875 467.273438 262.207031 466.707031 262.511719 C 466.136719 262.816406 465.554688 263.089844 464.957031 263.339844 C 464.363281 263.585938 463.757812 263.800781 463.140625 263.988281 C 462.523438 264.175781 461.898438 264.332031 461.265625 264.460938 C 460.632812 264.585938 459.996094 264.679688 459.351562 264.742188 C 458.710938 264.804688 458.066406 264.835938 457.421875 264.835938 C 456.777344 264.835938 456.136719 264.804688 455.492188 264.742188 C 454.851562 264.679688 454.214844 264.585938 453.582031 264.460938 C 452.949219 264.332031 452.324219 264.175781 451.707031 263.988281 C 451.089844 263.800781 450.484375 263.585938 449.886719 263.339844 C 449.292969 263.089844 448.710938 262.816406 448.140625 262.511719 C 447.570312 262.207031 447.019531 261.875 446.484375 261.519531 C 445.945312 261.160156 445.429688 260.777344 444.929688 260.367188 C 444.433594 259.957031 443.957031 259.523438 443.5 259.070312 C 443.042969 258.613281 442.609375 258.136719 442.203125 257.636719 C 441.792969 257.136719 441.410156 256.621094 441.050781 256.082031 C 440.691406 255.546875 440.363281 254.996094 440.058594 254.425781 C 439.753906 253.855469 439.476562 253.273438 439.230469 252.679688 C 438.984375 252.082031 438.765625 251.476562 438.582031 250.859375 C 438.394531 250.242188 438.238281 249.617188 438.109375 248.984375 C 437.984375 248.351562 437.890625 247.714844 437.828125 247.070312 C 437.765625 246.429688 437.730469 245.785156 437.730469 245.140625 C 437.730469 244.496094 437.765625 243.851562 437.828125 243.210938 C 437.890625 242.566406 437.984375 241.929688 438.109375 241.296875 C 438.238281 240.664062 438.394531 240.039062 438.582031 239.421875 C 438.765625 238.804688 438.984375 238.199219 439.230469 237.601562 C 439.476562 237.007812 439.753906 236.425781 440.058594 235.855469 C 440.363281 235.285156 440.691406 234.734375 441.050781 234.199219 C 441.410156 233.660156 441.792969 233.144531 442.203125 232.644531 C 442.609375 232.144531 443.042969 231.667969 443.5 231.210938 C 443.957031 230.757812 444.433594 230.324219 444.929688 229.914062 C 445.429688 229.503906 445.949219 229.121094 446.484375 228.761719 C 447.019531 228.40625 447.570312 228.074219 448.140625 227.769531 C 448.710938 227.464844 449.292969 227.191406 449.886719 226.941406 C 450.484375 226.695312 451.089844 226.480469 451.707031 226.292969 C 452.324219 226.105469 452.949219 225.949219 453.582031 225.820312 C 454.214844 225.695312 454.851562 225.601562 455.492188 225.539062 C 456.136719 225.476562 456.777344 225.445312 457.421875 225.445312 C 458.066406 225.445312 458.710938 225.476562 459.351562 225.539062 C 459.996094 225.601562 460.632812 225.695312 461.265625 225.820312 C 461.898438 225.949219 462.523438 226.105469 463.140625 226.292969 C 463.757812 226.480469 464.363281 226.695312 464.957031 226.941406 C 465.554688 227.191406 466.136719 227.464844 466.703125 227.769531 C 467.273438 228.074219 467.828125 228.40625 468.363281 228.761719 C 468.898438 229.121094 469.417969 229.503906 469.914062 229.914062 C 470.414062 230.324219 470.890625 230.757812 471.347656 231.210938 C 471.800781 231.667969 472.234375 232.144531 472.644531 232.644531 C 473.054688 233.144531 473.4375 233.660156 473.796875 234.199219 C 474.152344 234.734375 474.484375 235.285156 474.789062 235.855469 C 475.09375 236.425781 475.367188 237.007812 475.613281 237.601562 C 475.863281 238.199219 476.078125 238.804688 476.265625 239.421875 C 476.453125 240.039062 476.609375 240.664062 476.734375 241.296875 C 476.859375 241.929688 476.957031 242.566406 477.019531 243.210938 C 477.082031 243.851562 477.113281 244.496094 477.113281 245.140625 Z M 477.113281 245.140625 " fill-opacity="1" fill-rule="nonzero"/><path fill="#535a63" d="M 457.398438 266.214844 C 454.097656 266.214844 450.820312 265.429688 447.796875 263.875 C 442.792969 261.304688 439.089844 256.9375 437.371094 251.582031 C 433.824219 240.523438 439.929688 228.640625 450.984375 225.089844 C 462.039062 221.539062 473.917969 227.644531 477.46875 238.703125 C 479.1875 244.058594 478.71875 249.765625 476.148438 254.769531 C 473.578125 259.773438 469.210938 263.476562 463.855469 265.199219 C 461.738281 265.878906 459.5625 266.214844 457.398438 266.214844 Z M 457.410156 226.808594 C 455.554688 226.808594 453.675781 227.09375 451.820312 227.6875 C 442.199219 230.777344 436.882812 241.121094 439.972656 250.746094 C 441.46875 255.410156 444.691406 259.210938 449.046875 261.449219 C 453.398438 263.6875 458.363281 264.097656 463.023438 262.597656 C 467.6875 261.101562 471.484375 257.878906 473.722656 253.523438 C 475.960938 249.167969 476.371094 244.203125 474.875 239.539062 C 472.378906 231.769531 465.160156 226.808594 457.410156 226.808594 Z M 457.410156 226.808594 " fill-opacity="1" fill-rule="nonzero"/><path fill="#becee2" d="M 201.796875 318.402344 C 201.796875 318.402344 201.203125 330.417969 201.644531 338.425781 C 202.082031 346.433594 203.609375 353.046875 203.609375 353.046875 L 227.183594 360.808594 C 230.222656 345.859375 235.375 331.886719 243.351562 319.21875 C 243.351562 319.21875 218.699219 311.015625 216.546875 310.347656 C 214.390625 309.675781 207.625 299.5 201.371094 300.167969 C 195.117188 300.839844 177.023438 308.433594 175.011719 309.777344 C 173 311.117188 179.253906 319.832031 183.722656 319.609375 C 188.191406 319.382812 196.902344 316.253906 198.46875 316.253906 C 200.03125 316.253906 206.507812 323.183594 209.414062 323.183594 " fill-opacity="1" fill-rule="nonzero"/><path fill="#535a63" d="M 227.183594 362.171875 C 227.039062 362.171875 226.894531 362.152344 226.757812 362.105469 L 203.183594 354.34375 C 202.730469 354.191406 202.390625 353.816406 202.28125 353.355469 C 202.21875 353.078125 200.722656 346.535156 200.277344 338.503906 C 199.902344 331.628906 200.285156 321.742188 200.402344 319.039062 C 199.566406 318.386719 198.753906 317.777344 198.378906 317.625 C 197.785156 317.6875 195.886719 318.226562 194.339844 318.660156 C 190.914062 319.625 186.644531 320.828125 183.789062 320.96875 C 183.710938 320.972656 183.632812 320.976562 183.550781 320.976562 C 181.039062 320.976562 178.632812 319.011719 177.402344 317.8125 C 175.585938 316.046875 174.101562 313.863281 173.523438 312.121094 C 172.820312 309.984375 173.675781 309.023438 174.253906 308.636719 C 176.4375 307.179688 194.660156 299.511719 201.222656 298.808594 C 206.152344 298.277344 210.824219 303.046875 214.238281 306.527344 C 215.261719 307.570312 216.53125 308.871094 216.96875 309.050781 C 219.089844 309.710938 242.777344 317.585938 243.785156 317.921875 C 244.183594 318.054688 244.496094 318.359375 244.636719 318.757812 C 244.78125 319.152344 244.730469 319.589844 244.507812 319.945312 C 236.933594 331.980469 231.703125 345.433594 228.519531 361.082031 C 228.441406 361.464844 228.207031 361.792969 227.867188 361.992188 C 227.65625 362.113281 227.417969 362.175781 227.183594 362.175781 Z M 204.777344 351.996094 L 226.160156 359.039062 C 229.300781 344.332031 234.261719 331.515625 241.285156 319.96875 C 235.738281 318.125 217.929688 312.210938 216.140625 311.652344 C 215.171875 311.351562 214.15625 310.34375 212.289062 308.441406 C 209.4375 305.53125 205.121094 301.132812 201.515625 301.523438 C 195.816406 302.136719 178.835938 309.132812 175.992188 310.773438 C 176.058594 311.433594 176.863281 313.183594 178.546875 315.0625 C 180.292969 317.011719 182.242188 318.246094 183.558594 318.246094 C 183.589844 318.246094 183.625 318.246094 183.660156 318.246094 C 186.210938 318.117188 190.484375 316.914062 193.609375 316.035156 C 196.273438 315.285156 197.699219 314.890625 198.46875 314.890625 C 199.457031 314.890625 200.570312 315.675781 202.613281 317.308594 C 202.640625 317.328125 202.664062 317.347656 202.6875 317.367188 C 202.886719 317.523438 203.089844 317.691406 203.308594 317.867188 C 205.144531 319.34375 208.222656 321.820312 209.414062 321.820312 C 210.167969 321.820312 210.78125 322.429688 210.78125 323.183594 C 210.78125 323.9375 210.167969 324.546875 209.414062 324.546875 C 207.71875 324.546875 205.660156 323.1875 203.050781 321.148438 C 202.90625 325.140625 202.703125 332.777344 203.007812 338.355469 C 203.351562 344.617188 204.382812 350.066406 204.785156 351.996094 Z M 204.777344 351.996094 " fill-opacity="1" fill-rule="nonzero"/></svg>